<svg width="23" height="30" viewBox="0 0 23 30" fill="none" xmlns="http://www.w3.org/2000/svg">
<g clip-path="url(#clip0_2724_47703)">
<path d="M0.01 14.5C0.01 10.09 0.02 5.68 0 1.28C0 0.44 0.5 0 1.29 0C6.92 0.02 12.56 0.01 18.19 0C18.62 0 18.95 0.13 19.26 0.44C20.23 1.43 21.21 2.41 22.2 3.38C22.48 3.66 22.61 3.97 22.61 4.37C22.61 12.2 22.61 20.03 22.61 27.86C22.61 28.63 22.21 29.03 21.44 29.03C14.69 29.03 7.95 29.03 1.2 29.03C0.41 29.03 0.02 28.63 0.02 27.84C0.02 23.39 0.02 18.95 0.02 14.5H0.01ZM21.64 12.48V4.46C20.75 4.46 19.88 4.46 19.02 4.46C18.45 4.46 18.16 4.16 18.16 3.59C18.16 3.06 18.16 2.54 18.16 2.01C18.16 1.66 18.16 1.32 18.16 0.97H11.8V12.48H21.65H21.64ZM10.82 12.48V0.96C10.75 0.96 10.71 0.96 10.66 0.96C7.51 0.96 4.37 0.96 1.22 0.96C0.95 0.96 0.95 1.09 0.95 1.28C0.95 4.91 0.95 8.55 0.95 12.18C0.95 12.28 0.95 12.38 0.95 12.49H10.82V12.48ZM0.96 15.59H10.82V13.44H0.96V15.59ZM21.66 13.44H11.8V15.59H21.66V13.44ZM0.96 24.95H10.82V22.8H0.96V24.95ZM21.65 24.96V22.8H11.8V24.96H21.65ZM10.83 16.57H0.97V18.7H10.83V16.57ZM11.8 16.56V18.71H21.65V16.56H11.8ZM0.96 21.83H10.82V19.69H0.96V21.83ZM11.8 19.69V21.84H21.65V19.69H11.8ZM10.82 28.1V25.94H0.95C0.95 26.56 0.96 27.15 0.95 27.74C0.95 28.02 1.02 28.1 1.3 28.1C4.38 28.09 7.45 28.1 10.53 28.1C10.62 28.1 10.72 28.1 10.82 28.1ZM11.79 28.1C11.93 28.1 12.05 28.1 12.16 28.1H20.87C21.4033 28.1 21.67 27.8333 21.67 27.3V25.94H11.79V28.1ZM19.11 1.7V3.5H20.91C20.31 2.9 19.71 2.3 19.11 1.7Z" fill="#9B0077"/>
<path d="M16.6999 7.98001C15.7999 7.98001 14.9099 7.98001 14.0099 7.98001C13.2099 7.98001 12.6499 7.46001 12.6499 6.73001C12.6499 5.99001 13.2099 5.46001 14.0199 5.45001C15.8499 5.45001 17.6799 5.45001 19.5099 5.45001C20.1599 5.45001 20.6899 5.91001 20.7699 6.53001C20.8599 7.17001 20.4699 7.77001 19.8499 7.93001C19.6999 7.97001 19.5399 7.97001 19.3899 7.97001C18.4899 7.97001 17.5999 7.97001 16.6999 7.97001V7.98001ZM16.7199 7.04001C17.6199 7.04001 18.5099 7.04001 19.4099 7.04001C19.7099 7.04001 19.8699 6.92001 19.8499 6.71001C19.8299 6.44001 19.6399 6.39001 19.4099 6.39001C18.8699 6.39001 18.3399 6.39001 17.7999 6.39001C16.5399 6.39001 15.2899 6.39001 14.0299 6.39001C13.8299 6.39001 13.6599 6.43001 13.5899 6.65001C13.5299 6.87001 13.6999 7.05001 13.9899 7.05001C14.8999 7.05001 15.7999 7.05001 16.7099 7.05001L16.7199 7.04001Z" fill="#9B0077"/>
<path d="M7.15002 7.97999C7.15002 8.49999 7.15002 8.97999 7.15002 9.45999C7.15002 10.23 6.62002 10.79 5.90002 10.79C5.17002 10.79 4.64002 10.24 4.63002 9.47999C4.63002 8.98999 4.63002 8.50999 4.63002 7.97999C4.08002 7.97999 3.56002 7.98999 3.04002 7.97999C2.08002 7.94999 1.51002 6.91999 2.00002 6.08999C2.25002 5.66999 2.63002 5.45999 3.11002 5.45999C3.61002 5.45999 4.10002 5.45999 4.64002 5.45999C4.64002 4.90999 4.63002 4.38999 4.64002 3.86999C4.66002 3.04999 5.44002 2.47999 6.23002 2.69999C6.78002 2.84999 7.14002 3.32999 7.15002 3.90999C7.15002 4.40999 7.15002 4.91999 7.15002 5.45999C7.69002 5.45999 8.20002 5.45999 8.71002 5.45999C9.31002 5.46999 9.79002 5.86999 9.92002 6.44999C10.05 6.98999 9.79002 7.57999 9.28002 7.82999C9.09002 7.91999 8.85002 7.96999 8.64002 7.97999C8.16002 7.99999 7.67002 7.97999 7.15002 7.97999ZM7.71002 7.03999C7.99002 7.03999 8.27002 7.03999 8.56002 7.03999C8.80002 7.03999 9.01002 6.99999 9.01002 6.70999C9.01002 6.42999 8.80002 6.37999 8.56002 6.37999C7.98002 6.37999 7.39002 6.37999 6.81002 6.37999C6.37002 6.37999 6.22002 6.21999 6.22002 5.77999C6.22002 5.19999 6.22002 4.60999 6.22002 4.02999C6.22002 3.73999 6.09002 3.55999 5.88002 3.58999C5.62002 3.61999 5.56002 3.79999 5.57002 4.02999C5.57002 4.58999 5.57002 5.13999 5.57002 5.69999C5.57002 6.25999 5.44002 6.39999 4.89002 6.39999C4.33002 6.39999 3.76002 6.39999 3.20002 6.39999C2.97002 6.39999 2.78002 6.45999 2.78002 6.72999C2.78002 6.99999 2.97002 7.05999 3.20002 7.05999C3.78002 7.05999 4.37002 7.05999 4.95002 7.05999C5.42002 7.05999 5.58002 7.21999 5.58002 7.69999C5.58002 8.26999 5.58002 8.84999 5.58002 9.41999C5.58002 9.71999 5.70002 9.87999 5.92002 9.85999C6.19002 9.83999 6.24002 9.64999 6.23002 9.41999C6.23002 8.83999 6.23002 8.24999 6.23002 7.66999C6.23002 7.21999 6.39002 7.05999 6.85002 7.05999C7.14002 7.05999 7.43002 7.05999 7.73002 7.05999L7.71002 7.03999Z" fill="#9B0077"/>
</g>
<defs>
<clipPath id="clip0_2724_47703">
<rect width="22.61" height="29.03" fill="white"/>
</clipPath>
</defs>
</svg>
