<svg width="30" height="22" viewBox="0 0 30 22" fill="none" xmlns="http://www.w3.org/2000/svg">
<g clip-path="url(#clip0_2724_47734)">
<path d="M29.9402 18.35C29.9102 18.42 29.8702 18.48 29.8402 18.55C29.5902 19.09 29.1502 19.32 28.5702 19.32C26.8702 19.32 25.1802 19.32 23.4802 19.32C23.3602 19.32 23.2502 19.32 23.1002 19.32C23.1002 19.44 23.1002 19.53 23.1002 19.63C23.0902 20.58 22.4402 21.24 21.4802 21.26C21.1902 21.26 20.9002 21.26 20.6002 21.26C16.5802 21.26 12.5702 21.26 8.55022 21.26C7.55022 21.26 6.94022 20.71 6.82022 19.69C6.71022 19.69 6.60022 19.69 6.49022 19.69C4.80022 19.69 3.12022 19.69 1.43022 19.69C0.500217 19.69 -0.00978288 19.19 0.000217124 18.27C0.000217124 17.33 -0.0597829 16.38 0.170217 15.45C0.860217 12.63 3.67022 10.68 6.55022 11.02C7.38022 11.12 8.17022 11.35 8.89022 11.78C9.06022 11.88 9.15022 11.84 9.28022 11.72C10.5402 10.5 12.0302 9.74999 13.7602 9.50999C16.2902 9.14999 18.5202 9.83999 20.4402 11.52C20.4902 11.56 20.5402 11.61 20.5502 11.62C21.1502 11.36 21.7102 11.05 22.3102 10.87C25.8202 9.81999 29.3602 12.11 29.8802 15.75C29.8802 15.8 29.9102 15.84 29.9302 15.88V18.34L29.9402 18.35ZM14.9602 20.28C17.0902 20.28 19.2302 20.28 21.3602 20.28C21.9302 20.28 22.1302 20.07 22.1302 19.5C22.1302 19.23 22.1302 18.96 22.1302 18.68C22.1002 17.84 22.1502 16.99 22.0002 16.18C21.2302 12.12 17.2502 9.59999 13.2402 10.58C10.2202 11.32 8.02022 13.93 7.83022 17.04C7.78022 17.86 7.81022 18.69 7.80022 19.52C7.80022 20.06 8.01022 20.28 8.56022 20.28C10.6902 20.28 12.8302 20.28 14.9602 20.28ZM23.0802 18.35H23.4502C24.4302 18.35 25.4202 18.35 26.4002 18.35C27.1202 18.35 27.8402 18.35 28.5602 18.35C28.7702 18.35 28.9602 18.31 28.9602 18.07C28.9402 17.19 29.0102 16.28 28.8302 15.42C28.3002 12.88 25.8602 11.25 23.3002 11.63C22.5802 11.74 21.9102 11.98 21.2902 12.4C22.6902 14.13 23.2302 16.12 23.0802 18.35ZM6.86022 18.69C6.68022 16.48 7.09022 14.44 8.45022 12.65C8.36022 12.6 8.32022 12.56 8.27022 12.54C5.49022 11 1.83022 12.58 1.13022 15.68C0.940217 16.5 1.00022 17.38 0.970217 18.24C0.950217 18.66 1.02022 18.72 1.44022 18.72C3.14022 18.72 4.83022 18.72 6.53022 18.72C6.62022 18.72 6.72022 18.72 6.87022 18.71L6.86022 18.69Z" fill="#9B0077"/>
<path d="M14.7998 8.85C12.3398 8.85 10.3398 6.87 10.3398 4.43C10.3498 1.98 12.3498 0 14.7998 0C17.2598 0 19.2598 1.98 19.2598 4.42C19.2598 6.86 17.2598 8.84 14.7998 8.84V8.85ZM14.7998 0.98C12.8798 0.98 11.2998 2.54 11.2998 4.43C11.2998 6.32 12.8798 7.89 14.7998 7.88C16.7198 7.88 18.2998 6.32 18.2998 4.42C18.2998 2.52 16.7298 0.97 14.7998 0.97V0.98Z" fill="#9B0077"/>
<path d="M27.49 6.49001C27.49 8.38001 25.9 9.93001 24 9.91001C22.1 9.90001 20.53 8.32001 20.55 6.44001C20.57 4.55001 22.14 3.01001 24.05 3.02001C25.96 3.02001 27.5 4.58001 27.5 6.48001L27.49 6.49001ZM24.03 8.94001C25.41 8.94001 26.54 7.82001 26.53 6.46001C26.53 5.09001 25.4 3.99001 24.01 4.00001C22.62 4.00001 21.51 5.10001 21.51 6.48001C21.51 7.85001 22.63 8.94001 24.02 8.94001H24.03Z" fill="#9B0077"/>
<path d="M5.9302 3.26999C7.83019 3.26999 9.4002 4.82999 9.4002 6.71999C9.4002 8.59999 7.8202 10.16 5.9202 10.16C4.0102 10.16 2.4502 8.60999 2.4502 6.70999C2.4502 4.81999 4.0102 3.26999 5.9202 3.26999H5.9302ZM5.9302 4.24999C4.5502 4.24999 3.4202 5.34999 3.4202 6.70999C3.4202 8.06999 4.5402 9.17999 5.9202 9.17999C7.3102 9.17999 8.4302 8.07999 8.4302 6.71999C8.4302 5.34999 7.3202 4.24999 5.9302 4.24999Z" fill="#9B0077"/>
</g>
<defs>
<clipPath id="clip0_2724_47734">
<rect width="29.94" height="21.26" fill="white"/>
</clipPath>
</defs>
</svg>
