<svg width="24" height="25" viewBox="0 0 24 25" fill="none" xmlns="http://www.w3.org/2000/svg">
<path fill-rule="evenodd" clip-rule="evenodd" d="M12 4.5C9.79 4.5 8 6.29 8 8.5C8 10.71 9.79 12.5 12 12.5C14.21 12.5 16 10.71 16 8.5C16 6.29 14.21 4.5 12 4.5ZM14 8.5C14 7.4 13.1 6.5 12 6.5C10.9 6.5 10 7.4 10 8.5C10 9.6 10.9 10.5 12 10.5C13.1 10.5 14 9.6 14 8.5ZM18 17.5C17.8 16.79 14.7 15.5 12 15.5C9.3 15.5 6.2 16.79 6 17.51V18.5H18V17.5ZM4 17.5C4 14.84 9.33 13.5 12 13.5C14.67 13.5 20 14.84 20 17.5V20.5H4V17.5Z" fill="#424242"/>
</svg>
