<svg width="67" height="65" viewBox="0 0 67 65" fill="none" xmlns="http://www.w3.org/2000/svg">
<g clip-path="url(#clip0_2159_54008)">
<path d="M66.471 2.13238C65.4966 0.729799 64.2012 0 62.4555 0C43.1786 0.0114031 23.9017 0.00651606 4.6264 0.00814508C1.86694 0.00814508 0.0131045 1.86034 0.0131045 4.61663C0.0114669 18.6783 0.0212928 32.74 3.24938e-06 46.8016C-0.00163441 48.3704 0.615764 49.553 1.83091 50.4848C2.73981 51.1804 3.78955 51.3808 4.9048 51.3808C11.7011 51.3775 18.4958 51.3792 25.292 51.3808C25.5311 51.3808 25.7702 51.3808 26.011 51.3889C26.3565 51.4003 26.5498 51.5616 26.5154 51.9151C26.3778 53.334 26.0683 54.7024 25.1774 55.8655C24.1653 57.185 22.7668 57.6346 21.152 57.6183C20.2186 57.6085 19.2786 57.5352 18.3533 57.7551C16.9629 58.0858 15.9819 58.8971 15.6528 60.2866C15.3072 61.7495 15.6855 63.025 16.9449 63.9812C17.6671 64.5286 18.4745 64.6491 19.3441 64.6491C27.6863 64.6426 36.0286 64.6459 44.3708 64.6459C45.6564 64.6459 46.9419 64.6703 48.2259 64.6361C49.6457 64.5986 50.9624 63.6082 51.38 62.3066C51.8451 60.8551 51.3554 59.2913 50.1648 58.4002C49.4181 57.8415 48.5534 57.6541 47.6478 57.6199C46.9305 57.5922 46.2099 57.6378 45.491 57.6053C44.3069 57.5531 43.2359 57.2322 42.3548 56.3639C41.1069 55.1357 40.7647 53.5702 40.5649 51.9379C40.5239 51.6007 40.6762 51.402 41.0398 51.3922C41.3018 51.384 41.5622 51.384 41.8242 51.384C48.5763 51.384 55.3284 51.3857 62.0805 51.384C64.8907 51.384 66.4776 50.0971 66.9984 47.4141V3.97806C66.8772 3.34763 66.8608 2.69765 66.4678 2.13238H66.471ZM44.9538 60.0993C45.8447 60.0993 46.7372 60.0634 47.6281 60.0586C47.8639 60.0586 48.1096 60.0765 48.3356 60.14C48.8924 60.2948 49.1528 60.6922 49.1167 61.2542C49.0824 61.7918 48.7794 62.1372 48.2422 62.2317C47.9884 62.2773 47.7215 62.2724 47.4611 62.274C42.8232 62.2756 38.187 62.274 33.5491 62.274C28.9113 62.274 24.2308 62.274 19.5733 62.274C18.4499 62.274 17.9308 61.914 17.9439 61.1516C17.957 60.4055 18.4892 60.0537 19.6143 60.0553C28.0597 60.07 36.5067 60.0879 44.9522 60.0993H44.9538ZM26.7577 57.7959C27.855 56.4682 28.4593 54.9874 28.7672 53.3861C28.8769 52.8143 28.9408 52.2328 28.9882 51.6512C29.0161 51.3075 29.1242 51.1772 29.4992 51.1788C32.1964 51.1951 34.8937 51.2016 37.5909 51.1755C38.1117 51.1706 38.0674 51.4785 38.0936 51.7929C38.2721 53.9628 38.8502 55.9893 40.3225 57.7959H26.7577ZM64.7728 46.5768C64.758 48.0495 63.8426 48.965 62.3589 48.965C43.1524 48.9682 23.9459 48.9682 4.7394 48.965C3.22128 48.965 2.31402 48.0478 2.30419 46.5312C2.296 45.3176 2.32548 44.104 2.29109 42.892C2.27799 42.4391 2.39426 42.3202 2.85772 42.3218C6.75536 42.343 10.653 42.3349 14.5506 42.3349C20.8867 42.3349 27.2245 42.3349 33.5606 42.3349C43.6863 42.3349 53.8119 42.3349 63.9376 42.3349C64.4944 42.3349 64.7728 42.6227 64.7728 43.1982C64.7728 44.3239 64.781 45.4512 64.7711 46.5768H64.7728ZM60.3364 39.3554C60.3364 39.9581 60.1546 40.0461 59.6109 40.0461C42.2271 40.0314 24.8433 40.0314 7.45791 40.0461C6.89292 40.0461 6.74225 39.9255 6.74225 39.344C6.76191 28.7261 6.76354 18.1065 6.74062 7.48859C6.74062 6.88259 6.92567 6.79951 7.46774 6.80114C16.1604 6.81743 24.8515 6.81254 33.5442 6.81254C42.2369 6.81254 50.928 6.81906 59.6207 6.79951C60.1824 6.79951 60.338 6.91354 60.3364 7.49836C60.3151 18.1163 60.3151 28.7358 60.3364 39.3538V39.3554ZM64.0424 40.0803C62.5488 40.0396 62.5488 40.0673 62.5488 38.6093C62.5488 27.8399 62.5488 17.0705 62.5488 6.30103C62.5488 4.89356 62.2491 4.59708 60.8244 4.59708C42.6349 4.59708 24.4454 4.59708 6.25587 4.59708C4.8311 4.59708 4.52977 4.89356 4.52977 6.30103C4.52977 17.3083 4.52322 28.3172 4.54615 39.3244C4.54615 39.976 4.3611 40.1015 3.75352 40.0819C2.30256 40.0363 2.30092 40.0673 2.30092 38.6321C2.30092 27.4294 2.30419 16.2266 2.29437 5.02388C2.29437 4.25825 2.41719 3.55777 2.98546 2.99902C3.54063 2.45493 4.23663 2.37022 4.97686 2.37185C11.2294 2.37999 17.4804 2.37673 23.733 2.37673H33.536C43.0115 2.37673 52.487 2.37673 61.9642 2.37673C63.9949 2.37673 64.7728 3.14726 64.7728 5.15258C64.7728 16.5508 64.7679 27.949 64.7875 39.3456C64.7875 39.9467 64.6287 40.0966 64.0391 40.0803H64.0424Z" fill="#9B0077"/>
<path d="M50.9732 30.4673C50.7325 30.2376 50.7112 30.0926 50.9699 29.8646C51.3286 29.5486 51.6545 29.1983 51.9902 28.8579C52.8369 27.9977 52.6207 27.0969 51.476 26.7467C50.5425 26.4599 49.6074 26.1732 48.6625 25.9289C48.1908 25.8067 48.027 25.6047 48.0303 25.0932C48.0565 20.3039 48.0467 15.5146 48.0483 10.7253C48.0483 9.29989 47.7667 9.01318 46.3517 9.01318C41.3405 9.01318 36.3309 9.01318 31.3196 9.01318C26.3084 9.01318 21.212 9.01318 16.1565 9.01318C14.8873 9.01318 14.5762 9.32433 14.5762 10.5722C14.5762 17.269 14.5794 23.9643 14.5811 30.6612C14.5811 30.8339 14.5729 31.0082 14.586 31.1808C14.6319 31.8552 15.0216 32.2527 15.698 32.313C15.8929 32.3309 16.0894 32.3195 16.2859 32.3195C24.4545 32.3195 32.6248 32.3211 40.7935 32.3146C41.1931 32.3146 41.4633 32.3309 41.5828 32.8245C41.8285 33.8312 42.1495 34.8201 42.4655 35.8072C42.7931 36.8319 43.7003 37.0583 44.4831 36.322C44.8467 35.9799 45.2283 35.6476 45.5378 35.2583C45.8702 34.8396 46.0766 34.9487 46.3894 35.2811C47.0575 35.9929 47.7634 36.6722 48.4627 37.3548C49.1439 38.0211 49.7089 38.0308 50.3787 37.376C51.3269 36.4507 52.2669 35.5156 53.1971 34.5724C53.8719 33.8883 53.8702 33.3507 53.1971 32.6649C52.4651 31.922 51.7282 31.1825 50.9748 30.4624L50.9732 30.4673ZM16.7936 13.9165C16.8476 13.2063 16.8361 12.4862 16.7968 11.7744C16.7723 11.3362 16.9229 11.2482 17.3373 11.2498C21.9964 11.2645 26.6556 11.2596 31.3147 11.2596C35.9739 11.2596 40.5036 11.2677 45.0973 11.2482C45.6361 11.2466 45.8784 11.3215 45.8211 11.934C45.7556 12.6426 45.7802 13.3627 45.8146 14.0762C45.8359 14.4965 45.677 14.5779 45.2905 14.5763C43.2009 14.56 41.1096 14.5681 39.0199 14.5681C31.8355 14.5681 24.6494 14.5616 17.465 14.5812C16.9262 14.5812 16.751 14.4688 16.7936 13.9182V13.9165ZM41.2848 23.6906C41.2226 23.6727 41.1636 23.6417 41.1014 23.6255C40.5364 23.474 39.9665 23.2606 39.4522 23.7607C38.9364 24.264 39.1313 24.8326 39.2983 25.3929C39.765 26.9535 40.24 28.5125 40.7231 30.1089H40.086C32.5479 30.1089 25.0097 30.1024 17.4732 30.122C16.9475 30.122 16.7887 30.0259 16.7919 29.4671C16.8198 25.4369 16.8181 21.4051 16.7919 17.3749C16.7887 16.8716 16.9328 16.7836 17.4044 16.7836C26.6637 16.7983 35.9214 16.7983 45.1808 16.7836C45.6852 16.7836 45.8342 16.8992 45.8277 17.4173C45.7982 19.9308 45.8146 22.4444 45.8146 25.0329C44.2801 24.5784 42.7816 24.1353 41.2848 23.6906ZM50.6326 34.0055C50.2068 34.3656 49.8334 35.0286 49.3994 35.0628C49.0424 35.0905 48.6281 34.39 48.2416 34.0088C47.9009 33.6732 47.5669 33.3344 47.2246 32.9988C46.3271 32.1191 45.5787 32.111 44.6977 32.9825C44.529 33.1487 44.3963 33.3523 44.1523 33.6586C43.3925 31.1189 42.6866 28.7585 41.9399 26.2628C44.3898 26.9796 46.7841 27.6801 49.3912 28.4441C49.0489 28.7243 48.8033 28.8921 48.6002 29.1006C47.8698 29.8434 47.8731 30.482 48.6117 31.2362C49.2799 31.9188 49.9447 32.6062 50.6473 33.2513C50.9781 33.5559 50.9486 33.7384 50.6326 34.0055Z" fill="#9B0077"/>
<path d="M36.7381 44.5405C35.6933 44.5274 34.6485 44.5372 33.6053 44.5372C32.5179 44.5372 31.4288 44.5274 30.3414 44.5405C29.5717 44.5502 29.0837 44.9998 29.0919 45.6531C29.1001 46.2737 29.5783 46.7396 30.307 46.7445C32.4606 46.7608 34.6157 46.7608 36.7693 46.7445C37.498 46.7396 37.9762 46.2754 37.986 45.6531C37.9959 44.9982 37.5078 44.5486 36.7381 44.5388V44.5405Z" fill="#9B0077"/>
<path d="M28.8256 21.2409C27.4106 21.2295 25.9957 21.2377 24.5807 21.2377C23.1871 21.2377 21.7951 21.2295 20.4014 21.2409C19.4483 21.2491 19.0422 21.6449 19.034 22.5751C19.0225 23.8962 19.0225 25.2157 19.034 26.5369C19.0422 27.4638 19.4631 27.8873 20.3998 27.8906C23.2067 27.9004 26.0153 27.9004 28.8223 27.8906C29.7607 27.8873 30.1684 27.4801 30.1783 26.5401C30.1914 25.219 30.1914 23.8979 30.1783 22.5784C30.1684 21.6254 29.7836 21.2475 28.8239 21.2409H28.8256ZM27.8512 25.566C27.5154 25.9178 26.7834 25.6539 26.225 25.6735C25.6829 25.693 25.1392 25.6784 24.5955 25.6784C23.6407 25.6784 22.6843 25.6637 21.7296 25.6865C21.366 25.6947 21.2154 25.6002 21.2547 25.2206C21.3136 24.6472 21.0156 23.9028 21.384 23.546C21.6673 23.2723 22.4125 23.4597 22.9529 23.458C24.4514 23.4531 25.9498 23.4694 27.4483 23.4466C27.8364 23.4401 28.0002 23.5199 27.9576 23.9386C27.9003 24.4925 28.182 25.2174 27.8512 25.5643V25.566Z" fill="#9B0077"/>
</g>
<defs>
<clipPath id="clip0_2159_54008">
<rect width="67" height="64.6491" fill="white"/>
</clipPath>
</defs>
</svg>
