<svg width="67" height="53" viewBox="0 0 67 53" fill="none" xmlns="http://www.w3.org/2000/svg">
<path d="M29.9278 6.5506L17.8505 28.5607L10.8763 30.3948C11.6701 28.9497 12.5773 27.7269 13.5979 26.7265C14.7319 25.726 15.9226 25.2258 17.1701 25.2258C20.1185 25.2258 22.7835 26.4486 25.1649 28.8941C27.6597 31.3397 28.9072 34.3967 28.9072 38.065C28.9072 41.9557 27.5463 45.3461 24.8247 48.2363C22.103 51.0154 18.7577 52.4049 14.7886 52.4049C10.933 52.4049 7.58761 51.0154 4.75257 48.2363C1.91752 45.4573 0.5 42.0668 0.5 38.065C0.5 36.5087 0.840206 34.6746 1.52062 32.5625C2.20103 30.3393 3.44845 27.5602 5.26288 24.2253L18.3608 0.547852L29.9278 6.5506ZM66.4999 6.5506L54.4226 28.5607L47.4484 30.3948C48.2422 28.9497 49.1494 27.7269 50.17 26.7265C51.1906 25.726 52.3813 25.2258 53.7422 25.2258C56.6906 25.2258 59.3555 26.4486 61.737 28.8941C64.2318 31.3397 65.4792 34.3967 65.4792 38.065C65.4792 41.9557 64.0617 45.3461 61.2267 48.2363C58.505 51.0154 55.1597 52.4049 51.1906 52.4049C47.4484 52.4049 44.1597 51.0154 41.3247 48.2363C38.4896 45.4573 37.0721 42.0668 37.0721 38.065C37.0721 36.5087 37.4123 34.6746 38.0927 32.5625C38.7731 30.3393 40.0205 27.5602 41.835 24.2253L54.9329 0.547852L66.4999 6.5506Z" fill="url(#paint0_linear_1837_47824)"/>
<defs>
<linearGradient id="paint0_linear_1837_47824" x1="15.1215" y1="-59.751" x2="98.6509" y2="-16.5695" gradientUnits="userSpaceOnUse">
<stop stop-color="#3C3540"/>
<stop offset="0.345472" stop-color="#161E2E"/>
<stop offset="1" stop-color="#990076"/>
</linearGradient>
</defs>
</svg>
