<svg width="73" height="51" viewBox="0 0 73 51" fill="none" xmlns="http://www.w3.org/2000/svg">
<g clip-path="url(#clip0_2159_56746)">
<path d="M72.3365 44.0205C72.2577 44.1781 72.1632 44.3356 72.0923 44.501C71.4857 45.793 70.4458 46.3444 69.0594 46.3444C64.9945 46.3444 60.9217 46.3444 56.8569 46.3444C56.5811 46.3444 56.3054 46.3444 55.9352 46.3444C55.9352 46.6359 55.9352 46.8565 55.9352 47.0849C55.9037 49.3694 54.3439 50.945 52.0515 51.0001C51.3504 51.0159 50.6493 51.0001 49.9481 51.0001C40.3138 51.0001 30.6794 51.0001 21.0529 51.0001C18.6581 51.0001 17.1928 49.6924 16.8935 47.2346C16.6335 47.2346 16.3657 47.2346 16.0899 47.2346C12.0487 47.2346 7.99958 47.2346 3.95834 47.2346C1.72896 47.2346 0.507924 46.0293 0.523679 43.8236C0.547312 41.5627 0.374004 39.2939 0.92544 37.0567C2.57975 30.2897 9.32303 25.6183 16.2396 26.4376C18.2405 26.6739 20.1233 27.2411 21.8564 28.2731C22.2739 28.5251 22.4866 28.4227 22.8017 28.1234C25.811 25.2086 29.3953 23.4047 33.5468 22.8217C39.6205 21.963 44.9616 23.6252 49.5779 27.6507C49.6803 27.7452 49.7827 27.8398 49.893 27.9343C49.9088 27.9501 49.9324 27.9579 49.8379 27.9028C51.2952 27.2726 52.6344 26.5321 54.0682 26.1067C62.4973 23.578 70.9815 29.0845 72.2262 37.8287C72.2419 37.9389 72.305 38.0414 72.3443 38.1438C72.3443 40.1053 72.3443 42.0747 72.3443 44.0363L72.3365 44.0205ZM36.3749 48.6604C41.5663 48.6604 46.7577 48.6604 51.9412 48.6604C53.0362 48.6604 53.5876 48.1326 53.6191 47.0455C53.6428 46.2972 53.6113 45.5488 53.6191 44.8083C53.6349 42.3583 53.7058 39.9005 53.0283 37.4978C50.4444 28.2494 40.8573 22.9162 31.6247 25.5868C24.6057 27.6192 19.7215 33.6535 19.2804 40.9325C19.1622 42.8861 19.2331 44.8555 19.2174 46.8171C19.2095 48.1642 19.7137 48.6683 21.0844 48.6683C26.1812 48.6683 31.2781 48.6683 36.3749 48.6683V48.6604ZM55.8879 44.0284H56.7623C59.0311 44.0284 61.2999 44.0284 63.5686 44.0284C65.3884 44.0284 67.216 44.0284 69.0357 44.0284C69.5714 44.0284 70.0204 43.8945 69.9968 43.2879C69.9338 41.2161 70.1071 39.0812 69.6974 37.0803C68.4528 30.9751 62.5839 27.0205 56.4 27.9186C54.6747 28.1706 53.0598 28.7457 51.5788 29.7541C54.9347 33.9135 56.2345 38.6716 55.88 44.0284H55.8879ZM20.785 30.3685C20.596 30.2425 20.462 30.1479 20.3203 30.0692C13.6636 26.3824 4.87215 30.211 3.20996 37.6475C2.76881 39.6248 2.91061 41.7281 2.82396 43.7763C2.78457 44.7531 2.96576 44.8949 3.9741 44.8949C8.03897 44.8949 12.1117 44.8949 16.1766 44.8949C16.4051 44.8949 16.6256 44.8713 16.9644 44.8477C16.5468 39.5539 17.5158 34.654 20.7772 30.3685H20.785Z" fill="white"/>
<path d="M35.9889 21.2225C30.0412 21.191 25.2831 16.425 25.3225 10.5167C25.354 4.71876 30.1751 -0.0157161 36.0361 3.92092e-05C41.9365 0.0157945 46.7261 4.78966 46.7104 10.6428C46.6946 16.4959 41.8735 21.254 35.9889 21.2303V21.2225ZM35.9967 2.33971C31.3883 2.33971 27.5992 6.08947 27.6149 10.6349C27.6307 15.1803 31.4277 18.9143 36.0283 18.9064C40.6367 18.9064 44.4101 15.1567 44.4022 10.6034C44.4022 6.04221 40.6209 2.33971 35.9967 2.33971Z" fill="white"/>
<path d="M66.4518 15.5347C66.4518 20.0722 62.6942 23.7983 58.1251 23.7983C53.5639 23.7983 49.7827 20.0407 49.7905 15.5268C49.7905 11.005 53.5718 7.271 58.133 7.271C62.7178 7.271 66.4518 10.9893 66.4518 15.5347ZM58.1645 9.61066C54.8322 9.59491 52.1381 12.2182 52.1223 15.4953C52.1066 18.7881 54.7613 21.435 58.0936 21.4508C61.418 21.4665 64.1121 18.8433 64.1436 15.5583C64.1752 12.3048 61.481 9.61854 58.1645 9.60278V9.61066Z" fill="white"/>
<path d="M6.38478 16.1257C6.3769 11.5724 10.103 7.85418 14.68 7.83843C19.249 7.82267 23.0224 11.5409 23.046 16.0706C23.0697 20.5845 19.2963 24.35 14.7351 24.3579C10.1582 24.3658 6.39266 20.6554 6.38478 16.1179V16.1257ZM14.6957 22.0182C18.028 22.0182 20.7064 19.395 20.7142 16.11C20.7142 12.8171 18.0516 10.1781 14.7272 10.1781C11.4029 10.1781 8.70869 12.8092 8.69293 16.0863C8.67718 19.3398 11.3792 22.0182 14.6957 22.0261V22.0182Z" fill="white"/>
</g>
<defs>
<clipPath id="clip0_2159_56746">
<rect width="71.8364" height="51" fill="white" transform="translate(0.5)"/>
</clipPath>
</defs>
</svg>
