<svg width="40" height="30" viewBox="0 0 40 30" fill="none" xmlns="http://www.w3.org/2000/svg">
<g clip-path="url(#clip0_2724_47676)">
<path d="M2.64458e-05 20.251C0.330277 19.2999 1.03041 18.9564 2.00795 18.996C2.89303 19.0357 3.7781 18.996 4.71601 18.996C4.71601 18.8375 4.72922 18.7054 4.72922 18.5733C4.72922 17.4769 4.72922 16.3804 4.72922 15.284C4.72922 14.3989 4.94058 14.1876 5.81244 14.1876C10.0529 14.1876 14.2801 14.1876 18.5205 14.1876H18.9961V10.9643C18.864 10.9643 18.7187 10.9643 18.5866 10.9643C17.7015 10.9643 16.8032 10.9643 15.9181 10.9643C14.9406 10.9643 14.2933 10.317 14.2933 9.33949C14.2933 6.76354 14.2933 4.18758 14.2933 1.61162C14.2933 0.620868 14.9274 -0.0132141 15.9181 -0.0132141C18.4941 -0.0132141 21.07 -0.0132141 23.646 -0.0132141C24.6368 -0.0132141 25.2708 0.620868 25.2708 1.61162C25.2708 4.16116 25.2708 6.7107 25.2708 9.26023C25.2708 10.2642 24.6235 10.8851 23.6196 10.8983C22.6156 10.8983 21.6117 10.8983 20.5813 10.8983V14.1876C20.7398 14.1876 20.8851 14.1876 21.0436 14.1876C25.218 14.1876 29.3924 14.1876 33.5535 14.1876C33.6724 14.1876 33.7913 14.1876 33.897 14.1876C34.5707 14.1876 34.8217 14.4386 34.8349 15.1255C34.8349 16.2616 34.8349 17.3976 34.8349 18.5205C34.8349 18.6658 34.8349 18.7979 34.8349 18.996C35.0066 18.996 35.1387 18.996 35.2708 18.996C36.1559 18.996 37.0542 18.996 37.9393 18.996C38.864 19.0092 39.5509 19.683 39.5641 20.6077C39.5641 23.1968 39.5641 25.786 39.5641 28.3752C39.5641 29.3131 38.9168 29.9604 37.9921 29.9736C35.3765 29.9868 32.7609 29.9736 30.1453 29.9736C29.2338 29.9736 28.5998 29.3527 28.5866 28.4412C28.5733 25.7992 28.5733 23.1572 28.5866 20.5284C28.5866 19.6301 29.2471 19.0225 30.1453 19.0092C31.1757 18.996 32.2061 19.0092 33.2629 19.0092V15.7464H20.5681V19.0092C20.6869 19.0092 20.8058 19.0092 20.9247 19.0092C21.8098 19.0092 22.7081 19.0092 23.5932 19.0092C24.6235 19.0092 25.2708 19.6433 25.2708 20.6605C25.2708 23.2232 25.2708 25.786 25.2708 28.3487C25.2708 29.3527 24.6368 29.9868 23.6196 29.9868C21.0568 29.9868 18.4941 29.9868 15.9313 29.9868C14.9274 29.9868 14.2933 29.3527 14.2933 28.3355C14.2933 25.7728 14.2933 23.21 14.2933 20.6473C14.2933 19.6433 14.9406 19.0092 15.9445 19.0092C16.9353 19.0092 17.9261 19.0092 18.9168 19.0092C18.9168 19.0092 18.9432 19.0092 18.9829 18.996V15.7596H6.2748V19.0225C6.4069 19.0225 6.539 19.0225 6.6711 19.0225C7.54296 19.0225 8.42803 19.0225 9.2999 19.0225C10.3303 19.0225 10.9644 19.6433 10.9776 20.6737C10.9776 23.2365 10.9776 25.7992 10.9776 28.362C10.9776 29.3791 10.3435 30 9.32631 30C6.77678 30 4.22724 30 1.6777 30C0.792629 30 0.277437 29.5376 -0.0131836 28.745V20.251H2.64458e-05ZM1.55881 20.5944V28.4412H9.44521V20.5944H1.55881ZM30.1057 28.3355H37.9921V20.568H30.1057V28.3355ZM15.8257 28.4544H23.712V20.6077H15.8257V28.4544ZM15.8257 1.55878V9.32628C18.4677 9.37912 21.0833 9.41876 23.6988 9.47159V1.54557H15.8257V1.55878Z" fill="#9B0077"/>
</g>
<defs>
<clipPath id="clip0_2724_47676">
<rect width="39.5509" height="30" fill="white"/>
</clipPath>
</defs>
</svg>
