<svg width="60" height="56" viewBox="0 0 60 56" fill="none" xmlns="http://www.w3.org/2000/svg">
<g clip-path="url(#clip0_2159_53727)">
<path d="M-0.000699752 25.5533C0.13718 24.8195 0.246201 24.0784 0.419352 23.3555C1.11035 20.4492 2.50839 17.9855 4.17576 15.6911C4.34892 15.4544 4.51886 15.2031 4.6359 14.9281C6.85319 9.76024 10.4942 6.59179 15.3729 5.32259C17.3144 4.81636 19.0828 3.86036 20.9329 3.12106C24.8721 1.54594 28.9011 0.65549 33.1 0.901319C38.0011 1.18903 42.4453 2.99541 46.5047 6.07282C50.1634 8.84613 53.1646 12.4152 55.9431 16.2465C56.3888 16.862 56.8842 17.4319 57.3251 18.051C58.954 20.3363 59.9817 22.8984 59.9977 25.8902C60.0121 28.4723 59.2089 30.7412 57.8638 32.788C57.7596 32.9446 57.6569 33.103 57.5399 33.2796C59.2426 35.7252 59.4173 38.4165 58.3944 41.1789C57.9247 42.4445 57.2609 43.6718 56.4882 44.7316C54.2581 47.789 51.3049 49.5717 47.9589 50.5696C47.7521 50.6315 47.542 50.6843 47.3336 50.7426C47.3176 50.748 47.3032 50.7699 47.2262 50.8427C47.3561 51.48 47.4907 52.1611 47.6334 52.8403C48.023 54.6795 47.231 55.843 45.5636 55.8558C44.451 55.8649 43.3367 55.8449 42.2241 55.8613C41.4513 55.874 40.8405 55.5699 40.321 54.9016C38.6649 52.7747 36.975 50.6825 35.3157 48.5611C35.0351 48.2042 34.7529 48.0457 34.3201 48.0293C32.8274 47.9711 31.3653 47.7052 30.0346 46.8658C29.7123 46.6618 29.3275 46.4743 29.1271 46.1556C28.5804 45.287 27.9103 45.4053 27.1215 45.562C24.9427 45.9917 22.7654 45.9844 20.6524 45.0994C18.6884 44.2782 17.2182 42.7759 16.128 40.771C16.027 40.5835 15.9244 40.3977 15.8105 40.192C15.0057 40.4924 14.2233 40.822 13.4233 41.0751C11.9964 41.5249 10.5471 41.6742 9.0785 41.3355C7.15139 40.8894 5.63953 39.7021 4.46916 37.9413C3.68196 36.7577 2.92042 35.5504 2.18453 34.3249C1.09432 32.5076 0.337586 30.53 0.0938919 28.3267C0.0794627 28.1974 0.029762 28.0754 -0.00390625 27.9497C-0.00390625 27.1503 -0.00390625 26.3527 -0.00390625 25.5533H-0.000699752ZM43.4602 51.4728C43.3415 50.8864 43.2261 50.3256 43.1139 49.7665C42.7804 48.1131 43.4634 47.0369 44.9336 46.8421C47.5228 46.4979 49.8988 45.511 51.9927 43.7228C53.2095 42.683 54.2404 41.4557 54.8609 39.846C55.5503 38.0542 55.2793 36.2879 53.7498 35.2044C52.6692 34.4378 52.5907 32.9227 53.4757 31.8793C53.652 31.6717 53.8444 31.4824 54.0224 31.2766C55.0821 30.0511 55.895 28.6617 56.1419 26.9282C56.493 24.4517 55.6385 22.4213 54.2773 20.5913C53.5975 19.6771 52.921 18.7594 52.2267 17.8598C51.2295 16.5688 50.2179 15.2923 49.171 13.9594C49.0251 14.2307 48.9449 14.3782 48.8663 14.5275C48.1433 15.8968 47.1364 16.9202 45.8907 17.6377C44.7973 18.2659 43.55 17.6668 43.1956 16.3667C42.9295 15.3906 43.2918 14.3909 44.1592 13.841C45.033 13.2892 45.6791 12.5481 45.9677 11.4319C46.0494 11.1169 46.0414 10.9202 45.7833 10.7035C44.1111 9.30501 42.3523 8.07951 40.4284 7.1836C40.2344 7.09255 39.9154 7.1053 39.7438 7.22912C37.9177 8.5566 36.6544 10.3812 36.345 12.854C36.1782 14.1797 36.2552 15.5454 36.244 16.8929C36.2343 18.0328 35.5914 18.9178 34.6295 19.0671C33.6403 19.2201 32.7697 18.5445 32.5437 17.4101C32.4587 16.9803 32.4394 16.5324 32.4154 16.0917C32.2086 12.2604 33.0086 8.79514 35.3189 5.88526C35.391 5.79421 35.4455 5.68678 35.5546 5.51197C31.1392 4.68708 26.9403 5.32077 22.8135 6.93049C23.2576 7.62973 23.6777 8.23975 24.048 8.88983C24.4537 9.60364 24.444 10.3666 24.0705 11.095C23.7081 11.8034 23.1454 12.1475 22.4175 12.1402C21.5758 12.1329 21.0548 11.5721 20.6459 10.82C20.0896 9.79666 19.3313 9.10106 18.2395 9.07739C17.7409 9.06646 17.2342 9.19757 16.742 9.32139C12.7531 10.3138 9.70537 12.7047 7.95462 17.0022C6.70249 20.0777 8.12457 24.9634 12.1215 25.018C13.2101 25.0326 13.986 26.0195 13.9524 27.2268C13.9203 28.3813 13.093 29.3027 12.0301 29.2736C8.66166 29.177 6.20868 27.4034 4.66957 24.0001C4.5862 23.8162 4.50283 23.6322 4.38258 23.3664C3.74128 25.2584 3.58096 27.0775 4.06354 28.9349C4.83951 31.9212 6.72012 34.0517 8.49973 36.2533C9.23722 37.1637 10.1992 37.3786 11.2397 37.2038C13.4666 36.8287 15.4466 35.7671 17.2855 34.3358C17.635 34.0626 17.9509 33.7148 18.2363 33.3543C18.8343 32.5968 19.0603 31.75 18.783 30.7157C18.4575 29.5085 19.0202 28.3922 20.0415 28.0353C21.0307 27.6893 22.0295 28.3066 22.3871 29.5066C23.0877 31.8557 22.6292 33.9843 21.3065 35.8672C20.7053 36.7231 19.9469 37.4369 19.2255 38.2563C19.2623 38.3328 19.3265 38.493 19.4082 38.6387C20.4455 40.4797 21.9622 41.3792 23.8492 41.5285C25.5278 41.6633 27.1487 41.2754 28.76 40.8038C29.73 40.5197 30.6486 40.9331 31.0126 41.9364C31.3621 42.9015 32.0034 43.3586 32.8242 43.5061C33.6884 43.6627 34.5686 43.7501 35.4423 43.761C36.2215 43.772 36.8259 44.0524 37.3438 44.717C39.016 46.8566 40.7186 48.9653 42.394 51.1031C42.6842 51.4746 42.9728 51.6694 43.4634 51.4728H43.4602Z" fill="#9B0077"/>
<path d="M42.3733 31.2983C43.4442 32.5093 44.5232 33.5454 45.4002 34.7691C46.5882 36.4261 47.1237 38.3818 46.7886 40.5506C46.5962 41.8034 45.7 42.5391 44.6419 42.3588C43.6014 42.1803 42.936 41.1497 43.0835 39.8932C43.1909 38.9773 42.9809 38.1451 42.4951 37.4568C40.5744 34.7417 38.0766 33.3706 34.9903 33.5618C34.0316 33.6219 33.27 34.1882 32.7442 35.1515C32.1141 36.3078 31.0046 36.621 30.0763 35.9563C29.1769 35.3117 28.938 34.048 29.5361 32.9281C31.0207 30.1493 33.3069 29.1405 36.0468 29.2498C36.9735 29.2862 37.8954 29.5047 38.8589 29.6449C39.2373 28.352 39.4153 27.0118 39.1058 25.6352C38.9151 24.7866 38.4902 24.1274 37.8168 23.6594C36.7619 22.9238 36.4653 21.66 37.0617 20.5875C37.6341 19.5605 38.7595 19.3092 39.7872 20.0066C41.8538 21.4087 42.8158 23.5648 43.0049 26.2161C43.1332 28.0097 42.8671 29.7505 42.3733 31.2965V31.2983Z" fill="#9B0077"/>
<path d="M24.237 22.2554C22.9079 22.9437 21.465 23.3753 19.9323 23.2806C18.3226 23.1805 16.9149 22.5668 15.9097 21.0609C15.0343 19.7498 15.6163 17.9671 17.0175 17.632C17.6781 17.4736 18.2873 17.6721 18.7186 18.2512C19.1739 18.863 19.7447 19.0396 20.3876 19.0087C21.6782 18.9486 22.8293 18.4496 23.7993 17.47C24.3075 16.9565 24.5689 16.3719 24.4005 15.527C24.16 14.3234 24.7869 13.2854 25.805 13.0032C26.7958 12.7282 27.7401 13.3765 28.0511 14.5656C28.4663 16.1461 28.2483 17.6448 27.4996 19.0323C27.2976 19.4056 27.2896 19.666 27.5669 19.9483C27.8715 20.2578 28.1345 20.6767 28.4888 20.8478C28.8672 21.0299 29.3642 21.1192 29.7522 21.0044C30.876 20.6748 31.8765 21.1392 32.2436 22.29C32.6059 23.4263 32.1073 24.5826 31.0283 25.0579C29.2263 25.8518 27.5653 25.4457 26.0631 24.1711C25.4282 23.6321 24.8895 22.9474 24.2338 22.2536L24.237 22.2554Z" fill="#9B0077"/>
<path d="M48.3455 28.392C47.1238 28.3811 46.3334 27.6236 46.1875 26.6166C46.0368 25.5714 46.5691 24.4952 47.4733 24.2403C48.6036 23.9216 49.7531 23.6721 50.9058 23.47C51.7764 23.317 52.6534 24.0928 52.8586 25.0779C53.0783 26.1286 52.6438 27.2594 51.746 27.5489C50.5355 27.9404 49.2834 28.1662 48.3455 28.3902V28.392Z" fill="#9B0077"/>
</g>
<defs>
<clipPath id="clip0_2159_53727">
<rect width="60" height="55" fill="white" transform="translate(0 0.861084)"/>
</clipPath>
</defs>
</svg>
