<svg width="52" height="51" viewBox="0 0 52 51" fill="none" xmlns="http://www.w3.org/2000/svg">
<g clip-path="url(#clip0_2159_55965)">
<path d="M47.944 51.0677C48.1366 51.0091 48.3291 50.9532 48.519 50.8866C50.0463 50.3501 51.1141 48.883 51.1566 47.2548C51.1712 46.6903 51.1685 46.1258 51.1606 45.5613C51.1406 44.1728 50.1207 43.1663 48.7262 43.1477C48.2304 43.1415 47.9825 42.8916 47.9825 42.3981C47.9825 33.2028 47.9825 24.0074 47.9825 14.812C47.9825 12.5514 46.7036 11.272 44.4432 11.2707C43.4007 11.2707 42.3555 11.2454 41.3143 11.2827C40.8787 11.2986 40.8163 11.1549 40.8176 10.7608C40.8349 7.57361 40.8269 4.38778 40.8269 1.20061C40.8269 0.360551 40.5786 0.114258 39.7286 0.114258C30.3884 0.115589 21.0495 0.115589 11.7105 0.115589C10.8619 0.115589 10.6175 0.35922 10.6175 1.20594C10.6175 4.40908 10.6109 7.61222 10.6255 10.8167C10.6268 11.1748 10.5618 11.2933 10.1753 11.2827C9.05043 11.252 7.92423 11.2693 6.79804 11.272C4.81392 11.2787 3.46461 12.6273 3.46328 14.6163C3.46063 23.9448 3.45797 33.272 3.47258 42.6005C3.47258 43.0558 3.35969 43.181 2.91214 43.1557C1.54556 43.0771 0.73279 43.8133 0.28125 45.0395V47.8286C0.428665 47.9045 0.380854 48.0602 0.416712 48.1774C0.852316 49.5846 1.75805 50.5165 3.1658 50.9612C3.29727 51.0024 3.47125 50.9572 3.56023 51.1143H47.7833C47.8271 51.0916 47.8683 51.0637 47.9214 51.065C47.9294 51.065 47.936 51.065 47.944 51.065V51.0677ZM12.6561 1.69985C17.0121 1.7145 21.3669 1.70917 25.7229 1.70917C30.0789 1.70917 34.4004 1.71583 38.7392 1.69852C39.1509 1.69719 39.2704 1.78905 39.2479 2.20708C39.2093 2.95262 39.2133 3.70215 39.2479 4.44769C39.2638 4.82312 39.1602 4.90699 38.7897 4.90566C31.6514 4.89368 24.5144 4.89634 17.376 4.89634C15.7863 4.89634 14.1967 4.88702 12.607 4.90433C12.2843 4.90832 12.19 4.82578 12.2006 4.49828C12.2258 3.71946 12.2311 2.93664 12.1993 2.15783C12.1833 1.7824 12.2869 1.69852 12.6574 1.69985H12.6561ZM12.7053 6.4806C21.3841 6.49392 30.0617 6.49392 38.7405 6.4806C39.1536 6.4806 39.2479 6.57779 39.2479 6.9905C39.2346 17.8141 39.2346 28.6377 39.2479 39.4626C39.2479 39.8766 39.1522 39.9725 38.7392 39.9712C30.0603 39.9578 21.3828 39.9578 12.7039 39.9712C12.2909 39.9712 12.1953 39.874 12.1966 39.4613C12.2125 34.0322 12.2072 28.6044 12.2072 23.1753C12.2072 17.7462 12.2125 12.385 12.1966 6.98917C12.1966 6.57513 12.2936 6.47927 12.7053 6.4806ZM8.23234 28.0066C8.23234 24.1724 8.23766 20.3369 8.22305 16.5027C8.22172 16.13 8.30672 16.0208 8.68123 16.0448C9.22573 16.0807 9.77422 16.0661 10.3201 16.0488C10.5618 16.0408 10.6295 16.1167 10.6229 16.355C10.6069 16.9354 10.6175 17.5172 10.6175 18.0977C10.6175 25.2189 10.6136 32.3401 10.6282 39.4626C10.6282 39.8766 10.5352 40.0058 10.1195 39.9712C9.64274 39.9299 9.158 39.9339 8.6799 39.9712C8.30273 40.0004 8.22172 39.882 8.22305 39.5119C8.23766 35.6777 8.23234 31.8421 8.23234 28.008V28.0066ZM5.05297 14.7827C5.05297 13.4527 5.63333 12.8669 6.95077 12.8656C8.04376 12.8656 9.13675 12.8736 10.2297 12.8603C10.5086 12.8563 10.6282 12.8909 10.6282 13.225C10.6282 14.4592 10.6441 14.4592 9.41299 14.4592C8.83396 14.4592 8.25359 14.4578 7.67456 14.4592C6.90163 14.4618 6.64266 14.7228 6.64266 15.5122C6.64266 21.0572 6.64266 26.6008 6.64266 32.1457C6.64266 34.9175 6.64266 37.6906 6.64266 40.4624C6.64266 41.3065 6.88968 41.5528 7.73831 41.5528C19.728 41.5528 31.7191 41.5528 43.7088 41.5528C44.5548 41.5528 44.8018 41.3051 44.8018 40.4597C44.8018 32.159 44.8018 23.8596 44.8018 15.5588C44.8018 14.7068 44.5574 14.4605 43.7168 14.4592C42.8721 14.4592 42.0275 14.4485 41.1828 14.4645C40.9119 14.4698 40.8229 14.4086 40.819 14.117C40.803 12.8656 40.7924 12.8656 42.0142 12.8656C42.908 12.8656 43.8031 12.8616 44.6969 12.8656C45.7155 12.8722 46.3888 13.5286 46.3902 14.5391C46.3941 23.9514 46.3888 33.3638 46.4034 42.7762C46.4034 43.2182 46.171 43.1463 45.9147 43.1463C39.1748 43.1463 32.4336 43.1463 25.6937 43.1463C18.9538 43.1463 12.2789 43.141 5.57224 43.1583C5.13132 43.1583 5.04102 43.0505 5.04102 42.6205C5.0543 33.3412 5.05164 24.0606 5.05164 14.7814L5.05297 14.7827ZM43.2121 28.0572C43.2121 31.8754 43.2068 35.6936 43.2214 39.5119C43.2227 39.8833 43.1377 39.9951 42.7632 39.9698C42.2187 39.9339 41.6702 39.9485 41.1244 39.9658C40.884 39.9738 40.8136 39.8993 40.8216 39.6596C40.8389 39.1125 40.8269 38.564 40.8269 38.0168C40.8269 30.8623 40.8309 23.7078 40.8163 16.5533C40.8163 16.1406 40.9079 16.0088 41.3249 16.0448C41.8017 16.086 42.2865 16.082 42.7646 16.0448C43.1404 16.0155 43.2227 16.1326 43.2214 16.5041C43.2068 20.3556 43.2121 24.2071 43.2121 28.0572ZM32.1122 44.7666C31.9143 45.3537 31.5664 45.5627 30.9369 45.556C27.4613 45.5201 23.9831 45.5201 20.5076 45.556C19.8754 45.5627 19.5341 45.347 19.3296 44.7666H32.1122ZM46.9825 49.522C40.8575 49.5233 34.7324 49.522 28.6074 49.522H25.7269C18.6749 49.522 11.6229 49.522 4.56955 49.522C2.81386 49.522 1.87492 48.5794 1.87359 46.8221C1.87359 46.4573 1.87094 46.0925 1.87359 45.7264C1.88023 45.0168 2.15381 44.7426 2.87229 44.7413C6.34916 44.7399 9.82469 44.7413 13.3015 44.7413C14.4769 44.7413 15.6522 44.7546 16.8275 44.7333C17.1914 44.7266 17.4345 44.7985 17.6257 45.1446C17.8887 45.6213 18.2579 46.0393 18.5182 46.5159C18.7678 46.9739 19.1264 47.123 19.6085 47.123C20.7347 47.123 21.8596 47.1416 22.9858 47.1416C25.9327 47.1416 28.8797 47.1256 31.8253 47.139C32.2941 47.1416 32.6142 46.9845 32.8612 46.6038C33.2132 46.0619 33.5863 45.5347 33.929 44.9889C34.0512 44.7945 34.1853 44.7346 34.4071 44.7346C39.1589 44.7399 43.9093 44.7373 48.6611 44.7413C49.2707 44.7413 49.5589 45.0461 49.5682 45.6679C49.5748 46.0832 49.5709 46.4973 49.5682 46.9126C49.5642 48.5368 48.5921 49.5193 46.9785 49.5207L46.9825 49.522Z" fill="#9B0077"/>
<path d="M25.7615 25.6076C30.577 25.6023 34.4603 21.7282 34.4589 16.9301C34.4576 11.9936 30.6062 8.07552 25.7628 8.08351C20.8822 8.0915 16.9764 12.0255 16.9883 16.9221C16.9989 21.7029 20.9486 25.6129 25.7615 25.6076ZM29.0019 23.2126C28.0032 23.7304 26.8279 24.018 25.541 24.0167C24.2913 23.9927 22.9818 23.6053 21.7813 22.8331C21.5582 22.6894 21.513 22.5509 21.5741 22.3046C22.019 20.534 23.541 19.2479 25.375 19.1095C27.1772 18.9737 28.8691 20.0108 29.573 21.6802C29.8572 22.3556 29.6664 22.8664 29.0006 23.2126H29.0019ZM24.6791 12.8549C26.0483 12.0628 27.7536 13.012 27.812 14.5963C27.8173 14.7454 27.812 14.8945 27.812 15.0436C27.8147 16.4854 27.1241 17.3668 25.8969 17.4866C25.4733 17.5279 25.0696 17.4493 24.7043 17.235C23.9527 16.793 23.6379 16.122 23.6167 15.2513C23.5928 14.2675 23.7468 13.3941 24.6778 12.8549H24.6791ZM20.7175 11.7313C23.4188 9.06202 27.7775 8.99147 30.5544 11.5716C33.3513 14.1703 33.6594 18.4851 31.2132 21.4113C30.666 19.9988 29.7868 18.9138 28.4734 18.2161C28.2396 18.0923 28.3153 18.0018 28.4402 17.8554C29.5544 16.5587 29.6607 15.0569 29.1998 13.506C28.6991 11.8218 26.9474 10.7501 25.2674 10.9991C23.4095 11.2747 22.0894 12.7551 22.0363 14.5896C21.9991 15.8863 22.1505 17.1112 23.2023 18.079C21.7614 18.8192 20.7905 19.9242 20.2341 21.4006C17.8356 18.7194 18.0614 14.3527 20.7162 11.73L20.7175 11.7313Z" fill="#9B0077"/>
<path d="M17.1606 31.99C22.87 31.9913 28.5793 31.9913 34.2886 31.99C34.9699 31.99 35.2568 31.7038 35.2608 31.0288C35.2661 30.0995 35.2634 29.1703 35.2608 28.2424C35.2581 27.4702 34.9952 27.2119 34.2076 27.2119C31.3775 27.2119 28.5474 27.2119 25.7187 27.2119C22.8726 27.2119 20.0253 27.2119 17.1792 27.2119C16.4621 27.2119 16.1858 27.4875 16.1832 28.1984C16.1792 29.1437 16.1779 30.0889 16.1832 31.0354C16.1872 31.7078 16.4754 31.9927 17.1593 31.9927L17.1606 31.99ZM18.9177 28.8042C23.6708 28.8042 28.4226 28.8108 33.1757 28.7935C33.5887 28.7922 33.6963 28.888 33.6844 29.3034C33.6525 30.3978 33.6751 30.3978 32.5781 30.3978H25.6722C23.1887 30.3978 20.7039 30.3884 18.2204 30.4071C17.8486 30.4097 17.7556 30.3205 17.7623 29.9478C17.7848 28.8028 17.7676 28.8028 18.9163 28.8028L18.9177 28.8042Z" fill="#9B0077"/>
<path d="M34.1562 33.585C31.3433 33.585 28.5292 33.585 25.7163 33.585C22.8703 33.585 20.023 33.585 17.1769 33.585C16.4624 33.585 16.1862 33.8619 16.1822 34.5741C16.1782 35.5034 16.1795 36.4326 16.1822 37.3606C16.1849 38.0821 16.4571 38.3644 17.1623 38.3644C22.8716 38.3657 28.581 38.367 34.2903 38.3644C34.9703 38.3644 35.2558 38.0768 35.2598 37.4005C35.2651 36.5045 35.2611 35.6086 35.2598 34.7126C35.2598 33.8246 35.0247 33.585 34.1548 33.585H34.1562ZM32.528 36.7721C27.7748 36.7721 23.023 36.7655 18.2699 36.7828C17.8569 36.7841 17.7493 36.6883 17.7613 36.2729C17.7931 35.1785 17.7706 35.1785 18.8675 35.1785H25.7735C28.2569 35.1785 30.7417 35.1879 33.2252 35.1692C33.5971 35.1666 33.6913 35.2544 33.6834 35.6285C33.6608 36.7735 33.6781 36.7735 32.5293 36.7735L32.528 36.7721Z" fill="#9B0077"/>
<path d="M14.5659 4.09795C14.9922 4.11126 15.3614 3.76645 15.3813 3.33777C15.4012 2.91042 15.0639 2.53498 14.6363 2.50836C14.19 2.4804 13.8036 2.84119 13.7969 3.29117C13.7916 3.72119 14.1369 4.0833 14.5659 4.09662V4.09795Z" fill="#9B0077"/>
<path d="M17.7703 4.09778C18.1979 4.09778 18.5552 3.74365 18.5618 3.31364C18.5685 2.88362 18.2218 2.5215 17.7929 2.50819C17.3639 2.49488 16.9974 2.83569 16.9774 3.26704C16.9562 3.71436 17.3227 4.09911 17.7703 4.09778Z" fill="#9B0077"/>
<path d="M20.9848 4.09792C21.4124 4.07929 21.7564 3.71184 21.7458 3.28316C21.7352 2.85315 21.3739 2.50434 20.9463 2.50833C20.4974 2.51233 20.1362 2.89841 20.1614 3.34706C20.1853 3.77575 20.5585 4.11523 20.9848 4.09792Z" fill="#9B0077"/>
</g>
<defs>
<clipPath id="clip0_2159_55965">
<rect width="50.8846" height="51" fill="white" transform="translate(0.28125 0.115723)"/>
</clipPath>
</defs>
</svg>
