<svg width="55" height="53" viewBox="0 0 55 53" fill="none" xmlns="http://www.w3.org/2000/svg">
<g clip-path="url(#clip0_2724_66861)">
<path d="M12.59 48.6769C13.02 49.7069 12.9 50.2969 11.93 50.9069C11.23 51.3469 10.44 51.6569 9.66004 51.9569C9.00004 52.2169 8.31004 52.4169 7.61004 52.5769C6.79004 52.7669 6.19004 52.4869 5.75004 51.7569C5.57004 51.4569 5.42004 51.1269 5.30004 50.7869C3.64004 46.1369 1.98004 41.4769 0.330036 36.8269C0.280036 36.6969 0.240036 36.5569 0.200036 36.4169C-0.249964 34.9569 -0.00996435 34.3569 1.41004 33.7569C2.47004 33.3069 3.56004 32.8969 4.67004 32.5669C5.47004 32.3269 6.29004 32.4269 6.90004 33.0769C7.14004 33.3369 7.27004 33.7069 7.52004 34.1269C8.41004 33.8269 9.40003 33.5369 10.36 33.1769C11.61 32.7069 12.85 32.2069 14.08 31.6769C16.96 30.4469 19.91 30.2569 22.95 30.9069C24.92 31.3269 26.9 31.7269 28.87 32.1669C30.54 32.5469 31.69 33.5169 32 35.2769C32.06 35.6269 32.05 35.9869 32.07 36.4069C33.06 36.2269 34.03 36.0469 35 35.8669C39.98 34.9369 44.96 33.9969 49.95 33.0969C50.52 32.9969 51.13 32.9969 51.71 33.0669C53.13 33.2369 54.05 34.0469 54.47 35.4069C54.89 36.7569 54.52 37.9069 53.47 38.7769C52.78 39.3469 51.99 39.8669 51.17 40.2069C45.02 42.6969 38.84 45.1269 32.69 47.5969C29.19 49.0069 25.64 49.2069 21.98 48.3269C20.61 47.9969 19.2 47.8269 17.8 47.6769C16.22 47.5069 14.66 47.6769 13.19 48.3369C13.04 48.3969 12.9 48.4769 12.76 48.5469C12.7 48.5769 12.64 48.6269 12.59 48.6569V48.6769ZM11.95 47.0069C12.2 46.9269 12.38 46.8669 12.57 46.7969C14.77 46.0069 17.03 45.6469 19.36 46.0169C20.86 46.2569 22.36 46.5069 23.84 46.8269C26.23 47.3369 28.57 47.3669 30.89 46.4369C37.79 43.6769 44.71 40.9469 51.63 38.1969C52.7 37.7769 53.19 36.8869 52.91 35.9269C52.62 34.9369 51.76 34.4369 50.63 34.6469C44.28 35.8369 37.93 37.0369 31.59 38.2469C31.33 38.2969 31.06 38.4369 30.86 38.6169C29.93 39.4069 28.86 39.7369 27.67 39.5369C25.24 39.1169 22.83 38.6469 20.41 38.1869C19.79 38.0669 19.49 37.6569 19.6 37.1469C19.71 36.6469 20.13 36.4069 20.72 36.5169C23.04 36.9469 25.35 37.3869 27.67 37.7869C28.08 37.8569 28.54 37.8669 28.93 37.7569C29.85 37.5069 30.42 36.5969 30.35 35.6669C30.28 34.7269 29.55 33.9769 28.51 33.7769C25.83 33.2769 23.13 32.8169 20.46 32.2669C19.21 32.0069 18.06 32.0969 16.86 32.5569C14.11 33.5969 11.32 34.5369 8.54004 35.5269C8.36003 35.5869 8.19004 35.6769 7.98004 35.7569C9.31004 39.5069 10.62 43.2169 11.96 46.9869L11.95 47.0069ZM1.69004 35.4369C3.54004 40.6569 5.37004 45.8069 7.21004 51.0069C8.53004 50.5369 9.80004 50.0869 11.09 49.6269C9.23004 44.3869 7.40004 39.2469 5.56004 34.0569C4.23004 34.5269 2.98004 34.9769 1.69004 35.4369Z" fill="#9B0077"/>
<path d="M24.66 25.0769C24.13 24.8569 23.64 24.6769 23.18 24.4469C22.91 24.3069 22.74 24.3469 22.53 24.5569C21.94 25.1769 21.33 25.7769 20.71 26.3769C19.91 27.1569 19.12 27.1569 18.32 26.3569C17.67 25.7169 17.03 25.0769 16.39 24.4269C15.63 23.6469 15.63 22.8769 16.4 22.0869C17 21.4769 17.6 20.8669 18.22 20.2669C18.44 20.0569 18.47 19.8769 18.32 19.6169C18.17 19.3569 18.02 19.0769 17.97 18.7769C17.86 18.1869 17.51 18.0869 16.98 18.1169C16.2 18.1569 15.41 18.1369 14.62 18.1169C13.71 18.1069 13.11 17.5369 13.08 16.6169C13.05 15.5969 13.06 14.5769 13.08 13.5569C13.1 12.6269 13.69 12.0569 14.67 12.0369C15.53 12.0169 16.39 12.0269 17.24 12.0469C17.59 12.0569 17.83 11.9869 17.89 11.5969C17.91 11.4569 17.98 11.3269 18.04 11.1969C18.32 10.5102 18.19 9.89688 17.65 9.35688C17.22 8.92688 16.79 8.49688 16.36 8.06688C15.64 7.32688 15.63 6.52688 16.34 5.79688C17.01 5.10688 17.7 4.42688 18.39 3.74688C19.11 3.05688 19.94 3.06688 20.66 3.77688C21.3 4.40688 21.92 5.04688 22.57 5.65688C22.68 5.76688 22.94 5.79688 23.1 5.74688C23.42 5.65688 23.71 5.44688 24.04 5.36688C24.53 5.25688 24.68 5.00688 24.65 4.50688C24.6 3.68688 24.63 2.86688 24.64 2.03688C24.65 1.08688 25.23 0.506876 26.18 0.496876C27.09 0.486876 28 0.496876 28.91 0.496876C30.16 0.496876 30.69 1.02688 30.69 2.29688C30.69 4.49688 30.69 6.69688 30.69 8.88688C30.69 9.45688 30.7 10.0269 30.69 10.6069C30.67 11.2569 30.36 11.5069 29.71 11.3969C29.41 11.3469 29.12 11.2469 28.83 11.1769C27.2 10.7569 25.76 11.0969 24.64 12.3769C23.56 13.6169 23.24 15.0769 23.91 16.6169C24.6 18.1969 25.86 19.0469 27.59 19.1369C28.04 19.1569 28.5 19.0169 28.96 18.9269C29.24 18.8769 29.51 18.7669 29.79 18.7369C30.44 18.6769 30.7 18.8969 30.7 19.5469C30.71 22.4069 30.72 25.2669 30.7 28.1269C30.7 29.0769 30.08 29.6469 29.13 29.6569C28.15 29.6769 27.16 29.6769 26.18 29.6569C25.21 29.6369 24.64 29.0369 24.63 28.0569C24.63 27.0569 24.63 26.0569 24.63 25.0369L24.66 25.0769ZM28.95 20.7969C24.72 21.4569 22.12 18.2769 21.9 15.6169C21.78 14.1269 22.21 12.7869 23.11 11.6069C24.59 9.67688 26.63 9.11688 28.95 9.36688V2.27688H26.35C26.35 3.40688 26.35 4.49688 26.35 5.58688C26.35 6.29688 26.15 6.50688 25.48 6.73688C24.76 6.99688 24.05 7.27688 23.36 7.61688C22.63 7.97688 22.4 7.96688 21.8 7.37688C21.04 6.62688 20.29 5.86688 19.56 5.14688C18.93 5.76688 18.32 6.36688 17.66 7.02688C18.44 7.79688 19.25 8.57688 20.05 9.36688C20.52 9.83688 20.52 10.1069 20.23 10.7069C19.91 11.3769 19.59 12.0569 19.35 12.7669C19.04 13.6669 18.95 13.7769 17.99 13.7769C17.45 13.7769 16.92 13.7769 16.38 13.7769C15.87 13.7769 15.35 13.7769 14.83 13.7769V16.4269C15.97 16.4269 17.07 16.4269 18.18 16.4269C18.85 16.4269 19.08 16.6369 19.29 17.2769C19.52 17.9469 19.75 18.6269 20.07 19.2669C20.56 20.2469 20.58 20.3369 19.8 21.1169C19.08 21.8269 18.37 22.5469 17.72 23.1869C18.37 23.8469 18.97 24.4569 19.55 25.0369C20.32 24.2869 21.13 23.5069 21.93 22.7169C22.29 22.3569 22.66 22.2869 23.14 22.5069C23.95 22.8769 24.77 23.2069 25.61 23.5169C26.09 23.6969 26.34 23.9969 26.34 24.5169C26.34 25.1269 26.34 25.7369 26.34 26.3369C26.34 26.8669 26.34 27.3969 26.34 27.9469H28.96V20.7969H28.95Z" fill="#9B0077"/>
<path d="M40.26 4.27688C42.59 3.92688 44.41 4.69688 45.62 6.61688C47.18 9.08688 46.95 11.5569 45.31 13.9669C46.42 15.0069 47.14 16.2769 47.46 17.7669C48.19 21.1069 46.44 24.5769 43.43 25.7269C42.38 26.1269 41.31 26.1669 40.19 25.9469C40.12 26.1269 40.06 26.2869 40 26.4569C39.31 28.3269 37.53 29.5069 35.78 29.2669C33.86 28.9969 32.33 27.3569 32.17 25.3669C32.15 25.0669 32.14 24.7569 32.14 24.4569C32.14 18.0969 32.14 11.7369 32.14 5.37688C32.14 4.21688 32.36 3.13688 33.08 2.20688C34.01 1.00688 35.24 0.376878 36.77 0.616878C38.5 0.886878 39.53 1.99688 40.1 3.59688C40.14 3.71688 40.17 3.83688 40.2 3.95688C40.22 4.05688 40.24 4.15688 40.27 4.29688L40.26 4.27688ZM44.01 15.1169C43.56 15.3569 43.15 15.6069 42.71 15.7869C42.25 15.9769 41.77 16.1969 41.29 16.2369C40.36 16.3169 39.41 16.3269 38.48 16.2669C38.05 16.2369 37.69 15.9069 37.76 15.3669C37.83 14.8669 38.19 14.6869 38.64 14.6769C39.14 14.6669 39.64 14.6969 40.14 14.6869C42.2 14.6369 44.04 13.3169 44.68 11.4269C45.5 8.99688 44.2 6.43688 41.85 5.96688C40.56 5.70688 40.18 6.04688 39.86 7.00688C39.53 8.00688 38.9 8.84688 38.03 9.45688C37.75 9.65688 37.4 9.80688 37.06 9.85688C36.84 9.88688 36.49 9.75688 36.38 9.57688C36.26 9.37688 36.25 9.00688 36.37 8.79688C36.55 8.45688 36.85 8.17688 37.13 7.90688C37.86 7.20688 38.39 6.40688 38.56 5.39688C38.84 3.73688 37.58 2.20688 36.05 2.34688C34.88 2.45688 33.94 3.43688 33.9 4.75688C33.84 6.78688 33.84 8.82688 33.84 10.8669C33.84 15.3169 33.84 19.7669 33.87 24.2169C33.87 24.8169 33.95 25.4369 34.15 25.9969C34.72 27.6169 36.52 28.0069 37.72 26.7869C38.08 26.4169 38.37 25.9169 38.51 25.4269C38.85 24.2269 38.35 23.2269 37.57 22.3469C37.33 22.0769 37.03 21.8469 36.89 21.5369C36.78 21.2869 36.77 20.8769 36.91 20.6669C37.03 20.4869 37.46 20.3769 37.69 20.4469C38.08 20.5669 38.48 20.7969 38.78 21.0769C39.54 21.7869 40.02 22.6869 40.21 23.7169C40.27 24.0569 40.43 24.1969 40.75 24.2569C42.02 24.5169 43.12 24.1369 44.08 23.3269C46.52 21.2569 46.49 17.2669 44 15.1069L44.01 15.1169Z" fill="#9B0077"/>
</g>
<defs>
<clipPath id="clip0_2724_66861">
<rect width="54.66" height="52.09" fill="white" transform="translate(0 0.536865)"/>
</clipPath>
</defs>
</svg>
