<svg width="51" height="51" viewBox="0 0 51 51" fill="none" xmlns="http://www.w3.org/2000/svg">
<g clip-path="url(#clip0_2159_56762)">
<path d="M47.3311 50.9999H3.57772C2.93934 50.7263 2.25186 50.5228 1.6696 50.158C0.687483 49.5407 0.25956 48.5165 0 47.4292C0 40.5473 0 33.6655 0 26.7836C0.0280605 26.6574 0.0631362 26.5381 0.0911967 26.4118C0.484044 24.637 1.84498 23.3322 3.66891 23.2059C5.30344 23.0937 6.94498 23.1428 8.58652 23.1287C8.77593 23.1287 8.95832 23.1287 9.11967 23.1287C6.91692 14.9281 8.84608 8.05323 15.8542 3.19876C21.5926 -0.785839 27.9413 -1.05241 33.9532 2.51829C41.8382 7.2044 44.055 14.3668 41.8312 23.1287C41.9575 23.1287 42.1329 23.1287 42.3083 23.1287C43.7464 23.1287 45.1915 23.1147 46.6296 23.1287C49.1199 23.1568 50.9018 24.8825 50.9088 27.3238C50.9299 33.8268 50.9228 40.3228 50.9088 46.8259C50.9088 48.2359 50.3616 49.4285 49.1761 50.2142C48.6289 50.5789 47.9484 50.7473 47.3311 51.0069V50.9999ZM11.6451 27.9762C11.61 28.0253 11.568 28.0744 11.5329 28.1305V46.0472H41.0315V28.0534C40.6036 28.0534 40.2037 28.0955 39.8179 28.0464C39.2146 27.9692 38.8428 28.2147 38.4359 28.6567C34.2268 33.3007 28.9865 35.2719 22.7711 34.374C18.5059 33.7567 15.0054 31.6662 12.2133 28.3901C12.066 28.2147 11.8345 28.1165 11.6451 27.9762ZM44.3146 49.3232V24.7773C43.2553 24.7773 42.2311 24.7773 41.2069 24.7773C41.1227 24.7773 40.9964 24.8194 40.9613 24.8895C40.6878 25.3666 40.4352 25.8576 40.1406 26.4188H42.659V47.6957H9.89134V26.4118C10.193 26.3978 10.4455 26.3838 10.7542 26.3697C10.4806 25.8576 10.2421 25.3946 9.98253 24.9316C9.94044 24.8615 9.84223 24.7773 9.76506 24.7773C9.25997 24.7633 8.75488 24.7703 8.25681 24.7703V49.3162H44.3216L44.3146 49.3232ZM6.5381 49.3022V24.7983C5.58404 24.7983 4.65805 24.7843 3.73205 24.8054C3.49354 24.8054 3.24801 24.9176 3.03054 25.0228C2.0414 25.5279 1.64856 26.3768 1.64856 27.4641C1.64856 33.8689 1.64856 40.2667 1.64856 46.6715C1.64856 46.8539 1.66259 47.0363 1.68363 47.2187C1.78886 48.2289 2.5956 49.1829 3.60578 49.2812C4.56685 49.3794 5.54897 49.3022 6.5381 49.3022ZM46.0122 49.3303C46.805 49.3934 47.5556 49.3794 48.222 48.9093C49.0428 48.3271 49.2813 47.4923 49.2813 46.5242C49.2743 40.2246 49.2813 33.925 49.2813 27.6184C49.2813 27.4501 49.2813 27.2887 49.2673 27.1204C49.141 25.4578 47.6748 24.4265 46.0263 24.8475V49.3232L46.0122 49.3303ZM34.4653 16.5275H41.0105C40.7369 12.4798 39.1655 9.07042 36.4155 6.33452C35.1388 7.19037 33.9252 8.00412 32.6695 8.84594C33.7217 11.2241 34.3741 13.8056 34.4724 16.5275H34.4653ZM14.5774 28.5164C15.1948 28.0323 15.756 27.5413 16.3663 27.1344C16.9766 26.7275 17.6431 26.3978 18.2955 26.026C17.1871 23.5426 16.5557 20.9611 16.4505 18.2602H9.91238C10.186 22.308 11.7503 25.7033 14.5774 28.5234V28.5164ZM9.91238 16.5275H16.4294C16.4505 16.4433 16.4785 16.4012 16.4785 16.3521C16.5557 14.5422 16.8924 12.7814 17.4116 11.0487C17.4536 10.8944 17.3554 10.6418 17.2432 10.5085C16.6539 9.79999 16.3944 9.00027 16.4505 8.08129C16.4575 7.948 16.4505 7.75859 16.3593 7.68844C15.784 7.2044 15.1878 6.7414 14.5845 6.26437C11.7433 9.1055 10.179 12.5078 9.91238 16.5345V16.5275ZM36.3314 28.5304C39.1725 25.6963 40.7369 22.2939 41.0105 18.2532H34.5004C34.4794 18.3234 34.4443 18.3865 34.4373 18.4496C34.3601 20.2596 34.0164 22.0274 33.4972 23.7601C33.4552 23.9004 33.5464 24.1389 33.6586 24.2652C34.2689 24.9807 34.5355 25.8015 34.4724 26.7415C34.4653 26.8889 34.5495 27.0923 34.6618 27.1835C35.1879 27.6325 35.7351 28.0604 36.3314 28.5374V28.5304ZM26.2997 16.5275H32.8098C32.6905 13.974 32.0942 11.5818 31.063 9.37207C29.4355 9.61059 27.8851 9.84208 26.2997 10.0736V16.5275ZM19.8528 25.4157C21.4803 25.1772 23.0447 24.9457 24.6161 24.7071V18.2532H18.1201C18.2253 20.7927 18.8356 23.1708 19.8528 25.4087V25.4157ZM18.8777 11.5959C18.5901 13.2304 18.3025 14.8579 18.0008 16.5345H24.6161V9.99642C24.0759 9.95433 23.5638 9.93328 23.0517 9.86313C22.7711 9.82806 22.6098 9.89119 22.4484 10.1437C21.8591 11.0627 21.0033 11.5748 19.9019 11.645C19.6073 11.666 19.3127 11.6239 18.8777 11.6029V11.5959ZM31.9188 23.227C32.459 21.5924 32.7326 19.9509 32.8028 18.2602H26.3067V24.7983C26.8609 24.8404 27.3871 24.8685 27.9132 24.9246C28.1728 24.9527 28.299 24.8615 28.4814 24.6651C28.8743 24.2301 29.3022 23.8092 29.7933 23.4935C30.4246 23.0867 31.1682 23.0726 31.9259 23.227H31.9188ZM32.01 7.19037C33.0763 6.72737 34.1567 6.11705 35.0406 5.14195C32.936 3.52145 30.6281 2.50426 28.1447 2.08335C29.4004 3.74594 30.6772 5.43658 32.003 7.19037H32.01ZM22.7711 32.7184C21.5154 31.0558 20.2316 29.3512 18.9268 27.6254C17.8325 28.0183 16.5206 28.8882 15.9033 29.6809C17.9798 31.2733 20.2948 32.2975 22.7711 32.7184ZM30.2913 7.88486C29.1479 5.94167 27.8992 4.30013 26.3067 2.81292V8.41801C27.6396 8.24263 28.9234 8.06726 30.2913 7.88486ZM20.6315 26.9239C21.768 28.8531 23.0166 30.5016 24.6161 31.9889V26.3767C23.2832 26.5591 21.9924 26.7345 20.6315 26.9169V26.9239ZM17.173 6.27138C18.4358 5.25419 18.4358 5.2612 20.1755 5.13493C20.3228 5.12792 20.4842 4.9806 20.5894 4.85433C21.1997 4.13878 21.796 3.40921 22.3993 2.69367C22.5607 2.49724 22.7431 2.32186 22.9184 2.13947C20.2807 2.51127 17.9587 3.51444 15.8472 5.17001C16.3172 5.56285 16.7311 5.9066 17.166 6.27138H17.173ZM28.0184 32.7465C30.6281 32.2975 32.9571 31.2873 35.0757 29.6318C34.5986 29.2389 34.1707 28.8812 33.7217 28.5164C32.8869 29.4143 31.9048 29.7861 30.7403 29.6739C30.6351 29.6668 30.4948 29.751 30.4176 29.8422C29.6249 30.7893 28.8462 31.7503 28.0184 32.7535V32.7465ZM24.6161 8.35488V2.90412C24.581 2.88307 24.5389 2.86203 24.5039 2.83397C23.6129 3.83713 22.722 4.84731 21.8171 5.87854C22.5466 6.54497 22.9044 7.30962 22.9956 8.22159C23.5428 8.26368 24.0619 8.30577 24.6231 8.35488H24.6161ZM26.3208 26.4679V32.0239C26.8609 31.4557 27.345 30.9857 27.7939 30.4806C28.2359 29.9755 28.6498 29.4424 29.0497 28.9443C28.7691 28.5444 28.4744 28.2147 28.292 27.8359C28.1096 27.4571 28.0325 27.0292 27.8922 26.5732C27.3941 26.5381 26.875 26.503 26.3278 26.4609L26.3208 26.4679ZM19.7265 10.0245C20.6245 10.0245 21.3821 9.26684 21.3681 8.37592C21.3541 7.49903 20.6175 6.76244 19.7406 6.75543C18.8356 6.7414 18.099 7.47799 18.092 8.38995C18.092 9.30192 18.8146 10.0315 19.7265 10.0315V10.0245ZM32.8448 26.4469C32.8448 25.5279 32.1433 24.8054 31.2243 24.8054C30.3124 24.8054 29.5688 25.5419 29.5758 26.4399C29.5758 27.3098 30.3124 28.0534 31.1893 28.0744C32.0872 28.0955 32.8378 27.3589 32.8448 26.4539V26.4469Z" fill="white"/>
<path d="M4.89645 39.4884H3.31104V34.6479H4.89645V39.4884Z" fill="white"/>
</g>
<defs>
<clipPath id="clip0_2159_56762">
<rect width="50.9158" height="51" fill="white"/>
</clipPath>
</defs>
</svg>
