<svg width="52" height="48" viewBox="0 0 52 48" fill="none" xmlns="http://www.w3.org/2000/svg">
<g clip-path="url(#clip0_2159_56785)">
<path d="M6.87 47.11H20.54H26.23H31.99C36.59 47.11 41.19 47.11 45.79 47.11C49.37 47.11 51.98 44.51 51.99 40.94C51.99 38.47 51.99 35.96 51.99 33.52V32.56C51.99 32.36 51.99 32.15 51.94 31.96C51.74 31.19 51.01 30.68 50.24 30.76C49.44 30.85 48.85 31.53 48.84 32.36C48.84 34.17 48.84 36.01 48.84 37.79V40.8C48.84 42.79 47.71 43.93 45.74 43.93C32.74 43.93 19.74 43.93 6.74 43.93C4.82 43.93 3.67 42.78 3.66 40.84C3.66 39.2 3.66 37.56 3.66 35.93V32.74C3.66 31.48 3.09 30.75 2.09 30.75C1.65 30.75 1.29 30.89 1.03 31.15C0.68 31.51 0.5 32.05 0.5 32.73C0.5 35.4 0.5 38.08 0.5 40.76C0.5 44.56 3.06 47.11 6.86 47.11H6.87Z" fill="white"/>
<path d="M14.2398 29.1C14.3098 29.18 14.3998 29.26 14.4898 29.34C16.9098 31.28 19.4598 33.33 22.2398 35.55C23.1698 36.29 24.1198 37.05 25.0998 37.83C25.9298 38.49 26.5698 38.49 27.3898 37.85C30.9398 35.02 34.5998 32.1 38.2598 29.15C39.0498 28.51 39.1998 27.59 38.6098 26.86C38.3398 26.52 37.9898 26.32 37.5998 26.27C37.1598 26.22 36.6698 26.38 36.2498 26.72L34.3298 28.26C33.4898 28.93 32.6498 29.61 31.8098 30.28C31.1998 30.77 30.5798 31.26 29.9298 31.77L27.8298 33.44V1.98002C27.8298 1.82002 27.8298 1.67002 27.8298 1.52002C27.7798 0.740021 27.1998 0.100022 26.4398 0.0100215C25.6698 -0.0799785 24.9598 0.390021 24.7598 1.14002C24.6898 1.40002 24.6798 1.72002 24.6798 1.99002C24.6798 10.4 24.6798 18.81 24.6798 27.22V33.37L23.4298 32.43C23.2598 32.31 23.1498 32.22 23.0298 32.12L20.9598 30.47C19.4798 29.28 17.9498 28.06 16.4298 26.87C16.2898 26.76 16.1298 26.68 15.9798 26.61C15.9498 26.6 15.9298 26.59 15.8998 26.58C15.7498 26.53 15.5998 26.5 15.4398 26.5C15.3698 26.5 15.2998 26.5 15.2298 26.5C14.8198 26.54 14.4498 26.75 14.1798 27.09C13.6898 27.71 13.7298 28.51 14.2498 29.1H14.2398Z" fill="white"/>
</g>
<defs>
<clipPath id="clip0_2159_56785">
<rect width="51.5" height="47.11" fill="white" transform="translate(0.5)"/>
</clipPath>
</defs>
</svg>
