<svg width="33" height="32" viewBox="0 0 33 32" fill="none" xmlns="http://www.w3.org/2000/svg">
<path d="M29.574 0.274641C29.2079 -0.091547 28.6145 -0.091547 28.2484 0.274641L26.534 1.98896L30.5111 5.96602L32.2254 4.25171C32.5916 3.88552 32.5916 3.29221 32.2254 2.92602L29.574 0.274641Z" fill="white"/>
<path d="M15.1752 13.3468L25.2047 3.3173L29.1811 7.29374L19.1516 17.3232L15.1752 13.3468Z" fill="white"/>
<path d="M13.7021 14.9295L11.9425 19.3405C11.8033 19.6884 11.8857 20.0857 12.1503 20.3503C12.4106 20.6107 12.8056 20.6994 13.1601 20.5581L17.5711 18.7985C17.6638 18.7621 17.7415 18.6999 17.817 18.6367L13.8639 14.6835C13.8006 14.7591 13.7385 14.8368 13.7021 14.9295Z" fill="white"/>
<path d="M1.4375 32H24.0625C24.5807 32 25 31.5807 25 31.0625V14.1287L19.2127 19.9164C18.9371 20.1919 18.6157 20.4025 18.2559 20.5444L13.855 22.2995C13.5208 22.4332 13.1711 22.5 12.8131 22.5C12.813 22.5 5.25001 22.5 5.25001 22.5C4.73182 22.5 4.31251 22.0807 4.31251 21.5625C4.31251 21.0443 4.73182 20.625 5.25001 20.625H10.1921C9.9657 19.9921 9.94133 19.2944 10.2011 18.6438L11.9608 14.2346C12.0981 13.8848 12.3086 13.5626 12.5843 13.288L14.6221 11.25H1.4375C0.919313 11.25 0.5 11.6693 0.5 12.1875V31.0625C0.5 31.5807 0.919313 32 1.4375 32ZM5.25001 24.375H20.3125C20.8307 24.375 21.25 24.7943 21.25 25.3125C21.25 25.8307 20.8307 26.25 20.3125 26.25H5.25001C4.73182 26.25 4.31251 25.8307 4.31251 25.3125C4.31251 24.7943 4.73182 24.375 5.25001 24.375Z" fill="white"/>
</svg>
