<svg width="67" height="64" viewBox="0 0 67 64" fill="none" xmlns="http://www.w3.org/2000/svg">
<g clip-path="url(#clip0_2159_54017)">
<path d="M38.2779 62.3511C35.8562 62.3511 33.4085 62.3511 30.9738 62.3511C21.274 62.3511 11.5743 62.3767 1.8745 62.3895C0.4944 62.3895 -0.0133731 61.8782 0.0126666 60.5233C0.168904 52.7134 2.96817 46.0412 8.99634 40.8388C18.4097 32.7094 32.9919 32.8245 42.3401 41.0178C43.0692 41.6569 43.6551 41.5674 44.0848 40.711C45.4388 38.014 46.8059 35.317 48.1469 32.6072C48.4724 31.9425 48.9021 31.444 49.7093 31.4568C50.4775 31.4696 50.8941 31.9681 51.2066 32.6072C52.5476 35.317 53.9277 38.0012 55.2688 40.711C55.4771 41.1456 55.7375 41.3501 56.2453 41.414C59.357 41.8359 62.4557 42.296 65.5544 42.7306C66.2185 42.8201 66.7002 43.1141 66.9215 43.7404C67.1429 44.3923 66.9345 44.9419 66.4398 45.4148C64.1874 47.5622 61.948 49.7224 59.6825 51.857C59.318 52.2021 59.2268 52.5089 59.318 52.9946C59.8648 55.9856 60.3856 58.9767 60.9064 61.9549C61.0235 62.6196 60.9715 63.2459 60.3595 63.6805C59.7346 64.1278 59.1096 64.0256 58.4586 63.6805C55.7115 62.2489 52.9513 60.8301 50.2041 59.3985C49.8005 59.194 49.501 59.194 49.1104 59.3985C46.4674 60.7789 43.8113 62.1466 41.1553 63.5143C39.5148 64.3579 38.7727 64.0639 38.2649 62.3256L38.2779 62.3511ZM3.09836 59.4496C3.39782 59.4496 3.65822 59.4496 3.90559 59.4496C9.72545 59.4368 15.5453 59.4112 21.3522 59.3985C26.9767 59.3857 32.6143 59.3729 38.2389 59.3729C38.6425 59.3729 38.9159 59.3601 38.994 58.8361C39.2935 56.8548 39.632 54.8736 39.9965 52.8924C40.0747 52.4706 39.9705 52.2277 39.6841 51.9465C37.4056 49.7863 35.1532 47.6134 32.8877 45.4532C32.406 44.993 32.1456 44.4562 32.393 43.7915C32.6273 43.1396 33.1351 42.8584 33.8121 42.7562C35.4136 42.5389 37.015 42.296 38.6555 42.0531C33.6298 38.0524 24.7633 36.1989 16.7952 39.5095C7.51208 43.3569 3.2546 52.1638 3.08534 59.4624L3.09836 59.4496ZM61.8698 45.2103C59.5784 44.878 57.0785 44.5073 54.5657 44.1622C53.8106 44.0599 53.3549 43.702 53.0294 43.0374C52.2612 41.4524 51.454 39.8802 50.6598 38.308C50.3343 37.6689 50.0088 37.0298 49.6312 36.2884C49.475 36.5824 49.3578 36.7741 49.2536 36.9659C48.3292 38.8065 47.3397 40.6216 46.5065 42.5005C45.9987 43.6381 45.2435 44.1366 43.9806 44.2772C41.7021 44.5073 39.4367 44.9036 37.0671 45.2359C37.2884 45.466 37.4316 45.6321 37.5879 45.7855C39.2414 47.3577 40.8819 48.9555 42.5484 50.5149C43.0953 51.0262 43.2906 51.5886 43.1473 52.3044C42.939 53.4548 42.7437 54.5924 42.5354 55.7428C42.3141 57.0466 42.0797 58.3376 41.8323 59.7564C42.1448 59.603 42.3531 59.5135 42.5484 59.4112C44.5665 58.3759 46.5846 57.3405 48.5896 56.2924C49.2927 55.9217 49.9307 55.909 50.6337 56.2924C51.8967 56.9826 53.1856 57.609 54.4616 58.2736C55.412 58.7594 56.3624 59.2579 57.4171 59.7947C56.9874 57.3789 56.6228 55.0781 56.1672 52.8029C55.9588 51.7548 56.1932 51.0006 56.9874 50.2465C58.68 48.6104 60.2554 46.872 61.8438 45.2231L61.8698 45.2103Z" fill="#9B0077"/>
<path d="M25.5327 31.2906C16.7443 31.2906 9.5834 24.286 9.57038 15.6709C9.54434 7.01738 16.7313 0 25.5587 0C34.3471 0 41.495 7.04294 41.482 15.6581C41.482 24.286 34.3341 31.2906 25.5327 31.2906ZM25.5457 2.96545C18.4499 2.95267 12.63 8.60236 12.604 15.543C12.5649 22.5988 18.3197 28.3124 25.4676 28.3507C32.5764 28.3891 38.4093 22.701 38.4483 15.722C38.4744 8.66627 32.7326 2.97823 25.5457 2.96545Z" fill="#9B0077"/>
</g>
<defs>
<clipPath id="clip0_2159_54017">
<rect width="67" height="64" fill="white"/>
</clipPath>
</defs>
</svg>
