<svg width="29" height="32" viewBox="0 0 29 32" fill="none" xmlns="http://www.w3.org/2000/svg">
<path d="M20.5 6V2C20.5 0.898 19.604 0 18.5 0H2.5C1.398 0 0.5 0.898 0.5 2V30C0.5 31.104 1.398 32 2.5 32H18.5C19.604 32 20.5 31.104 20.5 30V24H18.5V26H2.5V4H18.5V6H20.5Z" fill="white"/>
<path d="M26.5 8H14.5C13.398 8 12.5 8.898 12.5 10V18C12.5 19.122 13.378 20 14.5 20H16.5V22C16.5 22.378 16.714 22.724 17.052 22.894C17.194 22.964 17.348 23 17.5 23C17.712 23 17.924 22.932 18.1 22.8L21.834 20H26.5C27.622 20 28.5 19.122 28.5 18V10C28.5 8.878 27.622 8 26.5 8ZM17.54 15C16.988 15 16.53 14.552 16.53 14C16.53 13.448 16.966 13 17.52 13H17.54C18.092 13 18.54 13.448 18.54 14C18.54 14.552 18.092 15 17.54 15ZM23.54 15C22.99 15 22.53 14.552 22.53 14C22.53 13.448 22.968 13 23.52 13H23.54C24.092 13 24.54 13.448 24.54 14C24.54 14.552 24.092 15 23.54 15Z" fill="white"/>
</svg>
