<svg width="34" height="34" viewBox="0 0 34 34" fill="none" xmlns="http://www.w3.org/2000/svg">
<g clip-path="url(#clip0_2159_55877)">
<path d="M17.0599 34C18.4801 32.1391 19.8742 30.3378 21.2422 28.5155C22.4292 26.9334 23.9608 26.1143 25.9536 26.1757C27.1493 26.2126 28.3485 26.1266 29.5425 26.1933C32.2158 26.3441 33.5734 24.2482 33.8919 22.4749C33.9633 22.0768 33.9946 21.6646 33.9946 21.2595C34.0015 15.8012 33.9998 10.3412 33.9998 4.88122C33.9998 3.92708 33.831 3.00802 33.3628 2.1714C32.5796 0.771757 31.457 -0.00523525 29.7809 2.6551e-05C21.3884 0.0280895 12.9976 0.0123041 4.60508 0.0123041C1.85514 0.0123041 0.0467987 1.77325 0.0189514 4.56727C-0.0158577 8.07689 0.00677109 11.5865 0.00677109 15.0961C0.00677109 17.2412 0.00328827 19.3863 0.0119896 21.5313C0.0154724 22.5275 0.274799 23.4589 0.810863 24.299C1.5993 25.5373 2.70101 26.2073 4.19433 26.1863C5.5136 26.1687 6.83288 26.2038 8.15215 26.1775C10.0179 26.1389 11.4851 26.9054 12.6269 28.3559C13.9705 30.0642 15.3072 31.7778 16.6474 33.4896C16.7657 33.6422 16.8893 33.7896 17.0599 34Z" fill="white"/>
</g>
<defs>
<clipPath id="clip0_2159_55877">
<rect width="34" height="34" fill="white" transform="matrix(-1 0 0 1 34 0)"/>
</clipPath>
</defs>
</svg>
