<svg width="33" height="33" viewBox="0 0 33 33" fill="none" xmlns="http://www.w3.org/2000/svg">
<path d="M5.94288 13.6118L16.4953 17.1098L27.0477 13.6118L16.4953 10.1139L5.94288 13.6118Z" fill="white"/>
<path d="M29.6252 14.7328L17.9263 18.6108L20.7917 23.1623L32.4906 19.2843L29.6252 14.7328Z" fill="white"/>
<path d="M15.5578 21.3463L13.0031 25.4042L3.90081 22.3869V28.6359L15.5578 32.5V21.3463Z" fill="white"/>
<path d="M19.9875 25.4042L17.4328 21.3463V32.5L29.0898 28.6359V22.3869L19.9875 25.4042Z" fill="white"/>
<path d="M12.1989 23.1623L15.0643 18.6108L3.36544 14.7328L0.5 19.2843L12.1989 23.1623Z" fill="white"/>
<path d="M15.5578 0.5H17.4328V6.76088H15.5578V0.5Z" fill="white"/>
<path d="M6.7403 3.36494L8.36405 2.42744L11.4945 7.84936L9.87074 8.78686L6.7403 3.36494Z" fill="white"/>
<path d="M21.4958 7.84998L24.6262 2.42807L26.25 3.36557L23.1195 8.78748L21.4958 7.84998Z" fill="white"/>
</svg>
