<svg width="67" height="65" viewBox="0 0 67 65" fill="none" xmlns="http://www.w3.org/2000/svg">
<g clip-path="url(#clip0_2159_56769)">
<path d="M25.7786 46.2983C28.2607 46.3268 30.7988 46.3363 33.3929 46.3363C35.987 46.3363 38.5717 46.3268 41.2218 46.2983C45.0009 46.2604 48.0336 43.6117 48.6028 39.8524C48.7894 38.6278 48.7708 37.3652 48.7521 36.1406C48.7521 35.7324 48.7428 35.3242 48.7428 34.9255C48.7614 30.682 48.7614 26.448 48.7428 22.347C48.7428 20.1255 47.2125 18.5497 45.0476 18.5212C44.7863 18.5212 44.5344 18.5212 44.2358 18.5212H44.1145V18.094C44.1145 17.4295 44.1145 16.765 44.1145 16.1004C44.1145 14.4201 44.1145 12.6924 44.1051 10.9836C44.0958 9.99629 44.0305 9.25583 43.8905 8.5913C42.9107 3.94912 38.973 0.341702 34.5126 0.0284264C29.5297 -0.322822 25.2187 2.49666 23.5297 7.21479C22.9325 8.8761 22.7459 10.7368 22.9419 13.0816C23.0725 14.6385 24.4722 15.8726 26.1331 15.8821H26.1611C27.8034 15.8821 29.1751 14.7049 29.3618 13.1385C29.4271 12.5974 29.4364 12.0563 29.4457 11.5342C29.4457 11.1165 29.4551 10.6893 29.4924 10.2716C29.651 8.47738 31.2187 6.88252 32.9916 6.70215C34.1954 6.57874 35.3244 6.94898 36.1922 7.72742C37.0321 8.48688 37.5079 9.55961 37.5359 10.7368C37.5733 12.5595 37.5639 14.4201 37.5639 16.2143C37.5639 16.9738 37.5639 17.7238 37.5639 18.4832C37.5639 18.4927 37.5639 18.5022 37.5639 18.5117H32.7863C29.2684 18.5117 25.7506 18.5117 22.2327 18.5117C19.7599 18.5117 18.2762 20.0116 18.2576 22.5368C18.2576 24.4165 18.2576 26.3341 18.2576 28.1853V28.4036C18.2576 29.4479 18.2576 30.4921 18.2576 31.5269C18.2482 33.9477 18.2296 36.4444 18.3135 38.9031C18.4535 43.0706 21.6728 46.2509 25.7972 46.2983H25.7786ZM27.4022 11.4772C27.4022 11.8475 27.4022 12.2177 27.3835 12.5879C27.3462 13.2715 26.8517 13.7936 26.1985 13.8221C25.5546 13.8505 24.9854 13.3569 24.9387 12.7019C24.6588 8.99951 25.6386 6.22749 27.9341 4.22442C30.6028 1.8891 33.5795 1.39545 36.7801 2.76247C40.1114 4.18645 41.8843 6.78759 42.0429 10.4804C42.1269 12.3411 42.1083 14.2493 42.0896 16.0909C42.0896 16.8789 42.0709 17.6953 42.0709 18.5022H39.6168C39.6168 18.3788 39.6075 18.2649 39.6075 18.151C39.6075 17.363 39.6075 16.5656 39.6075 15.7777C39.6075 14.1828 39.6075 12.5405 39.5982 10.9171C39.5608 7.80336 37.4613 5.2402 34.5033 4.67061C32.833 4.35733 31.088 4.813 29.6977 5.9427C28.3073 7.07239 27.4768 8.70522 27.4022 10.4425C27.3929 10.7937 27.3929 11.145 27.3929 11.4772H27.4022ZM27.0103 20.5812C28.102 20.5812 29.1845 20.5812 30.2762 20.5812H33.5515H36.3042C39.0569 20.5812 41.8097 20.5812 44.5624 20.5812C46.1767 20.5812 46.7179 21.1413 46.7179 22.8026C46.7179 24.2836 46.7179 25.755 46.7179 27.236C46.7179 30.8624 46.7179 34.6217 46.7179 38.3145C46.7179 41.3903 44.8237 43.6877 41.903 44.1624C41.567 44.2193 41.1938 44.2193 40.8392 44.2193H40.8112C35.0912 44.2193 30.4535 44.2193 26.2078 44.2193C22.6619 44.2193 20.2824 41.7985 20.2824 38.2006C20.2824 33.7483 20.2824 29.3055 20.2824 24.8532V22.6318C20.2824 21.1983 20.8796 20.5812 22.2793 20.5812C23.8563 20.5812 25.4333 20.5812 27.0103 20.5812Z" fill="white"/>
<path d="M30.2855 49.6876C30.2855 49.6212 30.2855 49.5547 30.2855 49.4883C30.2855 49.0895 30.2855 48.6718 30.2855 48.2731C30.2949 47.8364 30.1922 47.5137 29.9869 47.2953C29.8097 47.1055 29.567 47.02 29.2591 47.02C28.7832 47.02 28.5499 47.2668 28.4286 47.4662C28.3073 47.6751 28.2513 47.9409 28.2513 48.2921V48.6339C28.2607 49.4977 28.27 50.3996 28.2513 51.273C28.1953 53.0767 27.0103 54.2538 25.2373 54.2633C25.088 54.2633 24.9387 54.2633 24.7894 54.2633C24.3135 54.2633 23.819 54.2823 23.3431 54.2444C23.2404 54.2444 23.0725 54.1209 23.0352 54.045C22.3073 52.5735 20.9356 51.8616 19.4426 52.2033C18.0709 52.5071 17.0352 53.8361 17.0352 55.2791C17.0352 56.7601 18.0336 58.0416 19.4799 58.3929C19.7132 58.4498 19.9558 58.4783 20.1891 58.4783C21.3835 58.4783 22.4846 57.7568 23.0072 56.5512C23.1005 56.3424 23.1471 56.3329 23.3618 56.3329C24.0709 56.3518 24.7241 56.3518 25.3586 56.3329C27.8128 56.2664 29.7537 54.6431 30.1922 52.2793C30.2855 51.7571 30.2949 51.2255 30.3042 50.7129C30.3042 50.485 30.3042 50.2572 30.3229 50.0294L30.3042 49.6781H30.2855V49.6876ZM21.2436 55.2981C21.2436 55.5829 21.1316 55.8582 20.9263 56.0576C20.721 56.2664 20.4504 56.3803 20.1611 56.3803C19.8625 56.3803 19.6013 56.2664 19.4053 56.067C19.2093 55.8677 19.0974 55.5924 19.1067 55.2886C19.1067 54.9943 19.2187 54.719 19.424 54.5102C19.6292 54.3013 19.8905 54.1874 20.1705 54.1874C20.749 54.1874 21.2529 54.7095 21.2529 55.2886L21.2436 55.2981Z" fill="white"/>
<path d="M47.912 52.317C46.6709 51.8518 44.9913 52.1651 44.3381 53.5036C43.9648 54.2536 43.5543 54.3485 42.7611 54.2726C42.5278 54.2536 42.3039 54.2536 42.0799 54.2631C41.9773 54.2631 41.8746 54.2631 41.7627 54.2631C39.9337 54.2536 38.7393 53.0385 38.73 51.1683C38.7207 50.0386 38.7207 49.1178 38.73 48.2444C38.7393 47.1716 38.0488 47.0292 37.7502 47.0198C37.4423 47.0103 37.1904 47.0957 37.0131 47.2856C36.7984 47.4944 36.6958 47.8267 36.6958 48.2539C36.6958 48.6431 36.6958 49.0323 36.6958 49.4215V49.9342L36.7051 50.238C36.7051 50.3044 36.7051 50.3804 36.7051 50.4468C36.7051 50.817 36.6958 51.2063 36.7051 51.586C36.8358 54.0922 38.6274 56.0288 41.0628 56.2946C41.744 56.3706 42.4905 56.3801 43.349 56.3326C43.7596 56.3136 43.9089 56.399 44.0862 56.7788C44.5807 57.8325 45.6538 58.4781 46.7922 58.4781C47.0255 58.4781 47.2495 58.4496 47.4827 58.3926C48.8638 58.0604 49.8529 56.8737 49.9369 55.4402C50.0115 54.1017 49.153 52.7821 47.884 52.3075L47.912 52.317ZM47.912 55.2978C47.912 55.5921 47.8 55.8674 47.604 56.0668C47.4081 56.2661 47.1375 56.3801 46.8389 56.3801C46.5496 56.3801 46.279 56.2661 46.0737 56.0573C45.8778 55.8579 45.7658 55.5826 45.7658 55.2883C45.7658 54.6903 46.2603 54.1871 46.8389 54.1871C47.4267 54.1871 47.9026 54.6808 47.9026 55.2883L47.912 55.2978Z" fill="white"/>
<path d="M50.5437 29.1441C50.7397 29.1441 50.9356 29.1441 51.1316 29.1441C51.2809 29.1441 51.4302 29.1441 51.5702 29.1441H52.0087H52.2887C52.3353 29.1441 52.382 29.1441 52.4286 29.1441C52.7366 29.1441 53.0538 29.1441 53.3711 29.1441C55.6853 29.0207 57.6728 27.1126 57.9061 24.7962C57.9714 24.1032 57.9807 23.3628 57.9341 22.5274C57.9061 21.9957 58.0181 21.7869 58.4566 21.5685C59.679 20.961 60.2949 19.5275 59.959 18.075C59.651 16.7745 58.4846 15.7682 57.1783 15.6733C55.7412 15.5783 54.4535 16.4232 53.9776 17.7713C53.5391 19.0339 53.847 20.7237 55.1254 21.3502C55.9465 21.7489 55.9559 22.2426 55.9092 23.1539C55.9092 23.3248 55.9092 23.4957 55.9092 23.6571C55.9092 23.771 55.9092 23.8944 55.9092 24.0083C55.8626 25.869 54.7055 27.0366 52.8859 27.0651C52.5126 27.0651 52.1394 27.0651 51.7755 27.0651C51.3649 27.0651 50.9356 27.0651 50.5157 27.0651C49.8346 27.0746 49.4146 27.4828 49.424 28.1094C49.424 28.7359 49.8532 29.1346 50.5251 29.1346L50.5437 29.1441ZM56.9543 19.9357C56.6744 19.9357 56.4038 19.8313 56.1985 19.6319C55.9839 19.4231 55.8719 19.1383 55.8719 18.844C55.8719 18.5497 55.9745 18.2649 56.1798 18.0656C56.3758 17.8662 56.6464 17.7523 56.945 17.7523C57.2342 17.7523 57.5142 17.8662 57.7101 18.0845C57.9061 18.2934 58.0181 18.5687 58.0087 18.863C57.9994 19.4421 57.5142 19.9357 56.9543 19.9452V19.9357Z" fill="white"/>
<path d="M57.9524 42.9662C57.9524 42.7478 57.9524 42.539 57.9524 42.3207C57.9524 41.6846 57.9617 41.0865 57.9524 40.4695C57.8777 38.0202 56.0488 35.9887 53.688 35.7324C52.9602 35.6564 52.2137 35.6564 51.5045 35.6564C51.2245 35.6564 50.9353 35.6564 50.6553 35.6564C49.9182 35.6469 49.4703 36.0267 49.4609 36.6722C49.4609 36.9855 49.5449 37.2418 49.7315 37.4317C49.9462 37.65 50.2541 37.7449 50.674 37.7449H51.0379C51.7378 37.7449 52.4563 37.7259 53.1654 37.7449C54.5931 37.7924 55.7409 38.8366 55.8808 40.2322C55.9462 40.8872 55.9275 41.5517 55.9182 42.2447C55.9182 42.482 55.9088 42.7289 55.8995 42.9757C54.2012 43.925 53.5574 45.1496 53.9399 46.7255C54.2852 48.1495 55.5263 49.1463 56.9633 49.1463C56.9726 49.1463 56.9819 49.1463 56.9913 49.1463C58.4283 49.1368 59.6973 48.0925 60.0053 46.6875C60.3505 45.0832 59.688 43.868 57.971 42.9567L57.9524 42.9662ZM58.0177 46.004C58.0084 46.5926 57.5138 47.0768 56.9446 47.0768H56.9259C56.3287 47.0673 55.8715 46.5736 55.8808 45.9566C55.8808 45.6623 55.9928 45.3965 56.1981 45.1971C56.3941 44.9977 56.6647 44.8933 56.9539 44.8933C56.9539 44.8933 56.9633 44.8933 56.9726 44.8933C57.2619 44.8933 57.5325 45.0167 57.7284 45.2256C57.9244 45.4344 58.027 45.7097 58.027 45.9945L58.0177 46.004Z" fill="white"/>
<path d="M17.5481 36.7389C17.5574 36.4351 17.4735 36.1788 17.2962 35.9889C17.0909 35.7706 16.7643 35.6567 16.3444 35.6567C16.1018 35.6567 15.8498 35.6567 15.5979 35.6567C15.038 35.6567 14.4595 35.6472 13.8903 35.6662C11.1095 35.7801 9.11265 37.8401 9.038 40.6786V40.9159C9.01934 41.3811 9.00068 41.8652 9.038 42.3494C9.08466 42.8335 8.97269 43.0234 8.53412 43.2417C7.33038 43.8303 6.68653 45.2638 7.00379 46.6593C7.32105 48.0928 8.4688 49.0706 9.90581 49.156C9.9618 49.156 10.0178 49.156 10.0738 49.156C11.3522 49.156 12.5279 48.3111 12.9758 47.058C13.433 45.7764 13.1251 44.0677 11.8094 43.4221C11.0536 43.0519 10.9976 42.6057 11.0536 41.7608C11.0722 41.5425 11.0629 41.3241 11.0536 41.1153C11.0536 40.9254 11.0536 40.7545 11.0536 40.5836C11.1282 39.1312 12.136 37.9825 13.517 37.7831C13.8343 37.7357 14.1609 37.7547 14.5061 37.7642C14.6741 37.7642 14.8327 37.7737 15.0007 37.7737H15.3459V37.7452C15.3459 37.7452 15.3833 37.7452 15.4019 37.7452C15.6912 37.7452 15.9898 37.7452 16.2791 37.7452C17.3895 37.7737 17.5295 37.0522 17.5388 36.7389H17.5481ZM9.28995 45.2068C9.4859 45.0075 9.75651 44.8936 10.0551 44.8936C10.3444 44.8936 10.615 45.0075 10.8203 45.2068C11.0162 45.4062 11.1282 45.6815 11.1282 45.9663C11.1282 46.5644 10.6336 47.0675 10.0551 47.0675C9.77517 47.0675 9.50457 46.9536 9.30861 46.7542C9.10332 46.5454 8.99135 46.2701 8.99135 45.9758C8.99135 45.6815 9.09399 45.4062 9.29928 45.2068H9.28995Z" fill="white"/>
<path d="M8.75808 21.6918C9.01935 21.8152 9.04735 21.8911 9.03802 22.1474C9.01002 23.0018 9.01935 23.7518 9.05668 24.4543C9.17799 26.6852 10.7456 28.5554 12.8825 29.0015C13.3584 29.106 13.8529 29.125 14.3288 29.1534C14.5435 29.1629 14.7487 29.1724 14.9634 29.1914L15.3086 29.2199V29.1439C15.3086 29.1439 15.3646 29.1439 15.3926 29.1439C15.6819 29.1439 15.9805 29.1439 16.2697 29.1439C16.7363 29.1629 17.0722 29.0585 17.2868 28.8402C17.4735 28.6598 17.5668 28.4035 17.5575 28.0902C17.5575 27.3972 17.1189 27.0554 16.2511 27.0554H15.7565C15.1873 27.0554 14.5901 27.0554 14.0116 27.0554C12.276 27.0175 11.1002 25.8118 11.0629 24.0556C11.0629 23.7898 11.0629 23.5145 11.0629 23.2487C11.0629 22.8689 11.0629 22.4797 11.0536 22.1C11.0536 21.8816 11.0629 21.8152 11.3055 21.7108C12.5652 21.1507 13.3117 19.8691 13.1624 18.5305C12.9851 16.9926 11.8001 15.787 10.3537 15.6731C8.81407 15.5497 7.43304 16.5275 7.04113 18.0084C6.63988 19.5368 7.3304 21.0178 8.75808 21.7013V21.6918ZM8.98203 18.8343C8.98203 18.54 9.08467 18.2647 9.28996 18.0559C9.49525 17.847 9.75652 17.7426 10.0458 17.7426C10.3351 17.7426 10.6057 17.8565 10.811 18.0654C11.0162 18.2647 11.1189 18.54 11.1282 18.8248C11.1282 19.4134 10.6243 19.926 10.0551 19.926C9.46725 19.926 8.99136 19.4324 8.99136 18.8248L8.98203 18.8343Z" fill="white"/>
<path d="M64.0737 29.3151C62.6367 28.9543 61.1904 29.6663 60.5652 31.0618C60.4532 31.3182 60.3692 31.3561 60.052 31.3561C56.982 31.3371 53.912 31.3466 51.0286 31.3561C50.9726 31.3561 50.9167 31.3561 50.8513 31.3561C50.4034 31.3466 49.5729 31.3277 49.4516 32.3244C49.4143 32.6092 49.4796 32.8561 49.6383 33.0364C49.8809 33.3117 50.3101 33.4446 51.0286 33.4446H60.4159C60.4532 33.5206 60.4812 33.5965 60.5185 33.6725C61.0691 34.8781 62.1422 35.5806 63.3646 35.5806C63.5885 35.5806 63.8218 35.5521 64.0551 35.5047C65.4268 35.2199 66.4719 33.9003 66.5092 32.4479C66.5372 30.9859 65.5201 29.6663 64.0924 29.3056L64.0737 29.3151ZM62.6087 33.1883C62.4034 32.9795 62.2821 32.7042 62.2821 32.4099C62.2821 32.1156 62.3848 31.8403 62.5807 31.6409C62.7767 31.4321 63.0473 31.3182 63.3459 31.3182C63.6352 31.3182 63.9058 31.4226 64.1017 31.6219C64.2977 31.8213 64.4096 32.0966 64.4096 32.3909C64.4096 32.9985 63.9338 33.4921 63.3459 33.5016C63.0659 33.5016 62.7953 33.3877 62.5901 33.1788L62.6087 33.1883Z" fill="white"/>
<path d="M10.3165 33.4447H12.5373C13.8344 33.4447 15.1314 33.4447 16.4285 33.4447C17.1003 33.4447 17.5295 33.0555 17.5482 32.4384C17.5669 31.8214 17.1563 31.4132 16.4844 31.3657C16.3258 31.3562 16.1765 31.3657 16.0272 31.3657H15.8872H14.021C11.6602 31.3657 9.29005 31.3657 6.92924 31.3657C6.61198 31.3657 6.55599 31.3562 6.45334 31.1284C5.84681 29.7234 4.4098 28.9734 2.97278 29.3057C1.51711 29.6379 0.5 30.9195 0.5 32.4005C0.5 33.8434 1.52644 35.182 2.8888 35.5047C3.14075 35.5617 3.39269 35.5902 3.6353 35.5902C4.8577 35.5902 5.94946 34.8687 6.47201 33.6536C6.55599 33.4542 6.59331 33.4352 6.82659 33.4447C7.993 33.4542 9.17807 33.4447 10.3258 33.4447H10.3165ZM4.7084 32.4194C4.7084 33.008 4.19518 33.5207 3.62597 33.5207C3.0381 33.5207 2.56221 33.0175 2.56221 32.4099C2.56221 32.1157 2.67418 31.8404 2.87014 31.641C3.0661 31.4416 3.3367 31.3372 3.62597 31.3372C3.91524 31.3372 4.19518 31.4606 4.40047 31.6695C4.59642 31.8783 4.7084 32.1441 4.7084 32.4289V32.4194Z" fill="white"/>
<path d="M34.7551 58.9529C34.5311 58.8485 34.4938 58.801 34.5031 58.5542C34.5125 57.2916 34.5125 56.0005 34.5031 54.7664C34.5031 54.3107 34.5031 53.8646 34.5031 53.4089V50.1717C34.5031 49.4692 34.5031 48.7667 34.5031 48.0642C34.5031 47.713 34.3725 47.4092 34.1485 47.2193C33.9526 47.0579 33.7006 46.9915 33.43 47.0389C33.0568 47.1149 32.7862 47.4946 32.5622 47.8459C32.4316 48.0452 32.4596 48.2731 32.4782 48.4629C32.4782 48.5104 32.4876 48.5673 32.4876 48.6148V50.6558C32.4876 53.2095 32.4876 55.8581 32.4876 58.4593C32.4876 58.801 32.4503 58.877 32.2076 58.9814C30.8173 59.6079 30.1174 61.0414 30.4534 62.5319C30.7893 64.0128 32.0117 65.0096 33.4954 65.0096H33.5047C34.951 65.0096 36.2201 63.9748 36.528 62.5603C36.8639 61.0319 36.1454 59.589 34.7457 58.9624L34.7551 58.9529ZM34.5684 61.8483C34.5591 62.4464 34.0646 62.9211 33.4674 62.9116C32.8702 62.9021 32.4129 62.4084 32.4223 61.8009C32.4223 61.5066 32.5436 61.2313 32.7582 61.0224C32.9635 60.8231 33.2341 60.7186 33.514 60.7186C34.1019 60.7376 34.5778 61.2503 34.5684 61.8388V61.8483Z" fill="white"/>
<path d="M30.9384 33.4732C30.7238 33.9004 30.5279 34.3656 30.3506 34.8972C30.1453 35.5238 30.2199 36.1883 30.5745 36.7199C30.9291 37.2515 31.5076 37.5838 32.1608 37.6218C32.4688 37.6407 32.7674 37.6313 33.066 37.6218C33.0846 37.6218 33.1033 37.6218 33.1219 37.6218H33.4672C33.5978 37.6218 33.7192 37.6218 33.8498 37.6218C33.9804 37.6218 34.1017 37.6218 34.2324 37.6218C34.391 37.6218 34.5403 37.6218 34.6989 37.6218C35.4268 37.5933 36.052 37.261 36.4252 36.7104C36.7891 36.1503 36.8545 35.4383 36.6025 34.7548C36.4345 34.2896 36.2293 33.815 36.0053 33.3498C35.8747 33.0745 35.884 32.9131 36.0893 32.6663C36.9478 31.5841 37.0877 30.3405 36.4905 29.0589C36.0986 28.2235 35.3708 27.5874 34.4843 27.3121C33.5885 27.0368 32.6087 27.1602 31.8062 27.6444C30.9758 28.1475 30.4066 28.9829 30.2293 29.9512C30.0613 30.8816 30.2852 31.8309 30.8545 32.5619C31.1157 32.9036 31.1437 33.0935 30.9571 33.4637L30.9384 33.4732ZM34.3257 29.5715C34.5963 29.8089 34.7829 30.1696 34.8016 30.5303C34.8109 30.7107 34.7829 30.967 34.5963 31.1854C33.4952 32.41 33.8218 33.6156 34.3443 34.7358C34.4657 35.0016 34.6429 35.3814 34.6896 35.5617C34.5216 35.5997 34.1204 35.5997 33.7845 35.5997H33.3832C32.9353 35.5997 32.4688 35.6092 32.2915 35.5712C32.3288 35.3814 32.5434 34.9162 32.7394 34.508C33.1499 33.6346 33.4859 32.4764 32.4128 31.2613C31.9835 30.7772 32.1795 30.0367 32.6181 29.6285C33.094 29.1823 33.8311 29.1633 34.3257 29.5905V29.5715Z" fill="white"/>
</g>
<defs>
<clipPath id="clip0_2159_56769">
<rect width="66" height="65" fill="white" transform="translate(0.5)"/>
</clipPath>
</defs>
</svg>
