<svg width="69" height="69" viewBox="0 0 69 69" fill="none" xmlns="http://www.w3.org/2000/svg">
<g clip-path="url(#clip0_2724_66153)">
<path d="M0 36.6661C0 35.2318 0 33.7902 0 32.3559C0.0367765 32.1573 0.0882635 31.9661 0.117685 31.7675C0.389831 30.0169 0.536936 28.2443 0.948833 26.5305C6.07547 5.08246 29.7522 -6.36237 49.9351 3.69231C64.2264 10.8122 71.5817 26.5158 68.1468 42.109C65.19 55.5618 54.0099 66.2049 40.432 68.4777C39.1743 68.691 37.9092 68.8308 36.6441 69H32.3339C32.1868 68.9632 32.0323 68.9117 31.8852 68.8896C30.3112 68.6616 28.7224 68.5071 27.1631 68.1982C13.7912 65.5209 2.72146 54.0319 0.536936 40.5938C0.323633 39.2919 0.176527 37.9827 0 36.6734V36.6661ZM34.5184 64.6824C51.1414 64.653 64.6604 51.1266 64.6677 34.511C64.6677 17.8733 51.0899 4.31016 34.4595 4.33958C17.8366 4.369 4.31756 17.8954 4.3102 34.511C4.3102 51.1413 17.8881 64.7118 34.5184 64.6898V64.6824Z" fill="url(#paint0_linear_2724_66153)"/>
<path d="M32.3339 51.715C31.1056 51.0825 29.892 50.6264 28.8696 49.9056C26.2658 48.0742 24.9345 45.4925 24.8021 42.3076C24.7433 40.9322 25.6332 39.9392 26.8763 39.9024C28.1267 39.8657 29.0461 40.8071 29.1049 42.1752C29.23 45.2571 31.7234 47.5666 34.7685 47.4342C37.6886 47.3092 39.9761 44.7937 39.8731 41.8222C39.7775 39.0051 37.4532 36.7249 34.5773 36.6735C31.2821 36.6073 28.6121 35.3127 26.663 32.6648C22.6764 27.2587 25.3832 19.4621 31.8485 17.66C31.9956 17.6159 32.1427 17.5571 32.3413 17.4909C32.3413 17.101 32.3413 16.6965 32.3413 16.2919C32.3413 13.975 33.0106 12.9453 34.5111 12.96C36.0042 12.9673 36.6515 13.9824 36.6515 16.3287V17.4982C38.4977 17.9689 40.0938 18.8295 41.4103 20.1829C43.1756 21.9996 44.1024 24.1842 44.1907 26.707C44.2348 28.0751 43.3521 29.0754 42.1165 29.1196C40.8661 29.1563 39.9466 28.2149 39.8878 26.8468C39.7775 24.243 38.0122 22.1688 35.4967 21.6834C33.0474 21.2126 30.6054 22.4925 29.583 24.7726C27.9869 28.3399 30.5539 32.2676 34.5479 32.3559C38.733 32.4442 42.3003 34.9891 43.6537 38.8433C45.4778 44.0508 42.5725 49.7512 37.284 51.3399C37.0928 51.3988 36.9016 51.4576 36.6588 51.5311C36.6588 52.2667 36.6588 53.0022 36.6588 53.7451C36.6441 55.1058 35.7321 56.0767 34.4817 56.0694C33.2607 56.062 32.3633 55.0985 32.3486 53.7745C32.3486 53.039 32.3486 52.2961 32.3486 51.7224L32.3339 51.715Z" fill="url(#paint1_linear_2724_66153)"/>
</g>
<defs>
<linearGradient id="paint0_linear_2724_66153" x1="15.2824" y1="-80.2264" x2="110.257" y2="-41.6572" gradientUnits="userSpaceOnUse">
<stop stop-color="#3C3540"/>
<stop offset="0.345472" stop-color="#161E2E"/>
<stop offset="1" stop-color="#990076"/>
</linearGradient>
<linearGradient id="paint1_linear_2724_66153" x1="29.0946" y1="-37.1676" x2="59.2082" y2="-31.6621" gradientUnits="userSpaceOnUse">
<stop stop-color="#3C3540"/>
<stop offset="0.345472" stop-color="#161E2E"/>
<stop offset="1" stop-color="#990076"/>
</linearGradient>
<clipPath id="clip0_2724_66153">
<rect width="68.9779" height="69" fill="white"/>
</clipPath>
</defs>
</svg>
