<svg width="33" height="33" viewBox="0 0 33 33" fill="none" xmlns="http://www.w3.org/2000/svg">
<path d="M31.4703 14.3614L29.2525 11.8267C28.7772 11.3515 28.4604 10.401 28.4604 9.76733V7.23267C28.4604 5.4901 27.0347 4.22277 25.4505 4.22277H22.7574C22.1238 4.22277 21.1733 3.90594 20.698 3.43069L18.1634 1.21287C17.0545 0.262376 15.3119 0.262376 14.203 1.21287L11.8267 3.43069C11.3515 3.90594 10.401 4.22277 9.76733 4.22277H7.07426C5.33168 4.22277 4.06436 5.64851 4.06436 7.23267V9.92574C4.06436 10.5594 3.74752 11.5099 3.27228 11.9851L1.21287 14.5198C0.262376 15.6287 0.262376 17.3713 1.21287 18.4802L3.27228 21.0149C3.74752 21.4901 4.06436 22.4406 4.06436 23.0743V25.7673C4.06436 27.5099 5.4901 28.7772 7.07426 28.7772H9.76733C10.401 28.7772 11.3515 29.0941 11.8267 29.5693L14.3614 31.7871C15.4703 32.7376 17.2129 32.7376 18.3218 31.7871L20.8564 29.5693C21.3317 29.0941 22.2822 28.7772 22.9158 28.7772H25.6089C27.3515 28.7772 28.6188 27.3515 28.6188 25.7673V23.0743C28.6188 22.4406 28.9356 21.4901 29.4109 21.0149L31.6287 18.4802C32.4208 17.3713 32.4208 15.4703 31.4703 14.3614ZM22.9158 13.4109L15.3119 21.0149C15.1535 21.1733 14.8366 21.3317 14.5198 21.3317C14.203 21.3317 13.8861 21.1733 13.7277 21.0149L9.92574 17.2129C9.45049 16.7376 9.45049 15.9455 9.92574 15.4703C10.401 14.9951 11.1931 14.9951 11.6683 15.4703L14.6782 18.4802L21.1733 11.6683C21.6485 11.1931 22.4406 11.1931 22.9158 11.6683C23.3911 12.1436 23.3911 12.9356 22.9158 13.4109Z" fill="white"/>
</svg>
