<svg width="30" height="30" viewBox="0 0 30 30" fill="none" xmlns="http://www.w3.org/2000/svg">
<g clip-path="url(#clip0_2724_47680)">
<path d="M28.16 14.05H22.76V12.67L20.7 14.72L22.79 16.8V15.42H27.87C28.45 15.42 28.88 15.23 29.16 14.84C29.27 14.69 29.34 14.52 29.42 14.34C29.45 14.27 29.49 14.19 29.52 14.12V4.78L29.48 4.67C29.45 4.58 29.42 4.49 29.37 4.4C29.06 3.77 28.56 3.48 27.77 3.48C23.06 3.48 18.34 3.48 13.63 3.48H8.34V0H0V8.33H8.37V4.86H28.16V14.05ZM6.99 6.98H1.36V1.35H6.99V6.98Z" fill="#9B0077"/>
<path d="M29.5302 21.15H21.1602V29.52H29.5302V21.15ZM28.1502 28.16H22.5302V22.52H28.1502V28.16Z" fill="#9B0077"/>
<path d="M1.4198 15.44H10.5798V18.91H18.9298V10.58H10.5598V14.07H1.8198C0.659805 14.07 0.0498047 14.68 0.0498047 15.84V24.2C0.0498047 25.4 0.659805 26 1.8498 26H17.3398V27.38L19.4098 25.32L17.3298 23.25V24.64H1.4198V15.45V15.44ZM11.9398 11.93H17.5698V17.56H11.9398V11.93Z" fill="#9B0077"/>
</g>
<defs>
<clipPath id="clip0_2724_47680">
<rect width="29.53" height="29.52" fill="white"/>
</clipPath>
</defs>
</svg>
