<svg width="70" height="67" viewBox="0 0 70 67" fill="none" xmlns="http://www.w3.org/2000/svg">
<g clip-path="url(#clip0_1571_28911)">
<path d="M68.7057 2.68293C67.7048 1.24224 66.3742 0.492615 64.581 0.492615C44.7804 0.504328 24.9797 0.499308 5.1808 0.500981C2.34637 0.500981 0.442172 2.40349 0.442172 5.23467C0.440489 19.6784 0.450582 34.1221 0.428714 48.5658C0.427032 50.1771 1.0612 51.3919 2.30936 52.349C3.24296 53.0635 4.32122 53.2693 5.46676 53.2693C12.4477 53.266 19.427 53.2677 26.4079 53.2693C26.6535 53.2693 26.8991 53.2693 27.1464 53.2777C27.5013 53.2894 27.6998 53.4551 27.6645 53.8182C27.5232 55.2756 27.2052 56.6811 26.2901 57.8759C25.2506 59.2312 23.814 59.693 22.1554 59.6763C21.1966 59.6663 20.231 59.591 19.2806 59.8169C17.8525 60.1565 16.8449 60.9898 16.5067 62.4171C16.1518 63.9197 16.5404 65.2299 17.834 66.2121C18.5758 66.7743 19.4051 66.8981 20.2983 66.8981C28.8672 66.8915 37.4361 66.8948 46.005 66.8948C47.3255 66.8948 48.646 66.9199 49.9648 66.8848C51.4232 66.8463 52.7757 65.8289 53.2046 64.492C53.6823 63.0011 53.1794 61.3948 51.9565 60.4795C51.1894 59.9055 50.3012 59.7131 49.371 59.678C48.6342 59.6495 47.8941 59.6964 47.1556 59.6629C45.9394 59.6094 44.8393 59.2797 43.9343 58.3879C42.6525 57.1262 42.3009 55.5182 42.0957 53.8416C42.0536 53.4952 42.21 53.2911 42.5835 53.2811C42.8526 53.2727 43.1201 53.2727 43.3892 53.2727C50.3248 53.2727 57.2603 53.2744 64.1958 53.2727C67.0824 53.2727 68.7124 51.9508 69.2473 49.1949V4.57875C69.1228 3.93119 69.106 3.26356 68.7023 2.68293H68.7057ZM46.6038 62.2247C47.5189 62.2247 48.4357 62.1879 49.3508 62.1829C49.593 62.1829 49.8453 62.2013 50.0775 62.2665C50.6494 62.4255 50.9169 62.8338 50.8799 63.411C50.8446 63.9632 50.5333 64.318 49.9816 64.415C49.7209 64.4619 49.4467 64.4568 49.1792 64.4585C44.4154 64.4602 39.6532 64.4585 34.8893 64.4585C30.1255 64.4585 25.3179 64.4585 20.5338 64.4585C19.3799 64.4585 18.8466 64.0887 18.8601 63.3056C18.8735 62.5393 19.4202 62.1778 20.5759 62.1795C29.2507 62.1946 37.9273 62.213 46.6022 62.2247H46.6038ZM27.9134 59.8587C29.0405 58.495 29.6612 56.974 29.9774 55.3291C30.0901 54.7418 30.1557 54.1445 30.2045 53.5471C30.2331 53.194 30.3441 53.0602 30.7294 53.0619C33.4999 53.0786 36.2704 53.0853 39.0409 53.0585C39.5758 53.0535 39.5304 53.3697 39.5573 53.6927C39.7406 55.9215 40.3344 58.003 41.8467 59.8587H27.9134ZM66.9613 48.3349C66.9461 49.8475 66.0058 50.7879 64.4818 50.7879C44.7535 50.7912 25.0252 50.7912 5.29687 50.7879C3.73751 50.7879 2.8056 49.8458 2.7955 48.288C2.78709 47.0414 2.81737 45.7948 2.78205 44.5499C2.76859 44.0847 2.88802 43.9626 3.36407 43.9643C7.3676 43.986 11.3711 43.9776 15.3747 43.9776C21.8829 43.9776 28.3928 43.9776 34.9011 43.9776C45.3018 43.9776 55.7026 43.9776 66.1034 43.9776C66.6753 43.9776 66.9613 44.2733 66.9613 44.8645C66.9613 46.0207 66.9697 47.1786 66.9596 48.3349H66.9613ZM62.4043 40.9172C62.4043 41.5363 62.2176 41.6267 61.6591 41.6267C43.8031 41.6116 25.947 41.6116 8.08924 41.6267C7.5089 41.6267 7.35414 41.5029 7.35414 40.9055C7.37433 29.9991 7.37601 19.0911 7.35246 8.18465C7.35246 7.5622 7.54254 7.47686 8.09934 7.47853C17.0282 7.49526 25.9554 7.49024 34.8843 7.49024C43.8131 7.49024 52.7403 7.49694 61.6692 7.47686C62.2462 7.47686 62.406 7.59399 62.4043 8.19469C62.3824 19.1011 62.3824 30.0092 62.4043 40.9156V40.9172ZM66.211 41.6618C64.6769 41.62 64.6769 41.6485 64.6769 40.1509C64.6769 29.0889 64.6769 18.0268 64.6769 6.96484C64.6769 5.51913 64.3691 5.21459 62.9056 5.21459C44.2219 5.21459 25.5382 5.21459 6.85454 5.21459C5.39107 5.21459 5.08155 5.51913 5.08155 6.96484C5.08155 18.2711 5.07482 29.5791 5.09837 40.8854C5.09837 41.5547 4.90829 41.6836 4.28421 41.6635C2.79382 41.6167 2.79214 41.6485 2.79214 40.1743C2.79214 28.6672 2.7955 17.1601 2.78541 5.65299C2.78541 4.86655 2.91157 4.14704 3.49528 3.57311C4.06553 3.01424 4.78045 2.92723 5.54078 2.9289C11.9632 2.93727 18.384 2.93392 24.8065 2.93392H34.8759C44.6088 2.93392 54.3417 2.93392 64.0764 2.93392C66.1622 2.93392 66.9613 3.72538 66.9613 5.78518C66.9613 17.4931 66.9562 29.201 66.9764 40.9072C66.9764 41.5246 66.8132 41.6786 66.2077 41.6618H66.211Z" fill="#9B0077"/>
<path d="M52.7872 31.7878C52.54 31.5519 52.5181 31.403 52.7839 31.1687C53.1523 30.8441 53.487 30.4844 53.8318 30.1346C54.7015 29.2512 54.4795 28.3258 53.3036 27.9661C52.3448 27.6716 51.3843 27.3771 50.4137 27.1261C49.9292 27.0006 49.761 26.7931 49.7644 26.2677C49.7913 21.3483 49.7812 16.4289 49.7829 11.5094C49.7829 10.0453 49.4936 9.75082 48.0402 9.75082C42.8928 9.75082 37.7471 9.75082 32.5997 9.75082C27.4523 9.75082 22.2175 9.75082 17.0246 9.75082C15.721 9.75082 15.4014 10.0704 15.4014 11.3521C15.4014 18.231 15.4047 25.1081 15.4064 31.987C15.4064 32.1643 15.398 32.3434 15.4115 32.5207C15.4586 33.2135 15.8589 33.6217 16.5536 33.6837C16.7538 33.7021 16.9557 33.6903 17.1575 33.6903C25.5481 33.6903 33.9404 33.692 42.331 33.6853C42.7414 33.6853 43.019 33.7021 43.1418 34.2091C43.3941 35.2431 43.7238 36.2588 44.0484 37.2728C44.3849 38.3253 45.3168 38.5579 46.1209 37.8016C46.4943 37.4502 46.8862 37.1088 47.2042 36.7089C47.5456 36.2789 47.7576 36.391 48.0789 36.7324C48.7652 37.4636 49.4902 38.1613 50.2085 38.8624C50.9083 39.5468 51.4886 39.5568 52.1766 38.8842C53.1506 37.9338 54.1161 36.9733 55.0716 36.0045C55.7646 35.3017 55.763 34.7495 55.0716 34.0451C54.3197 33.2821 53.5627 32.5224 52.7889 31.7828L52.7872 31.7878ZM17.679 14.7874C17.7345 14.0578 17.7227 13.3182 17.6824 12.587C17.6571 12.1369 17.8119 12.0466 18.2375 12.0482C23.0232 12.0633 27.8089 12.0583 32.5947 12.0583C37.3804 12.0583 42.0332 12.0666 46.7517 12.0466C47.3051 12.0449 47.554 12.1219 47.4952 12.751C47.4279 13.4789 47.4531 14.2185 47.4884 14.9514C47.5103 15.3831 47.3471 15.4667 46.9502 15.4651C44.8037 15.4483 42.6556 15.4567 40.5092 15.4567C33.1296 15.4567 25.7483 15.45 18.3687 15.4701C17.8153 15.4701 17.6353 15.3546 17.679 14.7891V14.7874ZM42.8356 24.827C42.7717 24.8086 42.7111 24.7768 42.6472 24.7601C42.0669 24.6045 41.4815 24.3853 40.9533 24.899C40.4234 25.416 40.6236 26 40.7952 26.5756C41.2746 28.1786 41.7624 29.7799 42.2586 31.4197H41.6043C33.8613 31.4197 26.1184 31.413 18.3771 31.4331C17.8371 31.4331 17.674 31.3344 17.6773 30.7604C17.7059 26.6208 17.7042 22.4794 17.6773 18.3397C17.674 17.8227 17.822 17.7323 18.3064 17.7323C27.8173 17.7474 37.3266 17.7474 46.8375 17.7323C47.3556 17.7323 47.5086 17.8511 47.5019 18.3832C47.4716 20.9651 47.4884 23.547 47.4884 26.2058C45.9123 25.739 44.3731 25.2838 42.8356 24.827ZM52.4373 35.4222C52 35.792 51.6165 36.473 51.1707 36.5081C50.804 36.5366 50.3784 35.8171 49.9814 35.4255C49.6315 35.0808 49.2883 34.7328 48.9368 34.3881C48.015 33.4845 47.2462 33.4762 46.3412 34.3714C46.168 34.542 46.0317 34.7512 45.7811 35.0658C45.0005 32.4571 44.2755 30.0326 43.5085 27.4691C46.025 28.2054 48.4843 28.9249 51.1623 29.7096C50.8107 29.9974 50.5584 30.1698 50.3498 30.384C49.5995 31.147 49.6029 31.8029 50.3616 32.5776C51.0479 33.2787 51.7308 33.9848 52.4525 34.6475C52.7923 34.9604 52.762 35.1478 52.4373 35.4222Z" fill="#9B0077"/>
<path d="M38.1646 46.2433C37.0914 46.2299 36.0182 46.2399 34.9467 46.2399C33.8297 46.2399 32.7111 46.2299 31.5941 46.2433C30.8035 46.2533 30.3022 46.7151 30.3107 47.3861C30.3191 48.0236 30.8103 48.5022 31.5588 48.5072C33.7708 48.5239 35.9846 48.5239 38.1966 48.5072C38.9451 48.5022 39.4363 48.0253 39.4464 47.3861C39.4565 46.7134 38.9552 46.2516 38.1646 46.2416V46.2433Z" fill="#9B0077"/>
<path d="M30.0381 22.3104C28.5847 22.2987 27.1313 22.3071 25.678 22.3071C24.2465 22.3071 22.8166 22.2987 21.3851 22.3104C20.4061 22.3188 19.9889 22.7254 19.9805 23.6809C19.9687 25.0379 19.9687 26.3932 19.9805 27.7503C19.9889 28.7023 20.4212 29.1374 21.3834 29.1407C24.2666 29.1508 27.1515 29.1508 30.0347 29.1407C30.9986 29.1374 31.4175 28.7191 31.4276 27.7536C31.441 26.3966 31.441 25.0396 31.4276 23.6842C31.4175 22.7053 31.0222 22.3171 30.0364 22.3104H30.0381ZM29.0372 26.753C28.6924 27.1144 27.9405 26.8433 27.3668 26.8634C26.8101 26.8835 26.2516 26.8684 25.6931 26.8684C24.7124 26.8684 23.73 26.8534 22.7493 26.8768C22.3759 26.8852 22.2211 26.7881 22.2615 26.3982C22.3221 25.8093 22.0159 25.0446 22.3944 24.6781C22.6854 24.397 23.4508 24.5894 24.0059 24.5878C25.5451 24.5827 27.0842 24.5995 28.6234 24.5761C29.0221 24.5694 29.1903 24.6514 29.1466 25.0814C29.0877 25.6503 29.377 26.3949 29.0372 26.7513V26.753Z" fill="#9B0077"/>
</g>
<defs>
<clipPath id="clip0_1571_28911">
<rect width="68.8203" height="66.4055" fill="white" transform="translate(0.428711 0.492615)"/>
</clipPath>
</defs>
</svg>
