<svg width="72" height="72" viewBox="0 0 72 72" fill="none" xmlns="http://www.w3.org/2000/svg">
<g clip-path="url(#clip0_2705_90)">
<path d="M0 15.6098C0.382005 14.391 0.603814 13.093 1.17242 11.9676C3.17575 8.00487 6.46592 5.8879 10.9091 5.64485C12.1643 5.57616 13.4283 5.63428 14.7626 5.63428C14.7626 4.72902 14.7574 3.89245 14.7626 3.05587C14.7785 1.26648 15.9333 0.0125018 17.5617 0.00545691C19.1935 -0.00158792 20.3677 1.25415 20.3836 3.03298C20.3906 3.87131 20.3836 4.70965 20.3836 5.58673H33.0425C33.0425 4.65329 33.0126 3.70224 33.0496 2.7547C33.1253 0.817375 34.9473 -0.447174 36.7552 0.158682C37.8643 0.530297 38.6159 1.54299 38.6529 2.77232C38.6793 3.68462 38.6582 4.59869 38.6582 5.56912H51.4615C51.4615 4.63568 51.4263 3.68286 51.4686 2.73357C51.5654 0.53382 53.9208 -0.7184 55.7586 0.442237C56.6388 0.998779 57.0596 1.83007 57.0754 2.86214C57.0877 3.74979 57.0772 4.63744 57.0772 5.62371C57.901 5.62371 58.6879 5.63957 59.4748 5.62019C61.2423 5.57968 62.978 5.71354 64.6592 6.33524C68.8542 7.88687 71.8821 11.9465 71.949 16.4305C72.0334 21.9131 71.9877 27.3993 71.9718 32.882C71.9666 34.5023 70.7255 35.7105 69.1711 35.7122C67.592 35.7122 66.3703 34.4847 66.365 32.815C66.3491 27.6124 66.3615 22.4098 66.3562 17.2054C66.3544 14.7961 65.3669 12.938 63.1752 11.8514C62.5414 11.5379 61.8003 11.3441 61.0944 11.2983C59.7917 11.212 58.4784 11.2737 57.0772 11.2737C57.0772 12.1226 57.0825 12.9574 57.0772 13.7922C57.0648 15.6203 55.8889 16.8884 54.2341 16.869C52.6058 16.8497 51.4686 15.5957 51.4562 13.7975C51.451 12.9803 51.4562 12.1631 51.4562 11.2983H38.6617C38.6617 12.1191 38.6652 12.9327 38.6617 13.7447C38.6529 15.5957 37.5192 16.8602 35.868 16.8708C34.2132 16.8814 33.0513 15.6133 33.0408 13.7781C33.0355 12.9627 33.0408 12.1472 33.0408 11.2913H20.3818C20.3818 12.2194 20.4117 13.1687 20.3748 14.1163C20.3008 16.0554 18.4823 17.3199 16.6727 16.7176C15.539 16.3407 14.7961 15.3121 14.7679 14.037C14.7486 13.13 14.7644 12.223 14.7644 11.1768C13.1061 11.2578 11.4918 11.161 9.94973 11.4533C7.43589 11.9288 5.77408 14.118 5.63149 16.7546C5.62093 16.9412 5.62269 17.1297 5.62269 17.3164C5.62269 31.6597 5.62269 46.003 5.62269 60.3463C5.62269 62.782 6.56978 64.7035 8.81076 65.7567C9.66631 66.1582 10.7014 66.3432 11.6556 66.3502C18.5668 66.3995 25.4799 66.3802 32.3912 66.3714C33.2996 66.3714 34.1129 66.5668 34.7624 67.2273C36.1144 68.601 35.7007 70.8889 33.9544 71.7219C33.7467 71.8223 33.5319 71.9086 33.3207 72.0019H9.98142C9.87756 71.9579 9.77721 71.8927 9.66983 71.8751C5.71599 71.2376 2.83247 69.1171 1.10729 65.5207C0.58445 64.427 0.36088 63.1888 0 62.0159C0 46.5472 0 31.0785 0 15.6098Z" fill="#9B0077"/>
<path d="M53.5651 72C51.9596 71.602 50.3031 71.3466 48.7575 70.7812C41.4589 68.1095 36.8326 60.0238 38.1951 52.3713C39.3957 45.6241 43.2545 40.964 49.738 38.8576C56.3782 36.7001 62.39 38.2552 67.2381 43.2888C71.7165 47.9401 72.9312 53.5689 71.2747 59.8054C69.6885 65.7741 63.9373 70.8623 57.8182 71.7358C57.3341 71.8045 56.8571 71.9102 56.3765 72H53.5651ZM54.9664 66.3729C61.2334 66.3765 66.3649 61.239 66.3561 54.9709C66.3473 48.7274 61.2527 43.6199 55.0104 43.5952C48.7469 43.5706 43.5995 48.6904 43.5855 54.9621C43.5714 61.2284 48.6994 66.3694 54.9664 66.3729Z" fill="#9B0077"/>
<path d="M17.5582 26.7246C19.1038 26.7158 20.3819 27.9874 20.3801 29.5337C20.3801 31.0801 19.0986 32.3499 17.5547 32.3393C16.0372 32.3288 14.7856 31.0836 14.768 29.5654C14.7504 28.0208 16.0144 26.7334 17.5582 26.7246Z" fill="#9B0077"/>
<path d="M29.7999 26.7246C31.3456 26.7211 32.6183 27.9979 32.6113 29.5443C32.6042 31.0906 31.3209 32.3552 29.7753 32.3393C28.2578 32.3235 27.0115 31.073 26.9974 29.5548C26.9851 28.0085 28.2526 26.7281 29.7982 26.7246H29.7999Z" fill="#9B0077"/>
<path d="M42.0521 32.3376C40.5065 32.3464 39.2285 31.0748 39.2302 29.5284C39.2302 27.9821 40.51 26.7123 42.0557 26.7228C43.5731 26.7334 44.8247 27.9786 44.8441 29.4967C44.8635 31.0413 43.5995 32.3288 42.0539 32.3376H42.0521Z" fill="#9B0077"/>
<path d="M54.2553 32.3376C52.7097 32.3305 51.4457 31.0448 51.4616 29.5003C51.4792 27.9539 52.7713 26.6964 54.3169 26.7246C55.8344 26.751 57.0719 28.0085 57.0755 29.5284C57.0772 31.0748 55.8009 32.3481 54.2553 32.3393V32.3376Z" fill="#9B0077"/>
<path d="M17.588 44.5727C16.0423 44.5797 14.7661 43.3081 14.7678 41.7618C14.7696 40.2154 16.0494 38.9456 17.595 38.9579C19.1125 38.9703 20.3623 40.2154 20.38 41.7336C20.3976 43.2782 19.1318 44.5639 17.588 44.5727Z" fill="#9B0077"/>
<path d="M32.6111 41.7653C32.6111 43.3117 31.3331 44.5833 29.7892 44.5745C28.2436 44.5656 26.9796 43.2782 26.999 41.7336C27.0166 40.2155 28.2682 38.9703 29.7875 38.9597C31.3331 38.9492 32.6129 40.219 32.6129 41.7653H32.6111Z" fill="#9B0077"/>
<path d="M20.3801 53.9899C20.3853 55.5362 19.1108 56.8113 17.567 56.8078C16.0213 56.8043 14.7539 55.5221 14.7679 53.9758C14.782 52.4576 16.0284 51.2089 17.5458 51.1931C19.0915 51.1772 20.3748 52.4435 20.3801 53.9899Z" fill="#9B0077"/>
<path d="M32.6113 53.9881C32.6183 55.5345 31.3438 56.8096 29.7982 56.8078C28.2526 56.8043 26.9851 55.5239 26.9974 53.9776C27.0097 52.4594 28.2561 51.2089 29.7753 51.1931C31.3209 51.1772 32.6042 52.4418 32.6113 53.9881Z" fill="#9B0077"/>
<path d="M57.7779 52.1829C58.3272 52.1829 58.7725 52.1582 59.2126 52.1882C60.7301 52.2903 61.8743 53.5302 61.855 55.0237C61.8356 56.489 60.6984 57.7201 59.2056 57.7765C57.7339 57.8311 56.2569 57.8328 54.7852 57.773C53.3505 57.7148 52.2186 56.5771 52.1799 55.1364C52.1288 53.1251 52.1288 51.1121 52.1781 49.1008C52.2151 47.5738 53.4685 46.4167 54.963 46.4132C56.484 46.4096 57.7145 47.5914 57.7709 49.1571C57.8061 50.1346 57.7779 51.1138 57.7779 52.1846V52.1829Z" fill="#9B0077"/>
</g>
<defs>
<clipPath id="clip0_2705_90">
<rect width="72" height="72" fill="white"/>
</clipPath>
</defs>
</svg>
