<svg width="29" height="40" viewBox="0 0 29 40" fill="none" xmlns="http://www.w3.org/2000/svg">
<g clip-path="url(#clip0_2159_55982)">
<path d="M3.95505 15.9775C3.95505 15.7049 3.95285 15.4445 3.95505 15.1829C3.97595 13.3101 3.87583 11.4261 4.04196 9.56659C4.45011 5.00406 7.71096 1.33512 12.1336 0.280177C18.2438 -1.17761 24.3849 3.21243 24.9503 9.52986C25.1264 11.4995 25.0197 13.4959 25.0417 15.4801C25.0439 15.6437 25.0417 15.8061 25.0417 15.9163C25.5972 16.0331 26.122 16.0821 26.6028 16.2546C28.0209 16.762 28.9835 18.1108 28.9868 19.6264C29.0011 25.2071 29.0066 30.7868 28.9857 36.3675C28.978 38.3984 27.3333 39.9886 25.2837 39.9931C20.1229 40.0042 14.9621 39.9964 9.80125 39.9964C7.82428 39.9964 5.84841 39.9986 3.87143 39.9964C1.56552 39.9942 0.0022003 38.4095 0 36.0726C0 30.7145 0 25.3563 0 19.9981C0 17.6322 1.4302 16.1155 3.76252 16.0031C3.81423 16.0009 3.86593 15.9897 3.95285 15.9775H3.95505ZM14.544 18.6694C11.0169 18.6694 7.48983 18.6694 3.96275 18.6694C3.00892 18.6694 2.63706 19.0399 2.63706 19.9914C2.63706 25.3207 2.63706 30.651 2.63706 35.9803C2.63706 36.9651 3.00011 37.3312 3.97705 37.3312C10.9894 37.3312 18.0029 37.3312 25.0153 37.3312C25.9999 37.3312 26.3618 36.9696 26.3618 35.987C26.3618 30.6577 26.3618 25.3273 26.3618 19.9981C26.3618 19.0366 25.9977 18.6694 25.0428 18.6694C21.5432 18.6694 18.0436 18.6694 14.544 18.6694ZM22.3958 15.9875C22.3958 14.0145 22.4728 12.0838 22.3793 10.1608C22.1791 6.04565 18.7411 2.73949 14.6969 2.67717C10.1885 2.60707 6.60861 6.15582 6.59211 10.7161C6.58661 12.3397 6.59101 13.9633 6.59211 15.5858C6.59211 15.7182 6.60421 15.8517 6.60971 15.9875H22.3947H22.3958Z" fill="#9B0077"/>
</g>
<defs>
<clipPath id="clip0_2159_55982">
<rect width="29" height="40" fill="white"/>
</clipPath>
</defs>
</svg>
