<svg width="21" height="27" viewBox="0 0 21 27" fill="none" xmlns="http://www.w3.org/2000/svg">
<g clip-path="url(#clip0_2724_47748)">
<path d="M9.48989 13.44C11.2199 13.44 12.8399 12.77 14.0599 11.54C15.2799 10.32 15.9499 8.69 15.9499 6.96C15.9499 3.4 13.0499 0.5 9.49989 0.5C7.76989 0.5 6.14989 1.18 4.91989 2.4C3.69989 3.63 3.01989 5.25 3.02989 6.97C3.02989 10.53 5.92989 13.43 9.48989 13.43V13.44ZM9.35989 1.94C12.0499 1.83 14.3999 4.01 14.5299 6.72C14.6599 9.55 12.5199 11.87 9.65989 12C9.58989 12 9.51989 12 9.44989 12C8.24989 12 7.04989 11.52 6.11989 10.67C5.13989 9.77 4.54989 8.54 4.48989 7.29C4.35989 4.37 6.45989 2.06 9.36989 1.93L9.35989 1.94Z" fill="#9B0077"/>
<path d="M9.70992 24.37H2.69992C1.88992 24.37 1.43992 23.92 1.43992 23.1C1.43992 22.61 1.43992 22.12 1.43992 21.64C1.43992 20.57 1.43992 19.5 1.43992 18.43C1.40992 16.73 2.10992 15.43 3.50992 14.56C3.86992 14.33 3.97992 13.91 3.76992 13.56C3.66992 13.4 3.50992 13.28 3.32992 13.24C3.27992 13.23 3.21992 13.22 3.16992 13.22C3.01992 13.22 2.87992 13.26 2.73992 13.35C0.999921 14.45 0.0799208 15.99 0.0299208 17.93C-0.0100792 19.19 -7.91652e-05 20.48 0.00992083 21.73C0.00992083 22.25 0.00992083 22.76 0.00992083 23.28C0.00992083 23.45 0.0199208 23.6 0.0499208 23.73C0.299921 24.97 1.31992 25.79 2.63992 25.8C3.41992 25.8 4.19992 25.8 4.98992 25.8H6.05992H8.35992C8.84992 25.8 9.32992 25.8 9.81992 25.79C10.0299 25.79 10.2099 25.7 10.3399 25.54C10.4699 25.38 10.5299 25.17 10.4899 24.96C10.4399 24.6 10.1199 24.36 9.69992 24.36L9.70992 24.37Z" fill="#9B0077"/>
<path d="M20.1198 20.2C19.9098 20.18 19.7098 20.28 19.4998 20.5C18.8398 21.16 18.1898 21.82 17.5298 22.48L15.8098 24.21C15.8098 24.21 15.7498 24.29 15.7098 24.35C15.6898 24.39 15.6698 24.42 15.6398 24.46L15.4998 24.66L14.5498 23.71C14.1398 23.3 13.7398 22.9 13.3498 22.5C13.1598 22.31 12.9398 22.21 12.7398 22.21C12.5698 22.21 12.3998 22.28 12.2598 22.42C12.1298 22.55 12.0498 22.72 12.0498 22.9C12.0498 23.11 12.1498 23.33 12.3298 23.51C13.1498 24.33 13.9698 25.15 14.7898 25.97C15.2498 26.43 15.5998 26.43 16.0698 25.97C17.5398 24.5 19.0198 23.02 20.4898 21.55C20.5798 21.46 20.6498 21.39 20.6898 21.32C20.8498 21.08 20.8598 20.83 20.7298 20.58C20.6098 20.34 20.4098 20.22 20.1198 20.21V20.2Z" fill="#9B0077"/>
<path d="M15.8499 13.2C15.8499 13.2 15.7899 13.22 15.7499 13.22C15.6599 13.24 15.5799 13.26 15.5099 13.29C15.2599 13.41 15.1299 13.6 15.1099 13.88C15.0899 14.18 15.2199 14.4 15.4999 14.57C16.4199 15.12 17.0399 15.9 17.3499 16.89C17.4099 17.1 17.4499 17.31 17.4799 17.52C17.4999 17.64 17.5199 17.76 17.5499 17.88C17.6299 18.25 17.9799 18.5 18.3399 18.45C18.7299 18.39 18.9999 18.05 18.9599 17.67C18.7699 15.8 17.8499 14.34 16.2399 13.35C16.1599 13.3 16.0499 13.26 15.9399 13.23C15.9099 13.22 15.8799 13.21 15.8399 13.2H15.8499Z" fill="#9B0077"/>
</g>
<defs>
<clipPath id="clip0_2724_47748">
<rect width="20.82" height="25.8" fill="white" transform="translate(0 0.51001)"/>
</clipPath>
</defs>
</svg>
