<svg width="15" height="9" viewBox="0 0 15 9" fill="none" xmlns="http://www.w3.org/2000/svg">
<path d="M6.92061 8.76223L0.241412 2.16436C0.16646 2.09729 0.105622 2.01031 0.0637187 1.9103C0.0218158 1.81029 0 1.70001 0 1.58819C0 1.47637 0.0218158 1.36609 0.0637187 1.26608C0.105622 1.16607 0.16646 1.07909 0.241412 1.01202L1.0197 0.237776C1.18627 0.0836461 1.39104 0 1.60179 0C1.81254 0 2.01731 0.0836461 2.18388 0.237776L7.5 5.46652L12.8161 0.237776C12.9827 0.0836461 13.1875 0 13.3982 0C13.609 0 13.8137 0.0836461 13.9803 0.237776L14.7586 1.01202C14.8335 1.07909 14.8944 1.16607 14.9363 1.26608C14.9782 1.36609 15 1.47637 15 1.58819C15 1.70001 14.9782 1.81029 14.9363 1.9103C14.8944 2.01031 14.8335 2.09729 14.7586 2.16436L8.08479 8.76223C7.91822 8.91636 7.71345 9 7.5027 9C7.29195 9 7.08718 8.91636 6.92061 8.76223Z" fill="#9B0077"/>
</svg>
