<svg width="46" height="47" viewBox="0 0 46 47" fill="none" xmlns="http://www.w3.org/2000/svg">
<g clip-path="url(#clip0_2724_67324)">
<path d="M28.3825 2.19371C28.5355 3.06091 28.7553 3.91639 28.9246 4.78089C28.9741 5.03303 29.0822 5.16901 29.3262 5.24555C30.0673 5.47788 30.7805 5.78496 31.4739 6.13526C31.6666 6.23251 31.8134 6.22441 31.9998 6.10104C32.8598 5.53281 33.7306 4.9799 34.6005 4.42698C35.411 3.91189 35.9999 3.97493 36.6843 4.65752C38.4115 6.3811 40.1378 8.10648 41.8595 9.83636C42.5223 10.5018 42.5835 11.0935 42.0811 11.8841C41.5372 12.7423 40.9896 13.5987 40.4322 14.4479C40.2989 14.6505 40.2494 14.8144 40.3737 15.0521C40.7321 15.741 41.0275 16.4596 41.2643 17.199C41.3372 17.4259 41.4705 17.5249 41.7019 17.5718C42.697 17.7735 43.6885 17.9932 44.6817 18.2066C45.5931 18.4011 45.9974 18.9009 45.9983 19.8456C46.0001 22.286 46.001 24.7263 45.9983 27.1667C45.9974 28.106 45.5895 28.5985 44.6673 28.7949C43.6741 29.0065 42.6826 29.228 41.6875 29.4288C41.4498 29.4765 41.3309 29.5927 41.2598 29.8133C41.0221 30.5527 40.7231 31.2695 40.3683 31.9602C40.2566 32.1772 40.2872 32.3303 40.416 32.5257C40.9833 33.3866 41.5381 34.2556 42.0901 35.1264C42.579 35.8972 42.5214 36.496 41.8802 37.1408C40.1378 38.8923 38.3917 40.6393 36.6402 42.3809C35.9963 43.0212 35.3966 43.0779 34.6257 42.5889C33.7549 42.0369 32.885 41.4822 32.025 40.9149C31.8296 40.7861 31.6765 40.7573 31.4595 40.868C30.7688 41.2228 30.0538 41.5254 29.3118 41.7577C29.0605 41.8361 28.9714 41.9865 28.9219 42.2323C28.722 43.2283 28.5022 44.2197 28.2834 45.2112C28.088 46.1009 27.5918 46.4962 26.6652 46.4971C24.2248 46.4998 21.7844 46.4989 19.344 46.4971C18.3994 46.4971 17.8996 46.0919 17.7042 45.1806C17.4908 44.1873 17.271 43.1959 17.0693 42.2008C17.0225 41.9694 16.9243 41.8361 16.6974 41.7631C15.9572 41.5263 15.2395 41.23 14.5497 40.8734C14.3137 40.7519 14.149 40.7942 13.9454 40.9284C13.1089 41.4786 12.2651 42.0171 11.4213 42.5556C10.5829 43.0905 10.0075 43.0302 9.30239 42.3269C7.58511 40.6141 5.86873 38.9004 4.15596 37.1831C3.47247 36.4987 3.40944 35.9098 3.92453 35.0994C4.47744 34.2295 5.03036 33.3587 5.59858 32.4987C5.72195 32.3123 5.73185 32.1655 5.6337 31.9728C5.2753 31.2668 4.97002 30.5374 4.72688 29.7836C4.65845 29.572 4.53958 29.4747 4.32345 29.4306C3.48958 29.2604 2.66291 29.047 1.82543 28.902C1.0636 28.7705 0.38641 28.5454 -0.00170898 27.8097V19.2746C0.284653 18.5966 0.813255 18.2823 1.52556 18.1571C2.43688 17.9968 3.33379 17.7591 4.24241 17.5772C4.50446 17.5249 4.66565 17.4322 4.7485 17.1629C4.97182 16.4344 5.27259 15.7338 5.61929 15.0557C5.73726 14.8243 5.70844 14.6595 5.57156 14.4515C5.01234 13.6032 4.46664 12.7459 3.92183 11.8877C3.41754 11.0935 3.47427 10.4973 4.13074 9.83727C5.86333 8.09748 7.59952 6.36039 9.34021 4.6278C10.0003 3.97042 10.5964 3.91459 11.3907 4.41978C12.2606 4.9727 13.1314 5.52651 13.9914 6.09473C14.176 6.2163 14.3228 6.23431 14.5173 6.13526C15.2233 5.77685 15.9527 5.47068 16.7064 5.22934C16.9387 5.1546 17.0243 5.01232 17.0711 4.78539C17.2638 3.84886 17.5043 2.92223 17.6691 1.98119C17.7987 1.24367 18.14 0.729479 18.8658 0.498047H27.3109C27.9835 0.863655 28.2546 1.4679 28.3816 2.19191L28.3825 2.19371ZM26.431 6.25503C26.2554 5.37612 26.0447 4.50443 25.879 3.62373C25.8232 3.32566 25.7007 3.24551 25.4072 3.24821C23.8052 3.26262 22.2031 3.26172 20.6011 3.24821C20.3121 3.24551 20.1806 3.31485 20.123 3.61652C19.9591 4.48192 19.7465 5.3383 19.5808 6.2037C19.4404 6.94032 19.0396 7.39688 18.3084 7.59949C17.1828 7.91107 16.1067 8.35592 15.0918 8.93405C14.4371 9.30686 13.832 9.28885 13.2052 8.85931C12.4533 8.34422 11.6698 7.87595 10.9125 7.36986C10.709 7.23388 10.5973 7.2555 10.4307 7.42479C9.27357 8.59726 8.10561 9.75802 6.94125 10.9224C6.86831 10.9953 6.79897 11.0728 6.72062 11.1574C6.78185 11.2547 6.83498 11.3429 6.89172 11.4303C7.3915 12.2101 7.88048 12.9972 8.39557 13.768C8.77559 14.3362 8.81161 14.8927 8.47932 15.4934C7.88498 16.5677 7.40681 17.6924 7.07722 18.8766C6.88361 19.5727 6.41985 19.941 5.72195 20.0761C4.84215 20.2463 3.96955 20.4516 3.09155 20.6317C2.85742 20.6794 2.74395 20.7587 2.74665 21.0369C2.76286 22.684 2.76016 24.331 2.74846 25.9781C2.74666 26.2266 2.83761 26.3167 3.06274 26.3626C3.94073 26.5427 4.81333 26.7507 5.69313 26.9173C6.42885 27.0569 6.89442 27.4477 7.09613 28.1807C7.41041 29.3217 7.86697 30.4086 8.4478 31.4388C8.81071 32.0817 8.78189 32.6716 8.36406 33.2839C7.84896 34.0358 7.3807 34.8193 6.87641 35.5784C6.74673 35.7729 6.73773 35.8855 6.91603 36.0611C8.1002 37.2273 9.27538 38.4024 10.4415 39.5866C10.6207 39.7685 10.7333 39.746 10.9242 39.619C11.6969 39.1075 12.4884 38.6258 13.2583 38.1098C13.8248 37.7307 14.3795 37.6838 14.9828 38.0152C16.058 38.6068 17.181 39.0895 18.3661 39.4173C19.0613 39.6091 19.4377 40.0675 19.5754 40.7654C19.7483 41.6443 19.9537 42.5178 20.1284 43.3967C20.1815 43.6632 20.2886 43.7542 20.5714 43.7515C22.1887 43.7362 23.8052 43.7353 25.4225 43.7515C25.7332 43.7551 25.8259 43.6398 25.8799 43.3598C26.0483 42.4953 26.2581 41.638 26.4247 40.7726C26.5634 40.0522 26.9587 39.6028 27.6693 39.4056C28.8093 39.0895 29.898 38.6366 30.9282 38.0557C31.5694 37.6946 32.1601 37.7108 32.7734 38.1287C33.5262 38.642 34.3123 39.1057 35.0679 39.6163C35.2921 39.7676 35.4047 39.7415 35.5848 39.5578C36.7401 38.3844 37.9054 37.2201 39.0779 36.0638C39.2508 35.8936 39.2598 35.781 39.1265 35.582C38.6042 34.7986 38.1107 33.9971 37.5911 33.2119C37.2246 32.659 37.1877 32.1087 37.5101 31.5252C38.1107 30.4374 38.5934 29.2991 38.9293 28.1006C39.1193 27.4216 39.5785 27.0632 40.2557 26.9272C41.1346 26.7516 42.0072 26.5481 42.8861 26.3716C43.1428 26.3203 43.2562 26.2347 43.2535 25.9384C43.2364 24.3067 43.2373 22.6741 43.2526 21.0423C43.2553 20.7713 43.1554 20.6803 42.9149 20.6308C42.0513 20.4543 41.195 20.2445 40.3287 20.0842C39.5731 19.9446 39.104 19.5484 38.8968 18.7956C38.5871 17.6699 38.1386 16.5947 37.5605 15.5789C37.1859 14.9225 37.2165 14.3182 37.646 13.6933C38.1539 12.9548 38.6114 12.1813 39.1103 11.4375C39.2517 11.2268 39.2634 11.1106 39.0688 10.9197C37.8937 9.76612 36.7284 8.60176 35.5767 7.42479C35.3794 7.22398 35.2606 7.2591 35.058 7.39327C34.2862 7.90477 33.4947 8.38744 32.7229 8.90073C32.1529 9.27985 31.5964 9.30416 30.9966 8.97277C29.9223 8.37843 28.7967 7.90386 27.6125 7.57248C26.9353 7.38337 26.567 6.93311 26.431 6.25322V6.25503Z" fill="white"/>
<path d="M33.9836 23.4919C33.9953 29.5442 29.0974 34.4538 23.019 34.4836C16.9783 34.5133 12.0606 29.6172 12.0165 23.5297C11.9724 17.4972 16.8613 12.5759 22.9586 12.5155C28.9966 12.4561 33.9719 17.4098 33.9836 23.4919ZM22.9956 15.2495C18.466 15.254 14.7298 18.9992 14.7496 23.5153C14.7694 28.0386 18.457 31.728 22.9821 31.7505C27.4981 31.773 31.2416 28.0413 31.2506 23.5072C31.2605 18.9857 27.5215 15.2459 22.9965 15.2495H22.9956Z" fill="white"/>
</g>
<defs>
<clipPath id="clip0_2724_67324">
<rect width="46" height="46" fill="white" transform="matrix(-1 0 0 1 46 0.5)"/>
</clipPath>
</defs>
</svg>
