<svg width="40" height="39" viewBox="0 0 40 39" fill="none" xmlns="http://www.w3.org/2000/svg">
<g clip-path="url(#clip0_2159_55883)">
<path d="M9.64286 18.8066C10.1779 16.0829 12.4147 14.8979 14.2792 14.9511C16.0645 15.0021 18.3491 16.2381 18.7127 19.1962C19.4094 18.4995 20.0997 17.8105 20.8051 17.1051C21.1057 17.4404 21.3803 17.7464 21.6994 18.1013C21.491 18.2662 21.2164 18.4832 20.9408 18.7003C20.9646 18.7383 20.9885 18.7751 21.0124 18.8131C21.0938 18.8261 21.1763 18.85 21.2577 18.85C24.6698 18.8511 28.0831 18.8685 31.4952 18.8446C35.0311 18.8196 38.0037 15.957 38.1947 12.4401C38.389 8.85152 35.8169 5.67206 32.2756 5.29551C30.793 5.13817 29.2791 5.26947 27.7477 5.26947C27.5252 6.49242 26.9131 7.52765 25.856 8.27314C24.9976 8.87865 24.0349 9.14777 22.9844 9.09351C21.3141 9.0067 19.0632 7.8304 18.6779 4.80286C17.9573 5.52122 17.2616 6.21463 16.5497 6.9254C16.274 6.62481 15.9951 6.32097 15.6565 5.95311C15.9028 5.76212 16.1785 5.54726 16.4542 5.33241L16.3836 5.23257H9.55495C9.2858 6.66171 8.54563 7.79459 7.25521 8.52381C6.2752 9.07723 5.21921 9.23024 4.11546 9.00561C1.9503 8.56396 0.422211 6.58466 0.503608 4.34059C0.585005 2.13666 2.29543 0.306029 4.57129 0.029318C6.36636 -0.188796 8.90486 0.787832 9.5734 3.88374H16.4661C16.1438 3.6092 15.8822 3.38675 15.6011 3.14802C15.9886 2.79969 16.2946 2.52514 16.5659 2.28099C17.2073 2.91688 17.9052 3.60812 18.6823 4.37857C18.8266 3.04601 19.2933 1.99994 20.2093 1.18065C21.1209 0.365712 22.1888 -0.0227688 23.4055 0.00870034C25.1365 0.0542763 27.2268 1.19802 27.7673 3.90219C27.917 3.90219 28.0755 3.90002 28.235 3.90219C29.6285 3.92606 31.0307 3.85878 32.4134 3.99226C35.9992 4.33842 39.0337 7.40937 39.4287 10.9827C39.9182 15.4069 37.1279 19.1973 32.7542 20.0209C32.2397 20.1175 31.7047 20.1413 31.1783 20.1424C27.942 20.1533 24.7046 20.1479 21.4682 20.1479H21.0319L20.9701 20.2368C21.2479 20.4593 21.5268 20.6817 21.8231 20.9194C21.4313 21.284 21.135 21.5596 20.8691 21.8081C20.1941 21.1342 19.4995 20.4408 18.7148 19.6574C18.5737 21.0181 18.094 22.074 17.1629 22.8943C16.236 23.7104 15.1485 24.0956 13.9178 24.0381C12.0641 23.9513 10.116 22.6654 9.64177 20.1717C6.9904 19.9601 4.72974 20.7468 3.13761 22.9421C1.49014 25.2144 1.29153 27.7015 2.6221 30.1724C4.15996 33.0285 6.72559 34.016 9.93046 33.7696C9.66131 33.4875 9.41929 33.2347 9.16316 32.9666C9.47464 32.6693 9.77201 32.385 10.052 32.1159C10.7336 32.7952 11.4303 33.4886 12.1531 34.2091C12.8553 31.3574 14.3682 29.9337 16.6734 29.8979C18.9221 29.8642 20.5631 31.2423 21.2729 33.7761H28.07C28.0918 33.7512 28.1124 33.7262 28.1341 33.7013C27.853 33.481 27.5719 33.2607 27.2734 33.0263C27.6685 32.6541 27.9626 32.3774 28.2198 32.1343C28.9046 32.8115 29.6025 33.5027 30.3806 34.2721C30.5716 32.5966 31.276 31.3628 32.6272 30.5457C33.6181 29.9478 34.6903 29.7741 35.8288 29.9803C38.0026 30.3731 39.5904 32.4045 39.4949 34.6768C39.4016 36.8981 37.6282 38.7504 35.3676 38.9761C33.3956 39.1736 30.7833 37.9214 30.3698 34.6909C29.6459 35.4093 28.948 36.1005 28.235 36.808C27.9724 36.5259 27.6978 36.2307 27.3928 35.903C27.6088 35.6762 27.853 35.418 28.1352 35.1206H21.2544C21.0102 36.4347 20.3601 37.5047 19.2271 38.2502C18.374 38.8123 17.4287 39.0532 16.4107 38.9805C14.6884 38.8568 12.546 37.6262 12.1824 34.7246C11.4748 35.4299 10.7813 36.1201 10.0726 36.8254C9.78069 36.5118 9.4996 36.2101 9.16424 35.8499C9.40518 35.6632 9.68193 35.4484 9.95976 35.2324C9.93589 35.1857 9.91093 35.1391 9.88705 35.0913C9.43665 35.0913 8.98626 35.0968 8.53586 35.0913C7.01102 35.0718 5.59906 34.6584 4.30973 33.8467C1.41525 32.0334 -0.0184183 28.6521 0.670743 25.2903C1.33603 22.0468 4.03081 19.4696 7.34421 18.9574C8.08872 18.8424 8.85277 18.8544 9.64177 18.8066H9.64286ZM8.29818 4.57823C8.30903 2.78232 6.85583 1.31087 5.06509 1.30436C3.2863 1.29785 1.81898 2.73675 1.80053 4.50553C1.781 6.30252 3.22552 7.78483 5.013 7.80111C6.80807 7.81738 8.28841 6.36546 8.29818 4.57823ZM23.2796 1.30327C21.4834 1.29134 20.0096 2.74326 20.002 4.53266C19.9944 6.31012 21.4324 7.77832 23.2014 7.80002C24.9976 7.82172 26.4833 6.37631 26.4996 4.59017C26.5159 2.79317 25.0681 1.31521 23.2796 1.30327ZM17.3984 19.5065C17.4005 17.7128 15.9386 16.25 14.1457 16.2511C12.3702 16.2522 10.9116 17.6998 10.8996 19.4718C10.8888 21.2666 12.342 22.7403 14.1316 22.7479C15.9245 22.7554 17.3951 21.2959 17.3984 19.5054V19.5065ZM13.5 34.4305C13.4924 36.2242 14.951 37.6935 16.7418 37.6968C18.5173 37.7 19.9835 36.2546 19.9987 34.4858C20.0139 32.6888 18.5651 31.212 16.7765 31.2C14.9803 31.1881 13.5065 32.6411 13.5 34.4305ZM31.7025 34.4305C31.6949 36.2231 33.1546 37.6935 34.9443 37.6968C36.7198 37.7 38.185 36.2546 38.2002 34.4847C38.2154 32.6878 36.7665 31.2109 34.9779 31.1989C33.1818 31.1881 31.709 32.6411 31.7014 34.4305H31.7025Z" fill="white"/>
<path d="M8.29863 4.57822C8.28777 6.36545 6.80743 7.81737 5.01344 7.80109C3.22597 7.78481 1.78144 6.30359 1.80098 4.50551C1.81943 2.73673 3.28783 1.29783 5.06554 1.30434C6.85627 1.31085 8.30948 2.78339 8.29863 4.57822Z" fill="white"/>
<path d="M23.2776 1.3033C25.0662 1.31523 26.514 2.7932 26.4977 4.59019C26.4814 6.37525 24.9956 7.82174 23.1995 7.80004C21.4304 7.77834 19.9924 6.31014 20 4.53268C20.0076 2.74328 21.4825 1.29136 23.2776 1.3033Z" fill="white"/>
<path d="M17.3972 19.5065C17.3951 21.2959 15.9234 22.7565 14.1305 22.7489C12.3409 22.7413 10.8876 21.2677 10.8985 19.4729C10.9094 17.7009 12.368 16.2533 14.1446 16.2522C15.9375 16.2511 17.3994 17.7139 17.3972 19.5076V19.5065Z" fill="white"/>
<path d="M13.5 34.4305C13.5076 32.6411 14.9804 31.1881 16.7765 31.2C18.5651 31.212 20.014 32.6899 19.9988 34.4858C19.9836 36.2557 18.5173 37.7 16.7418 37.6968C14.9511 37.6935 13.4924 36.2242 13.5 34.4305Z" fill="white"/>
<path d="M31.7031 34.4305C31.7096 32.6411 33.1835 31.1881 34.9796 31.1989C36.7682 31.2098 38.2171 32.6877 38.2019 34.4847C38.1867 36.2546 36.7215 37.6989 34.946 37.6967C33.1552 37.6935 31.6966 36.2242 31.7042 34.4305H31.7031Z" fill="white"/>
</g>
<defs>
<clipPath id="clip0_2159_55883">
<rect width="39" height="39" fill="white" transform="translate(0.5)"/>
</clipPath>
</defs>
</svg>
