<svg width="30" height="31" viewBox="0 0 30 31" fill="none" xmlns="http://www.w3.org/2000/svg">
<g clip-path="url(#clip0_2724_47686)">
<path d="M2.69 0.52002C10.88 0.52002 19.06 0.52002 27.25 0.52002C27.42 0.57002 27.6 0.62002 27.77 0.67002C29.09 1.10002 29.93 2.27002 29.93 3.71002C29.93 7.69002 29.93 11.66 29.93 15.64C29.93 19.49 29.94 23.34 29.93 27.19C29.93 27.66 29.84 28.18 29.65 28.6C29.1 29.84 28.08 30.45 26.73 30.45C22.76 30.45 18.8 30.45 14.83 30.45C10.95 30.45 7.07 30.45 3.19 30.45C1.76 30.45 0.58 29.6 0.15 28.29C0.1 28.12 0.05 27.95 0 27.77C0 19.58 0 11.4 0 3.21002C0.02 3.15002 0.05 3.09002 0.06 3.02002C0.34 1.86002 1.04 1.07002 2.17 0.67002C2.34 0.61002 2.52 0.57002 2.69 0.52002ZM28.7 14.85C28.7 14.73 28.7 14.63 28.7 14.54C28.7 10.96 28.7 7.39002 28.7 3.81002C28.7 2.53002 27.92 1.76002 26.64 1.76002C23.07 1.76002 19.51 1.76002 15.94 1.76002H15.62V14.85H28.7ZM14.32 14.85V1.76002H14.02C10.44 1.76002 6.87 1.76002 3.29 1.76002C2.01 1.76002 1.24 2.54002 1.24 3.82002C1.24 7.39002 1.24 10.95 1.24 14.52V14.85H14.32ZM14.32 29.22V16.14H1.24V16.45C1.24 20.02 1.24 23.58 1.24 27.15C1.24 28.45 2.01 29.22 3.32 29.22C6.88 29.22 10.43 29.22 13.99 29.22H14.33H14.32ZM15.61 29.22C15.72 29.22 15.82 29.22 15.91 29.22C19.49 29.22 23.06 29.22 26.64 29.22C27.92 29.22 28.69 28.44 28.69 27.16C28.69 23.59 28.69 20.03 28.69 16.46C28.69 16.36 28.69 16.25 28.69 16.14H15.61V29.22Z" fill="#9B0077"/>
<path d="M22.4601 9.25001C21.6401 9.25001 20.8201 9.25001 20.0001 9.25001C19.6001 9.25001 19.3501 9.02001 19.3401 8.66001C19.3301 8.28001 19.5901 8.01001 20.0001 8.01001C20.7501 8.01001 21.5001 8.01001 22.2501 8.01001C23.1401 8.01001 24.0201 8.01001 24.9101 8.01001C25.1801 8.01001 25.3901 8.12001 25.5001 8.36001C25.6101 8.59001 25.6101 8.85001 25.4201 9.01001C25.2701 9.14001 25.0501 9.23001 24.8501 9.24001C24.0501 9.26001 23.2501 9.25001 22.4501 9.24001L22.4601 9.25001Z" fill="#9B0077"/>
<path d="M8.11012 9.25003C8.11012 9.80003 8.11012 10.33 8.11012 10.85C8.11012 10.99 8.11012 11.12 8.08012 11.26C8.02012 11.56 7.78012 11.75 7.48012 11.75C7.18012 11.75 6.93012 11.56 6.88012 11.25C6.84012 10.98 6.85012 10.71 6.85012 10.43C6.85012 10.05 6.85012 9.67003 6.85012 9.24003C6.65012 9.24003 6.47012 9.24003 6.29012 9.24003C5.90012 9.24003 5.51012 9.24003 5.12012 9.24003C4.63012 9.24003 4.37012 9.02003 4.37012 8.62003C4.37012 8.22003 4.64012 7.99003 5.12012 7.99003C5.68012 7.99003 6.25012 7.99003 6.86012 7.99003C6.86012 7.56003 6.86012 7.14003 6.86012 6.73003C6.86012 6.53003 6.86012 6.32003 6.86012 6.12003C6.89012 5.75003 7.13012 5.51003 7.47012 5.50003C7.82012 5.50003 8.09012 5.75003 8.10012 6.13003C8.12012 6.68003 8.10012 7.24003 8.10012 7.80003C8.10012 7.86003 8.10012 7.91003 8.12012 8.00003C8.72012 8.00003 9.31012 8.00003 9.90012 8.00003C10.2601 8.00003 10.5101 8.19003 10.5701 8.49003C10.6501 8.90003 10.3901 9.23003 9.97012 9.24003C9.46012 9.25003 8.96012 9.24003 8.45012 9.24003C8.35012 9.24003 8.24012 9.24003 8.10012 9.24003L8.11012 9.25003Z" fill="#9B0077"/>
<path d="M8.3498 22.99C8.8298 23.47 9.2998 23.92 9.7598 24.38C10.0498 24.67 10.0398 25.03 9.7798 25.29C9.5198 25.54 9.1798 25.53 8.8998 25.25C8.6598 25.02 8.4298 24.78 8.1998 24.55C7.9798 24.32 7.7498 24.09 7.4998 23.83C7.1198 24.22 6.7498 24.58 6.3898 24.94C6.2898 25.04 6.1898 25.15 6.0798 25.25C5.7898 25.52 5.4498 25.54 5.1998 25.29C4.9298 25.03 4.9298 24.68 5.1998 24.39C5.6098 23.97 6.0198 23.56 6.4398 23.15C6.4898 23.1 6.5298 23.05 6.6198 22.96C6.3098 22.66 6.0098 22.37 5.6998 22.07C5.5298 21.91 5.3698 21.74 5.1998 21.57C4.9198 21.27 4.9098 20.93 5.1798 20.67C5.4398 20.42 5.7798 20.42 6.0598 20.7C6.5198 21.16 6.9798 21.63 7.4698 22.13C7.8298 21.77 8.1598 21.43 8.4898 21.1C8.6298 20.95 8.7698 20.8 8.9298 20.67C9.1998 20.43 9.5498 20.44 9.7898 20.69C10.0198 20.93 10.0398 21.28 9.7898 21.53C9.3698 21.97 8.9298 22.4 8.4898 22.84C8.4498 22.88 8.4098 22.92 8.3398 23.01L8.3498 22.99Z" fill="#9B0077"/>
<path d="M22.4498 21.73C21.6498 21.73 20.8498 21.73 20.0498 21.73C19.6598 21.73 19.4098 21.54 19.3498 21.24C19.2698 20.83 19.5298 20.5 19.9798 20.48C20.3198 20.47 20.6598 20.48 20.9998 20.48C22.2798 20.48 23.5498 20.48 24.8298 20.48C25.2498 20.48 25.5098 20.68 25.5498 21.02C25.5998 21.45 25.3198 21.73 24.8398 21.74C24.0398 21.74 23.2398 21.74 22.4398 21.74L22.4498 21.73Z" fill="#9B0077"/>
<path d="M22.4301 25.48C21.6701 25.48 20.9101 25.48 20.1501 25.48C20.0201 25.48 19.8701 25.48 19.7501 25.43C19.4801 25.34 19.3501 25.14 19.3501 24.85C19.3501 24.56 19.4901 24.29 19.7501 24.28C21.5501 24.25 23.3501 24.25 25.1501 24.28C25.4201 24.28 25.5601 24.55 25.5701 24.84C25.5701 25.13 25.4201 25.36 25.1501 25.44C25.0301 25.47 24.9001 25.48 24.7801 25.48C24.0001 25.48 23.2201 25.48 22.4401 25.48H22.4301Z" fill="#9B0077"/>
</g>
<defs>
<clipPath id="clip0_2724_47686">
<rect width="29.94" height="29.94" fill="white" transform="translate(0 0.52002)"/>
</clipPath>
</defs>
</svg>
