<svg width="38" height="40" viewBox="0 0 38 40" fill="none" xmlns="http://www.w3.org/2000/svg">
<path d="M22.6484 24.6094L22.2968 24.9609C20.9243 26.3336 19.2363 29.3011 18.7344 31.7109C18.2656 33.8905 16.5078 35.6718 14.375 36.1641C13.7187 36.3281 13.0155 36.3749 12.3358 36.3047L8.69531 40L0 31.3046L4.81258 26.4609C4.92977 24.1875 5.86727 22.1015 7.48445 20.4843L11.8203 16.1484V25.5L10.5078 26.8125L12.1484 28.4531C12.3848 28.2186 21.6884 18.988 21.1016 19.5702C21.4707 19.1988 22.0998 19.1456 22.5547 19.5468C22.6015 19.5702 22.6249 19.5938 22.6484 19.6406C24.0313 20.9999 24.0313 23.2499 22.6484 24.6094Z" fill="white"/>
<path d="M14.1641 0C14.1641 0.425156 14.1641 23.3905 14.1641 23.1537L19.4375 17.9191C20.7397 16.6239 22.7951 16.604 24.1273 17.7978C24.2893 18.0325 26.0316 19.3548 26.0316 22.1248C26.0316 23.6938 25.4216 25.1667 24.3138 26.2745L23.8927 26.6693C23.1558 27.4084 22.1996 28.9786 21.5895 30.4688H37.6016V0H14.1641ZM24.7109 12.204L21.5387 9.03172L23.1958 7.37461L24.711 8.88984L28.57 5.03086L30.2271 6.68797L24.7109 12.204ZM35.2578 23.4375H28.2266V21.0938H35.2578V23.4375ZM35.2578 18.75H28.2266V16.4062H35.2578V18.75Z" fill="white"/>
</svg>
