<svg width="57" height="44" viewBox="0 0 57 44" fill="none" xmlns="http://www.w3.org/2000/svg">
<g clip-path="url(#clip0_2724_67285)">
<path d="M56.9983 41.9866C57.0282 41.2099 56.4551 40.5014 55.6926 40.3717C55.5181 40.3417 55.3254 40.3451 55.1228 40.3467C55.0663 40.3467 55.0098 40.3467 54.955 40.3467C39.8125 40.3467 24.6716 40.3467 9.52907 40.3467H3.15808V2.59387C3.15808 2.53566 3.15808 2.47579 3.15808 2.41758C3.15974 2.25127 3.16141 2.09493 3.14812 1.94525C3.08333 1.20683 2.48194 0.589809 1.75098 0.509979C1.69284 0.503326 1.63303 0.5 1.57655 0.5C0.890443 0.5 0.282417 0.94239 0.0930314 1.60265C0.0116289 1.88704 0.00498382 2.21634 0.00498382 2.53067C0 14.1692 0 25.8077 0 37.4462V41.4361C0 42.9778 0.524963 43.4983 2.07825 43.4983H54.9201C54.9782 43.4983 55.0347 43.4983 55.0929 43.4983C55.2407 43.4983 55.3803 43.5017 55.5148 43.4917C56.3305 43.4351 56.9684 42.7865 57 41.9849L56.9983 41.9866Z" fill="white"/>
<path d="M4.78782 6.85307C4.87254 7.53662 5.25962 7.95406 6.08528 8.24843C10.7418 9.90989 15.4731 11.6063 20.05 13.2461L23.1997 14.3754C23.3443 14.4269 23.4871 14.4835 23.6383 14.5417L24.2281 14.7712L23.4539 16.9432C22.9921 18.2405 22.5369 19.5161 22.0834 20.7917C21.5717 22.2336 21.879 22.8922 23.3044 23.4028L42.8227 30.3813C42.9556 30.4295 43.0868 30.4794 43.2497 30.5426L44.4541 31.0033L41.8642 32.2323C40.5418 32.8593 39.2692 33.463 37.9984 34.0734C37.1046 34.5025 36.7491 35.3839 37.1362 36.2171C37.3156 36.6046 37.6246 36.894 38.0033 37.0304C38.412 37.1784 38.8805 37.1452 39.3207 36.9373C42.6998 35.3407 46.0256 33.7607 49.2037 32.2406C50.114 31.8049 50.4247 30.9367 49.9978 30.027C48.5508 26.9552 47.0124 23.7105 45.2963 20.1115C44.8694 19.2151 43.9889 18.8675 43.155 19.2633C42.336 19.6525 42.0436 20.5772 42.4572 21.4636C43.0005 22.6261 43.562 23.8069 44.1052 24.9478C44.3395 25.4385 44.572 25.9307 44.8063 26.4214L45.4891 27.8616L25.4906 20.6919L25.6451 20.2013C25.68 20.0849 25.7249 19.9385 25.7764 19.7938C26.097 18.8858 26.4193 17.976 26.7416 17.068C27.024 16.273 27.3047 15.4797 27.5855 14.6847C28.059 13.3492 27.7201 12.6407 26.3811 12.1618C19.9935 9.87496 13.6059 7.58984 7.2166 5.30471L7.1053 5.26479C6.95412 5.20991 6.81291 5.15835 6.67503 5.12675C6.55708 5.10014 6.44079 5.0885 6.3245 5.0885C5.94074 5.0885 5.5736 5.2282 5.28288 5.49264C4.90411 5.83857 4.72303 6.33252 4.78782 6.85141V6.85307Z" fill="white"/>
</g>
<defs>
<clipPath id="clip0_2724_67285">
<rect width="57" height="43" fill="white" transform="translate(0 0.5)"/>
</clipPath>
</defs>
</svg>
