<svg width="68" height="67" viewBox="0 0 68 67" fill="none" xmlns="http://www.w3.org/2000/svg">
<g clip-path="url(#clip0_2159_54026)">
<path d="M64.3916 31.8886H52.1397V28.7564L47.4658 33.4092L52.2078 38.1301V34.998H63.7337C65.0496 34.998 66.0252 34.5667 66.6605 33.6816C66.9101 33.3411 67.0689 32.9553 67.2504 32.5467C67.3185 32.3879 67.4092 32.2063 67.4773 32.0474V10.8489L67.3866 10.5993C67.3185 10.395 67.2504 10.1907 67.137 9.98645C66.4336 8.55657 65.2992 7.89837 63.5068 7.89837C52.8204 7.89837 42.1112 7.89837 31.4248 7.89837H19.4225V0H0.5V18.9062H19.4905V11.0305H64.3916V31.8886ZM16.3595 15.8421H3.58568V3.06402H16.3595V15.8421Z" fill="#9B0077"/>
<path d="M67.5003 48.0029H48.5098V66.9999H67.5003V48.0029ZM64.3692 63.9132H51.6181V51.1123H64.3692V63.9132Z" fill="#9B0077"/>
<path d="M3.72165 35.0432H24.5046V42.9189H43.4497V24.0127H24.4592V31.9338H4.6292C1.9973 31.9338 0.613281 33.3183 0.613281 35.951V54.9253C0.613281 57.6489 1.9973 59.0107 4.69726 59.0107H39.8422V62.1428L44.5388 57.4673L39.8195 52.7691V55.9239H3.72165V35.0659V35.0432ZM27.5903 27.0767H40.364V39.8548H27.5903V27.0767Z" fill="#9B0077"/>
</g>
<defs>
<clipPath id="clip0_2159_54026">
<rect width="67" height="67" fill="white" transform="translate(0.5)"/>
</clipPath>
</defs>
</svg>
