<svg width="45" height="51" viewBox="0 0 45 51" fill="none" xmlns="http://www.w3.org/2000/svg">
<g clip-path="url(#clip0_2724_66827)">
<path d="M19.79 19.4569C19.79 18.5669 19.79 17.7469 19.79 16.9269C19.8 15.4269 20.87 14.3169 22.28 14.3269C23.68 14.3369 24.73 15.4269 24.74 16.8969C24.74 17.7169 24.74 18.5369 24.74 19.4469C24.97 19.4469 25.18 19.4469 25.39 19.4469C28.68 19.4469 31.96 19.4469 35.25 19.4469C38.44 19.4469 40.6 21.6069 40.61 24.7969C40.61 27.0169 40.62 29.2369 40.61 31.4569C40.61 32.7569 39.67 33.7469 38.37 33.9069C37.19 34.0469 36.02 33.2169 35.73 32.0169C35.66 31.7469 35.66 31.4469 35.66 31.1669C35.66 29.0869 35.66 27.0169 35.66 24.9369C35.66 24.5969 35.62 24.4069 35.21 24.4069C31.83 24.4169 28.46 24.4069 25.08 24.4069C24.99 24.4069 24.91 24.4269 24.75 24.4469C24.75 24.6569 24.75 24.8469 24.75 25.0369C24.75 27.1869 24.76 29.3369 24.75 31.4769C24.74 32.7669 23.78 33.7669 22.48 33.8969C21.3 34.0269 20.14 33.1769 19.87 31.9769C19.81 31.7169 19.81 31.4469 19.81 31.1769C19.81 29.1369 19.81 27.0969 19.81 25.0569C19.81 24.8669 19.81 24.6669 19.81 24.4469C19.6 24.4369 19.45 24.4069 19.29 24.4069C16.02 24.4069 12.75 24.4069 9.47997 24.3969C8.98997 24.3969 8.87997 24.5469 8.88997 25.0069C8.90997 27.1769 8.90997 29.3369 8.88997 31.5069C8.87997 32.6369 8.07997 33.5869 7.00997 33.8369C5.88997 34.0969 4.75997 33.6169 4.24997 32.5969C4.06997 32.2369 3.95997 31.8169 3.94997 31.4169C3.91997 29.0769 3.90997 26.7269 3.94997 24.3869C3.98997 21.6969 6.19997 19.4769 8.89997 19.4469C12.29 19.4169 15.69 19.4469 19.08 19.4369C19.29 19.4369 19.51 19.4369 19.8 19.4369L19.79 19.4569ZM14.68 21.1769C12.8 21.1769 10.93 21.1769 9.04997 21.1769C7.10997 21.1869 5.65997 22.6369 5.63997 24.5669C5.62997 25.9069 5.63997 27.2469 5.63997 28.5969C5.63997 29.4769 5.63997 30.3469 5.63997 31.2269C5.63997 31.8469 5.91997 32.1969 6.38997 32.2069C6.87997 32.2169 7.15997 31.8569 7.16997 31.2069C7.16997 31.0669 7.16997 30.9169 7.16997 30.7769C7.16997 28.7869 7.16997 26.8069 7.16997 24.8169C7.16997 23.4569 7.89997 22.7069 9.23997 22.7069C12.94 22.7069 16.64 22.7069 20.33 22.7069C21.21 22.7069 21.49 22.9969 21.5 23.8569C21.5 25.5369 21.5 27.2169 21.5 28.9069C21.5 29.7469 21.5 30.5869 21.5 31.4269C21.5 31.8969 21.79 32.1569 22.23 32.1969C22.65 32.2369 22.98 31.8969 23.01 31.4269C23.02 31.2669 23.01 31.1069 23.01 30.9469C23.01 28.5669 23.01 26.1869 23.01 23.8069C23.01 23.0269 23.31 22.7169 24.07 22.7169C27.84 22.7169 31.61 22.7169 35.38 22.7169C36.56 22.7169 37.32 23.4869 37.34 24.6669C37.35 25.5069 37.34 26.3469 37.34 27.1869C37.34 28.5869 37.34 29.9769 37.34 31.3769C37.34 31.8869 37.68 32.2269 38.12 32.2169C38.54 32.2069 38.84 31.8769 38.86 31.3969C38.86 31.2769 38.86 31.1469 38.86 31.0169C38.86 28.9969 38.79 26.9669 38.88 24.9469C38.97 22.6869 37.27 21.1069 35.13 21.1569C31.45 21.2369 27.77 21.1769 24.09 21.1769C23.32 21.1769 23.01 20.8669 23 20.1069C23 19.0669 23 18.0269 23 16.9969C23 16.4269 22.72 16.0769 22.26 16.0669C21.79 16.0469 21.48 16.4069 21.47 17.0069C21.47 17.9769 21.47 18.9369 21.47 19.9069C21.47 20.9269 21.22 21.1869 20.22 21.1869C18.36 21.1869 16.5 21.1869 14.65 21.1869L14.68 21.1769Z" fill="#9B0077"/>
<path d="M22.29 0.546896C25.4 0.546896 28.51 0.546896 31.62 0.546896C36.46 0.546896 40.32 3.7269 41.16 8.5069C41.36 9.6669 41.36 10.9069 41.25 12.0869C41.09 13.7469 39.68 14.9169 38.02 14.9469C36.7 14.9669 35.38 14.9669 34.05 14.9469C32.22 14.9169 30.78 13.4569 30.74 11.6069C30.73 11.0669 30.74 10.5369 30.74 9.9969C30.72 9.1569 30.2 8.6169 29.36 8.6069C24.64 8.6069 19.93 8.6069 15.21 8.6069C14.34 8.6069 13.83 9.1569 13.81 10.0269C13.79 10.7769 13.84 11.5369 13.71 12.2669C13.43 13.8169 12.09 14.9069 10.52 14.9269C9.23004 14.9469 7.95004 14.9469 6.66004 14.9269C4.87004 14.9069 3.46004 13.7469 3.28004 11.9769C3.00004 9.32689 3.37004 6.7869 4.99004 4.5669C6.87004 1.9969 9.44004 0.616896 12.64 0.566896C15.86 0.516896 19.07 0.556896 22.29 0.556896V0.546896ZM22.27 2.2669C19.07 2.2669 15.87 2.2569 12.68 2.2669C10.77 2.2769 9.08004 2.9269 7.63004 4.1869C5.30004 6.2169 4.69004 8.8769 4.96004 11.8169C5.04004 12.6669 5.73004 13.2169 6.59004 13.2269C7.86004 13.2469 9.13004 13.2469 10.4 13.2269C11.39 13.2169 12.06 12.5169 12.09 11.5169C12.09 11.0669 12.09 10.6269 12.09 10.1769C12.09 8.1569 13.34 6.8869 15.36 6.8869C17.25 6.8869 19.15 6.8869 21.04 6.8869C23.81 6.8869 26.58 6.8769 29.35 6.8869C31.14 6.8869 32.43 8.1869 32.46 9.9569C32.46 10.4769 32.46 10.9969 32.46 11.5169C32.48 12.5069 33.16 13.2169 34.14 13.2269C35.39 13.2469 36.64 13.2369 37.89 13.2269C38.88 13.2169 39.56 12.5469 39.61 11.5469C39.63 11.1169 39.61 10.6869 39.61 10.2569C39.59 5.6769 36.16 2.2669 31.59 2.2569C28.48 2.2569 25.37 2.2569 22.26 2.2569L22.27 2.2669Z" fill="#9B0077"/>
<path d="M37.97 50.3969C36.54 50.3969 35.11 50.3969 33.68 50.3969C32.21 50.3969 31.32 49.4269 31.45 47.9569C31.69 45.0869 33.9 42.9969 36.78 42.9869C37.94 42.9869 39.12 42.9269 40.25 43.1069C42.7 43.5069 44.48 45.6769 44.55 48.1569C44.59 49.4369 43.7 50.3869 42.42 50.3969C40.94 50.4069 39.45 50.3969 37.97 50.3969ZM37.99 48.6769C39.4 48.6769 40.81 48.6669 42.22 48.6769C42.68 48.6769 42.87 48.5069 42.84 48.0369C42.7 46.2069 41.19 44.7269 39.35 44.6869C38.46 44.6669 37.57 44.6669 36.68 44.6869C34.83 44.7269 33.33 46.1369 33.17 47.9969C33.12 48.5469 33.22 48.6669 33.78 48.6669C35.19 48.6669 36.6 48.6669 38.01 48.6669L37.99 48.6769Z" fill="#9B0077"/>
<path d="M6.55001 50.3969C5.12001 50.3969 3.69001 50.3969 2.26001 50.3969C0.750005 50.3969 -0.149995 49.3669 0.0200054 47.8469C0.350005 44.9569 2.54 42.9769 5.45001 42.9769C6.59 42.9769 7.75001 42.9169 8.87001 43.1069C11.32 43.5169 13.11 45.7669 13.13 48.2469C13.13 49.4369 12.25 50.3769 11.05 50.3869C9.55001 50.4069 8.05 50.3869 6.55001 50.3869V50.3969ZM6.52001 48.6769C7.95001 48.6769 9.37001 48.6769 10.8 48.6769C11.34 48.6769 11.45 48.5369 11.4 47.9869C11.19 46.0569 9.71001 44.7069 7.76001 44.6869C6.96001 44.6869 6.16001 44.6869 5.35001 44.6869C3.44001 44.7069 1.97001 46.0469 1.73001 47.9569C1.66001 48.5269 1.78001 48.6769 2.35001 48.6769C3.74001 48.6769 5.13001 48.6769 6.52001 48.6769Z" fill="#9B0077"/>
<path d="M22.27 50.3969C20.82 50.3969 19.38 50.3969 17.93 50.3969C16.56 50.3969 15.7 49.4969 15.73 48.1269C15.79 45.3669 18.08 43.0369 20.84 42.9869C22.09 42.9669 23.36 42.9069 24.58 43.1069C27.04 43.5069 28.82 45.7369 28.83 48.2369C28.83 49.4769 27.97 50.3769 26.72 50.3869C25.24 50.3969 23.76 50.3869 22.27 50.3869V50.3969ZM22.27 48.6769C23.68 48.6769 25.09 48.6669 26.5 48.6769C26.97 48.6769 27.13 48.4969 27.11 48.0369C27.03 46.3369 25.55 44.7869 23.83 44.7069C22.8 44.6569 21.76 44.6569 20.72 44.7069C19.03 44.7869 17.54 46.2969 17.44 47.9769C17.4 48.5769 17.49 48.6669 18.09 48.6769C19.48 48.6769 20.88 48.6769 22.27 48.6769Z" fill="#9B0077"/>
<path d="M22.28 42.3669C20.22 42.3669 18.56 40.6969 18.57 38.6469C18.58 36.5969 20.27 34.9269 22.31 34.9369C24.33 34.9569 25.98 36.6169 26 38.6469C26.01 40.6869 24.34 42.3669 22.29 42.3669H22.28ZM22.28 40.6469C23.38 40.6469 24.26 39.7769 24.27 38.6769C24.28 37.5769 23.36 36.6469 22.27 36.6569C21.17 36.6569 20.26 37.5869 20.28 38.6869C20.3 39.7869 21.18 40.6469 22.28 40.6369V40.6469Z" fill="#9B0077"/>
<path d="M38.01 42.367C35.95 42.377 34.28 40.727 34.28 38.667C34.28 36.617 35.95 34.937 37.99 34.937C40.02 34.937 41.67 36.587 41.68 38.617C41.69 40.697 40.07 42.3469 38 42.3569L38.01 42.367ZM39.97 38.667C39.97 37.547 39.07 36.6469 37.97 36.6569C36.89 36.6669 36 37.5669 35.99 38.6469C35.99 39.7669 36.88 40.6569 38 40.6469C39.1 40.6469 39.96 39.767 39.97 38.667Z" fill="#9B0077"/>
<path d="M6.54003 42.3669C4.48003 42.3569 2.85003 40.6969 2.86003 38.6269C2.87003 36.5769 4.57003 34.9169 6.61003 34.9469C8.66003 34.9769 10.29 36.6669 10.27 38.7269C10.25 40.7569 8.58003 42.3869 6.54003 42.3669ZM8.55003 38.6669C8.55003 37.5569 7.64003 36.6469 6.54003 36.6669C5.46003 36.6769 4.58003 37.5769 4.58003 38.6669C4.58003 39.7869 5.46003 40.6669 6.59003 40.6569C7.69003 40.6469 8.56003 39.7669 8.56003 38.6769L8.55003 38.6669Z" fill="#9B0077"/>
</g>
<defs>
<clipPath id="clip0_2724_66827">
<rect width="44.56" height="49.86" fill="white" transform="translate(0 0.536926)"/>
</clipPath>
</defs>
</svg>
