<svg width="50" height="69" viewBox="0 0 50 69" fill="none" xmlns="http://www.w3.org/2000/svg">
<g clip-path="url(#clip0_2724_66162)">
<path d="M1.98634 68.9999C1.89804 68.9411 1.80974 68.8748 1.72144 68.8307C0.808994 68.3524 0.338055 67.4547 0.551449 66.5643C0.779561 65.6003 1.56691 64.9749 2.61181 64.9675C3.79652 64.9528 4.98122 64.9675 6.15121 64.9675C5.73914 63.9005 5.2682 62.9072 4.96651 61.8623C4.07614 58.7717 4.67953 55.821 5.98197 52.9659C7.46101 49.6988 9.55081 46.8216 12.0012 44.2462C14.9225 41.1777 18.0056 38.2564 21.0226 35.2689C21.2434 35.0481 21.4788 34.8421 21.8688 34.4889C21.6186 34.3196 21.3832 34.1946 21.1918 34.018C17.3655 30.4785 13.5612 26.9244 10.2499 22.8699C8.24101 20.4049 6.45291 17.8073 5.37122 14.783C4.09821 11.2142 4.25274 7.73364 6.12178 4.38555C6.16593 4.31197 6.18801 4.22367 6.25423 4.0765C5.98197 4.06178 5.75386 4.04706 5.51839 4.04706C4.51028 4.04706 3.49482 4.06914 2.48672 4.03971C1.35352 4.00291 0.485223 3.08311 0.49994 1.9867C0.529374 0.912374 1.39031 0.0587956 2.49407 -7.18739e-05C2.6486 -7.18739e-05 2.81049 -7.18739e-05 2.96501 -7.18739e-05C17.4979 -7.18739e-05 32.0308 -7.18739e-05 46.5637 -7.18739e-05C46.8507 -7.18739e-05 47.1524 -0.0074303 47.432 0.0514371C48.4328 0.27219 49.1024 1.19199 49.0214 2.17802C48.9331 3.20085 48.109 4.00291 47.0494 4.03235C45.8132 4.06178 44.5843 4.03235 43.2598 4.03235C43.4069 4.32669 43.5173 4.56216 43.6351 4.79027C45.6439 8.75646 45.276 12.6859 43.4069 16.5711C41.5894 20.3386 38.9477 23.5175 36.0632 26.4829C33.5393 29.0731 30.8903 31.5382 28.3001 34.0547C28.1382 34.2093 27.9763 34.3638 27.7776 34.5551C29.1463 35.8281 30.4929 37.0717 31.8248 38.3374C35.2685 41.6045 38.5872 44.982 41.2804 48.9188C42.8624 51.2293 44.1575 53.6797 44.7388 56.4538C45.3275 59.2721 44.9081 61.9358 43.5394 64.4671C43.4658 64.5996 43.4143 64.7394 43.3113 64.9602C44.4813 64.9602 45.5777 64.9602 46.6667 64.9602C47.9471 64.9602 48.7492 65.512 48.9994 66.5643C49.2275 67.5209 48.7418 68.345 47.6454 68.9043C47.6086 68.919 47.5939 68.9705 47.5645 69.0073H1.98634V68.9999ZM9.03572 12.8183C9.24911 12.7962 9.42572 12.7889 9.60232 12.7521C15.0034 11.7146 20.2353 12.3621 25.3273 14.3562C29.1022 15.8353 32.9874 16.6373 37.0419 16.1738C39.713 15.8721 39.1023 16.3872 40.1766 13.8338C41.6336 10.3606 41.0228 7.20383 38.4474 4.45178C38.2487 4.23838 37.8881 4.06178 37.6011 4.06178C29.0433 4.03971 20.4854 4.04707 11.9276 4.05442C11.7215 4.05442 11.4493 4.09122 11.3168 4.22367C9.16081 6.3061 7.88045 9.49966 9.04308 12.8257L9.03572 12.8183ZM26.7843 52.8997C32.384 54.6583 36.7034 57.9402 39.6615 63.0249C40.8462 61.1706 41.2068 59.2059 40.7358 57.0866C40.1766 54.5774 38.8742 52.4361 37.373 50.4052C34.3561 46.3212 30.6769 42.8481 26.9976 39.3822C26.9609 39.3455 26.8799 39.3602 26.7916 39.3381C26.7916 40.4419 26.821 41.5162 26.7916 42.5979C26.7401 44.1947 25.0771 45.1218 23.7452 44.3124C23.083 43.9077 22.7592 43.2896 22.7592 42.5096C22.7592 41.45 22.7592 40.3904 22.7592 39.1909C22.2809 39.6398 21.9424 39.9636 21.6039 40.2873C18.2338 43.4662 14.9151 46.6892 12.1631 50.4346C10.5 52.6936 9.05779 55.0631 8.67516 57.9181C8.42497 59.7577 8.87383 61.4428 9.8893 63.0396C12.8547 57.9255 17.1962 54.6584 22.7666 52.9144C22.7666 52.2301 22.7666 51.531 22.7666 50.8393C22.7813 49.581 23.6128 48.6759 24.768 48.6686C25.9454 48.6539 26.799 49.5663 26.8063 50.8688C26.8063 51.5384 26.8063 52.2154 26.8063 52.9144L26.7843 52.8997ZM24.7533 31.8325C28.7195 28.1533 32.6489 24.5624 36.1 20.3681C35.8719 20.3533 35.7836 20.3386 35.6953 20.3386C31.4863 20.4416 27.4686 19.5734 23.5613 18.0207C20.4045 16.7624 17.0932 16.1958 13.6862 16.3283C12.737 16.3651 11.7951 16.5122 10.6987 16.6226C14.5766 22.5756 19.7349 27.079 24.746 31.8325H24.7533ZM13.5096 64.9013H36.0264C35.8719 64.6143 35.7763 64.3936 35.6438 64.1875C33.3038 60.5819 30.0293 58.183 25.9454 56.9395C25.1801 56.704 24.2309 56.7702 23.4435 56.9836C20.662 57.7415 18.3221 59.3162 16.2396 61.2736C15.1432 62.3038 14.2013 63.4664 13.5096 64.8939V64.9013Z" fill="url(#paint0_linear_2724_66162)"/>
</g>
<defs>
<linearGradient id="paint0_linear_2724_66162" x1="11.2565" y1="-80.2418" x2="83.2496" y2="-59.6664" gradientUnits="userSpaceOnUse">
<stop stop-color="#3C3540"/>
<stop offset="0.345472" stop-color="#161E2E"/>
<stop offset="1" stop-color="#990076"/>
</linearGradient>
<clipPath id="clip0_2724_66162">
<rect width="48.5362" height="69" fill="white" transform="translate(0.5)"/>
</clipPath>
</defs>
</svg>
