<svg width="52" height="45" viewBox="0 0 52 45" fill="none" xmlns="http://www.w3.org/2000/svg">
<g clip-path="url(#clip0_2159_55976)">
<path d="M51.1253 22.6584C51.0668 22.8313 51.0083 23.0043 50.9497 23.1773C50.5013 24.5115 49.3117 25.3924 47.9012 25.4327C46.5825 25.4702 45.3623 24.6831 44.8513 23.416C44.7209 23.0941 44.5572 23.0056 44.2312 23.0083C42.4388 23.0231 40.6451 23.015 38.8527 23.0164C38.6238 23.0164 38.4322 22.9909 38.3191 23.31C37.7789 24.8333 37.1987 26.3431 36.6345 27.8583C36.6185 27.9026 36.6146 27.9522 36.5946 28.046C36.7809 28.0541 36.9539 28.0688 37.1269 28.0688C39.2852 28.0702 41.4435 28.0688 43.6005 28.0702C44.4508 28.0702 44.6876 28.3075 44.689 29.1791C44.693 31.8729 44.6956 34.5654 44.6836 37.2593C44.6823 37.5838 44.7568 37.7554 45.0802 37.8895C46.6091 38.5211 47.3902 40.0765 47.0243 41.6856C46.6836 43.1887 45.2359 44.2976 43.7309 44.2091C42.0623 44.1112 40.7569 42.8615 40.5852 41.1988C40.4468 39.8552 41.2546 38.4755 42.5613 37.9016C42.874 37.7648 42.9618 37.6039 42.9604 37.2727C42.9458 34.8148 42.9525 32.357 42.9525 29.8402C42.7688 29.8308 42.6105 29.8174 42.4508 29.8174C40.2925 29.816 38.1342 29.8227 35.9772 29.8093C35.6578 29.8066 35.4662 29.9085 35.2866 30.174C32.9965 33.5343 29.8921 35.846 26.1436 37.3049C25.8482 37.4202 25.4384 37.4296 25.1443 37.3196C21.3147 35.8768 18.1251 33.5812 15.8284 30.1164C15.7353 29.9756 15.525 29.8308 15.368 29.8294C13.1604 29.812 10.9529 29.8187 8.74399 29.8227C8.68145 29.8227 8.61891 29.8509 8.53242 29.871C8.5231 30.0279 8.50847 30.174 8.50847 30.3202C8.50713 32.6453 8.51246 34.9704 8.50048 37.2955C8.49915 37.6052 8.58032 37.7568 8.88371 37.8815C10.3528 38.4849 11.1565 40.0081 10.8491 41.5381C10.5377 43.0908 9.16847 44.2239 7.6156 44.2131C6.09732 44.2024 4.74537 43.0948 4.43001 41.6024C4.10134 40.047 4.89973 38.4983 6.37942 37.8909C6.69611 37.7608 6.78926 37.6039 6.7866 37.27C6.77196 34.6097 6.77861 31.9507 6.77861 29.2904C6.77861 28.2807 6.99152 28.0702 8.01213 28.0702C10.1864 28.0702 12.3594 28.0702 14.6002 28.0702C14.5403 27.8905 14.5004 27.7551 14.4512 27.6223C13.9256 26.1996 13.3906 24.7796 12.8823 23.3503C12.7932 23.0982 12.6827 23.011 12.4259 23.011C10.583 23.0191 8.74 23.0258 6.89837 23.0056C6.56039 23.0016 6.49652 23.1974 6.39672 23.4334C5.78195 24.8762 4.35283 25.6378 2.78399 25.3683C1.3868 25.1283 0.257075 23.8759 0.133324 22.4277C0.00292025 20.9085 0.926394 19.5006 2.37282 19.0152C4.00154 18.4681 5.73671 19.2605 6.40736 20.8562C6.45793 20.9769 6.50716 21.0989 6.56172 21.233H12.3221C12.0653 19.5636 11.8112 17.9156 11.549 16.2154C10.4951 16.2154 9.43593 16.2154 8.37673 16.2154C8.17713 16.2154 7.97886 16.2194 7.77927 16.2154C7.07269 16.1966 6.78128 15.9097 6.77994 15.2003C6.77595 12.6071 6.77329 10.0151 6.78394 7.42185C6.78394 7.11345 6.70809 6.96059 6.40204 6.83588C4.90638 6.2231 4.1173 4.7213 4.42202 3.1404C4.71211 1.65603 6.06006 0.53103 7.58632 0.50153C9.08464 0.473372 10.4299 1.52195 10.7985 3.00497C11.1711 4.50542 10.4419 6.09303 9.01411 6.75945C8.62157 6.94316 8.49117 7.1349 8.49782 7.56935C8.52443 9.65979 8.5098 11.7516 8.5098 13.842C8.5098 14.0217 8.5098 14.2014 8.5098 14.4106H11.368C11.368 14.1987 11.3813 13.9882 11.3654 13.7803C11.2855 12.7304 11.199 11.6805 11.1126 10.6306C11.0354 9.68795 11.4718 9.28166 12.394 9.4533C14.2289 9.79388 16.0586 9.78316 17.8776 9.35541C20.4604 8.74665 22.6134 7.39906 24.4191 5.46147C24.5442 5.32739 24.6626 5.18659 24.789 5.05384C25.3 4.51883 25.7404 4.52688 26.294 5.02032C27.2374 5.86106 28.1476 6.75141 29.1656 7.49158C32.073 9.60616 35.3225 10.176 38.8155 9.47073C39.7589 9.28032 40.1621 9.64907 40.0929 10.6172C40.0024 11.8669 39.9132 13.1179 39.8201 14.4052H42.9272C42.9365 14.2644 42.9538 14.1196 42.9538 13.9748C42.9551 11.7999 42.9485 9.62493 42.9618 7.45135C42.9631 7.12954 42.8913 6.95656 42.5732 6.81577C41.0616 6.14533 40.2912 4.55235 40.6797 2.98351C41.0456 1.5072 42.5267 0.41035 44.0223 0.509576C45.6564 0.616847 46.9005 1.80353 47.1121 3.45685C47.2877 4.82723 46.4787 6.24858 45.152 6.797C44.7755 6.95254 44.6797 7.14563 44.6823 7.53181C44.6996 10.0245 44.6916 12.5172 44.6903 15.0099C44.6903 15.9995 44.4707 16.2194 43.4914 16.2194C42.2166 16.2194 40.9405 16.2194 39.6591 16.2194C39.397 17.9089 39.1401 19.5529 38.8793 21.229H44.693C45.1108 20.0168 45.8945 19.2056 47.1613 18.928C48.7767 18.574 50.3828 19.4818 50.9351 21.052C50.9949 21.2223 51.0615 21.3885 51.1253 21.5575V22.661V22.6584ZM12.9023 11.3305C13.03 12.7331 13.1352 14.0794 13.2775 15.4216C13.6035 18.4815 14.0906 21.5092 15.0633 24.4417C16.7998 29.6752 20.1304 33.4069 25.2468 35.4598C25.4397 35.5376 25.7098 35.5711 25.8921 35.4974C27.9227 34.6727 29.779 33.5558 31.3971 32.0553C34.0597 29.5881 35.6086 26.4732 36.58 23.0217C37.4063 20.0852 37.7975 17.0722 38.0769 14.0418C38.1594 13.1488 38.2273 12.2544 38.3045 11.3252C33.2493 12.0358 29.1562 10.168 25.5941 6.82248C22.1517 10.5341 17.8829 11.82 12.901 11.3279L12.9023 11.3305ZM7.60894 39.3913C6.77196 39.3993 6.09998 40.0819 6.10264 40.9213C6.10663 41.7593 6.78527 42.4405 7.61959 42.4432C8.47121 42.4458 9.18178 41.7285 9.15916 40.8864C9.13653 40.0483 8.44726 39.3833 7.60894 39.3913ZM43.8906 5.3247C44.7236 5.32068 45.4115 4.63146 45.4142 3.80146C45.4168 2.95401 44.7036 2.25809 43.8493 2.27284C43.019 2.28625 42.3484 2.98217 42.359 3.82023C42.3696 4.65962 43.0523 5.33007 43.8919 5.3247H43.8906ZM7.59963 5.3247C8.43528 5.33543 9.12855 4.66901 9.15117 3.83364C9.17512 3.00899 8.49383 2.29296 7.66882 2.27418C6.80523 2.25407 6.10397 2.93122 6.09998 3.79073C6.09599 4.63549 6.76132 5.31532 7.59963 5.32605V5.3247ZM43.864 39.39C43.0257 39.3953 42.355 40.0738 42.3563 40.9172C42.3563 41.758 43.031 42.4378 43.868 42.4418C44.7222 42.4458 45.4275 41.7352 45.4075 40.8891C45.3889 40.051 44.7023 39.3846 43.864 39.39ZM47.8679 23.6667C48.7062 23.66 49.3835 22.9668 49.3742 22.122C49.3649 21.2772 48.6783 20.6001 47.8373 20.6095C46.995 20.6175 46.3283 21.3041 46.335 22.1528C46.3416 22.9989 47.0256 23.6734 47.8679 23.6667ZM4.91836 22.1475C4.92235 21.2987 4.25303 20.6148 3.41073 20.6095C2.56975 20.6041 1.88447 21.2826 1.87914 22.1287C1.87382 22.9735 2.55112 23.6627 3.39077 23.6667C4.23307 23.6707 4.91437 22.9936 4.91836 22.1475Z" fill="#9B0077"/>
<path d="M24.7495 23.2335C22.3849 22.433 21.7542 20.1562 22.4794 18.48C23.0981 17.0507 24.5831 16.226 26.1214 16.4473C27.5798 16.6564 28.7853 17.8834 28.9969 19.3731C29.2138 20.9084 28.3875 22.4397 26.9597 23.0243C26.5791 23.1799 26.474 23.3595 26.486 23.7471C26.5166 24.7152 26.5073 25.6846 26.5073 26.6528C26.5073 27.3259 26.1959 27.7134 25.6596 27.7322C25.1087 27.7509 24.7561 27.3447 24.7508 26.6595C24.7441 25.5251 24.7495 24.3907 24.7495 23.2335ZM25.6091 21.5601C26.5246 21.5601 27.2817 20.8038 27.291 19.8786C27.3003 18.9641 26.5419 18.1783 25.6343 18.1623C24.7109 18.1448 23.9271 18.936 23.9338 19.8799C23.9404 20.8119 24.6869 21.5601 25.6091 21.5601Z" fill="#9B0077"/>
</g>
<defs>
<clipPath id="clip0_2159_55976">
<rect width="51" height="43.7143" fill="white" transform="translate(0.125 0.5)"/>
</clipPath>
</defs>
</svg>
