<svg width="30" height="31" viewBox="0 0 30 31" fill="none" xmlns="http://www.w3.org/2000/svg">
<g clip-path="url(#clip0_2724_47695)">
<path d="M18.0101 0.460022C18.3701 0.530022 18.7401 0.590022 19.0901 0.690022C22.0601 1.49002 23.9901 4.18002 23.8401 7.31002C23.7001 10.2 21.4501 12.71 18.5301 13.23C14.9501 13.87 11.5101 11.34 11.0501 7.72002C10.6001 4.16002 13.0901 0.950022 16.6401 0.510022C16.7101 0.510022 16.7701 0.480022 16.8401 0.460022C17.2301 0.460022 17.6201 0.460022 18.0101 0.460022ZM17.4101 12.15C20.3101 12.16 22.6701 9.82002 22.6801 6.92002C22.6901 4.02002 20.3501 1.64002 17.4701 1.63002C14.5501 1.62002 12.1801 3.96002 12.1701 6.86002C12.1601 9.78002 14.5001 12.14 17.4101 12.15Z" fill="#9B0077"/>
<path d="M22.3899 17.22C23.5799 16 24.7499 14.79 25.9199 13.59C27.0599 12.42 29.0699 12.73 29.6899 14.24C30.0399 15.09 29.9999 15.99 29.3499 16.76C28.1699 18.17 26.9899 19.58 25.8099 20.99C25.3499 21.53 24.8899 22.07 24.4399 22.62C23.3799 23.93 21.9999 24.54 20.3399 24.55C17.8599 24.56 15.3799 24.58 12.8999 24.54C11.9999 24.52 11.4199 24.97 10.8799 25.56C10.8399 25.61 10.8399 25.72 10.8499 25.8C10.9699 26.46 10.8099 27.03 10.3199 27.51C9.41986 28.39 8.52986 29.27 7.63986 30.15C7.27986 30.5 6.98986 30.5 6.62986 30.15C4.49986 28 2.36986 25.86 0.239863 23.71C-0.100137 23.37 -0.100137 23.06 0.239863 22.72C1.11986 21.83 2.00986 20.94 2.89986 20.05C3.28986 19.66 3.75986 19.47 4.31986 19.49C4.41986 19.49 4.55986 19.42 4.60986 19.33C6.13986 16.83 8.43986 15.77 11.2999 15.79C12.1799 15.79 13.0299 15.98 13.8599 16.29C13.9999 16.34 14.1599 16.36 14.3199 16.36C16.2599 16.36 18.1899 16.36 20.1299 16.36C21.2599 16.36 21.5499 16.47 22.3899 17.22ZM10.1299 24.65C10.1799 24.6 10.2499 24.55 10.3099 24.49C11.0499 23.67 11.9699 23.36 13.0699 23.38C15.4799 23.42 17.8899 23.39 20.2999 23.39C21.4499 23.39 22.5099 23.06 23.2599 22.19C25.0299 20.15 26.7399 18.06 28.4699 15.98C28.8899 15.47 28.8299 14.77 28.3499 14.35C27.8799 13.93 27.1799 13.96 26.7199 14.43C25.4799 15.7 24.2399 16.98 22.9999 18.26C22.9299 18.33 22.8699 18.44 22.8799 18.53C22.9699 19.77 22.0199 21.09 20.3399 21.06C18.8899 21.03 17.4399 21.06 15.9899 21.06C15.4699 21.06 15.1899 20.85 15.1899 20.47C15.1899 20.09 15.4599 19.89 15.9999 19.89C17.4499 19.89 18.8999 19.89 20.3499 19.89C20.4999 19.89 20.6399 19.89 20.7899 19.86C21.3899 19.75 21.8099 19.14 21.6999 18.54C21.5899 17.91 21.1199 17.56 20.3899 17.55C18.3099 17.55 16.2299 17.55 14.1499 17.55C13.9599 17.55 13.7599 17.53 13.5799 17.46C11.9299 16.8 10.2799 16.81 8.62986 17.41C7.25986 17.91 6.23986 18.83 5.55986 20.09C7.08986 21.63 8.60986 23.15 10.1399 24.67L10.1299 24.65ZM1.37986 23.2C3.34986 25.13 5.27986 27.03 7.28986 29C8.02986 28.23 8.79986 27.43 9.56986 26.62C9.80986 26.37 9.79986 26.04 9.54986 25.78C7.90986 24.13 6.26986 22.49 4.61986 20.85C4.34986 20.58 4.02986 20.59 3.74986 20.87C3.15986 21.45 2.57986 22.04 1.99986 22.62C1.80986 22.81 1.60986 22.99 1.37986 23.2Z" fill="#9B0077"/>
<path d="M17.2902 10.97C16.9702 10.97 16.7002 10.73 16.7302 10.39C16.7802 9.92001 16.6602 9.61001 16.1902 9.43001C16.0002 9.35001 15.8402 9.16001 15.6902 8.99001C15.4402 8.71001 15.4502 8.36001 15.7102 8.14001C15.9602 7.92001 16.2802 7.95001 16.5402 8.20001C16.6402 8.30001 16.7502 8.41001 16.8602 8.49001C17.1302 8.68001 17.4302 8.68001 17.6502 8.51001C17.8502 8.35001 17.9302 8.13001 17.8502 7.89001C17.7502 7.59001 17.5202 7.48001 17.2202 7.46001C16.4302 7.41001 15.7902 6.90001 15.6002 6.17001C15.3902 5.36001 15.7402 4.54001 16.5002 4.16001C16.6702 4.08001 16.7302 3.99001 16.7102 3.81001C16.7002 3.66001 16.7002 3.50001 16.7102 3.34001C16.7402 3.03001 16.9902 2.79001 17.2902 2.79001C17.5902 2.79001 17.9002 3.03001 17.8602 3.33001C17.7902 3.86001 17.9802 4.18001 18.4602 4.37001C18.5802 4.42001 18.6802 4.53001 18.7702 4.63001C18.9702 4.85001 18.9602 5.15001 18.7702 5.38001C18.5802 5.61001 18.2602 5.66001 18.0102 5.49001C17.8802 5.41001 17.7702 5.30001 17.6302 5.22001C17.3902 5.08001 17.1502 5.07001 16.9202 5.26001C16.7202 5.42001 16.6502 5.64001 16.7302 5.89001C16.8202 6.16001 17.0202 6.28001 17.3102 6.30001C18.2002 6.36001 18.8302 6.89001 19.0002 7.72001C19.1602 8.49001 18.7902 9.21001 18.0202 9.65001C17.9502 9.69001 17.8902 9.80001 17.8802 9.89001C17.8602 10.06 17.8802 10.24 17.8702 10.41C17.8502 10.75 17.6002 10.97 17.2802 10.97H17.2902Z" fill="#9B0077"/>
<path d="M13.92 20.36C13.92 20.68 13.66 20.93 13.35 20.94C13.03 20.94 12.75 20.66 12.76 20.35C12.76 20.03 13.04 19.77 13.37 19.78C13.69 19.79 13.93 20.05 13.92 20.37V20.36Z" fill="#9B0077"/>
</g>
<defs>
<clipPath id="clip0_2724_47695">
<rect width="29.91" height="29.95" fill="white" transform="translate(0 0.460022)"/>
</clipPath>
</defs>
</svg>
