<svg width="55" height="56" viewBox="0 0 55 56" fill="none" xmlns="http://www.w3.org/2000/svg">
<g clip-path="url(#clip0_2724_66847)">
<path d="M54.8697 25.7031C54.7766 25.0142 54.7021 24.3066 54.5718 23.6177C53.4546 17.3432 50.4384 11.9996 45.6161 7.71727C41.7434 4.29141 37.1632 2.09438 32.0058 1.2193C31.3727 1.10759 30.7211 1.03311 30.0694 0.958637L29.1757 0.846924H25.7498C25.4892 0.884161 25.154 0.940018 24.8375 0.977256C24.1486 1.07035 23.4783 1.14482 22.8081 1.27516C15.0812 2.69019 8.91842 6.73047 4.50576 13.3215C1.39641 17.9762 -0.13033 23.1709 2.21375e-06 28.7752C0.204809 37.2095 3.63067 44.2474 10.2031 49.7027C14.3924 53.1658 19.2705 55.1953 24.7072 55.7166C32.434 56.4613 39.3229 54.3016 45.2437 49.3117C50.1591 45.1783 53.2684 39.8347 54.5159 33.4671C54.6462 32.8341 54.7207 32.1824 54.7952 31.5494C54.8324 31.2328 54.8697 30.8977 54.9069 30.5812C54.9069 30.4508 54.9441 30.3205 54.9814 30.1902L55.0186 30.0226V26.634C54.9628 26.3175 54.9255 26.001 54.8883 25.7031H54.8697ZM45.132 46.0162C40.4028 50.7454 34.1469 53.3334 27.5 53.3334H27.4628C20.7972 53.3334 14.5227 50.7081 9.7935 45.9603C5.08294 41.2311 2.47631 34.9566 2.49492 28.3097C2.49492 21.6441 5.12018 15.3696 9.86798 10.659C14.5785 5.94848 20.8345 3.36046 27.4441 3.36046H27.5186C41.2779 3.3977 52.4492 14.6062 52.4492 28.3469C52.4492 35.0125 49.8426 41.287 45.1134 45.9976L45.132 46.0162Z" fill="#9B0077"/>
<path d="M29.1943 28.2538C28.9336 27.9932 28.766 27.5649 28.766 27.1926C28.766 25.2562 28.766 23.3199 28.766 21.3835V18.7024C28.766 18.2742 28.6171 17.8832 28.375 17.6225C28.1516 17.3991 27.8537 17.2874 27.5186 17.2874C26.7738 17.2874 26.2711 17.8645 26.2711 18.721C26.2711 19.8195 26.2711 20.8994 26.2711 21.9979V24.7721C26.2711 25.852 26.2711 26.9133 26.2711 27.9932C26.2711 28.6076 26.4573 29.0731 26.9228 29.5572C29.1943 31.81 31.4658 34.0815 33.7186 36.3344L36.195 38.8107C36.3439 38.9597 36.4556 39.0714 36.5859 39.1645C36.9583 39.4251 37.4052 39.481 37.8148 39.3134C38.2244 39.1459 38.4851 38.7921 38.5595 38.3639C38.634 37.917 38.4851 37.526 38.0382 37.0978C35.0964 34.156 32.1547 31.2329 29.2315 28.2725L29.1943 28.2538Z" fill="#9B0077"/>
<path d="M26.2339 8.75998C26.2339 9.13236 26.2339 9.50474 26.2339 9.87711V10.3798V10.8825C26.2339 11.2549 26.2339 11.6273 26.2339 11.981C26.2525 12.7072 26.7925 13.2471 27.4813 13.2471C28.1702 13.2471 28.7288 12.7072 28.7288 11.9997C28.7474 10.9011 28.7474 9.78402 28.7288 8.70413C28.7288 7.99661 28.1702 7.45667 27.4813 7.45667C26.7925 7.45667 26.2525 8.01523 26.2339 8.72275V8.75998Z" fill="#9B0077"/>
<path d="M12.4188 28.3655C12.4188 27.6766 11.8789 27.118 11.19 27.0994C10.1473 27.0808 9.06742 27.0808 7.89443 27.0994C7.18692 27.0994 6.64697 27.658 6.64697 28.3655C6.64697 29.0544 7.18692 29.5943 7.91305 29.613C8.28543 29.613 8.65781 29.613 9.03018 29.613H9.53289H10.0915C10.4638 29.613 10.8362 29.613 11.19 29.613C11.8789 29.5943 12.4188 29.0358 12.4188 28.3655Z" fill="#9B0077"/>
<path d="M48.3531 28.3469C48.3531 27.6581 47.7945 27.1181 47.087 27.0995C46.7146 27.0995 46.3422 27.0995 45.9512 27.0995H45.4672H44.9831C44.8155 27.0995 44.6665 27.0995 44.499 27.0995C44.2942 27.0995 44.0707 27.0995 43.8659 27.0995C43.1398 27.1181 42.5999 27.6581 42.5999 28.3469C42.5999 29.0358 43.1398 29.5944 43.8473 29.613C44.9458 29.6316 46.0443 29.6316 47.1428 29.613C47.8504 29.613 48.3903 29.0358 48.3903 28.3469H48.3531Z" fill="#9B0077"/>
<path d="M27.5 43.4281C26.8111 43.4281 26.2712 43.9867 26.2526 44.6942C26.2526 45.0666 26.2526 45.4389 26.2526 45.8113V46.314V46.8167C26.2526 47.1891 26.2526 47.5615 26.2526 47.9152C26.2712 48.6414 26.8111 49.1813 27.5 49.1813C28.1889 49.1813 28.7475 48.6414 28.7475 47.9339C28.7661 46.8726 28.7661 45.7555 28.7475 44.6383C28.7475 43.9308 28.1889 43.3909 27.5 43.3909V43.4281Z" fill="#9B0077"/>
<path d="M41.3896 40.9519C41.3896 40.9519 41.3524 40.9519 41.3338 40.9519C41.0359 40.9519 40.738 41.0636 40.5145 41.287C40.2539 41.5105 40.1049 41.8456 40.0863 42.1807C40.0863 42.4973 40.1794 42.8138 40.4214 43.0558C40.6449 43.2979 40.9614 43.4468 41.2965 43.4654C42.004 43.4654 42.5626 42.9814 42.5812 42.2738C42.5998 41.5663 42.0785 40.9891 41.371 40.9705L41.3896 40.9519Z" fill="#9B0077"/>
<path d="M13.629 15.7606C14.2993 15.7606 14.8951 15.1648 14.8951 14.4945C14.8951 14.1594 14.7647 13.8615 14.5413 13.6194C14.2993 13.3774 13.9827 13.2471 13.6476 13.2471C12.9401 13.2471 12.4001 13.787 12.4001 14.4945C12.4001 15.202 12.9401 15.7606 13.6476 15.7606H13.629Z" fill="#9B0077"/>
<path d="M40.0863 14.4945C40.0863 15.1648 40.6821 15.7606 41.3524 15.7606C41.6875 15.7606 41.9854 15.6303 42.2275 15.3882C42.4695 15.1462 42.5998 14.8297 42.5998 14.4945C42.5998 13.787 42.0599 13.2471 41.3524 13.2471C41.0172 13.2471 40.7007 13.3774 40.4587 13.6194C40.2166 13.8615 40.0863 14.1594 40.0863 14.4945Z" fill="#9B0077"/>
<path d="M13.6289 40.9519C13.3124 40.9519 13.0145 41.0822 12.7725 41.3057C12.5304 41.5477 12.3815 41.8642 12.3815 42.1994C12.3815 42.9069 12.9028 43.4654 13.6103 43.4654C14.2992 43.4654 14.8578 42.9255 14.8764 42.2366C14.8764 41.5663 14.2992 40.9705 13.6289 40.9519Z" fill="#9B0077"/>
</g>
<defs>
<clipPath id="clip0_2724_66847">
<rect width="55" height="55" fill="white" transform="translate(0 0.846924)"/>
</clipPath>
</defs>
</svg>
