<svg width="71" height="44" viewBox="0 0 71 44" fill="none" xmlns="http://www.w3.org/2000/svg">
<g clip-path="url(#clip0_2159_56755)">
<path d="M70.7902 31.8802C70.6302 32.6102 70.5202 33.3602 70.3202 34.0802C68.7802 39.6302 63.8002 43.4202 57.9702 43.4402C52.0402 43.4602 46.1202 43.4402 40.1902 43.4402C32.0202 43.4402 23.8602 43.4502 15.6902 43.4402C8.43017 43.4202 2.46018 38.6602 0.870175 31.6502C-1.02982 23.2502 4.72018 14.8402 13.2602 13.6302C14.7102 13.4202 16.2202 13.5702 17.7002 13.6002C18.0902 13.6002 18.3002 13.5702 18.4802 13.1802C21.1902 7.5202 27.2902 4.9802 33.2102 7.0402C33.6302 7.1902 33.7902 7.0902 34.0202 6.7502C37.7002 1.5302 42.7602 -0.819798 49.0402 0.260202C55.4002 1.3502 59.4202 5.3202 61.0902 11.5802C61.6202 13.5702 61.6002 15.6102 61.2502 17.6402C61.2202 17.8202 61.2002 18.0002 61.1702 18.2102C61.4002 18.2902 61.6102 18.3602 61.8202 18.4302C66.8202 20.1902 69.7702 23.6702 70.6702 28.9002C70.6902 29.0302 70.7502 29.1502 70.8002 29.2802V31.8902L70.7902 31.8802ZM36.6502 40.7002C37.7902 40.7002 38.9402 40.7002 40.0802 40.7002C46.1702 40.7002 52.2502 40.7602 58.3402 40.6702C63.6302 40.5902 67.9402 36.1902 68.0402 30.9402C68.1402 25.8302 64.6802 21.6402 59.6102 20.7202C58.2102 20.4702 57.8102 19.8502 58.2202 18.5102C58.7902 16.6602 58.8702 14.7902 58.5802 12.8802C57.6102 6.5502 51.2402 1.8402 44.9402 2.8202C40.7502 3.4802 37.6402 5.6602 35.6402 9.4202C35.1102 10.4202 34.4402 10.6202 33.4302 10.1202C28.2002 7.5002 22.4302 9.9002 20.5302 15.4802C20.2002 16.4402 19.6302 16.7402 18.6302 16.5602C17.6702 16.3902 16.6902 16.2102 15.7102 16.1802C7.96018 15.9502 1.88018 23.2102 3.43018 30.7902C4.64017 36.6702 9.58018 40.6802 15.6502 40.6902C22.6502 40.7002 29.6502 40.6902 36.6502 40.6902V40.7002Z" fill="white"/>
</g>
<defs>
<clipPath id="clip0_2159_56755">
<rect width="70.29" height="43.45" fill="white" transform="translate(0.5)"/>
</clipPath>
</defs>
</svg>
