<svg width="39" height="39" viewBox="0 0 39 39" fill="none" xmlns="http://www.w3.org/2000/svg">
<g clip-path="url(#clip0_2159_55894)">
<path d="M18.1362 39.0001C17.4228 38.9011 16.7 38.8446 15.9971 38.6951C8.41211 37.0808 3.49826 32.5511 1.25442 25.1295C1.04605 24.4395 1.37097 23.8108 1.98549 23.6259C2.63887 23.4293 3.24868 23.7919 3.45235 24.5314C4.32469 27.7129 5.95519 30.4363 8.44861 32.5982C12.1675 35.8233 16.5069 37.228 21.3901 36.5509C27.3753 35.722 31.644 32.4581 34.2493 27.0123C34.2916 26.924 34.3234 26.831 34.3905 26.6626C34.0738 26.7933 33.8219 26.8969 33.5712 26.9993C32.8872 27.2784 32.2244 27.0488 31.9642 26.4424C31.7005 25.8289 31.9854 25.1919 32.6659 24.9011C33.7266 24.4466 34.7884 23.9968 35.8527 23.5529C36.6273 23.2303 37.2148 23.474 37.5467 24.2523C37.9941 25.3014 38.4367 26.3529 38.8747 27.4067C39.1678 28.112 38.9288 28.7702 38.2943 29.0257C37.6774 29.2742 37.0711 28.9822 36.7674 28.2875C36.6815 28.092 36.5991 27.8966 36.4907 27.6422C36.4295 27.7553 36.3942 27.813 36.366 27.873C33.6336 33.725 29.0988 37.3163 22.7911 38.6645C22.0129 38.8305 21.2124 38.8917 20.4224 39.0012H18.1362V39.0001Z" fill="white"/>
<path d="M0 10.4987C0.182474 10.1454 0.38967 9.81927 0.801709 9.69328C1.35384 9.52491 1.93422 9.78631 2.19322 10.3374C2.32036 10.607 2.42867 10.8861 2.57347 11.2263C2.67236 11.0297 2.73946 10.8978 2.80421 10.7671C5.83917 4.66551 10.7106 1.00948 17.4728 0.153463C25.9254 -0.916853 33.7259 3.72942 36.9916 11.5784C37.3024 12.3249 37.5367 13.1068 37.7686 13.8827C37.9723 14.5609 37.6191 15.2026 37.0022 15.3663C36.3618 15.5359 35.7708 15.1944 35.5801 14.4973C34.8408 11.8021 33.5658 9.40127 31.6151 7.39487C27.9821 3.65878 23.5403 1.87963 18.3475 2.36121C12.2046 2.9311 7.74985 6.10673 4.9421 11.5961C4.88089 11.7162 4.82909 11.8422 4.73373 12.0517C5.05747 11.9175 5.29528 11.8151 5.53662 11.7221C6.15585 11.483 6.78921 11.7256 7.04585 12.2943C7.30956 12.8807 7.06233 13.5424 6.43839 13.8144C5.31176 14.3066 4.17807 14.7835 3.03849 15.2474C2.39218 15.51 1.8012 15.2474 1.51395 14.5857C1.05482 13.5271 0.612171 12.4615 0.160106 11.3994C0.117725 11.2993 0.0541536 11.2063 0.00117725 11.111C0.00117725 10.9073 0.00117725 10.7047 0.00117725 10.501L0 10.4987Z" fill="white"/>
<path d="M12.1828 10.6597C12.3405 10.7385 12.649 10.8622 12.9197 11.0423C13.1246 11.1777 13.2764 11.3897 13.4589 11.5592C13.9086 11.9772 14.449 12.0514 15.0047 11.81C15.7557 11.4839 16.5127 11.1695 17.272 10.8657C17.8465 10.6361 18.1656 10.2169 18.1868 9.59758C18.195 9.33383 18.1785 9.06772 18.1938 8.80514C18.2362 8.10337 18.7966 7.56763 19.4876 7.55585C20.1963 7.54408 20.7814 8.08218 20.8273 8.80279C20.8438 9.06654 20.8273 9.33147 20.8356 9.59522C20.8556 10.2134 21.177 10.6373 21.7479 10.8645C22.5085 11.1683 23.2642 11.4827 24.0165 11.8089C24.571 12.0502 25.109 11.9772 25.5634 11.5604C25.7683 11.372 25.9543 11.1601 26.1685 10.9835C26.7171 10.529 27.48 10.5678 27.965 11.0588C28.4312 11.5322 28.4665 12.2904 28.0286 12.825C27.8438 13.0511 27.6165 13.2442 27.4199 13.4608C27.0103 13.9106 26.9538 14.4169 27.1892 14.9715C27.5094 15.7251 27.8308 16.4787 28.1322 17.2405C28.3606 17.8163 28.7797 18.1424 29.393 18.166C29.6132 18.1742 29.8333 18.166 30.0535 18.1695C30.8669 18.1825 31.452 18.7429 31.4461 19.5012C31.4403 20.2583 30.8552 20.8012 30.0323 20.8129C29.8121 20.8165 29.5908 20.8047 29.3718 20.8176C28.7703 20.853 28.3641 21.1532 28.1392 21.7184C27.8355 22.479 27.5224 23.2362 27.1951 23.9862C26.9514 24.5455 27.0185 25.0848 27.4329 25.5346C27.6118 25.7289 27.812 25.9043 27.9862 26.1021C28.4677 26.6555 28.4489 27.4432 27.9497 27.9342C27.4588 28.4182 26.7006 28.4441 26.152 27.9825C25.939 27.8035 25.753 27.5928 25.5481 27.4044C25.0996 26.9946 24.5945 26.9287 24.0389 27.163C23.2701 27.4868 22.5026 27.8094 21.7291 28.1203C21.1652 28.3475 20.8662 28.7573 20.8368 29.359C20.8238 29.6227 20.8426 29.8877 20.8297 30.1514C20.792 30.8756 20.2211 31.4231 19.5123 31.4231C18.8048 31.4231 18.2315 30.8767 18.1926 30.1538C18.1809 29.9489 18.1903 29.7428 18.1891 29.5368C18.1832 28.7208 17.863 28.3205 17.0896 28.0426C16.4303 27.8059 15.7793 27.5351 15.1447 27.2372C14.4325 26.9028 13.918 26.964 13.3494 27.5245C13.1929 27.6787 13.0433 27.8436 12.875 27.9837C12.3146 28.4512 11.5306 28.4123 11.0432 27.9025C10.5723 27.4103 10.5652 26.6367 11.0361 26.1021C11.2104 25.9043 11.4105 25.7289 11.5894 25.5346C12.0038 25.0824 12.0721 24.542 11.8296 23.9862C11.5082 23.2491 11.1951 22.5085 10.9008 21.7596C10.6653 21.1603 10.2462 20.833 9.61048 20.8141C9.34678 20.8059 9.08072 20.8235 8.81819 20.8059C8.10125 20.7564 7.56089 20.163 7.57855 19.4577C7.59503 18.7689 8.13539 18.2107 8.8382 18.1719C9.11604 18.1566 9.3974 18.1801 9.67523 18.1625C10.258 18.1248 10.6582 17.8281 10.8796 17.2841C11.1939 16.5117 11.5129 15.7416 11.8367 14.9739C12.0698 14.4205 12.0156 13.913 11.6071 13.4632C11.4105 13.2454 11.1809 13.0558 10.9985 12.8274C10.6453 12.3882 10.5817 11.8936 10.8348 11.385C11.0726 10.9081 11.4811 10.6844 12.184 10.6608L12.1828 10.6597ZM23.4773 19.4706C23.4691 17.2994 21.6891 15.5261 19.5159 15.5249C17.3262 15.5238 15.5403 17.3159 15.5474 19.5083C15.5556 21.676 17.3391 23.4528 19.5088 23.454C21.6997 23.4552 23.4844 21.6631 23.4762 19.4706H23.4773Z" fill="white"/>
</g>
<defs>
<clipPath id="clip0_2159_55894">
<rect width="39" height="39" fill="white"/>
</clipPath>
</defs>
</svg>
