<svg width="33" height="32" viewBox="0 0 33 32" fill="none" xmlns="http://www.w3.org/2000/svg">
<path d="M28.0816 0H5.0523C2.50837 0 0.5 2.00837 0.5 4.5523V27.4477C0.5 29.9916 2.50837 32 5.0523 32H27.9477C30.4916 32 32.5 29.9916 32.5 27.4477V4.5523C32.6339 2.00837 30.6255 0 28.0816 0ZM11.613 4.01674C13.7552 4.01674 15.3619 5.75732 15.3619 7.76569C15.3619 9.90795 13.6213 11.5146 11.613 11.5146C9.6046 11.5146 7.86402 9.90795 7.86402 7.76569C7.86402 5.75732 9.6046 4.01674 11.613 4.01674ZM7.86402 26.9121H6.92678C6.25732 26.9121 5.58787 26.2427 5.58787 25.5732C5.58787 24.9038 6.25732 24.2343 6.92678 24.2343H7.86402C8.53347 24.2343 9.20293 24.9038 9.20293 25.5732C9.20293 26.2427 8.53347 26.9121 7.86402 26.9121ZM14.023 26.9121H13.0858C12.4163 26.9121 11.7469 26.2427 11.7469 25.5732C11.7469 24.9038 12.4163 24.2343 13.0858 24.2343H14.023C14.8264 24.2343 15.3619 24.9038 15.3619 25.5732C15.3619 26.2427 14.6925 26.9121 14.023 26.9121ZM6.25732 20.3515C5.32008 20.3515 4.65063 19.4142 4.91841 18.477C5.45397 16.3347 7.19456 14.4603 9.33682 13.7908C10.0063 14.0586 10.8096 14.1925 11.613 14.1925C12.4163 14.1925 13.2197 14.0586 13.8891 13.7908C14.9602 14.0586 15.7636 14.728 16.5669 15.3975C17.3703 16.2008 18.0397 17.272 18.3075 18.477C18.5753 19.4142 17.9059 20.3515 16.9686 20.3515H6.25732ZM20.0481 26.9121H19.1109C18.4414 26.9121 17.772 26.2427 17.772 25.5732C17.772 24.9038 18.4414 24.2343 19.1109 24.2343H20.0481C20.7176 24.2343 21.387 24.9038 21.387 25.5732C21.387 26.2427 20.8515 26.9121 20.0481 26.9121ZM26.2071 26.9121H25.2699C24.6004 26.9121 23.931 26.2427 23.931 25.5732C23.931 24.9038 24.6004 24.2343 25.2699 24.2343H26.2071C26.8766 24.2343 27.546 24.9038 27.546 25.5732C27.546 26.2427 27.0105 26.9121 26.2071 26.9121ZM27.546 15.5314H22.1904C21.5209 15.5314 20.8515 14.8619 20.8515 14.1925C20.8515 13.3891 21.5209 12.8536 22.1904 12.8536H27.546C28.3494 12.8536 28.8849 13.3891 28.8849 14.1925C28.8849 14.8619 28.2155 15.5314 27.546 15.5314ZM27.546 10.1757H22.1904C21.5209 10.1757 20.8515 9.64017 20.8515 8.83682C20.8515 8.16736 21.5209 7.49791 22.1904 7.49791H27.546C28.3494 7.49791 28.8849 8.16736 28.8849 8.83682C28.8849 9.64017 28.2155 10.1757 27.546 10.1757Z" fill="white"/>
</svg>
