<svg width="67" height="67" viewBox="0 0 67 67" fill="none" xmlns="http://www.w3.org/2000/svg">
<path d="M43.816 60.2634C43.7638 59.5982 43.8623 58.9241 43.7266 58.2619C43.2762 56.0561 41.5838 54.5184 39.3441 54.3126C38.9773 54.2783 38.8386 54.1903 38.8505 53.7951C38.8804 52.7541 38.8804 51.7115 38.8505 50.6705C38.8401 50.2783 38.946 50.1798 39.3367 50.1828C42.3681 50.2007 45.3981 50.1933 48.4296 50.1918C48.6503 50.1918 48.8725 50.2156 49.0887 50.1202C49.4809 49.9457 49.6523 49.6459 49.5972 49.2283C49.545 48.8316 49.2975 48.5944 48.9083 48.5363C48.6891 48.5035 48.4624 48.5199 48.2402 48.5199C35.2062 48.5199 22.1707 48.5199 9.13666 48.5199C7.15494 48.5199 6.19017 47.5594 6.19017 45.5877C6.19017 34.7077 6.19017 23.8277 6.19017 12.9477C6.19017 11.0149 7.16388 10.0469 9.10982 10.0454C11.7133 10.0454 14.3169 10.0529 16.9189 10.0365C17.3275 10.0335 17.4975 10.0961 17.4826 10.5674C17.4483 11.7188 17.4751 11.7188 16.3299 11.7188C14.0425 11.7188 11.7551 11.7188 9.46918 11.7188C8.33592 11.7188 7.86472 12.1812 7.86472 13.2952C7.86472 23.9515 7.86472 34.6093 7.86472 45.2656C7.86472 46.3782 8.3389 46.842 9.47067 46.842C25.2007 46.842 40.9322 46.842 56.6622 46.842C57.8268 46.842 58.295 46.3812 58.295 45.2357C58.295 34.5974 58.295 23.959 58.295 13.3221C58.295 12.1752 57.8283 11.7188 56.6592 11.7188C54.1675 11.7188 51.6758 11.7054 49.1841 11.7307C48.7487 11.7352 48.6697 11.6055 48.6786 11.2058C48.7025 10.0454 48.6831 10.0454 49.8283 10.0454C52.2827 10.0454 54.7371 10.0454 57.1915 10.0454C58.9392 10.0454 59.968 11.0685 59.968 12.8105C59.968 23.783 59.968 34.757 59.968 45.7294C59.968 47.5057 58.9466 48.5169 57.1587 48.5184C55.7272 48.5184 54.2957 48.5154 52.8628 48.5199C52.2231 48.5229 51.8324 48.8599 51.8503 49.373C51.8667 49.8637 52.2514 50.1873 52.8553 50.1903C54.3807 50.1962 55.9047 50.2067 57.4301 50.1903C59.8502 50.1605 61.6396 48.323 61.6411 45.8592C61.6471 38.7361 61.6426 31.613 61.6426 24.4899C61.6426 20.6212 61.6426 16.7524 61.6426 12.8851C61.6426 10.117 59.889 8.37502 57.1051 8.37353C54.427 8.37353 51.7504 8.36905 49.0723 8.37949C48.7502 8.37949 48.6071 8.3079 48.5086 7.96637C47.9569 6.06479 46.3987 4.90147 44.4155 4.89998C36.848 4.89402 29.2804 4.89402 21.7114 4.89998C19.767 4.90147 18.1968 6.0797 17.6555 7.94101C17.5526 8.29299 17.4095 8.38247 17.0546 8.37949C14.3765 8.36159 11.6999 8.36905 9.02184 8.37054C6.72549 8.37054 5.25672 9.48017 4.61255 11.6935C4.59913 11.7397 4.54843 11.7755 4.51562 11.8158V46.7451C4.54247 46.7689 4.58422 46.7868 4.59466 46.8152C5.34768 49.194 6.70163 50.1903 9.18288 50.1903C15.0326 50.1903 20.8823 50.1962 26.7306 50.1798C27.1824 50.1798 27.33 50.2663 27.3106 50.7451C27.2689 51.7831 27.2868 52.8256 27.3047 53.8652C27.3106 54.1724 27.2242 54.2917 26.9095 54.2992C24.719 54.3424 22.2214 56.3305 22.3466 59.4312C22.3586 59.7086 22.372 59.9905 22.3437 60.2664C22.2587 61.1105 22.6016 61.6937 23.3711 62.0352H42.7842C43.5566 61.6937 43.8802 61.1076 43.8145 60.2634H43.816ZM48.6816 13.9157C48.6816 13.5249 48.7353 13.3743 49.1826 13.3803C51.5058 13.4071 53.8305 13.4041 56.1537 13.3818C56.5623 13.3773 56.6309 13.5085 56.6294 13.8829C56.6175 19.0149 56.6219 24.1469 56.6219 29.2789C56.6219 34.4109 56.613 39.4684 56.6353 44.5631C56.6383 45.0956 56.4743 45.1865 55.9912 45.1806C53.7425 45.1552 51.4924 45.1612 49.2438 45.1776C48.8427 45.1806 48.6757 45.1284 48.6771 44.6511C48.6935 34.4065 48.6921 24.1603 48.6816 13.9157ZM18.3265 17.2908C18.8663 17.2833 19.1437 16.9179 19.1437 16.1976C19.1452 13.9097 19.1422 11.6219 19.1437 9.33401C19.1467 7.595 20.1755 6.57039 21.9217 6.57039C29.3595 6.57039 36.7973 6.57039 44.235 6.57039C45.9797 6.57039 47.0115 7.59649 47.013 9.3355C47.016 15.1938 47.013 21.0522 47.013 26.9105C47.013 32.7689 47.0071 38.7018 47.0235 44.5974C47.0235 45.0553 46.9191 45.1791 46.4509 45.1791C37.5249 45.1642 28.6005 45.1642 19.6745 45.1791C19.2242 45.1791 19.1318 45.0508 19.1318 44.6243C19.1452 36.7018 19.1407 28.7778 19.1407 20.8553C19.1407 19.9441 18.8887 19.5369 18.3206 19.5309C17.7435 19.5235 17.4676 19.9455 17.4676 20.8359C17.4676 28.7405 17.4617 36.6451 17.4796 44.5497C17.4796 45.0583 17.3543 45.188 16.8473 45.1821C14.5599 45.1522 12.2725 45.1612 9.98661 45.1776C9.61979 45.1806 9.52734 45.0806 9.52734 44.7167C9.53777 34.4318 9.53777 24.1469 9.52585 13.862C9.52585 13.4578 9.64365 13.3803 10.0239 13.3832C12.3486 13.4011 14.6733 13.4026 16.9964 13.3832C17.4005 13.3803 17.4915 13.5041 17.4766 13.8829C17.4483 14.645 17.4662 15.4071 17.4691 16.1707C17.4706 16.9209 17.7629 17.2997 18.325 17.2938L18.3265 17.2908ZM28.9628 50.6795C28.9524 50.2977 29.0463 50.1724 29.4474 50.1813C30.6538 50.2082 31.8601 50.1918 33.0679 50.1918C34.2757 50.1918 35.4821 50.2141 36.6884 50.1798C37.1223 50.1679 37.2103 50.3066 37.1984 50.7108C37.1685 51.7309 37.173 52.7541 37.1969 53.7742C37.2058 54.1485 37.1193 54.2843 36.7137 54.2813C34.3011 54.2619 31.8869 54.2589 29.4743 54.2828C29.0344 54.2872 28.9539 54.1411 28.9643 53.7429C28.9911 52.7227 28.9911 51.6996 28.9643 50.6795H28.9628ZM41.0246 60.3604H33.053C30.2109 60.3604 27.3673 60.3499 24.5252 60.3708C24.1062 60.3738 23.972 60.2738 24.0152 59.8548C24.0614 59.3954 23.9839 58.9241 24.0913 58.4677C24.4372 56.9867 25.6599 55.9651 27.2256 55.9547C31.1279 55.9293 35.0288 55.9248 38.9311 55.9547C40.8069 55.9696 42.1072 57.3506 42.137 59.2373C42.1489 59.985 41.7781 60.3589 41.0246 60.3589V60.3604Z" fill="#9B0077"/>
<path d="M33.0387 31.3459C38.9376 31.3652 43.7704 26.5748 43.7913 20.6881C43.8137 14.7596 39.0107 9.92443 33.0954 9.91846C27.1964 9.9125 22.383 14.7089 22.3711 20.6031C22.3592 26.5032 27.1487 31.3265 33.0387 31.3459ZM33.1282 11.5933C38.0996 11.6097 42.1346 15.6873 42.1182 20.6791C42.1018 25.6516 38.0221 29.6904 33.0342 29.6725C28.0628 29.6546 24.0278 25.5755 24.0442 20.5852C24.0606 15.6127 28.1373 11.5769 33.1267 11.5933H33.1282Z" fill="#9B0077"/>
<path d="M42.4777 35.1355C39.3538 35.1445 36.2314 35.14 33.1074 35.14C29.9835 35.14 26.9341 35.14 23.849 35.14C23.682 35.14 23.5105 35.1236 23.3479 35.1519C22.8812 35.231 22.6113 35.5263 22.6173 35.9916C22.6218 36.4301 22.8872 36.7149 23.3241 36.7985C23.4866 36.8298 23.6581 36.8134 23.8251 36.8134C29.9984 36.8134 36.1702 36.8134 42.3435 36.8134C42.5105 36.8134 42.682 36.8268 42.8446 36.7999C43.3426 36.7164 43.6617 36.2302 43.523 35.7709C43.3665 35.2533 42.9743 35.1355 42.4807 35.1355H42.4777Z" fill="#9B0077"/>
<path d="M42.4777 40.157C39.3538 40.1659 36.2314 40.1615 33.1074 40.1615C29.9835 40.1615 26.9341 40.1615 23.849 40.1615C23.682 40.1615 23.5105 40.1451 23.3479 40.1734C22.8812 40.2524 22.6113 40.5477 22.6173 41.0131C22.6218 41.4516 22.8872 41.7364 23.3241 41.8199C23.4866 41.8513 23.6581 41.8348 23.8251 41.8348C29.9984 41.8348 36.1702 41.8348 42.3435 41.8348C42.5105 41.8348 42.682 41.8483 42.8446 41.8214C43.3426 41.7379 43.6617 41.2517 43.523 40.7923C43.3665 40.2748 42.9743 40.157 42.4807 40.157H42.4777Z" fill="#9B0077"/>
<path d="M29.2354 24.9475C29.8319 25.5351 30.561 25.8185 31.3946 25.8408C32.1834 25.814 32.9021 25.5828 33.4687 25.0205C35.2656 23.2413 37.0534 21.453 38.8339 19.6574C39.3602 19.1264 39.5749 18.4567 39.4974 17.7185C39.3886 16.6879 38.8607 15.9407 37.8676 15.5917C36.8864 15.2472 35.9888 15.45 35.2447 16.1734C34.0861 17.3024 32.9349 18.4389 31.8181 19.6096C31.4691 19.975 31.3006 19.9377 30.9681 19.6007C29.9437 18.5582 28.3691 18.5522 27.376 19.538C26.3858 20.5209 26.3814 22.0317 27.3849 23.0906C27.9858 23.7245 28.6121 24.3345 29.2354 24.9475ZM28.5614 20.7252C28.8969 20.3896 29.3964 20.4075 29.802 20.7819C30.0332 20.9952 30.2464 21.2308 30.473 21.45C31.0919 22.0466 31.7092 22.0511 32.325 21.4411C33.6059 20.1734 34.8749 18.8952 36.1498 17.6215C36.2542 17.5171 36.3541 17.4038 36.4719 17.3158C36.8506 17.0309 37.3457 17.0652 37.632 17.3859C37.9347 17.7259 37.9287 18.1644 37.5843 18.5403C37.2831 18.8684 36.958 19.1741 36.6434 19.4903C35.2775 20.8565 33.9086 22.2196 32.5487 23.5917C32.2222 23.9214 31.8628 24.154 31.3543 24.163C31.0009 24.1421 30.6639 24.0108 30.3881 23.7349C29.7976 23.1443 29.1981 22.5612 28.6166 21.9601C28.211 21.541 28.2035 21.0832 28.5599 20.7267L28.5614 20.7252Z" fill="#9B0077"/>
</svg>
