<svg width="69" height="69" viewBox="0 0 69 69" fill="none" xmlns="http://www.w3.org/2000/svg">
<g clip-path="url(#clip0_2724_66131)">
<path d="M68.9927 61.3879C68.4945 58.8169 66.7254 57.2497 65.238 56.1736C63.5267 54.9386 61.8299 53.6242 60.1836 52.3531C59.4759 51.8042 58.7611 51.2481 58.0463 50.7064L54.1833 47.7526C58.8622 41.3538 60.8045 33.5611 59.6565 25.7324C58.5373 18.1058 54.501 11.0643 48.5801 6.39881C42.8686 1.89943 35.6696 -0.353863 28.3263 0.043353C20.9324 0.447791 14.0006 3.51719 8.80181 8.68099C3.60298 13.8592 0.498129 20.778 0.0576729 28.1735C-0.382783 35.5689 1.87004 42.7838 6.39736 48.5037C11.0546 54.3825 17.0838 58.0513 24.3189 59.4091C32.7164 60.9907 40.5941 59.2213 47.7425 54.1514C48.544 55.2058 49.3527 56.2602 50.1542 57.3147C52.3203 60.1529 54.5587 63.0923 56.7899 65.9595C57.3964 66.7323 58.169 67.4545 59.0355 68.0467C59.5337 68.3861 60.1041 68.5667 60.6457 68.74C60.8695 68.8122 61.0861 68.8773 61.2883 68.9567L61.3966 68.9928H63.3173L63.4039 68.9639C63.5123 68.935 63.6206 68.8989 63.7289 68.87C63.9816 68.7978 64.2415 68.7256 64.5015 68.6317C66.7904 67.7939 68.249 66.1617 68.8483 63.7857C68.8627 63.7134 68.8916 63.634 68.9277 63.5546C68.9421 63.504 68.9638 63.4607 68.9782 63.4101L69.0071 63.3162V61.4385L68.9927 61.3807V61.3879ZM65.303 63.4679C64.8192 64.739 63.5989 65.5623 62.2559 65.5045C61.245 65.4612 60.4291 65.0134 59.7576 64.1323C57.6347 61.3446 55.5046 58.5569 53.3745 55.7763L50.8907 52.5336C50.7535 52.3603 50.6235 52.1797 50.4935 52.0064L52.0026 50.4898L57.4975 54.693C58.1762 55.213 58.8478 55.7258 59.5265 56.2386C61.0789 57.423 62.6891 58.6507 64.2632 59.8713C65.4113 60.7596 65.8084 62.1462 65.3102 63.4823L65.303 63.4679ZM56.4938 30.0584C56.4794 37.1289 53.6923 43.7877 48.6451 48.807C43.6628 53.7686 37.0921 56.4913 30.1387 56.4913C30.1098 56.4913 30.0809 56.4913 30.0448 56.4913C15.4014 56.4408 3.51634 44.5099 3.55966 29.8995C3.58132 22.8363 6.36125 16.2064 11.394 11.2304C16.4051 6.27603 23.0408 3.54607 30.0953 3.54607C30.1315 3.54607 30.1603 3.54607 30.1964 3.54607C44.7243 3.59663 56.5227 15.4914 56.4866 30.0584H56.4938Z" fill="url(#paint0_linear_2724_66131)"/>
<path d="M14.2894 35.6338C13.4663 37.0277 13.4374 38.6455 14.21 39.9599C14.9465 41.2093 16.2679 41.9387 17.7698 41.9387C17.8131 41.9387 17.8564 41.9387 17.8997 41.9387C20.7086 41.8593 23.5751 41.881 26.3478 41.8954C27.5537 41.9026 28.7667 41.9099 29.9726 41.9099H32.5359C35.7346 41.9099 38.9406 41.9099 42.1393 41.9099C42.5292 41.9099 42.9696 41.9099 43.3957 41.8087C44.6232 41.5199 45.6052 40.711 46.0889 39.5916C46.616 38.371 46.5005 36.9483 45.764 35.6844C41.3161 28.029 37.3087 21.1391 33.5034 14.6247C32.702 13.2525 31.4384 12.4653 30.0376 12.4653C28.6223 12.4653 27.3515 13.267 26.5356 14.6609C25.1276 17.073 23.7268 19.4852 22.326 21.8974C19.7049 26.4112 16.9899 31.0839 14.2894 35.6555V35.6338ZM17.351 37.3166C20.3259 32.2683 23.3224 27.119 26.2179 22.1357C27.301 20.2724 28.384 18.4091 29.4671 16.553C29.756 16.0547 29.9726 15.9464 30.0303 15.9464C30.0881 15.9464 30.2975 16.0547 30.5863 16.5386C31.655 18.373 32.7236 20.2147 33.7923 22.0491C36.7022 27.054 39.7132 32.2322 42.7025 37.3022C42.8974 37.6344 42.948 37.9738 42.8325 38.1688C42.688 38.4144 42.2765 38.4432 42.0454 38.4432C40.3052 38.4071 38.5579 38.3999 36.8177 38.3999C35.6768 38.3999 34.536 38.3999 33.4168 38.4071C31.1568 38.4144 28.9039 38.4144 26.6439 38.4071C23.799 38.3999 20.8602 38.3855 17.9575 38.4432C17.5965 38.4432 17.3293 38.3494 17.221 38.1688C17.1055 37.9738 17.156 37.656 17.351 37.3166Z" fill="url(#paint1_linear_2724_66131)"/>
<path d="M64.22 61.9295C64.09 61.7923 63.96 61.6551 63.8301 61.5107C63.3896 61.034 62.9347 60.5357 62.4004 60.1168C61.7866 59.6401 60.9129 59.799 60.3136 60.4923C59.7504 61.1423 59.6999 61.9584 60.1909 62.5651C60.7974 63.3162 61.3101 63.8145 61.8516 64.2045C62.1188 64.3923 62.422 64.4862 62.7397 64.4862C62.9925 64.4862 63.2452 64.4284 63.4835 64.2984C64.09 63.9878 64.4655 63.374 64.4727 62.6879V62.6084L64.4582 62.5362C64.4438 62.4062 64.4149 62.1462 64.2127 61.9368L64.22 61.9295Z" fill="url(#paint2_linear_2724_66131)"/>
<path d="M28.8173 31.2789C29.1278 31.5823 29.5394 31.7411 30.0087 31.7411C30.0304 31.7411 30.0448 31.7411 30.0665 31.7411C31.0918 31.7123 31.7416 30.9828 31.7489 29.8273C31.7561 28.9462 31.7489 28.0506 31.7489 27.184C31.7489 26.8084 31.7489 26.4401 31.7489 26.0646C31.7489 25.689 31.7489 25.3135 31.7489 24.9379C31.7489 24.0713 31.7489 23.1829 31.7489 22.3019C31.7344 21.1535 31.0918 20.4169 30.0592 20.3952C29.5682 20.3808 29.135 20.5469 28.8101 20.8574C28.4563 21.2041 28.2685 21.7024 28.2613 22.3091C28.2469 24.844 28.2469 27.3718 28.2613 29.8345C28.2613 30.4339 28.4563 30.9395 28.8101 31.2862L28.8173 31.2789Z" fill="url(#paint3_linear_2724_66131)"/>
<path d="M30.0161 37.3888C30.0161 37.3888 30.0377 37.3888 30.0522 37.3888C31.0053 37.3744 31.6913 36.6738 31.749 35.6483C31.7562 35.5183 31.749 35.4027 31.749 35.2872C31.749 35.2438 31.749 35.2005 31.749 35.15C31.749 35.085 31.749 35.02 31.749 34.955C31.749 34.8177 31.749 34.6733 31.749 34.5144C31.684 33.4889 30.9981 32.7956 30.0377 32.7883H30.0233C29.0702 32.7883 28.3553 33.4817 28.2831 34.4855C28.2543 34.8972 28.2543 35.3016 28.2831 35.7061C28.3626 36.7027 29.0774 37.3888 30.0233 37.3888H30.0161Z" fill="url(#paint4_linear_2724_66131)"/>
</g>
<defs>
<linearGradient id="paint0_linear_2724_66131" x1="15.2904" y1="-80.2273" x2="110.284" y2="-41.6372" gradientUnits="userSpaceOnUse">
<stop stop-color="#3C3540"/>
<stop offset="0.345472" stop-color="#161E2E"/>
<stop offset="1" stop-color="#990076"/>
</linearGradient>
<linearGradient id="paint1_linear_2724_66131" x1="20.9091" y1="-21.8061" x2="64.5579" y2="-2.09715" gradientUnits="userSpaceOnUse">
<stop stop-color="#3C3540"/>
<stop offset="0.345472" stop-color="#161E2E"/>
<stop offset="1" stop-color="#990076"/>
</linearGradient>
<linearGradient id="paint2_linear_2724_66131" x1="60.8774" y1="54.4441" x2="67.2451" y2="57.0169" gradientUnits="userSpaceOnUse">
<stop stop-color="#3C3540"/>
<stop offset="0.345472" stop-color="#161E2E"/>
<stop offset="1" stop-color="#990076"/>
</linearGradient>
<linearGradient id="paint3_linear_2724_66131" x1="29.0262" y1="7.2004" x2="34.5553" y2="7.89345" gradientUnits="userSpaceOnUse">
<stop stop-color="#3C3540"/>
<stop offset="0.345472" stop-color="#161E2E"/>
<stop offset="1" stop-color="#990076"/>
</linearGradient>
<linearGradient id="paint4_linear_2724_66131" x1="29.0348" y1="27.4389" x2="34.1477" y2="29.0148" gradientUnits="userSpaceOnUse">
<stop stop-color="#3C3540"/>
<stop offset="0.345472" stop-color="#161E2E"/>
<stop offset="1" stop-color="#990076"/>
</linearGradient>
<clipPath id="clip0_2724_66131">
<rect width="69" height="69" fill="white"/>
</clipPath>
</defs>
</svg>
