<svg width="30" height="30" viewBox="0 0 30 30" fill="none" xmlns="http://www.w3.org/2000/svg">
<g clip-path="url(#clip0_2724_47755)">
<path d="M29.4702 13.66C29.4202 13.29 29.3802 12.91 29.3102 12.54C28.7102 9.17 27.0902 6.3 24.5002 4C22.4202 2.16 19.9602 0.979998 17.1902 0.509998C16.8502 0.449998 16.5002 0.409998 16.1502 0.369998L15.6702 0.309998H13.8302C13.6902 0.329998 13.5102 0.359998 13.3402 0.379998C12.9702 0.429998 12.6102 0.469998 12.2502 0.539998C8.10023 1.3 4.79023 3.47 2.42023 7.01C0.750225 9.51 -0.0697746 12.3 0.000225399 15.31C0.110225 19.84 1.95023 23.62 5.48023 26.55C7.73023 28.41 10.3502 29.5 13.2702 29.78C17.4202 30.18 21.1202 29.02 24.3002 26.34C26.9402 24.12 28.6102 21.25 29.2802 17.83C29.3502 17.49 29.3902 17.14 29.4302 16.8C29.4502 16.63 29.4702 16.45 29.4902 16.28C29.4902 16.21 29.5102 16.14 29.5302 16.07L29.5502 15.98V14.16C29.5202 13.99 29.5002 13.82 29.4802 13.66H29.4702ZM24.2402 24.57C21.7002 27.11 18.3402 28.5 14.7702 28.5H14.7502C11.1702 28.5 7.80023 27.09 5.26023 24.54C2.73023 22 1.33023 18.63 1.34023 15.06C1.34023 11.48 2.75023 8.11 5.30023 5.58C7.83023 3.05 11.1902 1.66 14.7402 1.66H14.7802C22.1702 1.68 28.1702 7.7 28.1702 15.08C28.1702 18.66 26.7702 22.03 24.2302 24.56L24.2402 24.57Z" fill="#9B0077"/>
<path d="M15.6799 15.03C15.5399 14.89 15.4499 14.66 15.4499 14.46C15.4499 13.42 15.4499 12.38 15.4499 11.34V9.89998C15.4499 9.66998 15.3699 9.45998 15.2399 9.31998C15.1199 9.19998 14.9599 9.13998 14.7799 9.13998C14.3799 9.13998 14.1099 9.44998 14.1099 9.90998C14.1099 10.5 14.1099 11.08 14.1099 11.67V13.16C14.1099 13.74 14.1099 14.31 14.1099 14.89C14.1099 15.22 14.2099 15.47 14.4599 15.73C15.6799 16.94 16.8999 18.16 18.1099 19.37L19.4399 20.7C19.5199 20.78 19.5799 20.84 19.6499 20.89C19.8499 21.03 20.0899 21.06 20.3099 20.97C20.5299 20.88 20.6699 20.69 20.7099 20.46C20.7499 20.22 20.6699 20.01 20.4299 19.78C18.8499 18.2 17.2699 16.63 15.6999 15.04L15.6799 15.03Z" fill="#9B0077"/>
<path d="M14.0898 4.55999C14.0898 4.75999 14.0898 4.95999 14.0898 5.15999V5.42999V5.69999C14.0898 5.89999 14.0898 6.09999 14.0898 6.28999C14.0998 6.67999 14.3898 6.96999 14.7598 6.96999C15.1298 6.96999 15.4298 6.67999 15.4298 6.29999C15.4398 5.70999 15.4398 5.10999 15.4298 4.52999C15.4298 4.14999 15.1298 3.85999 14.7598 3.85999C14.3898 3.85999 14.0998 4.15999 14.0898 4.53999V4.55999Z" fill="#9B0077"/>
<path d="M6.66982 15.09C6.66982 14.72 6.37982 14.42 6.00982 14.41C5.44982 14.4 4.86982 14.4 4.23982 14.41C3.85982 14.41 3.56982 14.71 3.56982 15.09C3.56982 15.46 3.85982 15.75 4.24982 15.76C4.44982 15.76 4.64982 15.76 4.84982 15.76H5.11982H5.41982C5.61982 15.76 5.81982 15.76 6.00982 15.76C6.37982 15.75 6.66982 15.45 6.66982 15.09Z" fill="#9B0077"/>
<path d="M25.9699 15.08C25.9699 14.71 25.6699 14.42 25.2899 14.41C25.0899 14.41 24.8899 14.41 24.6799 14.41H24.4199H24.1599C24.0699 14.41 23.9899 14.41 23.8999 14.41C23.7899 14.41 23.6699 14.41 23.5599 14.41C23.1699 14.42 22.8799 14.71 22.8799 15.08C22.8799 15.45 23.1699 15.75 23.5499 15.76C24.1399 15.77 24.7299 15.77 25.3199 15.76C25.6999 15.76 25.9899 15.45 25.9899 15.08H25.9699Z" fill="#9B0077"/>
<path d="M14.7701 23.18C14.4001 23.18 14.1101 23.48 14.1001 23.86C14.1001 24.06 14.1001 24.26 14.1001 24.46V24.73V25C14.1001 25.2 14.1001 25.4 14.1001 25.59C14.1101 25.98 14.4001 26.27 14.7701 26.27C15.1401 26.27 15.4401 25.98 15.4401 25.6C15.4501 25.03 15.4501 24.43 15.4401 23.83C15.4401 23.45 15.1401 23.16 14.7701 23.16V23.18Z" fill="#9B0077"/>
<path d="M22.2298 21.85C22.2298 21.85 22.2098 21.85 22.1998 21.85C22.0398 21.85 21.8798 21.91 21.7598 22.03C21.6198 22.15 21.5398 22.33 21.5298 22.51C21.5298 22.68 21.5798 22.85 21.7098 22.98C21.8298 23.11 21.9998 23.19 22.1798 23.2C22.5598 23.2 22.8598 22.94 22.8698 22.56C22.8798 22.18 22.5998 21.87 22.2198 21.86L22.2298 21.85Z" fill="#9B0077"/>
<path d="M7.32016 8.32C7.68016 8.32 8.00016 8 8.00016 7.64C8.00016 7.46 7.93016 7.3 7.81016 7.17C7.68016 7.04 7.51016 6.97 7.33016 6.97C6.95016 6.97 6.66016 7.26 6.66016 7.64C6.66016 8.02 6.95016 8.32 7.33016 8.32H7.32016Z" fill="#9B0077"/>
<path d="M21.5298 7.64C21.5298 8 21.8498 8.32 22.2098 8.32C22.3898 8.32 22.5498 8.25 22.6798 8.12C22.8098 7.99 22.8798 7.82 22.8798 7.64C22.8798 7.26 22.5898 6.97 22.2098 6.97C22.0298 6.97 21.8598 7.04 21.7298 7.17C21.5998 7.3 21.5298 7.46 21.5298 7.64Z" fill="#9B0077"/>
<path d="M7.3199 21.85C7.1499 21.85 6.9899 21.92 6.8599 22.04C6.7299 22.17 6.6499 22.34 6.6499 22.52C6.6499 22.9 6.9299 23.2 7.3099 23.2C7.6799 23.2 7.9799 22.91 7.9899 22.54C7.9899 22.18 7.6799 21.86 7.3199 21.85Z" fill="#9B0077"/>
</g>
<defs>
<clipPath id="clip0_2724_47755">
<rect width="29.54" height="29.54" fill="white" transform="translate(0 0.309998)"/>
</clipPath>
</defs>
</svg>
