<svg width="56" height="56" viewBox="0 0 56 56" fill="none" xmlns="http://www.w3.org/2000/svg">
<g clip-path="url(#clip0_2724_67312)">
<g clip-path="url(#clip1_2724_67312)">
<path d="M52.964 0.708342H39.9946C39.0135 1.04666 38.2558 1.61342 37.9854 2.70018C37.9116 2.99607 37.9116 3.29196 37.9116 3.59003C37.9095 6.31724 37.9073 9.04337 37.9116 11.7706C37.9137 13.5971 38.9462 14.6447 40.7395 14.6501C41.3968 14.6523 42.0541 14.6599 42.7103 14.6457C42.9519 14.6403 43.0534 14.7045 43.0395 14.9667C43.0203 15.3354 43.0245 15.7053 43.0384 16.0741C43.047 16.3156 42.9786 16.4472 42.7199 16.4102C42.6857 16.4059 42.6505 16.4091 42.6163 16.4102C42.2059 16.4233 41.6287 16.2732 41.4257 16.4885C41.1542 16.7757 41.3776 17.3556 41.3327 17.8059C41.3028 18.1062 41.4385 18.1442 41.6897 18.1421C42.8653 18.1301 44.0409 18.1508 45.2166 18.1279C45.5447 18.1214 45.6152 18.2226 45.6141 18.5402C45.6024 21.1793 45.6024 23.8173 45.6141 26.4564C45.6152 26.7632 45.5628 26.8883 45.223 26.8785C44.2899 26.8524 43.3559 26.8633 42.4218 26.8742C42.2005 26.8763 42.0263 26.8241 41.8617 26.6718C41.2932 26.1464 40.653 25.733 39.9166 25.5035C39.6045 25.4067 39.6077 25.1956 39.597 24.9432C39.456 21.6177 37.3537 18.9764 34.1731 18.315C31.4029 17.7385 29.1019 18.6718 27.3395 20.9139C27.067 21.2609 26.8735 21.3349 26.4642 21.1793C23.259 19.9696 19.5248 21.5274 18.0745 24.6756C17.8853 25.0868 17.5957 25.2544 17.2141 25.461C16.0812 26.0757 14.8853 25.9865 13.684 25.9832C12.456 25.9799 11.2291 25.9745 10.0011 25.9876C9.7136 25.9908 9.60458 25.9114 9.61527 25.6036C9.63664 24.9889 9.63771 24.3721 9.61527 23.7564C9.60351 23.4475 9.71039 23.3702 9.99895 23.3757C10.8978 23.392 11.7966 23.3833 12.6965 23.3811C14.5893 23.3778 15.6227 22.3368 15.6227 20.4254C15.6238 14.9547 15.5917 9.48286 15.642 4.01211C15.6569 2.36621 15.1268 1.22615 13.5408 0.705078H3.99255C3.00182 1.06842 2.22376 1.64824 1.99184 2.76545C1.9352 3.03741 1.92024 3.32351 1.92024 3.602C1.91596 9.23157 1.91596 14.86 1.9181 20.4885C1.9181 22.2954 2.97617 23.3713 4.75351 23.3822C5.68653 23.3876 6.62062 23.3942 7.55364 23.3767C7.84969 23.3713 7.93305 23.4616 7.92877 23.7608C7.91274 24.8867 7.94267 26.0126 7.91167 27.1374C7.89885 27.591 7.98542 27.7553 8.48239 27.7455C10.3442 27.7096 12.2081 27.7314 14.1286 27.7314C13.8539 28.2742 13.5558 28.7452 13.4008 29.2815C13.3356 29.5089 13.1539 29.4806 12.9808 29.4795C12.0296 29.4774 11.0784 29.498 10.1283 29.4697C9.72856 29.4578 9.60351 29.5611 9.60672 29.9886C9.62703 32.8203 9.60672 35.6519 9.62703 38.4847C9.63023 38.9231 9.56076 39.0808 9.07875 39.0699C8.00893 39.046 6.93376 38.9785 5.86715 39.1102C4.64236 39.2614 3.70506 40.2045 3.67513 41.4566C3.61742 43.9173 3.64414 46.3802 3.63238 48.8431C3.62811 49.6133 3.73178 49.5143 2.97617 49.5175C1.91596 49.523 1.91596 49.5186 1.91596 50.6173C1.91596 51.0742 1.91169 51.5322 1.91596 51.9891C1.93306 53.6579 3.00823 54.7522 4.66159 54.7544C9.12151 54.7609 13.5825 54.7609 18.0424 54.7544C19.6209 54.7522 20.6812 53.7318 20.7656 52.1262C20.8051 51.3723 20.7656 50.6141 20.7795 49.858C20.7838 49.6111 20.7121 49.4903 20.4589 49.5197C20.4076 49.5252 20.3552 49.5241 20.3039 49.5197C19.8967 49.4827 19.342 49.7112 19.1218 49.424C18.9177 49.1575 19.047 48.619 19.046 48.2002C19.0428 46.1072 19.0481 44.0142 19.0428 41.9212C19.0385 40.1414 17.9922 39.0721 16.2362 39.059C14.7496 39.0482 13.2629 39.0482 11.7763 39.0634C11.4567 39.0667 11.3349 39.0079 11.3381 38.6424C11.3563 36.3035 11.3531 33.9636 11.3402 31.6247C11.3381 31.3125 11.3958 31.1831 11.7314 31.2125C12.1258 31.2462 12.5896 31.0939 12.907 31.256C13.2747 31.4442 13.0738 31.9805 13.1496 32.359C13.7321 35.2625 16.1304 37.2913 19.0941 37.3261C21.1856 37.3511 23.2782 37.3316 25.3698 37.3316C29.4674 37.3316 33.565 37.3348 37.6615 37.3305C40.3762 37.3272 42.4731 35.8934 43.5044 33.3446C43.544 33.2478 43.5814 33.1488 43.6091 33.0476C43.7851 32.4051 44.2048 32.0838 44.8681 32.0838C45.5425 32.0838 46.218 32.1067 46.8902 32.0751C47.2696 32.0577 47.3444 32.1969 47.3412 32.5538C47.3252 34.5761 47.3263 36.5994 47.3412 38.6217C47.3434 38.9622 47.2621 39.0699 46.9127 39.0667C45.2016 39.0471 43.4894 39.0699 41.7784 39.0493C41.4096 39.0449 41.3241 39.1548 41.3252 39.5181C41.337 44.4428 41.3391 49.3685 41.322 54.2932C41.3209 54.7065 41.4428 54.7696 41.8104 54.7685C46.219 54.7555 50.6277 54.7598 55.0363 54.7598V39.0308C53.136 39.0395 51.2347 39.0416 49.3345 39.0645C48.954 39.0688 49.032 38.8273 49.032 38.613C49.0309 36.0272 49.0203 33.4414 49.0427 30.8556C49.047 30.4259 48.9176 30.3444 48.5276 30.3509C47.0933 30.3737 45.6579 30.3509 44.2226 30.3683C43.9266 30.3716 43.7673 30.2976 43.7374 29.9908C43.6904 29.5165 43.4563 29.0966 43.3142 28.5973C44.5229 28.5973 45.6932 28.5788 46.8614 28.6071C47.2536 28.6169 47.3487 28.5081 47.3466 28.1121C47.3295 24.9639 47.3466 21.8146 47.3263 18.6664C47.3231 18.2182 47.4438 18.1149 47.8681 18.1268C48.9914 18.1595 50.1157 18.129 51.239 18.1442C51.5201 18.1486 51.643 18.0888 51.6184 17.7744C51.5842 17.3403 51.7424 16.7877 51.534 16.4983C51.3352 16.2231 50.7613 16.4113 50.3551 16.4211C50.0046 16.4298 49.8806 16.3417 49.8817 15.9588C49.8859 14.6512 49.871 14.6512 51.1663 14.6512C51.5639 14.6512 51.9615 14.6555 52.359 14.6512C53.6672 14.6327 54.5404 13.9735 54.9422 12.7116C54.9625 12.6485 55.0053 12.593 55.0384 12.5342V2.81984C54.706 1.75049 54.0145 1.04666 52.9629 0.708342H52.964ZM4.90206 2.45759C7.47455 2.45759 10.047 2.45759 12.6206 2.45759C13.6712 2.45759 13.9266 2.73716 13.9309 3.79346C13.932 4.12307 13.8433 4.20466 13.5258 4.2014C11.9377 4.18508 10.3484 4.19378 8.76027 4.19378C7.1721 4.19378 5.61706 4.18181 4.04706 4.20248C3.69758 4.20683 3.6249 4.09696 3.62811 3.76408C3.63879 2.69909 3.85789 2.45759 4.90206 2.45759ZM3.62811 6.44234C3.62597 6.06922 3.68903 5.93324 4.09943 5.93541C7.20844 5.95499 10.3164 5.95173 13.4254 5.93868C13.7856 5.93759 13.9362 5.99198 13.932 6.41624C13.9106 9.01617 13.9159 11.6172 13.9288 14.2171C13.9309 14.5565 13.8507 14.6632 13.5013 14.6588C11.9131 14.6381 10.3239 14.6501 8.73462 14.6501C7.14538 14.6501 5.62561 14.637 4.07164 14.6599C3.69865 14.6653 3.6249 14.55 3.62704 14.191C3.64307 11.6085 3.64307 9.02488 3.62704 6.44234H3.62811ZM4.68617 21.6199C3.94553 21.6188 3.64628 21.324 3.63986 20.569C3.62811 19.3028 3.64734 18.0365 3.62918 16.7703C3.6249 16.4494 3.74995 16.4026 4.02141 16.4048C5.61172 16.4146 7.20202 16.4102 8.79233 16.4102C10.3484 16.4102 11.9035 16.42 13.4585 16.4026C13.8026 16.3993 13.9395 16.4679 13.932 16.8573C13.9063 18.0703 13.9288 19.2843 13.9202 20.4972C13.9149 21.3131 13.6145 21.6188 12.8279 21.6199C10.1144 21.6231 7.40081 21.6242 4.68724 21.6199H4.68617ZM18.5672 51.2624C18.9316 51.2603 19.0705 51.3168 19.0577 51.7356C19.0257 52.7647 18.8151 53.0073 17.7977 53.0073C13.4959 53.0073 9.19418 53.0073 4.89351 53.0073C3.84506 53.0073 3.47634 52.545 3.63131 51.4789C3.68048 51.1406 3.90705 51.2777 4.05668 51.2777C6.31923 51.269 8.58285 51.2711 10.8454 51.2711H11.4151C13.7994 51.2711 16.1828 51.2787 18.5672 51.2624ZM16.2298 40.8159C17.0452 40.8159 17.3456 41.1227 17.3466 41.969C17.352 44.3416 17.3413 46.7153 17.3563 49.0878C17.3584 49.4436 17.2515 49.5284 16.917 49.5252C15.051 49.5099 13.1849 49.5175 11.3189 49.5175C9.48702 49.5175 7.65624 49.5088 5.8244 49.5252C5.4653 49.5284 5.32422 49.4795 5.3285 49.053C5.35415 46.6805 5.33811 44.3068 5.34132 41.9342C5.34239 41.1194 5.63843 40.8159 6.43145 40.8148C9.6965 40.8116 12.9626 40.8116 16.2277 40.8148L16.2298 40.8159ZM38.2974 35.5192C35.8115 35.6247 33.3192 35.5584 30.83 35.5671C30.0349 35.5693 29.2397 35.5671 28.4435 35.5671C25.3826 35.5671 22.3228 35.578 19.2618 35.5638C16.5547 35.5518 14.601 33.4915 14.7923 30.8818C14.9451 28.8007 16.5173 27.1505 18.627 26.8948C18.9637 26.8535 19.1293 26.7512 19.2362 26.4086C20.3584 22.81 23.9494 21.4545 27.1097 23.4235C27.5009 23.6672 27.7991 23.5707 28.0043 23.1342C29.1628 20.6604 31.6594 19.3724 33.9893 20.0469C36.7755 20.853 38.29 23.3071 37.7695 26.2813C37.6701 26.8491 37.9415 26.8339 38.2878 26.8818C39.9145 27.1091 41.1029 27.9544 41.8072 29.4774C43.0203 32.1001 41.1521 35.3985 38.2985 35.5192H38.2974ZM53.3284 52.5667C53.3348 52.9627 53.1873 53.0171 52.8507 53.0139C51.2796 52.9975 49.7085 53.0062 48.1375 53.0062C46.6006 53.0062 45.0637 52.9954 43.5279 53.0139C43.1603 53.0182 43.016 52.9486 43.0245 52.5309C43.0513 51.0906 43.047 49.6503 43.0267 48.21C43.0224 47.8586 43.1229 47.7748 43.4595 47.7759C46.6017 47.789 49.7449 47.7879 52.887 47.7781C53.1948 47.7781 53.3369 47.8162 53.3305 48.1915C53.306 49.6492 53.306 51.108 53.3305 52.5657L53.3284 52.5667ZM52.9169 40.8072C53.2183 40.8072 53.3337 40.8583 53.3284 41.2021C53.307 42.6794 53.3081 44.1577 53.3284 45.635C53.3327 45.9788 53.2151 46.0375 52.9127 46.0354C51.3394 46.0212 49.7662 46.0288 48.192 46.0288C46.6188 46.0288 45.0445 46.0212 43.4713 46.0354C43.1464 46.0386 43.0203 45.9712 43.0256 45.6035C43.047 44.1436 43.0438 42.6837 43.0277 41.2228C43.0245 40.9062 43.0961 40.8028 43.4253 40.8039C46.5899 40.817 49.7534 40.8159 52.918 40.805L52.9169 40.8072ZM46.8753 16.4091C46.7374 16.4091 46.5985 16.4091 46.4606 16.4091C46.0117 16.4091 45.5618 16.395 45.1129 16.4146C44.8489 16.4265 44.7634 16.3504 44.7527 16.0665C44.7035 14.649 44.6939 14.649 46.0705 14.649C46.6412 14.649 47.2119 14.6653 47.7805 14.6425C48.0819 14.6305 48.1941 14.6925 48.1952 15.0374C48.2027 16.4091 48.2165 16.4091 46.8731 16.4091H46.8753ZM52.0395 12.9215C50.1734 12.9215 48.3074 12.9215 46.4403 12.9215C44.5732 12.9215 42.7424 12.9215 40.8934 12.9215C39.8546 12.9215 39.4634 12.4418 39.5981 11.3975C39.6409 11.0678 39.8503 11.169 40.0128 11.1679C41.5678 11.1614 43.1229 11.1636 44.679 11.1636C47.4096 11.1636 50.1392 11.1701 52.8699 11.1549C53.2269 11.1527 53.3359 11.2397 53.3295 11.6139C53.3113 12.6528 53.0698 12.9193 52.0395 12.9204V12.9215ZM52.8261 9.44152C50.7014 9.42411 48.5756 9.43282 46.451 9.43282C44.3263 9.43282 42.2347 9.4252 40.1271 9.44043C39.7488 9.44369 39.5853 9.38713 39.5938 8.93459C39.6238 7.17772 39.6035 5.41869 39.6067 3.66183C39.6088 2.75566 39.8952 2.45868 40.778 2.45759C44.5796 2.45432 48.3801 2.45432 52.1816 2.45759C53.0452 2.45759 53.3156 2.74043 53.3177 3.63137C53.322 5.40672 53.3049 7.18208 53.3295 8.95743C53.3348 9.37407 53.1969 9.44478 52.8261 9.44152Z" fill="white"/>
<path d="M10.0592 18.128C9.49171 18.153 8.92207 18.1356 8.35349 18.1356C7.47569 18.1356 7.04569 18.5805 7.0635 19.4703C7.0635 19.5052 7.06778 19.5411 7.0635 19.5759C7.03251 19.8326 7.149 19.9109 7.39268 19.9022C7.85759 19.887 8.32356 19.8979 8.78847 19.8979C8.92634 19.8979 9.06421 19.8979 9.20208 19.8979C10.5209 19.8979 10.507 19.8979 10.5038 18.5555C10.5028 18.1965 10.3873 18.1138 10.0603 18.128H10.0592Z" fill="white"/>
<path d="M49.341 44.2982C49.513 44.3101 49.6862 44.3003 49.8593 44.3003H50.274C51.7018 44.3003 51.6976 44.3003 51.6174 42.86C51.6057 42.6577 51.5896 42.5348 51.3406 42.538C50.3723 42.55 49.4051 42.5435 48.4368 42.5424C48.3064 42.5424 48.1867 42.5511 48.1888 42.7251C48.1963 43.2321 48.0873 43.7912 48.2669 44.2253C48.3652 44.4613 48.9669 44.2742 49.3399 44.2992L49.341 44.2982Z" fill="white"/>
<path d="M45.5857 44.3003C46.1707 44.3003 46.4632 43.9997 46.4632 43.3985V43.3463C46.4632 42.8096 46.2031 42.5413 45.683 42.5413C45.0688 42.5413 44.7617 42.8459 44.7617 43.455C44.7617 44.0185 45.0367 44.3003 45.5868 44.3003H45.5857Z" fill="white"/>
<path d="M47.8021 49.5122C47.2325 49.5296 46.6628 49.5176 46.0921 49.5176C44.7155 49.5176 44.723 49.5176 44.754 50.9199C44.7604 51.1853 44.8096 51.293 45.0939 51.2767C45.5417 51.2517 45.9916 51.2701 46.4405 51.2701C46.5784 51.2701 46.7173 51.2701 46.8552 51.2701C48.2392 51.2701 48.2275 51.2701 48.1965 49.8788C48.189 49.5579 48.0746 49.5035 47.8021 49.5122Z" fill="white"/>
<path d="M50.735 49.5165C50.1714 49.5165 49.8896 49.8011 49.8896 50.3704C49.8896 50.9702 50.1868 51.2701 50.781 51.2701C51.3367 51.2701 51.6146 50.9894 51.6146 50.4281C51.6146 49.8203 51.3218 49.5165 50.7361 49.5165H50.735Z" fill="white"/>
</g>
</g>
<defs>
<clipPath id="clip0_2724_67312">
<rect width="56" height="55" fill="white" transform="translate(0 0.5)"/>
</clipPath>
<clipPath id="clip1_2724_67312">
<rect width="55.0175" height="56" fill="white" transform="matrix(1 0 0 -1 1.44238 55.2769)"/>
</clipPath>
</defs>
</svg>
