<svg width="60" height="61" viewBox="0 0 60 61" fill="none" xmlns="http://www.w3.org/2000/svg">
<g clip-path="url(#clip0_2159_53717)">
<path d="M0 25.6065C0.0977616 25.1424 0.18751 24.6746 0.294888 24.2123C1.37988 19.5438 5.01469 16.3527 9.30819 16.3075C10.6753 16.2931 12.0423 16.3057 13.4094 16.3057C13.6193 16.3057 13.8309 16.3057 14.1209 16.3057C14.1209 15.9301 14.1145 15.6285 14.1209 15.3287C14.1754 13.1976 14.0504 11.0359 14.3277 8.94276C14.9591 4.17859 18.8696 0.422156 23.1391 0.400484C32.4152 0.353529 41.6897 0.344499 50.9659 0.40229C55.902 0.432992 59.9679 5.18091 59.9872 10.8264C60.0128 18.9262 59.9936 27.026 59.9952 35.1258C59.9952 37.4808 59.9872 39.8358 59.9984 42.1908C60.0032 43.139 59.7115 43.8866 58.9086 44.2532C58.1153 44.6162 57.4358 44.3526 56.8396 43.6717C55.0542 41.6382 53.2144 39.6624 51.4771 37.5783C50.7591 36.7169 50.0283 36.3358 48.9882 36.437C47.9849 36.5345 46.9689 36.4586 45.8775 36.4586C45.8775 36.8325 45.8839 37.1323 45.8775 37.4339C45.831 39.4999 45.9736 41.5984 45.6947 43.623C44.9848 48.779 41.0984 52.3801 36.4507 52.3874C27.721 52.4 18.993 52.3946 10.2634 52.3801C9.75853 52.3801 9.39794 52.5336 9.03894 52.9436C7.16545 55.0945 5.2631 57.2165 3.37198 59.3476C2.05139 60.8357 0.958385 60.6858 0.0032053 58.8853C0.0032053 47.7911 0.0032053 36.697 0.0032053 25.6047L0 25.6065ZM56.479 37.6759C56.479 37.2858 56.479 37.0907 56.479 36.8975C56.479 28.3354 56.4822 19.775 56.479 11.2129C56.4774 7.15123 53.9724 4.34655 50.3504 4.34474C41.5038 4.34113 32.6588 4.34293 23.8122 4.34474C20.1149 4.34474 17.6452 7.11872 17.6388 11.2941C17.6307 16.0475 17.6259 20.8026 17.6484 25.556C17.6516 26.3163 17.7205 27.1055 17.908 27.8333C18.6532 30.7265 20.8937 32.4963 23.7545 32.4981C32.7566 32.5035 41.7586 32.5054 50.7607 32.4927C51.5316 32.4927 52.147 32.7474 52.6903 33.3831C53.8923 34.7917 55.1328 36.1588 56.479 37.6777V37.6759ZM3.51461 53.5269C3.74058 53.294 3.88322 53.1567 4.01464 53.0086C5.09322 51.7968 6.18783 50.6012 7.23757 49.3605C7.8049 48.6905 8.43955 48.4142 9.26332 48.416C15.0617 48.4395 20.8601 48.4287 26.6569 48.4287C29.859 48.4287 33.0595 48.4341 36.2616 48.4287C39.7922 48.4214 42.2859 45.6782 42.3516 41.7104C42.3789 40.1266 42.358 38.5427 42.3532 36.9571C42.3532 36.8108 42.3164 36.6645 42.2891 36.4586C42.0343 36.4586 41.8051 36.4586 41.5743 36.4586C35.4442 36.4568 29.3141 36.4966 23.1855 36.4352C18.8103 36.3918 14.9671 32.6968 14.3149 27.8333C14.0456 25.8268 14.169 23.7554 14.1177 21.7128C14.1065 21.2577 14.1161 20.8008 14.1161 20.2987C13.8373 20.2843 13.6289 20.2662 13.419 20.2644C12.1497 20.2608 10.8804 20.259 9.61269 20.2644C5.99391 20.2771 3.51461 23.0745 3.51301 27.156C3.5098 35.6929 3.51301 44.2298 3.51301 52.7684C3.51301 52.9779 3.51301 53.1892 3.51301 53.5269H3.51461Z" fill="#9B0077"/>
<path d="M38.7992 18.3554C38.7944 19.3667 37.9819 20.2426 37.0459 20.2444C36.0907 20.2444 35.2878 19.3071 35.291 18.1946C35.2942 17.2049 36.134 16.3092 37.0603 16.3074C38.0267 16.3056 38.8024 17.2194 38.7976 18.3554H38.7992Z" fill="#9B0077"/>
<path d="M24.7185 18.1151C24.7553 17.1164 25.6143 16.2675 26.5439 16.3091C27.5007 16.3524 28.2811 17.3385 28.225 18.4347C28.1738 19.437 27.3163 20.2822 26.3884 20.2407C25.4268 20.1992 24.6768 19.242 24.7185 18.1151Z" fill="#9B0077"/>
<path d="M45.9024 18.2253C45.8928 17.2158 46.6957 16.3236 47.6285 16.3073C48.5901 16.2911 49.3882 17.1977 49.4042 18.3264C49.4186 19.3179 48.5949 20.2263 47.6653 20.2426C46.6989 20.2606 45.9136 19.3594 45.9024 18.2235V18.2253Z" fill="#9B0077"/>
</g>
<defs>
<clipPath id="clip0_2159_53717">
<rect width="60" height="60" fill="white" transform="translate(0 0.362305)"/>
</clipPath>
</defs>
</svg>
