<svg width="55" height="52" viewBox="0 0 55 52" fill="none" xmlns="http://www.w3.org/2000/svg">
<g clip-path="url(#clip0_2724_66840)">
<path d="M54.89 37.8469C54.86 37.9269 54.81 37.9969 54.79 38.0869C54.24 40.4869 52.34 42.0269 49.86 42.0269C44.04 42.0269 38.21 42.0269 32.39 42.0269C32.2 42.0269 32.01 42.0269 31.74 42.0269C31.85 42.2269 31.92 42.3669 32 42.4869C33.43 44.7269 34.88 46.9669 36.29 49.2169C36.5 49.5469 36.72 49.6569 37.11 49.6469C38.22 49.6169 39.33 49.6369 40.43 49.6469C41.19 49.6469 41.7 50.0969 41.68 50.7369C41.66 51.3569 41.17 51.7869 40.44 51.7869C31.77 51.7869 23.11 51.7869 14.44 51.7869C13.68 51.7869 13.17 51.3369 13.19 50.6969C13.2 50.0769 13.69 49.6469 14.43 49.6469C15.59 49.6469 16.75 49.6469 17.91 49.6369C18.09 49.6369 18.35 49.5369 18.43 49.4069C19.98 47.0269 21.5 44.6369 23.03 42.2369C23.06 42.1969 23.06 42.1469 23.1 42.0369C22.88 42.0369 22.69 42.0369 22.5 42.0369C16.75 42.0369 10.99 42.0369 5.24 42.0369C2.06 42.0269 0 39.9669 0 36.7669C0 27.6569 0 18.5469 0 9.42689C0 6.25689 2.06 4.18689 5.22 4.18689C12.81 4.18689 20.41 4.18689 28 4.18689C28.31 4.18689 28.65 4.24689 28.92 4.38689C29.35 4.60689 29.46 5.03689 29.37 5.49689C29.27 5.96689 28.95 6.23689 28.48 6.30689C28.27 6.33689 28.05 6.32689 27.84 6.32689C20.3 6.32689 12.76 6.32689 5.22 6.32689C3.25 6.32689 2.15 7.43689 2.15 9.42689C2.15 18.5569 2.15 27.6869 2.15 36.8169C2.15 38.7669 3.26 39.8869 5.2 39.8869C20.03 39.8869 34.86 39.8869 49.69 39.8869C51.66 39.8869 52.76 38.7669 52.76 36.7869C52.76 29.9269 52.76 23.0669 52.76 16.2069C52.76 16.0769 52.76 15.9569 52.76 15.8269C52.76 15.0769 53 14.6569 53.52 14.5069C54.06 14.3469 54.48 14.5669 54.91 15.2269V37.8469H54.89ZM20.88 49.6069H33.97C33.93 49.5169 33.92 49.4669 33.9 49.4269C32.38 47.0469 30.87 44.6669 29.33 42.3069C29.24 42.1669 28.99 42.0469 28.82 42.0469C27.93 42.0169 27.03 42.0469 26.14 42.0269C25.83 42.0269 25.66 42.1369 25.5 42.3869C24.29 44.3069 23.06 46.2069 21.84 48.1169C21.53 48.5969 21.23 49.0769 20.89 49.6069H20.88Z" fill="#9B0077"/>
<path d="M54.89 11.2569C54.35 12.0969 53.92 12.2069 53.02 11.7469C52.03 11.2369 51.03 10.7269 49.96 10.1769C49.96 10.7569 49.96 11.2569 49.96 11.7469C49.94 13.0869 48.97 14.1169 47.63 14.1269C43.16 14.1469 38.7 14.1469 34.23 14.1269C32.91 14.1269 31.93 13.1269 31.92 11.8069C31.89 8.82692 31.89 5.83692 31.92 2.85692C31.93 1.50692 32.94 0.546919 34.29 0.536919C38.72 0.526919 43.15 0.526919 47.58 0.536919C48.94 0.536919 49.93 1.55692 49.95 2.91692C49.95 3.37692 49.95 3.84692 49.95 4.39692C50.67 4.04692 51.34 3.72692 52.01 3.40692C52.36 3.23692 52.71 3.05692 53.07 2.88692C53.95 2.46692 54.38 2.59692 54.89 3.42692V11.2569ZM40.91 11.9969C43 11.9969 45.09 11.9869 47.18 11.9969C47.66 11.9969 47.83 11.8769 47.83 11.3669C47.81 8.68692 47.81 6.00692 47.83 3.32692C47.83 2.82692 47.71 2.65692 47.18 2.65692C43.02 2.67692 38.86 2.67692 34.69 2.65692C34.21 2.65692 34.04 2.77692 34.04 3.27692C34.06 5.97692 34.06 8.66692 34.04 11.3669C34.04 11.8769 34.22 11.9969 34.7 11.9869C36.77 11.9669 38.84 11.9869 40.92 11.9869L40.91 11.9969ZM52.73 5.44692C51.84 5.87692 51.02 6.26692 50.21 6.67692C49.91 6.82692 49.82 7.66692 50.1 7.82692C50.95 8.29692 51.82 8.72692 52.73 9.19692V5.45692V5.44692Z" fill="#9B0077"/>
<path d="M23.6 22.6868C20.41 19.8668 20.96 15.8068 23.16 13.6868C25.49 11.4468 29.17 11.4468 31.49 13.6868C33.72 15.8368 34.19 19.9468 31.09 22.6368C31.67 23.0568 32.3 23.4268 32.84 23.9068C34.68 25.5168 35.66 27.5668 35.72 30.0168C35.75 31.0168 35.74 32.0168 35.72 33.0168C35.72 33.8168 35.32 34.2068 34.53 34.2068C29.72 34.2068 24.92 34.2068 20.11 34.2068C19.41 34.2068 18.92 33.8668 18.92 33.2468C18.94 31.5868 18.87 29.9068 19.17 28.2868C19.65 25.7368 21.27 23.9268 23.59 22.6868H23.6ZM33.57 32.0368C33.6 30.5068 33.68 29.0468 33.04 27.6668C31.68 24.7268 28.35 23.2468 25.34 24.3068C21.94 25.5068 20.63 28.5468 21.12 32.0368H33.58H33.57ZM27.29 21.7668C29.42 21.7668 31.12 20.1068 31.14 17.9968C31.16 15.8668 29.45 14.1468 27.32 14.1368C25.22 14.1368 23.5 15.8368 23.49 17.9368C23.49 20.0368 25.19 21.7568 27.29 21.7568V21.7668Z" fill="#9B0077"/>
</g>
<defs>
<clipPath id="clip0_2724_66840">
<rect width="54.89" height="51.25" fill="white" transform="translate(0 0.536865)"/>
</clipPath>
</defs>
</svg>
