<svg width="30" height="31" viewBox="0 0 30 31" fill="none" xmlns="http://www.w3.org/2000/svg">
<g clip-path="url(#clip0_2724_47713)">
<path d="M24.97 30.92H4.97C4.72 30.78 4.64 30.57 4.64 30.29C4.65 29.86 4.64 29.43 4.64 29C4.64 28.61 4.73 28.25 4.97 27.93C5.34 27.42 5.85 27.09 6.47 27.01C7 26.94 7.54 26.95 8.07 26.95C8.68 26.95 9.29 26.95 9.91 26.95V24.34H9.55C7.31 24.34 5.07 24.34 2.83 24.34C1.13 24.33 0 23.19 0 21.49C0 16.48 0 11.47 0 6.46C0 4.74 1.14 3.61 2.86 3.61C4.57 3.61 6.27 3.61 7.98 3.61C8.08 3.61 8.19 3.61 8.31 3.61C8.31 2.92 8.31 2.27 8.31 1.61C8.31 1.13 8.46 0.980001 8.94 0.980001C12.28 0.970001 15.63 0.970001 18.99 0.970001C19.24 0.970001 19.44 1.04 19.61 1.22C20.18 1.8 20.76 2.36 21.32 2.94C21.48 3.11 21.59 3.34 21.73 3.54C21.78 3.6 21.89 3.6 22 3.6C23.77 3.6 25.55 3.58 27.32 3.6C28.38 3.62 29.17 4.14 29.66 5.09C29.8 5.35 29.86 5.65 29.95 5.94V22.03C29.95 22.03 29.92 22.06 29.91 22.07C29.51 23.62 28.58 24.33 26.99 24.33C24.78 24.33 22.57 24.33 20.36 24.33C20.25 24.33 20.14 24.33 20.02 24.33V26.94C20.14 26.94 20.24 26.94 20.35 26.94C21.23 26.94 22.1 26.94 22.98 26.94C24.41 26.96 25.3 27.86 25.3 29.29C25.3 29.62 25.3 29.95 25.3 30.28C25.31 30.56 25.22 30.77 24.98 30.91L24.97 30.92ZM27.13 6.42H21.64V6.79C21.64 10.29 21.64 13.79 21.64 17.29C21.64 17.84 21.5 17.98 20.95 17.98C16.96 17.98 12.98 17.98 8.99 17.98C8.44 17.98 8.3 17.84 8.3 17.29C8.3 13.78 8.3 10.27 8.3 6.76V6.42H2.82V19.61H27.13V6.43V6.42ZM20.68 17.03V3.91C20.23 3.91 19.81 3.91 19.38 3.91C18.81 3.91 18.69 3.8 18.69 3.23C18.69 2.79 18.69 2.36 18.69 1.93H9.25V17.03H20.67H20.68ZM21.65 5.46C21.77 5.46 21.87 5.46 21.98 5.46C23.69 5.46 25.39 5.46 27.1 5.46C27.81 5.46 28.08 5.73 28.08 6.42C28.08 10.91 28.08 15.41 28.08 19.9C28.08 20.44 27.95 20.56 27.4 20.56C19.12 20.56 10.83 20.56 2.55 20.56C2 20.56 1.87 20.44 1.87 19.9C1.87 15.41 1.87 10.91 1.87 6.42C1.87 5.72 2.14 5.46 2.85 5.46C4.56 5.46 6.26 5.46 7.97 5.46C8.07 5.46 8.18 5.46 8.29 5.46V4.53C8.18 4.53 8.09 4.53 8.01 4.53C6.28 4.53 4.56 4.53 2.83 4.53C1.66 4.53 0.94 5.26 0.94 6.43C0.94 11.45 0.94 16.47 0.94 21.49C0.94 22.64 1.66 23.38 2.81 23.39C10.92 23.39 19.03 23.39 27.14 23.39C28.29 23.39 29.01 22.65 29.01 21.5C29.01 16.48 29.01 11.46 29.01 6.44C29.01 5.26 28.28 4.53 27.09 4.53C25.37 4.53 23.66 4.53 21.94 4.53C21.85 4.53 21.75 4.53 21.65 4.54V5.46ZM24.35 29.97C24.35 29.63 24.35 29.31 24.35 28.99C24.35 28.65 24.2 28.39 23.93 28.2C23.59 27.96 23.21 27.88 22.8 27.88C17.58 27.88 12.35 27.88 7.13 27.88C7.04 27.88 6.95 27.88 6.87 27.88C6.28 27.92 5.7 28.26 5.63 28.7C5.57 29.11 5.62 29.54 5.62 29.97H24.35ZM10.89 24.35V26.92H19.04V24.35H10.89Z" fill="#9B0077"/>
<path d="M14.9699 6.88001C13.7899 6.88001 12.6099 6.88001 11.4299 6.88001C11.0499 6.88001 10.8199 6.70001 10.8299 6.40001C10.8299 6.12001 11.0599 5.95001 11.4299 5.95001C13.7899 5.95001 16.1499 5.95001 18.4999 5.95001C18.8799 5.95001 19.1099 6.14001 19.0999 6.43001C19.0899 6.72001 18.8699 6.88001 18.4999 6.88001C17.3199 6.88001 16.1399 6.88001 14.9599 6.88001H14.9699Z" fill="#9B0077"/>
<path d="M14.9702 10.27C16.1502 10.27 17.3302 10.27 18.5102 10.27C18.8802 10.27 19.1002 10.44 19.1102 10.72C19.1202 11.02 18.8902 11.2 18.5102 11.2C16.1502 11.2 13.7902 11.2 11.4402 11.2C11.0602 11.2 10.8302 11.01 10.8402 10.72C10.8402 10.43 11.0702 10.27 11.4402 10.27C12.6202 10.27 13.8002 10.27 14.9802 10.27H14.9702Z" fill="#9B0077"/>
<path d="M14.9998 12.44C16.1698 12.44 17.3398 12.44 18.5098 12.44C18.8798 12.44 19.0998 12.61 19.1098 12.89C19.1098 13.18 18.8898 13.37 18.5098 13.37C16.1498 13.37 13.7898 13.37 11.4398 13.37C11.0698 13.37 10.8498 13.2 10.8398 12.92C10.8398 12.62 11.0598 12.44 11.4398 12.44C12.6298 12.44 13.8198 12.44 15.0098 12.44H14.9998Z" fill="#9B0077"/>
<path d="M14.9898 14.6C16.1798 14.6 17.3698 14.6 18.5598 14.6C18.8198 14.6 19.0198 14.69 19.0898 14.95C19.1698 15.22 18.9798 15.5 18.6698 15.53C18.4898 15.55 18.2998 15.53 18.1198 15.53C15.9498 15.53 13.7698 15.53 11.5998 15.53C11.5198 15.53 11.4398 15.53 11.3698 15.53C11.0598 15.52 10.8398 15.33 10.8398 15.06C10.8398 14.79 11.0498 14.6 11.3698 14.6C12.3098 14.6 13.2598 14.6 14.1998 14.6C14.4598 14.6 14.7298 14.6 14.9898 14.6Z" fill="#9B0077"/>
<path d="M14.9699 8.11002C16.1499 8.11002 17.3299 8.11002 18.5099 8.11002C18.6399 8.11002 18.8099 8.12002 18.8899 8.20002C18.9999 8.31002 19.1199 8.52002 19.0799 8.64002C19.0399 8.79002 18.8499 8.92002 18.7099 9.03002C18.6499 9.07002 18.5399 9.04002 18.4499 9.04002C16.1299 9.04002 13.8099 9.04002 11.4899 9.04002C11.4299 9.04002 11.3699 9.04002 11.3099 9.04002C11.0199 9.02002 10.8199 8.82002 10.8299 8.56002C10.8299 8.31002 11.0299 8.12002 11.3099 8.11002C11.7499 8.11002 12.1899 8.11002 12.6299 8.11002C13.4099 8.11002 14.1899 8.11002 14.9699 8.11002Z" fill="#9B0077"/>
<path d="M13.9398 4.72C13.0998 4.72 12.2698 4.72 11.4298 4.72C11.0598 4.72 10.8398 4.55 10.8398 4.26C10.8398 3.96 11.0598 3.78 11.4398 3.78C13.1098 3.78 14.7898 3.78 16.4598 3.78C16.8498 3.78 17.0698 3.99 17.0298 4.31C16.9998 4.56 16.8098 4.71 16.5098 4.71C15.6498 4.71 14.7998 4.71 13.9398 4.71V4.72Z" fill="#9B0077"/>
</g>
<defs>
<clipPath id="clip0_2724_47713">
<rect width="29.94" height="29.95" fill="white" transform="translate(0 0.970001)"/>
</clipPath>
</defs>
</svg>
