<svg width="80" height="81" viewBox="0 0 80 81" fill="none" xmlns="http://www.w3.org/2000/svg">
<g clip-path="url(#clip0_1571_28927)">
<path d="M38.3706 31.3632C37.6147 31.3545 37.5312 31.6046 37.5355 32.2658C37.5612 37.8076 37.5505 43.3517 37.544 48.8935C37.544 49.1284 37.649 49.3959 37.4669 49.5939C37.2614 49.8179 35.4884 49.6047 35.3064 49.3329C34.6533 48.3585 33.739 47.7321 32.7155 47.2166C28.5144 45.0982 24.3197 42.9645 20.1228 40.833C18.3156 39.9152 16.5105 38.993 14.6691 38.0556C19.2192 34.7953 19.0736 29.3644 16.3949 26.2694C13.4956 22.9199 8.55792 22.6546 5.36318 25.6365C2.29905 28.4966 1.74875 33.8079 5.58801 37.3574C5.48951 37.4379 5.43598 37.501 5.36746 37.5379C1.98 39.3628 0.305544 42.2272 0.305544 46.1139C0.305544 49.3742 0.307685 52.6345 0.305544 55.8948C0.305544 56.7126 0.389053 57.5151 0.571059 58.3133C0.947919 59.9555 1.77444 61.3474 2.99495 62.6916C2.23909 62.6916 1.63312 62.7351 1.03571 62.6785C0.440443 62.622 0.288414 62.8025 0.290555 63.4224C0.318392 69.0186 0.31625 74.617 0.290555 80.2132C0.288414 80.807 0.408324 80.9745 1.02072 80.9723C7.09331 80.944 13.1638 80.9592 19.2363 80.9549C22.5403 80.9527 24.6987 78.756 24.703 75.3935C24.7072 71.6721 24.7115 67.9485 24.703 64.2271C24.6965 61.9173 25.0134 59.5466 23.3797 57.476C28.5165 57.476 33.4928 57.4803 38.4669 57.476C42.5246 57.4716 45.2483 54.7029 45.2525 50.5769C45.2568 46.501 45.2568 42.4251 45.2525 38.3514C45.2504 34.1232 42.5439 31.4132 38.3684 31.3654L38.3706 31.3632ZM5.44455 31.3218C5.4681 28.4857 7.77637 26.1693 10.5793 26.1693C13.4143 26.1693 15.7204 28.5227 15.7118 31.4067C15.7033 34.2798 13.3715 36.6201 10.5343 36.6005C7.70785 36.5831 5.41671 34.208 5.4424 31.3218H5.44455ZM9.20244 78.3471C7.30529 78.3471 5.406 78.3362 3.50886 78.3558C3.07418 78.3601 2.85363 78.3297 2.85791 77.7685C2.88575 73.8057 2.87933 69.8407 2.8622 65.8758C2.8622 65.4212 2.97568 65.2885 3.43177 65.2907C6.90702 65.3103 10.3823 65.3168 13.8554 65.2863C14.4014 65.282 14.4399 65.493 14.4378 65.9432C14.4207 68.6858 14.4335 71.4285 14.4271 74.1689C14.4228 75.574 14.3307 76.9899 15.1658 78.3471H9.19816H9.20244ZM24.4567 54.866C22.1163 54.866 19.7781 54.8638 17.4377 54.8704C17.1679 54.8704 16.988 54.8617 16.9945 54.4941C17.0137 53.337 17.0009 52.1799 17.0009 50.9206C19.5511 52.2147 22.0157 53.4653 24.4803 54.7159C24.4717 54.766 24.4631 54.816 24.4567 54.866ZM33.0196 54.0004C32.3108 54.7877 31.4222 55.0618 30.3987 54.7377C30.0711 54.6333 29.7542 54.4789 29.4458 54.3223C23.0285 51.0663 16.609 47.8169 10.2067 44.5327C9.59643 44.2195 9.28167 44.1912 9.04185 44.9111C8.86626 45.444 8.29455 46.0334 8.41874 46.4271C8.54079 46.8142 9.31379 46.9991 9.81056 47.2536C11.1424 47.9409 12.4636 48.6477 13.819 49.2828C14.3179 49.5177 14.4506 49.8048 14.4421 50.3355C14.4121 52.5083 14.4442 54.6833 14.4164 56.8561C14.41 57.3477 14.5149 57.5108 15.0266 57.489C16.0673 57.4434 17.1122 57.4673 18.155 57.476C20.4911 57.4977 22.1185 59.1594 22.1313 61.5475C22.142 63.8574 22.1335 66.1672 22.1335 68.477C22.1335 70.813 22.1377 73.1511 22.1335 75.487C22.1292 77.1508 21.0714 78.3297 19.5918 78.3427C18.0758 78.358 17.0052 77.1682 16.9987 75.4565C16.9945 73.6078 16.9837 71.7612 16.9987 69.9125C17.0694 62.311 17.382 62.6089 9.9219 62.6872C9.30736 62.6938 8.69711 62.6851 8.08685 62.5633C5.10837 61.9717 2.91359 59.3878 2.88147 56.3037C2.84507 52.7454 2.84507 49.185 2.88147 45.6245C2.91787 42.1054 5.71006 39.3214 9.16818 39.1975C10.4893 39.1496 11.667 39.4193 12.8533 40.0305C19.1271 43.2668 25.4288 46.4488 31.7284 49.6374C32.4693 50.0136 33.0945 50.4856 33.435 51.2751C33.8632 52.2691 33.7369 53.1978 33.0196 53.996V54.0004ZM42.6745 51.025C42.6616 53.0825 41.0428 54.7703 39.0429 54.853C37.9252 54.8986 36.8032 54.8617 35.6233 54.8617C35.9445 54.1004 36.2229 53.3696 36.24 52.5779C36.2464 52.3278 36.3364 52.2452 36.5719 52.256C36.8396 52.2691 37.1072 52.2604 37.3727 52.2582C39.0558 52.2386 40.1114 51.1685 40.1135 49.446C40.12 44.6675 40.1135 39.8913 40.12 35.1128C40.12 34.8562 39.9829 34.4886 40.2099 34.3646C40.4818 34.2146 40.7495 34.5147 40.9786 34.68C42.0492 35.4456 42.668 36.4961 42.6745 37.8337C42.6937 42.2315 42.7002 46.6294 42.6745 51.0272V51.025Z" fill="#9B0077"/>
<path d="M60.68 39.2127C71.2685 39.204 79.9063 30.441 79.9277 19.6901C79.9491 8.89566 71.3113 0.091342 60.6886 0.0782921C50.0637 0.0652422 41.4045 8.84781 41.4023 19.6401C41.4002 30.428 50.0594 39.2214 60.68 39.2127ZM48.6569 31.3871C50.5733 31.3871 52.2992 31.3936 54.025 31.3806C54.2798 31.3806 54.404 31.4828 54.5111 31.6981C55.2862 33.2707 56.2284 34.7409 57.3846 36.2591C53.9437 35.5283 51.1579 33.9297 48.659 31.3871H48.6569ZM67.0203 20.9907C66.8832 23.5115 66.3779 25.9083 65.5128 28.2312C65.3544 28.6553 65.1638 28.7924 64.7141 28.788C62.0162 28.7641 59.3182 28.7641 56.6202 28.788C56.1748 28.7924 55.9757 28.6619 55.8172 28.2356C54.95 25.9105 54.4468 23.5137 54.3077 20.9907H67.0203ZM54.3441 17.6369C54.5368 15.4076 55.0207 13.2565 55.7766 11.1576C55.9479 10.6813 56.147 10.4943 56.6716 10.4986C59.3417 10.5291 62.014 10.5269 64.6842 10.4986C65.1681 10.4943 65.3651 10.653 65.5321 11.1054C66.3265 13.2782 66.8104 15.5141 67.0031 17.824C67.0438 18.309 66.8789 18.3459 66.4999 18.3438C64.5493 18.3329 62.6007 18.3372 60.65 18.3372C58.7529 18.3372 56.8558 18.3111 54.9607 18.3525C54.3655 18.3655 54.297 18.1915 54.3441 17.6326V17.6369ZM60.3246 35.711C59.1833 34.4212 58.194 33.0249 57.3011 31.4132H64.014C63.1446 33.0379 62.1061 34.4538 60.9434 35.7849C60.6565 36.1134 60.5173 35.9263 60.3267 35.711H60.3246ZM63.9476 36.2678C65.0953 34.7322 66.031 33.2902 66.7976 31.7395C66.8939 31.5459 66.9796 31.3784 67.2579 31.3806C69.0052 31.3936 70.7525 31.3871 72.6625 31.3871C70.1872 33.934 67.3886 35.5109 63.9476 36.2678ZM77.2383 21.5388C76.9578 24.0009 76.1805 26.2759 74.9429 28.4031C74.7952 28.6553 74.641 28.7902 74.3219 28.788C72.2663 28.7706 70.2107 28.7793 68.0909 28.7793C68.7054 26.9023 69.1829 25.0492 69.412 23.1374C69.4292 23.0026 69.4506 22.8699 69.4699 22.7351C69.5555 22.1543 69.3114 21.3474 69.7375 21.0473C70.1379 20.7645 70.8702 20.9537 71.4548 20.9537C73.1914 20.9494 74.9279 20.9646 76.6623 20.9429C77.1098 20.9385 77.3025 20.969 77.2383 21.5388ZM74.3391 10.5051C74.7159 10.5008 74.8337 10.7205 74.9857 10.9793C76.3047 13.226 77.0734 15.649 77.2811 18.3416H71.0373C69.5983 18.3416 69.6176 18.3416 69.487 16.867C69.2964 14.729 68.8082 12.6519 68.078 10.516C70.2279 10.516 72.2835 10.5269 74.3391 10.5051ZM72.6303 7.90604C70.7824 7.90604 69.0823 7.90169 67.3821 7.91039C67.1166 7.91039 66.9432 7.85819 66.8147 7.59285C66.0503 6.01164 65.0867 4.5544 64.0247 3.11891C66.6434 3.37774 70.3542 5.42657 72.6303 7.90604ZM61.1019 3.68441C62.1875 4.95242 63.1553 6.30308 64.0032 7.8408H57.3268C58.1705 6.29003 59.1683 4.93502 60.2603 3.63873C60.6286 3.20156 60.8042 3.33859 61.1019 3.68441ZM57.3825 3.02104C56.2241 4.57398 55.2712 6.03774 54.5004 7.6146C54.389 7.8408 54.2456 7.91257 54.0036 7.91039C52.282 7.90169 50.5583 7.90604 48.6697 7.90604C51.1365 5.35479 53.9372 3.78663 57.3825 3.02104ZM44.1067 17.5999C44.4087 15.2009 45.1688 12.9737 46.385 10.8988C46.5328 10.6465 46.6805 10.5051 47.0017 10.5073C49.0573 10.5247 51.1108 10.516 53.2349 10.516C52.6225 12.3909 52.145 14.2418 51.9159 16.1514C51.8966 16.3123 51.8688 16.4733 51.8538 16.6342C51.7496 17.7725 51.145 18.3416 50.0401 18.3416C48.2779 18.3416 46.5135 18.309 44.7534 18.359C44.1132 18.3786 44.0318 18.1894 44.1067 17.5978V17.5999ZM46.4022 28.4292C45.1453 26.2803 44.3487 23.9813 44.0918 21.4888C44.0468 21.0647 44.1153 20.9363 44.5543 20.9407C46.7705 20.9624 48.9867 20.9581 51.205 20.9429C51.5497 20.9429 51.7424 20.9864 51.7639 21.4018C51.8923 23.903 52.4105 26.3303 53.2477 28.7771C51.0979 28.7771 49.068 28.7706 47.0403 28.7837C46.7383 28.7837 46.5606 28.6967 46.4022 28.4292Z" fill="#9B0077"/>
<path d="M78.2448 73.1293C78.1912 73.1293 78.1356 73.1206 78.0842 73.1293C77.4846 73.2468 77.3411 73.001 77.3454 72.392C77.3775 68.8076 77.369 65.2233 77.3583 61.6367C77.3476 57.6739 74.5918 54.8725 70.6947 54.866C65.7227 54.8573 60.7486 54.8573 55.7766 54.866C51.8753 54.8725 49.1195 57.6717 49.1088 61.6302C49.1002 64.7535 49.1152 67.8767 49.1002 71C49.0959 71.6938 49.4 72.5921 48.9589 73.0228C48.6227 73.3533 47.7448 73.1119 47.1067 73.1271C47.0532 73.1271 46.9996 73.1337 46.9461 73.1271C46.642 73.0858 46.5564 73.2098 46.5286 73.5295C46.1624 77.6294 49.0809 80.9332 53.1236 80.9527C56.4918 80.968 59.8621 80.9549 63.2303 80.9549V80.9505C66.7056 80.9505 70.183 80.9832 73.6582 80.9419C76.9193 80.9005 79.6237 78.2927 79.9106 75.0042C80.0206 73.7557 79.4653 73.1308 78.2448 73.1293ZM51.6783 61.6346C51.6825 59.1051 53.2992 57.4803 55.8109 57.476C60.7593 57.4716 65.7099 57.4716 70.6583 57.476C73.1721 57.4782 74.7866 59.1007 74.7909 61.6324C74.7973 65.2472 74.7802 68.8598 74.8059 72.4747C74.8102 73.0075 74.6732 73.1446 74.1507 73.1402C70.5127 73.1163 66.8747 73.1271 63.2367 73.1271C59.5987 73.1271 56.0143 73.1119 52.402 73.1424C51.8025 73.1467 51.6569 73.0032 51.6611 72.392C51.6933 68.8055 51.6718 65.2189 51.6783 61.6324V61.6346ZM73.5447 78.3406C71.1122 78.3623 68.6798 78.3471 66.2473 78.3471C61.8642 78.3471 57.4811 78.3515 53.0958 78.3449C51.3485 78.3428 50.0402 77.4445 49.3871 75.7654H77.0093C76.6988 77.2009 75.2106 78.3253 73.5426 78.3406H73.5447Z" fill="#9B0077"/>
<path d="M28.2272 35.7305C28.4992 36.1046 28.6191 36.1155 28.8932 35.7305C29.9938 34.195 31.1265 32.6856 32.2485 31.1653C33.4819 29.497 33.4712 29.5145 31.831 28.303C31.437 28.0115 31.2614 28.1138 31.028 28.4596C30.694 28.9533 30.3214 29.4231 29.8417 30.0712V29.2121C29.8417 24.8404 29.8396 20.4665 29.8417 16.0948C29.8439 13.1521 31.8973 11.4099 34.8159 11.9189C34.6938 12.0189 34.5975 12.0994 34.499 12.1777C33.9979 12.5801 33.1029 12.9694 33.0922 13.3826C33.0772 13.922 33.7838 14.4701 34.1414 15.0378C34.3662 15.3967 34.5375 15.4315 34.8801 15.1639C36.7473 13.7132 38.623 12.2756 40.5202 10.864C40.9463 10.5465 40.8649 10.4116 40.4966 10.1397C38.9892 9.01744 37.501 7.86688 36.0043 6.72719C34.3726 5.4831 34.3791 5.48745 33.2056 7.23831C33.0001 7.54281 32.9573 7.70593 33.302 7.93648C33.8223 8.2823 34.2998 8.69772 34.9572 9.20667C34.4454 9.20667 34.1371 9.20449 33.8287 9.20667C30.4777 9.23494 27.8953 11.4382 27.3536 14.7898C27.2423 15.4793 27.2765 16.1971 27.2744 16.9017C27.268 21.2126 27.2722 25.5255 27.2722 30.043C27.0645 29.7776 26.9853 29.6732 26.9018 29.5732C26.4907 29.0838 26.2016 28.1594 25.7091 28.1594C25.1674 28.1594 24.6449 28.8859 24.0796 29.2404C23.6792 29.4927 23.7649 29.6841 23.9983 29.9951C25.4201 31.8961 26.8333 33.8035 28.2272 35.7284V35.7305Z" fill="#9B0077"/>
<path d="M44.3833 71.4785C42.8759 70.354 41.3877 69.2057 39.8931 68.066C38.1994 66.774 38.208 66.7806 37.041 68.588C36.8547 68.8751 36.8376 69.0186 37.1309 69.2274C37.6555 69.5993 38.1502 70.0126 38.7968 70.5193C36.9896 70.5193 35.3901 70.5324 33.7906 70.515C32.9983 70.5063 32.4587 70.0539 32.433 69.3166C32.3902 68.0551 32.4202 66.7914 32.4202 65.3429C32.6215 65.5995 32.7093 65.7213 32.8056 65.8323C33.221 66.3086 33.4758 67.209 34.009 67.2177C34.5229 67.2243 35.0325 66.5217 35.5721 66.1759C35.9725 65.9193 35.9447 65.7213 35.6727 65.3625C34.2788 63.5094 32.902 61.6389 31.5444 59.7597C31.2382 59.3356 31.0798 59.2356 30.7265 59.738C29.6558 61.2605 28.5317 62.746 27.4246 64.2424C26.6081 65.3472 26.7644 66.2926 27.8936 67.0785C27.915 67.0938 27.9407 67.1046 27.96 67.1242C28.219 67.4048 28.3818 67.2873 28.5852 67.0242C28.9771 66.5174 29.279 65.928 29.8443 65.4538C29.8443 66.674 29.8421 67.7876 29.8443 68.899C29.8507 71.4981 31.4395 73.1228 33.9833 73.1315C35.525 73.1358 37.0646 73.1315 38.8054 73.1315C38.5356 73.349 38.4264 73.4295 38.3258 73.5186C37.8525 73.9406 36.9404 74.2212 36.9468 74.7323C36.9554 75.2869 37.6534 75.8198 38.0174 76.3853C38.2251 76.7093 38.3857 76.7507 38.7005 76.5049C40.5912 75.0411 42.4883 73.5861 44.4048 72.1571C44.8073 71.857 44.7217 71.7352 44.3791 71.4807L44.3833 71.4785Z" fill="#9B0077"/>
<path d="M58.0635 15.7316C58.9414 15.7316 59.3803 15.2807 59.3803 14.3788C59.3803 13.5407 58.9635 13.1216 58.1299 13.1216C57.2519 13.1216 56.813 13.5726 56.813 14.4745C56.813 15.3126 57.2298 15.7316 58.0635 15.7316Z" fill="#9B0077"/>
<path d="M63.327 15.7316C64.1221 15.7316 64.5197 15.3198 64.5197 14.4962C64.5197 13.5798 64.0608 13.1216 63.1429 13.1216C62.3478 13.1216 61.9502 13.5334 61.9502 14.357C61.9502 15.2734 62.4091 15.7316 63.327 15.7316Z" fill="#9B0077"/>
<path d="M58.0914 26.1672C58.9522 26.1672 59.3826 25.7344 59.3826 24.8687C59.3826 24.0031 58.9565 23.5659 58.1043 23.5572C57.2521 23.5485 56.8217 23.9813 56.8131 24.8557C56.8045 25.73 57.2307 26.1672 58.0914 26.1672Z" fill="#9B0077"/>
<path d="M63.1964 26.1672C64.0786 26.1672 64.5197 25.7184 64.5197 24.8208C64.5197 23.9799 64.1043 23.5594 63.2735 23.5594C62.3913 23.5594 61.9502 24.0081 61.9502 24.9057C61.9502 25.7467 62.3656 26.1672 63.1964 26.1672Z" fill="#9B0077"/>
<path d="M63.2238 67.9072C65.3543 67.9115 67.0973 66.1302 67.0845 63.9639C67.0716 61.8346 65.3436 60.0881 63.2431 60.0838C61.1104 60.0794 59.3695 61.8564 59.3824 64.0248C59.3952 66.152 61.1254 67.9007 63.2217 67.9072H63.2238ZM63.2495 62.6959C63.9411 62.7046 64.5128 63.2875 64.515 63.99C64.5193 64.723 63.8983 65.3298 63.181 65.2972C62.4915 65.2667 61.9369 64.6621 61.9562 63.9618C61.9754 63.2592 62.5579 62.6872 63.2495 62.6959Z" fill="#9B0077"/>
</g>
<defs>
<clipPath id="clip0_1571_28927">
<rect width="79.6866" height="80.894" fill="white" transform="translate(0.290527 0.0782776)"/>
</clipPath>
</defs>
</svg>
