<svg width="20" height="20" viewBox="0 0 20 20" fill="none" xmlns="http://www.w3.org/2000/svg">
<path d="M9.03811 19.0381C9.2569 19.2569 9.55365 19.3798 9.86307 19.3798C10.1725 19.3798 10.4692 19.2569 10.688 19.0381L17.3289 12.4797C17.5477 12.2609 17.6706 11.9641 17.6706 11.6547C17.6706 11.3453 17.5477 11.0485 17.3289 10.8297C17.1101 10.6109 16.8134 10.488 16.504 10.488C16.1946 10.488 15.8978 10.6109 15.679 10.8297L11.0923 15.4165L11.0758 1.7552C11.0764 1.60119 11.0465 1.44858 10.9879 1.30617C10.9292 1.16376 10.843 1.03437 10.7341 0.925463C10.6252 0.816559 10.4958 0.730295 10.3534 0.671648C10.2109 0.613001 10.0583 0.583133 9.90432 0.583764C9.7503 0.583133 9.59769 0.613 9.45528 0.671647C9.31287 0.730294 9.18348 0.816559 9.07457 0.925463C8.96567 1.03437 8.87941 1.16376 8.82076 1.30617C8.76211 1.44858 8.73224 1.60119 8.73288 1.7552L8.73287 15.433L4.12961 10.8297C3.91082 10.6109 3.61407 10.488 3.30465 10.488C2.99523 10.488 2.69849 10.6109 2.47969 10.8297C2.2609 11.0485 2.13798 11.3453 2.13798 11.6547C2.13798 11.9641 2.2609 12.2609 2.47969 12.4797L9.03811 19.0381Z" fill="#9B0077"/>
</svg>
