<svg width="63" height="51" viewBox="0 0 63 51" fill="none" xmlns="http://www.w3.org/2000/svg">
<g clip-path="url(#clip0_2159_56726)">
<path d="M0.5 33.9572C0.877658 33.4746 1.37313 33.3584 1.97513 33.3584C13.0886 33.3713 24.2005 33.3681 35.314 33.3681C35.3946 33.3681 35.4753 33.3681 35.556 33.3681C36.3533 33.3762 36.8197 33.7441 36.8084 34.3558C36.7971 34.9449 36.3469 35.3032 35.5835 35.3064C33.771 35.3112 31.9602 35.308 30.1478 35.308C21.2292 35.308 12.3107 35.308 3.39215 35.308C3.17589 35.308 2.95962 35.308 2.63361 35.308C3.03063 36.1682 3.61165 36.6653 4.43797 36.8509C4.80595 36.9332 5.19652 36.9445 5.5774 36.9445C15.4627 36.9494 25.348 36.9478 35.2316 36.9494C35.4737 36.9494 35.7158 36.9397 35.9563 36.9671C36.4695 37.0252 36.76 37.3448 36.7971 37.8403C36.8343 38.339 36.5873 38.7005 36.0919 38.8264C35.8433 38.8893 35.5738 38.8877 35.314 38.8877C25.369 38.8909 15.424 38.8909 5.47734 38.8893C2.83858 38.8893 1.28275 37.6982 0.569399 35.1434C0.559715 35.1079 0.524209 35.0788 0.501614 35.0466C0.501614 34.6834 0.501614 34.3219 0.501614 33.9588L0.5 33.9572Z" fill="white"/>
<path d="M62.3538 30.0884C62.3538 35.5838 62.3538 41.0808 62.3538 46.5762C62.3538 49.3425 60.6915 50.9984 57.9139 50.9984C53.0624 50.9984 48.211 50.9984 43.3579 50.9984C40.59 50.9984 38.9229 49.3328 38.9229 46.5698C38.9229 35.5773 38.9229 24.5865 38.9229 13.5941C38.9229 10.7858 40.5739 9.14124 43.395 9.13963C48.2271 9.1364 53.0576 9.1364 57.8897 9.13963C60.7092 9.14124 62.3522 10.7858 62.3538 13.6005C62.3538 19.0959 62.3538 24.5929 62.3538 30.0884ZM60.4203 30.027C60.4203 24.5526 60.4203 19.0782 60.4203 13.6037C60.4203 11.8768 59.636 11.0747 57.9316 11.0731C53.0608 11.0699 48.19 11.0699 43.3192 11.0731C41.6536 11.0731 40.8547 11.8881 40.8547 13.5698C40.8547 24.58 40.8547 35.5886 40.8547 46.5988C40.8547 48.2628 41.6665 49.0665 43.345 49.0665C48.1965 49.0665 53.0463 49.0665 57.8978 49.0665C59.6456 49.0665 60.4203 48.2805 60.4203 46.51C60.4203 41.0146 60.4203 35.5208 60.4203 30.0254V30.027Z" fill="white"/>
<path d="M3.50375 17.6466C3.50375 13.4182 3.50052 9.18968 3.50375 4.96282C3.50859 1.89152 5.40818 0 8.48271 0C23.8053 0 39.1279 0 54.4489 0C57.5541 0 59.452 1.89959 59.4553 5.00155C59.4553 5.40503 59.4714 5.80851 59.4488 6.20877C59.4165 6.79139 59.0292 7.15775 58.4853 7.15775C57.9446 7.15775 57.5573 6.78494 57.5266 6.20392C57.5056 5.78269 57.5202 5.35823 57.5202 4.93538C57.5153 3.00674 56.455 1.93671 54.5409 1.93671C45.2592 1.93671 35.9775 1.93671 26.6958 1.93671C20.6146 1.93671 14.5349 1.93671 8.45366 1.93671C6.48628 1.93671 5.44369 2.9793 5.44046 4.95313C5.42593 13.5102 5.41302 22.0672 5.39688 30.6242C5.39688 30.905 5.40011 31.1923 5.34362 31.4651C5.24517 31.9428 4.90302 32.1833 4.43014 32.1849C3.95726 32.1865 3.61511 31.9492 3.51021 31.4731C3.45533 31.2214 3.45856 30.9534 3.45856 30.6936C3.45533 26.3441 3.45695 21.9962 3.45695 17.6466H3.50375Z" fill="white"/>
<path d="M50.6964 12.2028C51.944 12.2028 53.1915 12.198 54.4391 12.2044C55.1444 12.2093 55.5817 12.5934 55.5737 13.1744C55.5656 13.7474 55.1185 14.1299 54.4149 14.1315C51.8988 14.1363 49.3843 14.1363 46.8682 14.1315C46.1645 14.1315 45.7158 13.7506 45.7029 13.1793C45.69 12.5805 46.1403 12.2044 46.8924 12.2028C48.1593 12.198 49.4278 12.2028 50.6948 12.2028H50.6964Z" fill="white"/>
<path d="M50.6623 46.3792C51.0045 46.3792 51.3466 46.3598 51.6872 46.3841C52.202 46.4196 52.5038 46.7359 52.5538 47.2281C52.6071 47.7559 52.3376 48.1836 51.8163 48.2352C51.0432 48.3111 50.2524 48.3111 49.4777 48.2401C48.9564 48.1933 48.6772 47.7704 48.7256 47.2427C48.774 46.7214 49.0968 46.4066 49.6391 46.3792C49.9796 46.3631 50.3218 46.376 50.6639 46.376C50.6639 46.376 50.6639 46.3776 50.6639 46.3792H50.6623Z" fill="white"/>
</g>
<defs>
<clipPath id="clip0_2159_56726">
<rect width="61.8536" height="51" fill="white" transform="translate(0.5)"/>
</clipPath>
</defs>
</svg>
