<svg width="61" height="61" viewBox="0 0 61 61" fill="none" xmlns="http://www.w3.org/2000/svg">
<g clip-path="url(#clip0_2159_53706)">
<path d="M60.0373 55.3362C59.7151 55.7971 59.4298 56.2921 59.0659 56.7087C58.1104 57.8046 57.1245 58.8715 56.1402 59.9384C55.3499 60.7954 54.2614 60.8551 53.5384 60.0989C52.8026 59.329 52.8395 58.2194 53.6298 57.3283C53.7485 57.1952 53.8639 57.0569 54.0691 56.8196C53.7805 56.8026 53.5833 56.7787 53.3862 56.7787C51.2797 56.7752 49.1717 56.7787 47.0652 56.7752C46.8312 56.7752 46.5955 56.7752 46.3647 56.7479C45.4044 56.6336 44.7456 55.8534 44.76 54.8667C44.7744 53.8579 45.491 53.059 46.4785 53.0436C48.2531 53.0146 50.0293 53.0334 51.8039 53.0334C52.4981 53.0334 53.1922 53.0334 54.013 53.0334C53.7581 52.738 53.5978 52.5656 53.4503 52.3795C52.8379 51.6114 52.87 50.5376 53.524 49.8377C54.162 49.1549 55.2457 49.0747 55.9094 49.7524C57.163 51.031 58.3797 52.3505 59.5933 53.6718C59.7889 53.8852 59.8931 54.1942 60.0389 54.4588V55.3328L60.0373 55.3362Z" fill="#9B0077"/>
<path d="M38.7241 8.07108C38.8026 8.40908 38.8684 8.64466 38.9116 8.88535C39.0784 9.82083 38.5365 10.77 37.6949 11.0294C36.826 11.2974 35.845 10.8673 35.5837 9.95227C35.0578 8.10522 34.5914 6.23769 34.1697 4.36162C33.9758 3.49443 34.5513 2.59993 35.3913 2.34387C37.0024 1.85394 38.6215 1.38621 40.2486 0.954318C41.2553 0.686309 42.1771 1.30939 42.4144 2.33534C42.6324 3.28105 42.0938 4.23359 41.1528 4.55794C40.9732 4.61939 40.7937 4.68085 40.5291 4.76961C40.7408 4.9352 40.8866 5.05469 41.0389 5.16395C47.5891 9.87204 51.5663 16.3674 52.727 24.6911C54.7981 39.5392 45.4153 53.4893 31.5327 56.2616C29.7981 56.6081 28.0027 56.743 26.2345 56.7549C18.2287 56.8061 10.2214 56.7771 2.21398 56.7771C1.06778 56.7771 0.442583 56.3896 0.147617 55.5156C-0.217885 54.4333 0.429759 53.2503 1.49581 53.0728C1.74428 53.0318 2.00238 53.0369 2.25566 53.0369C10.2037 53.0369 18.1518 53.0284 26.0998 53.0387C29.4599 53.0438 32.7206 52.489 35.7792 50.9782C43.2624 47.2824 47.7767 41.0892 49.2114 32.4395C50.7456 23.1855 46.5086 13.2094 39.0319 8.24008C38.9678 8.1974 38.8956 8.16497 38.7225 8.07279L38.7241 8.07108Z" fill="#9B0077"/>
<path d="M26.6588 11.8555C35.4052 11.876 42.4828 19.4417 42.4571 28.7452C42.4315 38.018 35.3234 45.5513 26.6187 45.5308C17.8755 45.5103 10.7931 37.9395 10.8204 28.6394C10.846 19.3666 17.9541 11.835 26.6588 11.8555ZM26.6299 41.7889C33.4078 41.7975 38.932 35.9337 38.9432 28.7196C38.9544 21.4987 33.4671 15.6298 26.678 15.6008C19.8794 15.5718 14.3327 21.4578 14.3343 28.6991C14.3359 35.9149 19.8457 41.7804 26.6283 41.7889H26.6299Z" fill="#9B0077"/>
<path d="M0.0371094 29.3819C0.0819956 16.077 8.14067 4.91282 19.5514 1.64378C21.8085 0.996803 24.0961 0.651975 26.4286 0.626369C27.5427 0.614419 28.3379 1.32627 28.3924 2.38977C28.4485 3.47034 27.6934 4.33412 26.5552 4.3529C23.5767 4.40411 20.6783 4.91282 17.9403 6.17092C10.09 9.77625 5.22467 16.0361 3.84602 25.0408C2.65173 32.8353 4.98902 39.5902 9.98421 45.3498C10.2086 45.6093 10.4539 45.85 10.6751 46.1146C11.35 46.9203 11.3308 48.0368 10.6351 48.7503C9.94894 49.4553 8.87007 49.4485 8.1567 48.7025C5.6046 46.0378 3.60236 42.9668 2.17081 39.4758C0.763304 36.0429 0.0483309 32.4512 0.0371094 29.3819Z" fill="#9B0077"/>
<path d="M24.9383 31.4782C25.9274 30.413 26.9117 29.3529 27.8991 28.2945C28.752 27.3812 29.6048 26.4662 30.4641 25.5598C31.3137 24.6653 32.4615 24.6089 33.223 25.4164C34.0005 26.2375 33.9652 27.4376 33.1092 28.3542C30.8664 30.7561 28.6173 33.1511 26.3618 35.5393C25.3887 36.5704 24.3612 36.5533 23.3897 35.5222C22.3252 34.3921 21.2624 33.2621 20.2028 32.1269C19.3179 31.1794 19.265 29.9828 20.0649 29.1497C20.8328 28.3474 21.9597 28.4123 22.8254 29.3136C23.4811 29.9964 24.1287 30.6878 24.7796 31.3758C24.7924 31.3894 24.8132 31.3979 24.9367 31.4782H24.9383Z" fill="#9B0077"/>
</g>
<defs>
<clipPath id="clip0_2159_53706">
<rect width="60" height="60" fill="white" transform="translate(0.0371094 0.626465)"/>
</clipPath>
</defs>
</svg>
