<svg width="22" height="22" viewBox="0 0 22 22" fill="none" xmlns="http://www.w3.org/2000/svg">
<path d="M14.9802 9.35686C14.9916 8.60054 14.8459 7.84993 14.5521 7.15132C14.2584 6.45271 13.8227 5.8209 13.272 5.29486C12.739 4.75063 12.0987 4.31999 11.3905 4.02949C10.6824 3.739 9.92141 3.59482 9.15461 3.60586C8.38802 3.59459 7.62723 3.73857 6.91923 4.0289C6.21122 4.31923 5.57104 4.74975 5.03822 5.29386C4.48696 5.81977 4.05078 6.45165 3.75664 7.15047C3.4625 7.84929 3.31663 8.60021 3.32804 9.35686C3.31679 10.1136 3.46273 10.8647 3.75686 11.5636C4.05099 12.2626 4.48707 12.8947 5.03822 13.4209C5.57108 13.9649 6.21127 14.3954 6.91926 14.6857C7.62726 14.9761 8.38803 15.1201 9.15461 15.1089C9.92138 15.1203 10.6824 14.9764 11.3906 14.6861C12.0988 14.3958 12.7391 13.9651 13.272 13.4209C13.8226 12.8944 14.2583 12.2622 14.552 11.5633C14.8458 10.8644 14.9915 10.1135 14.9802 9.35686ZM21.6385 20.0359C21.6325 20.4698 21.4552 20.8842 21.1443 21.1911C20.8334 21.4979 20.4135 21.6729 19.9739 21.6789C19.755 21.684 19.5374 21.6432 19.3357 21.5591C19.1339 21.4749 18.9526 21.3494 18.8038 21.1909L14.3459 16.8009C12.8268 17.8521 11.0129 18.4086 9.15765 18.3929C7.9355 18.3962 6.7255 18.1536 5.60153 17.6799C4.50648 17.2355 3.51148 16.5813 2.674 15.7552C1.83653 14.9291 1.17317 13.9474 0.722245 12.8669C0.245613 11.7563 0 10.5625 0 9.35636C0 8.15025 0.245613 6.95644 0.722245 5.84586C1.17293 4.76575 1.83587 3.78443 2.6728 2.95852C3.50974 2.13262 4.50409 1.47848 5.59849 1.03386C6.72366 0.563411 7.93316 0.320984 9.15512 0.320984C10.3771 0.320984 11.5866 0.563411 12.7117 1.03386C13.8062 1.47859 14.8006 2.13289 15.6376 2.95897C16.4745 3.78505 17.1374 4.76657 17.588 5.84686C18.0682 6.95616 18.314 8.15054 18.3104 9.35686C18.3265 11.188 17.7626 12.9785 16.6974 14.4779L21.1553 18.8779C21.3117 19.028 21.4353 19.2082 21.5182 19.4074C21.6012 19.6066 21.6418 19.8205 21.6375 20.0359H21.6385Z" fill="#9B0077"/>
</svg>
