<svg width="50" height="59" viewBox="0 0 50 59" fill="none" xmlns="http://www.w3.org/2000/svg">
<g clip-path="url(#clip0_2159_56736)" filter="url(#filter0_d_2159_56736)">
<path d="M29.6214 0C30.6254 0.374525 31.5628 0.843143 32.2728 1.68629C33.1104 2.68256 33.5356 3.81351 33.5319 5.11605C33.5227 7.99233 33.5301 10.8686 33.5301 13.7449C33.5301 13.9275 33.5301 14.1083 33.5301 14.3666C34.2086 14.1342 34.8521 13.9331 35.477 13.6914C35.8893 13.5327 36.2683 13.5198 36.6843 13.6803C39.0473 14.5936 41.4842 15.1526 44.0283 15.1876C44.2613 15.1913 44.4942 15.219 44.7253 15.2504C45.1376 15.3057 45.3799 15.5437 45.452 15.9551C45.4557 15.9717 45.4631 15.9884 45.4631 16.0031C45.4742 19.8978 45.8273 23.8257 44.1392 27.5341C42.5436 31.0358 40.0697 33.6907 36.6548 35.4766C36.2665 35.6795 35.8949 35.6832 35.5158 35.4618C34.8761 35.0854 34.2364 34.7109 33.5282 34.2958C33.5282 34.5301 33.5282 34.7054 33.5282 34.8807C33.5282 38.4396 33.4635 41.9985 33.5486 45.5555C33.6207 48.5739 31.1856 51.0295 28.1146 50.9963C22.0482 50.9336 15.9819 50.9797 9.91556 50.976C6.7354 50.976 4.52408 48.7584 4.52223 45.5777C4.52038 32.2129 4.54627 18.8443 4.50004 5.47582C4.4908 2.93347 5.96255 0.728756 8.35321 0.0682632C8.3791 0.0608834 8.39943 0.0239844 8.42162 0C15.4882 0 22.5548 0 29.6214 0ZM31.8254 42.445C31.8254 42.2383 31.8254 42.0594 31.8254 41.8804C31.8254 39.2532 31.7958 36.626 31.8439 34.0006C31.8586 33.1962 31.6312 32.6298 31.0673 32.0413C28.8967 29.7757 27.558 27.0618 26.9941 23.977C26.5152 21.3535 26.7722 18.7041 26.7279 16.0658C26.7205 15.5917 27.0145 15.291 27.5026 15.2485C28.0499 15.2024 28.6027 15.2116 29.1481 15.1526C30.0356 15.0585 30.9194 14.9293 31.7828 14.8187V6.73223H6.26392V42.4431H31.8254V42.445ZM28.3253 16.9828C28.4252 19.1524 28.3253 21.3682 28.6692 23.5139C29.3885 28.023 31.879 31.4103 35.8505 33.6944C35.9762 33.7663 36.2129 33.7682 36.3368 33.6962C40.2361 31.4509 42.7377 28.1392 43.4773 23.7095C43.8305 21.5988 43.6881 19.4089 43.7805 17.254C43.7953 16.9237 43.6197 16.8776 43.3534 16.8647C40.9924 16.754 38.7126 16.2485 36.4939 15.4441C36.2572 15.3574 35.9448 15.3777 35.6933 15.4441C34.425 15.7762 33.1788 16.2005 31.8993 16.4773C30.7826 16.719 29.6344 16.8038 28.3253 16.9828ZM31.8032 44.2161H6.24913C6.24913 44.8803 6.19551 45.515 6.25837 46.1367C6.45066 47.9983 7.82072 49.2676 9.70663 49.275C15.919 49.2953 22.1314 49.2953 28.3438 49.275C30.202 49.2694 31.6386 47.9632 31.7939 46.1921C31.8494 45.5519 31.8032 44.9024 31.8032 44.218V44.2161ZM31.8069 4.97215C31.8069 4.8799 31.8124 4.81532 31.8069 4.75075C31.6516 2.9058 30.178 1.60326 28.2089 1.60142C22.0981 1.59404 15.9856 1.59773 9.87488 1.60142C9.5772 1.60142 9.27398 1.62909 8.98185 1.6826C7.41026 1.96856 6.18812 3.45928 6.28611 4.9703H31.8087L31.8069 4.97215Z" fill="white"/>
<path d="M12.1122 20.9161C8.72311 18.2889 9.1613 14.0012 11.4373 11.8113C13.8631 9.47739 17.6886 9.55857 19.9905 12.0197C22.2647 14.4514 22.211 18.5453 19.0808 20.9475C19.2639 21.0582 19.4266 21.1541 19.5837 21.2556C21.3032 22.3699 22.3238 23.9418 22.3996 25.9879C22.4847 28.3291 22.4329 30.6759 22.4292 33.019C22.4292 33.6223 22.1094 33.9396 21.4918 33.9396C17.5758 33.9488 13.6597 33.9488 9.74371 33.9396C9.10583 33.9396 8.80261 33.6241 8.80076 32.971C8.79337 30.7276 8.76378 28.4822 8.81555 26.2388C8.86732 23.9879 9.91936 22.2851 11.8607 21.132C11.931 21.0895 11.9994 21.0416 12.0678 20.9936C12.0789 20.9862 12.0845 20.9659 12.114 20.9124L12.1122 20.9161ZM20.7134 32.2201C20.7134 30.1335 20.767 28.104 20.6968 26.0801C20.6339 24.2407 19.4192 22.7205 17.6442 22.2629C16.8233 22.0507 15.9321 22.0544 15.0723 22.0489C12.347 22.0341 10.5221 23.8514 10.5036 26.5635C10.4925 28.3088 10.4999 30.0541 10.5036 31.7995C10.5036 31.9415 10.5258 32.0817 10.5369 32.2183H20.7134V32.2201ZM15.6159 11.8297C13.2807 11.8297 11.3393 13.7614 11.3449 16.0731C11.3504 18.3867 13.2955 20.3294 15.6122 20.3331C17.9289 20.3386 19.8685 18.3996 19.874 16.0768C19.8795 13.7521 17.9493 11.8279 15.6141 11.8297H15.6159Z" fill="white"/>
<path d="M9.66406 39.0928H22.405V40.7329H9.66406V39.0928Z" fill="white"/>
<path d="M9.66211 37.3198V35.687H19.001V37.3198H9.66211Z" fill="white"/>
<path d="M31.2392 24.3551C31.6663 23.9455 32.0471 23.5802 32.4576 23.1836C33.358 24.0931 34.2769 25.0193 35.2125 25.9621C37.03 24.1411 38.7902 22.3792 40.5374 20.6265C40.9386 21.0526 41.3103 21.4475 41.7096 21.8737C41.693 21.8921 41.6024 22.001 41.5026 22.1006C39.7017 23.8976 37.9027 25.6945 36.1 27.4897C35.4362 28.1502 35.0479 28.1483 34.3768 27.4823C33.3395 26.451 32.306 25.4196 31.2373 24.3551H31.2392Z" fill="white"/>
</g>
<defs>
<filter id="filter0_d_2159_56736" x="0.5" y="0" width="49" height="59" filterUnits="userSpaceOnUse" color-interpolation-filters="sRGB">
<feFlood flood-opacity="0" result="BackgroundImageFix"/>
<feColorMatrix in="SourceAlpha" type="matrix" values="0 0 0 0 0 0 0 0 0 0 0 0 0 0 0 0 0 0 127 0" result="hardAlpha"/>
<feOffset dy="4"/>
<feGaussianBlur stdDeviation="2"/>
<feComposite in2="hardAlpha" operator="out"/>
<feColorMatrix type="matrix" values="0 0 0 0 0 0 0 0 0 0 0 0 0 0 0 0 0 0 0.25 0"/>
<feBlend mode="normal" in2="BackgroundImageFix" result="effect1_dropShadow_2159_56736"/>
<feBlend mode="normal" in="SourceGraphic" in2="effect1_dropShadow_2159_56736" result="shape"/>
</filter>
<clipPath id="clip0_2159_56736">
<rect width="41" height="51" fill="white" transform="translate(4.5)"/>
</clipPath>
</defs>
</svg>
