<svg width="56" height="57" viewBox="0 0 56 57" fill="none" xmlns="http://www.w3.org/2000/svg">
<g clip-path="url(#clip0_2724_67292)">
<path d="M39.2572 54.6225C39.2323 54.7407 39.2152 54.7781 39.2183 54.8154C39.3319 56.304 38.8666 56.5062 37.5019 56.5015C31.1232 56.4751 24.7445 56.4906 18.3658 56.4906C16.9964 56.4906 16.8376 56.3351 16.8034 54.96C16.8018 54.8667 16.7909 54.7749 16.7801 54.6241C16.5451 54.6241 16.3366 54.6241 16.1296 54.6241C12.7465 54.6241 9.36184 54.6241 5.97874 54.6241C4.94701 54.6241 4.66846 54.3441 4.66846 53.3097C4.66846 47.3414 4.66846 41.3746 4.66846 35.4062C4.66846 34.3703 4.94545 34.0919 5.97874 34.0919C9.55636 34.0919 13.134 34.0919 16.8065 34.0919C16.8065 33.871 16.8065 33.6672 16.8065 33.4635C16.8065 29.7505 16.8065 26.0376 16.8065 22.3247C16.8065 21.3012 17.0882 21.0259 18.1308 21.0244C18.9073 21.0244 19.6823 21.0244 20.5413 21.0244C20.5413 20.2466 20.5413 19.4969 20.5413 18.7472C20.5413 17.5168 20.7405 17.3192 22.001 17.2912C22.0897 17.2897 22.1768 17.2772 22.306 17.2679C17.3014 13.1817 17.8585 6.46673 21.6602 2.98403C25.4479 -0.486219 31.2897 -0.298007 34.7895 3.41334C38.3438 7.18069 38.3562 13.443 33.6364 17.2928C33.9787 17.2928 34.2153 17.285 34.4534 17.2928C35.1085 17.3161 35.4633 17.6552 35.4742 18.3085C35.4898 19.1827 35.4773 20.0569 35.4773 21.0244C36.2632 21.0244 37.0304 21.0244 37.7991 21.0244C38.96 21.0244 39.2121 21.2717 39.2121 22.4118C39.2121 26.0656 39.2121 29.721 39.2121 33.3748V34.0903H39.8595C43.2628 34.0903 46.6661 34.0903 50.0694 34.0903C51.0592 34.0903 51.3502 34.3812 51.3502 35.3767C51.3502 41.3637 51.3502 47.3507 51.3502 53.3377C51.3502 54.3301 51.0576 54.621 50.0663 54.621C46.6832 54.621 43.2986 54.621 39.9155 54.621C39.7039 54.621 39.4938 54.621 39.2572 54.621V54.6225ZM37.3027 54.5961V22.9189H18.7035V54.5836H24.2263V50.866H22.4476V49.0524H33.5741V50.9127H31.7721V54.5976H37.3027V54.5961ZM6.5732 35.9833V52.7093H16.7723V35.9833H6.5732ZM39.2339 52.7279H49.4485V35.9958H39.2339V52.7279ZM28.0327 2.35873C23.9244 2.3494 20.5522 5.6921 20.5382 9.78454C20.5242 13.8925 23.8606 17.271 27.9533 17.2897C32.0896 17.3099 35.4711 13.9594 35.4758 9.83276C35.482 5.73099 32.1316 2.36651 28.0311 2.35718L28.0327 2.35873ZM33.5773 20.9979V19.1936H22.4476V20.9979H33.5773ZM29.8534 50.9345H26.1699V54.5867H29.8534V50.9345Z" fill="white"/>
<path d="M38.8309 10.287C39.0954 9.70836 39.3351 9.18572 39.5732 8.66309C48.3842 12.3091 56.0529 22.261 55.9985 34.0437H54.1653C54.1 28.9822 52.7476 24.2676 49.9948 19.9838C47.2357 15.6907 43.5181 12.4833 38.8293 10.287H38.8309Z" fill="white"/>
<path d="M16.4144 8.58997C16.6898 9.1966 16.9279 9.71924 17.1582 10.2294C7.426 15.2225 2.3249 23.1476 1.78336 34.0903H0C0.0186739 29.5437 1.04107 25.2755 3.12788 21.2686C6.10015 15.56 10.5274 11.3618 16.4144 8.58997Z" fill="white"/>
<path d="M34.5297 25.739V27.5138H21.5125V25.739H34.5297Z" fill="white"/>
<path d="M21.4983 32.1833V30.3883H34.4953V32.1833H21.4983Z" fill="white"/>
<path d="M34.5156 35.0641V36.8607H21.5186V35.0641H34.5156Z" fill="white"/>
<path d="M21.5 41.5177V39.7196H34.4971V41.5177H21.5Z" fill="white"/>
<path d="M34.5188 44.3984V46.1919H21.5015V44.3984H34.5188Z" fill="white"/>
<path d="M9.37744 38.7816H13.9712V40.5766H9.37744V38.7816Z" fill="white"/>
<path d="M13.976 43.4636V45.2586H9.38062V43.4636H13.976Z" fill="white"/>
<path d="M13.9789 48.1378V49.9188H9.36646V48.1378H13.9789Z" fill="white"/>
<path d="M46.6552 38.7972V40.5923H42.0598V38.7972H46.6552Z" fill="white"/>
<path d="M46.6693 43.4604V45.2399H42.0583V43.4604H46.6693Z" fill="white"/>
<path d="M42.0256 49.922V48.1332H46.6412V49.922H42.0256Z" fill="white"/>
<path d="M25.216 11.7181H27.0181C27.0679 11.8363 27.1161 11.9794 27.1877 12.1085C27.4258 12.5347 27.793 12.7151 28.2645 12.5783C28.7018 12.4492 28.9493 12.1256 28.9321 11.6636C28.9135 11.1768 28.6256 10.8766 28.1541 10.777C27.8895 10.721 27.6094 10.7319 27.3495 10.665C26.2057 10.3679 25.4946 9.62132 25.2658 8.47338C25.0495 7.38766 25.3903 6.41861 26.2944 5.80575C26.8858 5.406 27.2499 5.02957 27.0461 4.26428H28.8932C28.9104 4.3265 28.943 4.3825 28.9368 4.43227C28.8497 5.02335 29.0442 5.392 29.6044 5.71242C30.4074 6.17129 30.7544 6.97858 30.8135 7.93519H28.9991C28.9477 7.81697 28.901 7.67387 28.8294 7.54477C28.5913 7.11857 28.2225 6.93813 27.7526 7.07502C27.3153 7.20412 27.0679 7.52766 27.085 7.98963C27.1037 8.47805 27.3915 8.7767 27.8631 8.87625C28.1463 8.93691 28.4466 8.92602 28.7236 9.00224C29.8378 9.31333 30.5272 10.0553 30.7497 11.1799C30.9645 12.2656 30.6237 13.2331 29.7227 13.8491C29.1344 14.2504 28.7641 14.6237 28.971 15.3906H27.1426C27.1192 15.3454 27.0834 15.3112 27.0881 15.2817C27.1768 14.6502 26.9698 14.252 26.3676 13.9066C25.5926 13.4602 25.244 12.6638 25.2145 11.7228L25.216 11.7181Z" fill="white"/>
</g>
<defs>
<clipPath id="clip0_2724_67292">
<rect width="56" height="56" fill="white" transform="translate(0 0.5)"/>
</clipPath>
</defs>
</svg>
