<svg width="24" height="28" viewBox="0 0 24 28" fill="none" xmlns="http://www.w3.org/2000/svg">
<g clip-path="url(#clip0_2724_47723)">
<path d="M23.3302 23.68C23.7402 22.71 23.9302 21.64 23.9302 20.3V17.23C23.9302 14.82 23.9302 12.41 23.9302 9.99998C23.9302 9.41998 23.8902 8.82998 23.8202 8.24998C23.4702 5.42998 21.6602 3.49998 18.8502 2.95998C18.6402 2.91998 18.4202 2.88998 18.2002 2.84998L17.6902 2.76998V2.35998C17.6902 2.16998 17.6902 1.98998 17.6902 1.80998C17.6902 1.64998 17.6902 1.50998 17.6502 1.40998C17.5402 1.07998 17.2202 0.889983 16.8502 0.929983C16.5102 0.969983 16.2502 1.26998 16.2302 1.64998C16.2202 1.85998 16.2302 2.05998 16.2302 2.27998V2.77998H7.73018V2.45998C7.73018 2.37998 7.73018 2.29998 7.73018 2.22998C7.73018 2.15998 7.73018 2.08998 7.73018 2.01998C7.73018 1.85998 7.73018 1.69998 7.71018 1.55998C7.64018 1.16998 7.35018 0.919983 6.97018 0.919983C6.95018 0.919983 6.93018 0.919983 6.91018 0.919983C6.54018 0.939983 6.26018 1.24998 6.24018 1.63998C6.24018 1.88998 6.22018 2.10998 6.24018 2.31998C6.24018 2.42998 6.24018 2.58998 6.14018 2.70998C6.06018 2.79998 5.94018 2.84998 5.77018 2.85998C5.55018 2.86998 5.31018 2.90998 4.99018 2.97998C2.83018 3.43998 1.39018 4.57998 0.590176 6.45998C0.210176 7.36998 0.0101758 8.38998 0.000175781 9.47998C-0.00982422 13.48 -0.00982422 17.13 0.000175781 20.65C0.000175781 21.13 0.0601758 21.65 0.170176 22.24C0.560176 24.31 1.59018 25.73 3.31018 26.58C4.31018 27.08 5.45018 27.33 6.70018 27.33C9.86018 27.33 13.5202 27.34 17.1102 27.33C17.7202 27.33 18.3402 27.27 18.9302 27.15C21.0502 26.72 22.5402 25.56 23.3302 23.68ZM2.93018 5.58998C3.80018 4.71998 4.91018 4.26998 6.06018 4.33998H6.25018V4.77998C6.25018 4.95998 6.25018 5.12998 6.25018 5.30998C6.25018 5.55998 6.34018 5.77998 6.50018 5.92998C6.63018 6.05998 6.80018 6.11998 6.98018 6.11998H6.99018C7.40018 6.11998 7.71018 5.77998 7.72018 5.30998C7.72018 5.12998 7.72018 4.93998 7.72018 4.74998V4.26998H16.2202V4.75998C16.2202 4.96998 16.2202 5.17998 16.2202 5.38998C16.2402 5.76998 16.5102 6.05998 16.8802 6.10998C17.2002 6.14998 17.5402 5.93998 17.6402 5.61998C17.6702 5.51998 17.6802 5.38998 17.6802 5.25998V5.17998C17.6802 5.02998 17.6802 4.87998 17.6802 4.72998V4.33998L17.8702 4.32998C19.0102 4.25998 20.1002 4.67998 20.9602 5.53998C21.9902 6.55998 22.5302 8.01998 22.4402 9.53998V9.72998H1.51018V9.53998C1.40018 8.03998 1.92018 6.59998 2.93018 5.57998V5.58998ZM17.2002 25.86H16.7602C15.1102 25.86 13.4302 25.87 11.7402 25.87C10.0502 25.87 8.39018 25.87 6.73018 25.85C6.02018 25.85 5.27018 25.73 4.58018 25.52C2.93018 25.02 1.92018 23.8 1.60018 21.91C1.52018 21.43 1.48018 20.93 1.48018 20.42C1.48018 18.22 1.48018 16.03 1.48018 13.83V11.24H22.4502V11.53C22.4702 11.6 22.4702 11.67 22.4702 11.74V14.01C22.4702 16.09 22.4702 18.25 22.4602 20.37C22.4602 21.12 22.3702 21.83 22.2102 22.47C21.7602 24.29 20.5402 25.39 18.5802 25.73C18.1002 25.81 17.6402 25.86 17.2102 25.86H17.2002Z" fill="#9B0077"/>
<path d="M12.7102 15.26C12.5202 15.07 12.2602 14.96 11.9702 14.96C11.3802 14.96 10.9302 15.41 10.9302 16C10.9302 16.28 11.0302 16.54 11.2302 16.74C11.4202 16.93 11.6902 17.04 11.9702 17.04C12.5602 17.04 13.0102 16.59 13.0102 16C13.0102 15.71 12.9102 15.45 12.7102 15.26Z" fill="#9B0077"/>
<path d="M16.3198 19.32C16.0598 19.32 15.8098 19.42 15.6098 19.61C15.3998 19.81 15.2898 20.08 15.2798 20.36C15.2798 20.63 15.3798 20.9 15.5798 21.1C15.7798 21.3 16.0398 21.42 16.3198 21.42C16.5898 21.42 16.8498 21.31 17.0498 21.12C17.2498 20.92 17.3598 20.66 17.3598 20.38C17.3598 19.81 16.8998 19.33 16.3198 19.32Z" fill="#9B0077"/>
<path d="M6.85006 16.73C7.05006 16.93 7.31006 17.04 7.60006 17.04C8.18006 17.04 8.64006 16.59 8.65006 16C8.65006 15.72 8.55006 15.46 8.36006 15.27C8.16006 15.07 7.90006 14.96 7.61006 14.96C7.01006 14.96 6.56006 15.4 6.56006 15.99C6.56006 16.27 6.66006 16.53 6.86006 16.72L6.85006 16.73Z" fill="#9B0077"/>
<path d="M16.33 17.04C16.61 17.04 16.87 16.93 17.06 16.74C17.26 16.55 17.37 16.28 17.37 16C17.37 15.72 17.27 15.46 17.07 15.26C16.88 15.06 16.61 14.96 16.33 14.96C15.74 14.96 15.28 15.41 15.27 15.99C15.27 16.56 15.73 17.03 16.31 17.04H16.33Z" fill="#9B0077"/>
<path d="M7.62996 19.34C7.62996 19.34 7.60996 19.34 7.59996 19.34C7.00996 19.34 6.56996 19.76 6.54996 20.34C6.53996 20.9 6.99996 21.4 7.56996 21.41C7.83996 21.43 8.10996 21.31 8.31996 21.11C8.52996 20.91 8.63996 20.64 8.64996 20.36C8.64996 19.79 8.20996 19.34 7.62996 19.33V19.34Z" fill="#9B0077"/>
<path d="M11.9999 19.34C11.9999 19.34 11.9799 19.34 11.9699 19.34C11.6899 19.34 11.4299 19.44 11.2399 19.61C11.0499 19.79 10.9399 20.05 10.9299 20.34C10.9199 20.93 11.3599 21.4 11.9399 21.42C12.2199 21.45 12.4899 21.33 12.6899 21.13C12.8899 20.94 12.9999 20.68 13.0099 20.4C13.0199 19.79 12.6099 19.35 11.9999 19.34Z" fill="#9B0077"/>
</g>
<defs>
<clipPath id="clip0_2724_47723">
<rect width="23.93" height="26.42" fill="white" transform="translate(0 0.919983)"/>
</clipPath>
</defs>
</svg>
