<svg width="15" height="16" viewBox="0 0 15 16" fill="none" xmlns="http://www.w3.org/2000/svg">
<path d="M14.0068 2.22162C14.0068 1.9122 13.8839 1.61545 13.6651 1.39666C13.4463 1.17787 13.1495 1.05495 12.8401 1.05495L3.50676 0.99662C3.19735 0.99662 2.9006 1.11954 2.68181 1.33833C2.46301 1.55712 2.3401 1.85387 2.3401 2.16329C2.3401 2.47271 2.46301 2.76945 2.68181 2.98824C2.9006 3.20704 3.19735 3.32995 3.50676 3.32995H9.99343L0.345098 13.0016C0.235748 13.1101 0.148955 13.2391 0.089725 13.3813C0.0304949 13.5235 0 13.6759 0 13.83C0 13.984 0.0304949 14.1365 0.089725 14.2786C0.148955 14.4208 0.235748 14.5498 0.345098 14.6583C0.453555 14.7676 0.582589 14.8544 0.724759 14.9137C0.866928 14.9729 1.01942 15.0034 1.17343 15.0034C1.32745 15.0034 1.47994 14.9729 1.6221 14.9137C1.76427 14.8544 1.89331 14.7676 2.00177 14.6583L11.6734 4.98662V11.4966C11.6734 11.806 11.7963 12.1028 12.0151 12.3216C12.2339 12.5404 12.5307 12.6633 12.8401 12.6633C13.1495 12.6633 13.4463 12.5404 13.6651 12.3216C13.8839 12.1028 14.0068 11.806 14.0068 11.4966V2.22162Z" fill="#9B0077"/>
</svg>
