<svg width="87" height="53" viewBox="0 0 87 53" fill="none" xmlns="http://www.w3.org/2000/svg">
<path d="M0.645162 36.4829C0.674194 36.7542 0.68536 37.0299 0.734492 37.2969C2.38487 46.329 9.79257 52.4094 19.1678 52.4138C36.2098 52.4182 53.254 52.4138 70.2959 52.4138C71.2719 52.4138 72.2433 52.3547 73.2126 52.2147C79.8275 51.2607 85.5334 45.3881 86.085 38.951C86.0203 38.5987 86.0002 38.2508 86.2235 37.938V36.6251C86.0002 36.2969 85.9175 35.9687 86.2235 35.6405V35.3123C86.1744 35.2555 86.0917 35.2051 86.0806 35.1439C85.0131 28.7155 81.3036 24.4926 75.0126 22.4469C74.5034 22.2806 74.4676 22.0727 74.5525 21.6373C75.0371 19.1911 75.0394 16.734 74.3873 14.325C72.3617 6.85074 67.4664 2.11808 59.717 0.809649C52.0368 -0.48784 45.8396 2.32594 41.3596 8.61646C41.0939 8.98842 40.9197 9.09782 40.4395 8.93153C33.1837 6.43721 25.68 9.48948 22.4194 16.2635C22.1871 16.7449 21.9348 16.8106 21.4658 16.7405C12.4099 15.3708 3.60422 20.9984 1.17668 29.7067C0.917619 30.6366 0.723326 31.5862 0.5 32.5248V33.5094C0.770224 34.0564 0.754591 34.6034 0.5 35.1504V35.6427C0.765757 35.8856 0.694293 36.1875 0.645162 36.4829ZM16.1395 20.0444C18.2879 19.7009 20.4139 19.7709 22.5288 20.2589C23.842 20.563 24.5164 20.1845 24.9385 18.9242C27.1159 12.4258 34.3584 9.4676 40.5646 12.5439C41.9515 13.231 42.675 13.0012 43.4053 11.6403C46.3309 6.19215 52.4477 3.03485 58.4865 3.85754C64.9785 4.7415 70.0145 9.34288 71.2674 15.5875C71.7319 17.9002 71.6046 20.2085 70.9302 22.4797C70.3853 24.311 70.8096 24.9674 72.7525 25.2869C78.3915 26.2146 82.7419 31.1332 82.8669 36.7192C83.0188 43.6093 77.6031 49.0968 70.5617 49.123C62.5532 49.1537 54.547 49.1296 46.5386 49.1296C45.8686 49.1296 45.1986 49.1296 44.5286 49.1296C35.9909 49.1296 27.4532 49.1406 18.9154 49.1252C11.5926 49.1121 5.68562 44.4298 4.10447 37.4216C2.3201 29.5032 7.97471 21.3419 16.135 20.04L16.1395 20.0444Z" fill="#9B0077"/>
</svg>
