<svg width="32" height="32" viewBox="0 0 32 32" fill="none" xmlns="http://www.w3.org/2000/svg">
<path d="M15.2516 16.3675C19.7713 16.3675 23.4353 12.7035 23.4353 8.18376C23.4353 3.664 19.7713 0 15.2516 0C10.7318 0 7.0678 3.664 7.0678 8.18376C7.0678 12.7035 10.7318 16.3675 15.2516 16.3675Z" fill="white"/>
<path fill-rule="evenodd" clip-rule="evenodd" d="M17.3719 30.521C15.8259 28.8604 14.8796 26.6344 14.8796 24.1882C14.8796 21.684 15.872 19.4089 17.485 17.7364C16.7559 17.6799 16.0104 17.6501 15.2516 17.6501C10.3086 17.6501 5.93248 18.8866 3.21547 20.7391C1.14275 22.1527 0 23.9487 0 25.8339V27.9914C0 28.6625 0.266344 29.3068 0.741003 29.78C1.21566 30.2546 1.85846 30.521 2.52953 30.521H17.3719Z" fill="white"/>
<path fill-rule="evenodd" clip-rule="evenodd" d="M24.1793 16.3765C19.8672 16.3765 16.3675 19.8761 16.3675 24.1882C16.3675 28.5003 19.8672 32 24.1793 32C28.4914 32 31.9911 28.5003 31.9911 24.1882C31.9911 19.8761 28.4914 16.3765 24.1793 16.3765ZM23.0633 24.1882V27.9081C23.0633 28.5241 23.5633 29.0241 24.1793 29.0241C24.7953 29.0241 25.2953 28.5241 25.2953 27.9081V24.1882C25.2953 23.5722 24.7953 23.0723 24.1793 23.0723C23.5633 23.0723 23.0633 23.5722 23.0633 24.1882ZM24.1793 19.3524C25.0007 19.3524 25.6673 20.019 25.6673 20.8403C25.6673 21.6617 25.0007 22.3283 24.1793 22.3283C23.3579 22.3283 22.6913 21.6617 22.6913 20.8403C22.6913 20.019 23.3579 19.3524 24.1793 19.3524Z" fill="white"/>
</svg>
