<svg width="30" height="30" viewBox="0 0 30 30" fill="none" xmlns="http://www.w3.org/2000/svg">
<g clip-path="url(#clip0_2724_47709)">
<path d="M0 18.33C0.44 17.39 0.88 16.45 1.32 15.51C2.5 12.96 3.67 10.4 4.84 7.83999C4.88 7.75999 4.91 7.67999 4.96 7.55999C4.57 7.35999 4.19 7.16999 3.78 6.95999C3.93 6.65999 4.07 6.37999 4.22 6.06999C4.62 6.26999 4.99 6.44999 5.36 6.62999C5.91 5.80999 6.15 5.79999 6.6 6.57999C6.64 6.57999 6.69 6.57999 6.73 6.55999C7.7 6.11999 8.73 5.99999 9.78 6.00999C10.89 6.00999 12 6.00999 13.11 6.00999C13.22 6.00999 13.32 6.00999 13.45 6.00999V5.01999H12.5V4.02999H13.34C13.22 3.55999 13.11 3.12999 13.01 2.69999C12.67 1.32999 13.54 0.0899877 14.87 0.0299877C16.2 -0.0300122 17.34 1.16999 16.95 2.68999C16.84 3.10999 16.74 3.53999 16.62 3.99999H17.46V4.99999H16.5V6.00999C16.62 6.00999 16.73 6.00999 16.84 6.00999C18.23 6.00999 19.63 6.01999 21.02 6.03999C21.73 6.03999 22.41 6.21999 23.06 6.48999C23.15 6.52999 23.24 6.55999 23.36 6.59999C23.51 6.33999 23.6 6.00999 23.98 6.01999C24.36 6.01999 24.43 6.36999 24.59 6.63999C24.97 6.44999 25.34 6.26999 25.74 6.06999C25.89 6.36999 26.03 6.64999 26.18 6.95999C25.78 7.15999 25.4 7.34999 25 7.55999C25.05 7.66999 25.09 7.76999 25.13 7.86999C26.65 11.2 28.17 14.53 29.71 17.84C29.95 18.35 29.97 18.84 29.84 19.36C29.47 20.82 28.18 21.92 26.68 21.96C24.87 22 23.05 22.01 21.24 21.96C19.47 21.91 18.04 20.41 17.98 18.64C17.98 18.46 18.04 18.25 18.12 18.08C19.67 14.68 21.23 11.28 22.79 7.88999C22.84 7.77999 22.89 7.65999 22.98 7.45999C22.41 7.31999 21.87 7.08999 21.33 7.06999C19.73 7.01999 18.14 7.04999 16.51 7.04999C16.51 7.12999 16.49 7.22999 16.49 7.33999C16.49 13.23 16.49 19.11 16.49 25C16.49 25.2 16.55 25.34 16.7 25.48C17.15 25.91 17.58 26.37 18.03 26.79C18.14 26.89 18.31 26.96 18.46 26.96C18.98 26.98 19.49 26.96 20.01 26.97C21.32 27.01 22.28 27.89 22.47 29.19C22.52 29.53 22.45 29.78 22.14 29.96H7.84C7.53 29.79 7.46 29.53 7.51 29.19C7.7 27.89 8.65 27.01 9.96 26.97C10.48 26.95 10.99 26.97 11.51 26.96C11.66 26.96 11.83 26.89 11.94 26.79C12.4 26.36 12.85 25.91 13.28 25.45C13.39 25.34 13.46 25.15 13.46 25C13.46 19.11 13.46 13.23 13.46 7.33999C13.46 7.23999 13.45 7.12999 13.44 7.04999C13.39 7.02999 13.37 7.01999 13.35 7.01999C11.79 7.01999 10.23 7.01999 8.67 7.05999C8.09 7.07999 7.52 7.25999 6.99 7.52999C7.05 7.65999 7.1 7.76999 7.15 7.88999C8.7 11.29 10.26 14.68 11.81 18.08C11.88 18.24 11.95 18.43 11.95 18.61C11.94 20.33 10.47 21.91 8.75 21.96C6.92 22.01 5.09 22 3.25 21.96C2.07 21.93 1.14 21.35 0.53 20.34C0.29 19.91 0.18 19.39 0 18.91C0 18.72 0 18.52 0 18.33ZM10.68 17.97C10.64 17.86 10.6 17.77 10.57 17.69C9.13 14.55 7.69 11.41 6.25 8.26999C6.2 8.15999 6.09 8.08999 6 7.99999C5.91 8.08999 5.79 8.16999 5.73 8.28999C4.29 11.41 2.86 14.53 1.43 17.65C1.38 17.75 1.34 17.86 1.29 17.98H10.68V17.97ZM24.1 8.00999C23.85 7.91999 23.78 8.07999 23.71 8.24999C22.27 11.4 20.82 14.55 19.38 17.7C19.34 17.78 19.31 17.87 19.27 17.97H28.67C27.14 14.63 25.62 11.32 24.11 8.00999H24.1ZM15.45 24.96V7.02999H14.5V24.97H15.45V24.96ZM1.08 19C1.27 20.05 2.21 20.93 3.25 20.95C5.03 20.98 6.82 20.97 8.6 20.96C8.83 20.96 9.06 20.91 9.29 20.84C10.12 20.58 10.83 19.76 10.9 19H1.08ZM19.06 19C19.15 19.96 20.17 20.93 21.21 20.95C23 20.98 24.8 20.98 26.59 20.95C26.94 20.95 27.3 20.82 27.62 20.67C28.31 20.33 28.72 19.76 28.89 18.99H19.07L19.06 19ZM21.33 28.96C21.33 28.96 21.33 28.89 21.33 28.86C21.3 28.8 21.27 28.74 21.24 28.68C20.94 28.22 20.52 27.97 19.97 27.97C16.64 27.97 13.31 27.97 9.97 27.97C9.92 27.97 9.87 27.97 9.82 27.97C9.29 28 8.64 28.5 8.62 28.95H21.33V28.96ZM14.98 4.00999C15.08 4.00999 15.18 3.99999 15.27 4.00999C15.52 4.04999 15.63 3.93999 15.67 3.68999C15.76 3.23999 15.89 2.79999 15.99 2.35999C16.1 1.88999 15.95 1.47999 15.59 1.22999C15.21 0.969988 14.74 0.969988 14.36 1.22999C14 1.47999 13.85 1.88999 13.96 2.35999C14.04 2.70999 14.13 3.05999 14.22 3.40999C14.32 3.80332 14.5733 3.99999 14.98 3.99999V4.00999ZM16.68 26.97C16.68 26.97 16.71 26.93 16.72 26.91C16.43 26.63 16.14 26.34 15.84 26.06C15.78 26.01 15.68 25.99 15.6 25.99C15.18 25.99 14.76 25.99 14.34 25.99C14.27 25.99 14.19 25.99 14.15 26.03C13.84 26.33 13.54 26.63 13.19 26.98H16.67L16.68 26.97ZM14.5 5.99999H15.46V5.02999H14.5V5.99999Z" fill="#9B0077"/>
</g>
<defs>
<clipPath id="clip0_2724_47709">
<rect width="29.92" height="29.94" fill="white" transform="translate(0 0.0299988)"/>
</clipPath>
</defs>
</svg>
