<svg width="52" height="51" viewBox="0 0 52 51" fill="none" xmlns="http://www.w3.org/2000/svg">
<g clip-path="url(#clip0_2724_66821)">
<path d="M29.4 49.3169C27.54 49.3169 25.66 49.3169 23.79 49.3169C16.34 49.3169 8.89001 49.3369 1.44001 49.3469C0.380005 49.3469 -0.00999468 48.9469 0.0100053 47.8869C0.130005 41.7769 2.28 36.5569 6.91001 32.4869C14.14 26.1269 25.34 26.2169 32.52 32.6269C33.08 33.1269 33.53 33.0569 33.86 32.3869C34.9 30.2769 35.95 28.1669 36.98 26.0469C37.23 25.5269 37.56 25.1369 38.18 25.1469C38.77 25.1569 39.09 25.5469 39.33 26.0469C40.36 28.1669 41.42 30.2669 42.45 32.3869C42.61 32.7269 42.81 32.8869 43.2 32.9369C45.59 33.2669 47.97 33.6269 50.35 33.9669C50.86 34.0369 51.23 34.2669 51.4 34.7569C51.57 35.2669 51.41 35.6969 51.03 36.0669C49.3 37.7469 47.58 39.4369 45.84 41.1069C45.56 41.3769 45.49 41.6169 45.56 41.9969C45.98 44.3369 46.38 46.6769 46.78 49.0069C46.87 49.5269 46.83 50.0169 46.36 50.3569C45.88 50.7069 45.4 50.6269 44.9 50.3569C42.79 49.2369 40.67 48.1269 38.56 47.0069C38.25 46.8469 38.02 46.8469 37.72 47.0069C35.69 48.0869 33.65 49.1569 31.61 50.2269C30.35 50.8869 29.78 50.6569 29.39 49.2969L29.4 49.3169ZM2.38001 47.0469C2.61001 47.0469 2.81001 47.0469 3.00001 47.0469C7.47001 47.0369 11.94 47.0169 16.4 47.0069C20.72 46.9969 25.05 46.9869 29.37 46.9869C29.68 46.9869 29.89 46.9769 29.95 46.5669C30.18 45.0169 30.44 43.4669 30.72 41.9169C30.78 41.5869 30.7 41.3969 30.48 41.1769C28.73 39.4869 27 37.7869 25.26 36.0969C24.89 35.7369 24.69 35.3169 24.88 34.7969C25.06 34.2869 25.45 34.0669 25.97 33.9869C27.2 33.8169 28.43 33.6269 29.69 33.4369C25.83 30.3069 19.02 28.8569 12.9 31.4469C5.77001 34.4569 2.50001 41.3469 2.37001 47.0569L2.38001 47.0469ZM47.52 35.9069C45.76 35.6469 43.84 35.3569 41.91 35.0869C41.33 35.0069 40.98 34.7269 40.73 34.2069C40.14 32.9669 39.52 31.7369 38.91 30.5069C38.66 30.0069 38.41 29.5069 38.12 28.9269C38 29.1569 37.91 29.3069 37.83 29.4569C37.12 30.8969 36.36 32.3169 35.72 33.7869C35.33 34.6769 34.75 35.0669 33.78 35.1769C32.03 35.3569 30.29 35.6669 28.47 35.9269C28.64 36.1069 28.75 36.2369 28.87 36.3569C30.14 37.5869 31.4 38.8369 32.68 40.0569C33.1 40.4569 33.25 40.8969 33.14 41.4569C32.98 42.3569 32.83 43.2469 32.67 44.1469C32.5 45.1669 32.32 46.1769 32.13 47.2869C32.37 47.1669 32.53 47.0969 32.68 47.0169C34.23 46.2069 35.78 45.3969 37.32 44.5769C37.86 44.2869 38.35 44.2769 38.89 44.5769C39.86 45.1169 40.85 45.6069 41.83 46.1269C42.56 46.5069 43.29 46.8969 44.1 47.3169C43.77 45.4269 43.49 43.6269 43.14 41.8469C42.98 41.0269 43.16 40.4369 43.77 39.8469C45.07 38.5669 46.28 37.2069 47.5 35.9169L47.52 35.9069Z" fill="#9B0077"/>
<path d="M19.61 25.0169C12.86 25.0169 7.36003 19.5369 7.35003 12.7969C7.33003 6.02693 12.85 0.536926 19.63 0.536926C26.38 0.536926 31.87 6.04693 31.86 12.7869C31.86 19.5369 26.37 25.0169 19.61 25.0169ZM19.62 2.85693C14.17 2.84693 9.70003 7.26693 9.68003 12.6969C9.65003 18.2169 14.07 22.6869 19.56 22.7169C25.02 22.7469 29.5 18.2969 29.53 12.8369C29.55 7.31693 25.14 2.86693 19.62 2.85693Z" fill="#9B0077"/>
</g>
<defs>
<clipPath id="clip0_2724_66821">
<rect width="51.46" height="50.07" fill="white" transform="translate(0 0.536926)"/>
</clipPath>
</defs>
</svg>
