<svg width="70" height="69" viewBox="0 0 70 69" fill="none" xmlns="http://www.w3.org/2000/svg">
<g clip-path="url(#clip0_2724_66143)">
<path d="M28.2629 0C29.8911 0.30357 31.547 0.489851 33.1338 0.931407C37.6115 2.18708 41.2888 4.70533 44.2141 8.30677C46.4288 11.032 47.9328 14.1298 48.6227 17.5725C48.9125 19.0421 49.0367 20.5461 49.1264 22.0433C49.2092 23.4094 49.1609 24.7823 49.1471 26.1553C49.1333 27.4386 48.3123 28.2803 47.0428 28.2872C44.4142 28.301 41.7855 28.301 39.1569 28.2872C37.8529 28.2803 37.0457 27.4386 37.0181 26.1139C36.9767 24.3201 37.0802 22.5056 36.8663 20.7324C36.2178 15.3579 30.9398 11.4184 25.5998 12.2187C20.2597 13.019 16.6858 17.1379 16.672 22.5193C16.672 25.5964 16.672 28.6735 16.672 31.7506C16.672 31.9714 16.672 32.1853 16.672 32.4682C17.0032 32.4682 17.2654 32.4682 17.5276 32.4682C27.2763 32.4682 37.025 32.4682 46.7668 32.4682C49.3679 32.4682 51.4032 33.5307 52.5347 35.9178C52.9348 36.7595 53.1556 37.7668 53.1625 38.7051C53.2108 46.7221 53.2039 54.7391 53.1832 62.7561C53.1694 66.3507 50.5615 68.9724 46.9669 68.9793C33.5616 69 20.1493 68.9931 6.74393 68.9793C3.54265 68.9793 1.18309 66.9647 0.603548 63.8462C0.58975 63.7634 0.541455 63.6806 0.506958 63.5978C0.506958 54.9737 0.506958 46.3496 0.506958 37.7254C0.58285 37.4702 0.665642 37.2149 0.734635 36.9596C1.23139 35.1658 2.32148 33.8549 3.99801 33.0753C4.43956 32.8683 4.55685 32.6337 4.55685 32.1715C4.53616 29.0737 4.56375 25.9759 4.54305 22.8712C4.50166 17.4967 6.03331 12.6464 9.40707 8.43786C12.36 4.75362 16.1201 2.19398 20.6874 0.924508C22.2812 0.482952 23.937 0.30357 25.5653 0C26.4622 0 27.3591 0 28.2629 0ZM26.8485 36.5181C20.2459 36.5181 13.6432 36.5181 7.0406 36.5181C5.28128 36.5181 4.54995 37.2494 4.54995 39.0087C4.54995 46.8256 4.54995 54.6425 4.54995 62.4595C4.54995 64.2188 5.28128 64.9501 7.0406 64.9501C20.2459 64.9501 33.4512 64.9501 46.6564 64.9501C48.4158 64.9501 49.1471 64.2188 49.1471 62.4595C49.1471 54.6425 49.1471 46.8256 49.1471 39.0087C49.1471 37.2494 48.4158 36.5181 46.6564 36.5181C40.0538 36.5181 33.4512 36.5181 26.8485 36.5181ZM45.0489 24.2373C45.0765 24.1269 45.1041 24.0648 45.1041 24.0027C45.1041 23.1472 45.1179 22.2917 45.0765 21.4431C44.8212 16.6411 43.0481 12.4602 39.5226 9.18988C33.9272 3.9878 27.366 2.60794 20.2597 5.36076C13.4294 8.0101 9.45536 13.2191 8.74473 20.5392C8.37217 24.4374 8.62745 28.3907 8.59985 32.3164C8.59985 32.3509 8.64124 32.3923 8.66194 32.4268H12.6221C12.6221 29.1013 12.6221 25.8241 12.6221 22.5469C12.6221 18.6419 13.9468 15.2751 16.6444 12.4326C21.7844 7.0166 30.6431 6.62334 36.204 11.5977C39.4122 14.4679 41.0059 18.0693 41.0473 22.3676C41.0473 22.9885 41.0473 23.6025 41.0473 24.2373H45.0282H45.0489Z" fill="url(#paint0_linear_2724_66143)"/>
<path d="M69.4931 18.4349C69.4586 19.0835 69.155 19.7251 68.4582 20.077C65.7192 21.4706 62.9801 22.8505 60.2204 24.1959C59.2131 24.6857 58.0747 24.2373 57.5918 23.2645C57.1157 22.3123 57.4124 21.1533 58.3852 20.6496C61.1311 19.2284 63.8908 17.8347 66.6782 16.4962C67.9959 15.8684 69.4793 16.8826 69.4931 18.4349Z" fill="url(#paint1_linear_2724_66143)"/>
<path d="M69.4931 42.4998C69.4724 43.9969 68.0926 44.9628 66.7955 44.4661C66.1263 44.2108 65.4984 43.852 64.8568 43.5347C62.7732 42.4929 60.6827 41.458 58.606 40.4093C57.7298 39.9677 57.2952 39.195 57.3848 38.3464C57.4745 37.4978 58.061 36.7526 58.9303 36.6147C59.3857 36.5388 59.9376 36.594 60.3516 36.794C63.0147 38.0773 65.6571 39.4158 68.2996 40.7404C69.0654 41.1268 69.4724 41.7546 69.5 42.4998H69.4931Z" fill="url(#paint2_linear_2724_66143)"/>
<path d="M63.3665 32.475C62.1108 32.475 60.8482 32.4819 59.5926 32.475C58.2748 32.4681 57.371 31.6402 57.371 30.4604C57.371 29.2807 58.2748 28.4459 59.5856 28.439C62.1453 28.4321 64.7049 28.4321 67.2646 28.439C68.5754 28.439 69.4862 29.2807 69.4862 30.4535C69.4862 31.6333 68.5823 32.4681 67.2715 32.475C65.9675 32.4819 64.6635 32.475 63.3665 32.475Z" fill="url(#paint3_linear_2724_66143)"/>
<path d="M24.8891 55.8361C24.8891 54.8495 24.8753 53.8629 24.896 52.8694C24.9029 52.483 24.7856 52.2899 24.4199 52.1174C22.1708 51.048 20.922 49.2335 20.8737 46.7566C20.8254 44.3143 21.95 42.4514 24.1164 41.2648C26.8347 39.7883 30.4706 40.7749 32.0299 43.4035C33.7271 46.2668 33.0096 49.7992 30.3602 51.5861C30.1947 51.6965 30.0291 51.8552 29.8428 51.9035C28.9321 52.1105 28.8838 52.7314 28.9114 53.5179C28.9666 55.2221 28.9321 56.9331 28.9252 58.6372C28.9252 59.9964 28.0835 60.914 26.883 60.9071C25.7101 60.8933 24.896 59.9895 24.8822 58.6648C24.8753 57.7196 24.8822 56.7813 24.8822 55.8361H24.8891ZM28.9252 46.6462C28.939 45.5492 28.0283 44.6178 26.9313 44.6109C25.8343 44.5971 24.9029 45.5078 24.896 46.6048C24.8822 47.7018 25.7929 48.6332 26.8899 48.6401C27.9869 48.6539 28.9183 47.7432 28.9252 46.6462Z" fill="url(#paint4_linear_2724_66143)"/>
</g>
<defs>
<linearGradient id="paint0_linear_2724_66143" x1="12.1803" y1="-80.2237" x2="89.2705" y2="-56.3089" gradientUnits="userSpaceOnUse">
<stop stop-color="#3C3540"/>
<stop offset="0.345472" stop-color="#161E2E"/>
<stop offset="1" stop-color="#990076"/>
</linearGradient>
<linearGradient id="paint1_linear_2724_66143" x1="60.0549" y1="6.90282" x2="74.2408" y2="15.5403" gradientUnits="userSpaceOnUse">
<stop stop-color="#3C3540"/>
<stop offset="0.345472" stop-color="#161E2E"/>
<stop offset="1" stop-color="#990076"/>
</linearGradient>
<linearGradient id="paint2_linear_2724_66143" x1="60.0598" y1="27.2616" x2="74.1777" y2="35.9373" gradientUnits="userSpaceOnUse">
<stop stop-color="#3C3540"/>
<stop offset="0.345472" stop-color="#161E2E"/>
<stop offset="1" stop-color="#990076"/>
</linearGradient>
<linearGradient id="paint3_linear_2724_66143" x1="60.055" y1="23.7311" x2="67.8883" y2="33.2624" gradientUnits="userSpaceOnUse">
<stop stop-color="#3C3540"/>
<stop offset="0.345472" stop-color="#161E2E"/>
<stop offset="1" stop-color="#990076"/>
</linearGradient>
<linearGradient id="paint4_linear_2724_66143" x1="23.5472" y1="16.9374" x2="41.8476" y2="21.3522" gradientUnits="userSpaceOnUse">
<stop stop-color="#3C3540"/>
<stop offset="0.345472" stop-color="#161E2E"/>
<stop offset="1" stop-color="#990076"/>
</linearGradient>
<clipPath id="clip0_2724_66143">
<rect width="68.9931" height="69" fill="white" transform="translate(0.5)"/>
</clipPath>
</defs>
</svg>
