<svg width="24" height="27" viewBox="0 0 24 27" fill="none" xmlns="http://www.w3.org/2000/svg">
<path d="M17.2209 16.2192C18.1356 15.3147 19.0349 14.4176 19.9342 13.5279C20.8104 12.6605 22.3553 12.8903 22.8319 14.0098C23.1009 14.64 23.0701 15.3072 22.5705 15.8781C21.6636 16.9235 20.7566 17.9689 19.8496 19.0142C19.4961 19.4146 19.1425 19.8149 18.7966 20.2227C17.9819 21.1939 16.9212 21.6462 15.6453 21.6536C13.7391 21.661 11.8329 21.6758 9.92674 21.6462C9.23498 21.6313 8.78918 21.965 8.37412 22.4024C8.34338 22.4395 8.34338 22.521 8.35106 22.5803C8.4433 23.0696 8.32032 23.4922 7.94369 23.8481C7.25194 24.5005 6.56786 25.153 5.88379 25.8054C5.60709 26.0649 5.38419 26.0649 5.10748 25.8054C3.47032 24.2114 1.83316 22.6248 0.195998 21.0308C-0.0653328 20.7787 -0.0653328 20.5489 0.195998 20.2968C0.872384 19.637 1.55646 18.9771 2.24053 18.3173C2.54029 18.0282 2.90154 17.8873 3.33197 17.9021C3.40883 17.9021 3.51644 17.8502 3.55487 17.7835C4.73086 15.93 6.49869 15.1441 8.69694 15.159C9.37333 15.159 10.0267 15.2998 10.6646 15.5297C10.7722 15.5667 10.8952 15.5816 11.0182 15.5816C12.5093 15.5816 13.9927 15.5816 15.4839 15.5816C16.3524 15.5816 16.5753 15.6631 17.2209 16.2192ZM7.79766 21.7277C7.83609 21.6906 7.88989 21.6536 7.93601 21.6091C8.50479 21.0012 9.21192 20.7713 10.0574 20.7861C11.9098 20.8158 13.7622 20.7936 15.6145 20.7936C16.4984 20.7936 17.3132 20.5489 17.8896 19.9039C19.2501 18.3914 20.5644 16.8419 21.8942 15.2998C22.217 14.9217 22.1709 14.4027 21.8019 14.0914C21.4407 13.78 20.9026 13.8022 20.5491 14.1507C19.596 15.0922 18.6429 16.0412 17.6898 16.9902C17.636 17.0421 17.5899 17.1237 17.5976 17.1904C17.6667 18.1097 16.9366 19.0884 15.6453 19.0661C14.5308 19.0439 13.4163 19.0661 12.3018 19.0661C11.9021 19.0661 11.6869 18.9104 11.6869 18.6287C11.6869 18.347 11.8944 18.1987 12.3095 18.1987C13.424 18.1987 14.5385 18.1987 15.653 18.1987C15.7683 18.1987 15.8759 18.1987 15.9912 18.1764C16.4523 18.0949 16.7751 17.6426 16.6906 17.1978C16.6061 16.7307 16.2448 16.4712 15.6837 16.4638C14.085 16.4638 12.4862 16.4638 10.8875 16.4638C10.7415 16.4638 10.5877 16.449 10.4494 16.3971C9.18117 15.9078 7.91295 15.9152 6.64473 16.36C5.59172 16.7307 4.80772 17.4128 4.28506 18.347C5.46105 19.4887 6.62935 20.6156 7.80534 21.7425L7.79766 21.7277ZM1.07223 20.6527C2.58641 22.0836 4.06985 23.4922 5.61477 24.9528C6.18355 24.3819 6.77539 23.7888 7.36723 23.1883C7.5517 23.0029 7.54401 22.7583 7.35186 22.5655C6.09132 21.3422 4.83078 20.1263 3.56256 18.9104C3.35503 18.7102 3.10907 18.7177 2.89386 18.9252C2.44037 19.3553 1.99457 19.7927 1.54877 20.2227C1.40273 20.3636 1.24901 20.497 1.07223 20.6527Z" fill="#9B0077"/>
<path d="M18.43 5.435C18.43 6.045 18.43 6.595 18.43 7.155C18.43 7.845 18.1 8.175 17.41 8.185C17.14 8.185 16.86 8.185 16.59 8.185C16.1 8.165 15.75 7.825 15.74 7.325C15.73 6.785 15.73 6.255 15.74 5.715C15.74 5.495 15.67 5.435 15.46 5.435C14.95 5.445 14.45 5.435 13.94 5.435C13.34 5.435 13 5.085 13 4.485C13 4.215 13 3.935 13 3.665C13.01 3.095 13.36 2.745 13.94 2.745C14.5 2.745 15.07 2.745 15.63 2.745C15.65 2.745 15.67 2.735 15.73 2.715C15.73 2.395 15.73 2.055 15.73 1.715C15.73 1.455 15.73 1.185 15.73 0.925C15.73 0.405 16.05 0.045 16.56 0.015C16.9 -0.005 17.24 -0.005 17.58 0.015C18.09 0.045 18.41 0.405 18.42 0.925C18.42 1.515 18.42 2.105 18.42 2.745C18.78 2.745 19.12 2.745 19.45 2.745C19.71 2.745 19.98 2.745 20.24 2.745C20.78 2.765 21.12 3.085 21.15 3.615C21.17 3.935 21.17 4.255 21.15 4.575C21.12 5.085 20.77 5.425 20.26 5.425C19.66 5.425 19.06 5.425 18.42 5.425L18.43 5.435ZM17.61 7.345C17.61 6.705 17.61 6.105 17.61 5.505C17.61 5.125 17.83 4.805 18.16 4.695C18.31 4.645 18.48 4.635 18.65 4.635C19.2 4.635 19.75 4.635 20.32 4.635V3.605C20.32 3.605 20.26 3.575 20.24 3.575C19.69 3.575 19.15 3.575 18.6 3.575C17.93 3.575 17.61 3.245 17.6 2.565C17.6 2.005 17.6 1.445 17.6 0.855H16.55C16.55 1.475 16.55 2.065 16.55 2.655C16.55 3.215 16.19 3.555 15.63 3.565C15.36 3.565 15.08 3.565 14.81 3.565C14.48 3.565 14.16 3.565 13.83 3.565V4.625C14.37 4.625 14.89 4.625 15.42 4.625C16.26 4.625 16.56 4.925 16.56 5.775C16.56 6.295 16.56 6.815 16.56 7.355H17.62L17.61 7.345Z" fill="#9B0077"/>
<path d="M6.42 4.73C6.79 4.73 7.14 4.73 7.49 4.73C7.78 4.73 8.08 4.73 8.37 4.74C8.82 4.77 9.14 5.11 9.16 5.56C9.17 5.86 9.16 6.16 9.16 6.47C9.16 7.05 8.82 7.4 8.24 7.42C7.75 7.43 7.27 7.42 6.78 7.42C6.67 7.42 6.57 7.42 6.42 7.42C6.42 7.9 6.4 8.36 6.42 8.81C6.48 9.9 6.09 10.22 5.08 10.15C4.93 10.15 4.79 10.15 4.64 10.15C4.08 10.13 3.74 9.79 3.73 9.23C3.73 8.65 3.73 8.06 3.73 7.44C3.61 7.44 3.51 7.42 3.41 7.42C2.93 7.42 2.46 7.42 1.98 7.42C1.35 7.42 1 7.07 1 6.44C1 6.2 1 5.95 1 5.71C1 5.07 1.34 4.73 1.97 4.73C2.54 4.73 3.12 4.73 3.73 4.73C3.73 4.34 3.73 3.97 3.73 3.61C3.73 3.37 3.73 3.12 3.73 2.88C3.75 2.36 4.1 2.01 4.62 2C4.9 2 5.19 2 5.47 2C6.08 2 6.41 2.34 6.42 2.94C6.42 3.52 6.42 4.11 6.42 4.73ZM4.58 2.83C4.56 2.88 4.55 2.9 4.55 2.92C4.55 3.44 4.55 3.95 4.55 4.47C4.55 5.26 4.25 5.56 3.45 5.56C2.92 5.56 2.38 5.56 1.81 5.56C1.81 5.85 1.81 6.11 1.81 6.37C1.8 6.57 1.88 6.62 2.06 6.62C2.55 6.62 3.03 6.62 3.52 6.62C4.23 6.62 4.55 6.94 4.55 7.66C4.55 8.21 4.55 8.76 4.55 9.33H5.58C5.58 9.33 5.6 9.27 5.6 9.25C5.6 8.7 5.6 8.14 5.6 7.59C5.6 6.97 5.94 6.64 6.56 6.63C6.99 6.63 7.42 6.63 7.85 6.63C8.01 6.63 8.17 6.63 8.32 6.63V5.58C7.71 5.58 7.13 5.58 6.55 5.58C5.95 5.57 5.62 5.22 5.61 4.62C5.61 4.28 5.61 3.94 5.61 3.6C5.61 3.35 5.61 3.1 5.61 2.86H4.59L4.58 2.83Z" fill="#9B0077"/>
<path d="M10.72 9.74507C10.72 9.12507 10.72 8.54507 10.72 7.96507C10.72 7.66507 10.8 7.40507 11.04 7.21507C11.38 6.93507 12.73 6.92507 13.08 7.20507C13.34 7.41507 13.41 7.69507 13.41 8.00507C13.41 8.56507 13.41 9.13507 13.41 9.72507C13.53 9.72507 13.64 9.74507 13.74 9.74507C14.22 9.74507 14.69 9.74507 15.17 9.74507C15.79 9.74507 16.13 10.0851 16.14 10.6951C16.14 10.9751 16.14 11.2651 16.14 11.5451C16.12 12.0851 15.8 12.4151 15.26 12.4251C14.76 12.4351 14.27 12.4251 13.77 12.4251C13.66 12.4251 13.56 12.4251 13.42 12.4251C13.42 12.8751 13.42 13.2951 13.42 13.7051C13.42 13.9351 13.42 14.1751 13.4 14.4051C13.34 14.8551 13.02 15.1451 12.57 15.1551C12.25 15.1651 11.93 15.1551 11.61 15.1551C11.1 15.1551 10.75 14.8051 10.74 14.2951C10.73 13.7651 10.73 13.2451 10.74 12.7151C10.74 12.4851 10.68 12.4051 10.45 12.4151C9.95 12.4351 9.46 12.4151 8.96 12.4151C8.34 12.4151 8.01 12.0751 8 11.4551C8 11.1951 8 10.9251 8 10.6651C8 10.0751 8.33 9.74507 8.92 9.72507C9.41 9.71507 9.89 9.72507 10.38 9.72507C10.48 9.72507 10.59 9.72507 10.73 9.72507L10.72 9.74507ZM11.54 7.85507C11.54 7.98507 11.54 8.09507 11.54 8.19507C11.54 8.67507 11.54 9.14507 11.54 9.62507C11.53 10.2151 11.2 10.5451 10.61 10.5651C10.44 10.5651 10.28 10.5651 10.11 10.5651C9.68 10.5651 9.26 10.5651 8.82 10.5651V11.6251C8.93 11.6251 9.04 11.6251 9.14 11.6251C9.64 11.6251 10.13 11.6251 10.63 11.6251C11.17 11.6351 11.5 11.9551 11.53 12.4951C11.54 12.6751 11.53 12.8651 11.53 13.0451C11.53 13.4651 11.53 13.8951 11.53 14.3351H12.59C12.59 14.2151 12.59 14.1151 12.59 14.0051C12.59 13.5151 12.59 13.0351 12.59 12.5451C12.59 11.9651 12.94 11.6251 13.52 11.6251C13.91 11.6251 14.3 11.6251 14.69 11.6251C14.89 11.6251 15.09 11.6251 15.3 11.6251V10.5651C14.75 10.5651 14.21 10.5651 13.68 10.5651C12.88 10.5651 12.59 10.2751 12.59 9.47507C12.59 8.94507 12.59 8.40507 12.59 7.85507H11.53H11.54Z" fill="#9B0077"/>
</svg>
