<svg width="20" height="20" viewBox="0 0 20 20" fill="none" xmlns="http://www.w3.org/2000/svg">
<path d="M18.8294 17.2024L15.2271 13.6304C16.3893 12.1579 17.02 10.3395 17.0177 8.4675C17.0177 6.80035 16.5205 5.17063 15.5892 3.78444C14.6578 2.39825 13.334 1.31785 11.7852 0.679853C10.2364 0.0418603 8.53214 -0.125068 6.88794 0.200178C5.24373 0.525424 3.73343 1.32824 2.54803 2.50709C1.36262 3.68595 0.555352 5.18791 0.2283 6.82303C-0.098753 8.45815 0.0691022 10.153 0.710639 11.6933C1.35218 13.2335 2.43858 14.55 3.83247 15.4762C5.22636 16.4024 6.86513 16.8968 8.54154 16.8968C10.4239 16.8991 12.2524 16.272 13.7332 15.1161L17.3249 18.6986C17.4234 18.7973 17.5406 18.8757 17.6697 18.9292C17.7988 18.9827 17.9373 19.0102 18.0772 19.0102C18.217 19.0102 18.3555 18.9827 18.4846 18.9292C18.6137 18.8757 18.7309 18.7973 18.8294 18.6986C18.9287 18.6006 19.0076 18.4841 19.0613 18.3557C19.1151 18.2273 19.1428 18.0896 19.1428 17.9505C19.1428 17.8114 19.1151 17.6736 19.0613 17.5452C19.0076 17.4168 18.9287 17.3003 18.8294 17.2024ZM2.18446 8.4675C2.18446 7.21714 2.5573 5.99485 3.25582 4.95521C3.95435 3.91556 4.94719 3.10526 6.10879 2.62677C7.2704 2.14827 8.5486 2.02307 9.78175 2.26701C11.0149 2.51094 12.1476 3.11305 13.0367 3.9972C13.9257 4.88134 14.5312 6.00781 14.7765 7.23415C15.0218 8.46049 14.8959 9.73163 14.4147 10.8868C13.9336 12.042 13.1188 13.0294 12.0733 13.724C11.0279 14.4187 9.79886 14.7895 8.54154 14.7895C6.85554 14.7895 5.23859 14.1234 4.04641 12.9378C2.85422 11.7522 2.18446 10.1442 2.18446 8.4675Z" fill="#424242"/>
</svg>
