<svg width="50" height="42" viewBox="0 0 50 42" fill="none" xmlns="http://www.w3.org/2000/svg">
<g clip-path="url(#clip0_2159_55986)">
<path d="M49.9999 17.2076C49.7681 17.4175 49.5704 17.7094 49.2974 17.8211C48.68 18.0744 48.0538 17.563 48.0509 16.8329C48.0411 14.9443 48.048 13.0547 48.047 11.166C48.047 10.2405 47.7349 9.93518 46.7809 9.93422C43.8045 9.93229 40.8291 9.93421 37.8527 9.93229C37.658 9.93229 37.4613 9.93614 37.2685 9.91206C36.7852 9.85139 36.4418 9.47096 36.43 9.00097C36.4183 8.55409 36.7187 8.15825 37.1756 8.06001C37.3791 8.01668 37.5944 8.01282 37.8047 8.01282C40.6833 8.00993 43.5618 8.0109 46.4404 8.0109C48.5264 8.0109 49.2475 8.49149 50.0009 10.3821V17.2066L49.9999 17.2076Z" fill="#9B0077"/>
<path d="M49.9996 32.4913C49.8235 32.8823 49.6993 33.307 49.4605 33.6566C48.895 34.4859 48.0604 34.8682 47.0516 34.8855C46.7434 34.8913 46.4352 34.8855 46.0213 34.8855C46.2102 35.0888 46.3452 35.2294 46.4734 35.3748C46.8589 35.8121 46.8647 36.3302 46.491 36.7154C46.1123 37.1065 45.5272 37.1277 45.0957 36.7222C44.3678 36.0355 43.6545 35.3334 42.952 34.6217C42.5381 34.2027 42.5322 33.672 42.9314 33.2435C43.6359 32.4893 44.3502 31.7439 45.0791 31.0119C45.4861 30.6026 46.0399 30.593 46.4372 30.9445C46.853 31.3124 46.8794 31.8604 46.4929 32.3189C46.3305 32.5125 46.1495 32.6906 45.9088 32.9507C46.4127 32.9507 46.8295 32.9873 47.2365 32.942C47.7629 32.8833 48.0447 32.4797 48.0457 31.8614C48.0486 29.8919 48.0467 27.9223 48.0467 25.9528C48.0467 25.8083 48.0389 25.6638 48.0526 25.5203C48.0946 25.0744 48.3392 24.773 48.7727 24.6506C49.1924 24.5322 49.5388 24.6815 49.8059 25.0128C49.8754 25.0985 49.9351 25.1919 49.9987 25.2815V32.4903L49.9996 32.4913Z" fill="#9B0077"/>
<path d="M49.9996 21.5331C49.7413 21.9212 49.4399 22.2448 48.9106 22.187C48.4752 22.1399 48.1151 21.8008 48.0701 21.3732C48.0231 20.936 48.1934 20.5883 48.5994 20.3793C48.983 20.1819 49.4644 20.2782 49.752 20.6076C49.846 20.7145 49.9174 20.8397 49.9996 20.9572V21.5341V21.5331Z" fill="#9B0077"/>
<path d="M34.8564 25.4676C36.4336 25.4676 37.9443 25.4676 39.454 25.4676C40.5254 25.4676 40.816 25.7536 40.816 26.8044C40.816 31.433 40.816 36.0617 40.816 40.6904C40.816 41.6968 40.5039 41.9993 39.4677 41.9993C35.7418 41.9993 32.015 41.9993 28.2891 41.9993C27.2422 41.9993 26.9438 41.7103 26.9428 40.6971C26.9428 38.8875 26.9428 37.0778 26.9428 35.2672V34.722H22.713C22.713 34.9253 22.713 35.1111 22.713 35.298C22.713 37.1077 22.715 38.9173 22.712 40.728C22.7101 41.6737 22.3784 41.9983 21.4224 41.9993C17.6476 41.9993 13.8728 41.9993 10.098 41.9993C9.17341 41.9993 8.83096 41.6679 8.82998 40.7549C8.82704 36.0781 8.82802 31.4013 8.82998 26.7244C8.82998 25.7758 9.15286 25.4685 10.1284 25.4666C11.6254 25.4637 13.1224 25.4618 14.6194 25.4589C14.6497 25.4589 14.68 25.4416 14.7652 25.4156C14.775 25.2673 14.7935 25.0987 14.7945 24.9311C14.7975 24.0017 14.7867 23.0733 14.7994 22.1439C14.8102 21.3715 15.1595 21.0431 15.9501 21.0421C18.4392 21.0392 20.9293 21.0412 23.4184 21.0412C23.5955 21.0412 23.7726 21.0412 23.9879 21.0412V17.964C23.5359 17.964 23.0858 17.9717 22.6357 17.9621C21.9655 17.9477 21.6152 17.6472 21.5173 16.9952C21.4577 16.5993 21.4303 16.1996 21.3813 15.8028C21.3168 15.2818 21.0281 15.1084 20.533 15.2972C20.1241 15.4532 19.7239 15.6304 19.3129 15.7826C18.7454 15.9926 18.3081 15.8664 18.0106 15.3694C17.2523 14.101 16.5058 12.8259 15.772 11.543C15.4863 11.0432 15.6047 10.5963 16.0802 10.2332C16.4402 9.95872 16.8179 9.70735 17.177 9.4319C17.5645 9.13526 17.5664 8.82611 17.1848 8.5314C16.8267 8.25498 16.4491 8.00361 16.09 7.72817C15.591 7.34581 15.4863 6.91434 15.7925 6.38175C16.5195 5.1143 17.2572 3.85167 18.0057 2.59579C18.3022 2.09786 18.7435 1.96206 19.3061 2.17009C19.7317 2.32708 20.1446 2.51874 20.5692 2.67765C21.0438 2.85582 21.3168 2.68728 21.3804 2.18358C21.4312 1.78678 21.4577 1.38709 21.5134 0.990291C21.6103 0.300709 21.9508 0.00503611 22.6553 0.0021468C24.0711 -0.00266872 25.4869 -0.00266872 26.9017 0.0021468C27.6218 0.00503611 27.9535 0.319008 28.0376 1.0423C28.0856 1.45547 28.1257 1.87057 28.1971 2.28085C28.2715 2.70558 28.5239 2.84427 28.9329 2.69306C29.3585 2.53607 29.7734 2.35116 30.198 2.18936C30.8144 1.95436 31.2401 2.08341 31.5688 2.63335C32.3007 3.8613 33.0228 5.09504 33.738 6.33359C34.0668 6.90375 33.9591 7.36315 33.4278 7.76091C33.1177 7.99398 32.7987 8.2155 32.4856 8.44472C31.9494 8.83766 31.9533 9.12082 32.4993 9.52147C32.8124 9.75165 33.1343 9.96931 33.4415 10.2053C33.9552 10.5982 34.0658 11.0509 33.7517 11.595C33.0296 12.8471 32.2987 14.0943 31.5581 15.3367C31.243 15.8654 30.8125 15.9964 30.2274 15.7759C29.8331 15.6266 29.4466 15.459 29.0533 15.3068C28.5288 15.1036 28.2607 15.2568 28.1727 15.8163C28.1159 16.1804 28.0797 16.5463 28.0367 16.9123C27.9515 17.6472 27.612 17.9506 26.8508 17.9621C26.5778 17.966 26.3048 17.9621 26.0054 17.9621V21.0383H26.5172C28.8928 21.0383 31.2684 21.0373 33.6441 21.0383C34.5159 21.0383 34.8534 21.3715 34.8564 22.2287C34.8603 23.2842 34.8564 24.3398 34.8564 25.4637V25.4676ZM10.825 27.4073V40.0528H20.7287V27.4073H10.825ZM28.9368 27.4092V40.0528H38.8337V27.4092H28.9368ZM26.1375 1.95821H23.3578C23.3226 2.98488 22.9997 3.83626 22.0721 4.36693C21.127 4.90724 20.2014 4.65875 19.2875 4.2504C18.8081 5.07 18.357 5.84241 17.8825 6.65527C18.7728 7.2052 19.4166 7.89671 19.4166 8.97153C19.4166 10.0464 18.7953 10.7514 17.8795 11.3003C18.355 12.1141 18.813 12.8981 19.2953 13.7225C20.218 13.2814 21.1221 13.084 22.0594 13.6147C23.0065 14.1511 23.3255 15.014 23.3676 16.0224H26.1806C26.2354 15.0179 26.5397 14.1656 27.4721 13.6272C28.4202 13.0801 29.338 13.2747 30.2538 13.7312C30.7469 12.8866 31.2029 12.1035 31.6745 11.2955C30.7518 10.7408 30.1413 10.0464 30.1442 8.95901C30.1471 7.87167 30.7968 7.20039 31.6725 6.65527C31.1872 5.827 30.7274 5.04303 30.2734 4.26773C27.658 5.09023 26.795 4.60097 26.1385 1.95917L26.1375 1.95821ZM26.9438 32.7525C26.9438 32.5281 26.9438 32.3547 26.9438 32.1804C26.9438 30.3226 26.9408 28.4638 26.9447 26.606C26.9467 25.8066 27.2901 25.4714 28.1071 25.4695C29.5229 25.4657 30.9387 25.4685 32.3545 25.4685C32.5267 25.4685 32.6979 25.4685 32.877 25.4685V22.9905H16.7778V25.4685H17.2876C18.6055 25.4685 19.9245 25.4685 21.2424 25.4685C22.4713 25.4685 22.713 25.7103 22.713 26.9411C22.713 28.6872 22.713 30.4333 22.714 32.1795C22.714 32.3653 22.7296 32.5502 22.7394 32.7535H26.9428L26.9438 32.7525Z" fill="#9B0077"/>
<path d="M10.4145 8.01221C10.1728 7.75891 10.0192 7.61734 9.88807 7.45746C9.56714 7.06548 9.58573 6.53577 9.92231 6.18713C10.2824 5.8144 10.8489 5.75084 11.2403 6.11297C12.022 6.83626 12.7813 7.58555 13.5239 8.34833C13.885 8.71913 13.882 9.22861 13.5259 9.61289C12.8028 10.394 12.0661 11.1625 11.3097 11.9128C10.9047 12.3154 10.3381 12.298 9.95362 11.9301C9.57595 11.569 9.55736 11.0132 9.92035 10.5866C10.0838 10.394 10.2677 10.2168 10.5084 9.96249C10.256 9.94997 10.1014 9.93456 9.9458 9.93456C7.70126 9.93264 5.45576 9.93167 3.21122 9.93456C2.26801 9.93553 1.95589 10.2466 1.95491 11.176C1.95491 18.0295 1.95491 24.8829 1.95491 31.7363C1.95491 32.6629 2.26606 32.9624 3.22199 32.9643C4.08399 32.9653 4.94599 32.9605 5.80897 32.9662C6.48996 32.971 6.92145 33.338 6.93124 33.9062C6.94102 34.485 6.48898 34.8818 5.79332 34.8857C4.83347 34.8915 3.87363 34.8982 2.91378 34.8847C1.26903 34.8616 0.00782748 33.6288 0.00587061 32.0099C-0.00195687 24.9802 -0.00195687 17.9505 0.00587061 10.9208C0.00782748 9.2315 1.26316 8.02858 3.03315 8.01702C5.27768 8.00258 7.52319 8.01317 9.76772 8.01317C9.94188 8.01317 10.1151 8.01317 10.4145 8.01317V8.01221Z" fill="#9B0077"/>
<path d="M15.7191 32.7737C16.449 32.7737 17.1799 32.766 17.9098 32.7756C18.5536 32.7843 18.9567 33.158 18.9597 33.7243C18.9626 34.2896 18.5575 34.6855 17.9225 34.6903C16.4627 34.7009 15.0019 34.6999 13.5421 34.6903C12.9061 34.6864 12.4951 34.2964 12.4922 33.7358C12.4893 33.1666 12.8904 32.7852 13.5293 32.7756C14.2593 32.765 14.9892 32.7727 15.7201 32.7727L15.7191 32.7737Z" fill="#9B0077"/>
<path d="M15.6848 38.1736C14.9686 38.1736 14.2524 38.1804 13.5362 38.1717C12.91 38.165 12.5118 37.8134 12.4893 37.2683C12.4658 36.702 12.863 36.2686 13.4892 36.2599C14.9696 36.2407 16.451 36.2426 17.9323 36.259C18.5683 36.2657 18.9694 36.6808 18.9567 37.2462C18.944 37.8115 18.5399 38.1659 17.8814 38.1727C17.1496 38.1794 16.4167 38.1746 15.6848 38.1736Z" fill="#9B0077"/>
<path d="M15.7055 31.1986C15.006 31.1986 14.3064 31.2063 13.6068 31.1966C12.9121 31.187 12.4982 30.8307 12.4885 30.2567C12.4787 29.6595 12.8916 29.2868 13.6166 29.281C15.0157 29.2704 16.4149 29.2714 17.8131 29.281C18.543 29.2858 18.9588 29.6499 18.9559 30.2432C18.953 30.8335 18.5293 31.1899 17.8023 31.1976C17.1028 31.2043 16.4032 31.1995 15.7036 31.1986H15.7055Z" fill="#9B0077"/>
<path d="M33.9656 29.2795C34.6632 29.2795 35.3609 29.2708 36.0585 29.2824C36.7453 29.2939 37.1719 29.6599 37.1847 30.2204C37.1984 30.7954 36.7493 31.1932 36.0477 31.198C34.6358 31.2067 33.224 31.2067 31.8131 31.198C31.1301 31.1941 30.7016 30.8214 30.6879 30.259C30.6732 29.6859 31.1184 29.2939 31.8248 29.2833C32.5381 29.2727 33.2523 29.2804 33.9666 29.2814L33.9656 29.2795Z" fill="#9B0077"/>
<path d="M33.8929 38.1736C33.1786 38.1736 32.4644 38.1804 31.7511 38.1717C31.1239 38.164 30.6905 37.7711 30.6875 37.2259C30.6846 36.6856 31.117 36.2638 31.7403 36.2571C33.2011 36.2426 34.6609 36.2436 36.1217 36.2571C36.7479 36.2628 37.1814 36.675 37.1853 37.2153C37.1892 37.7749 36.745 38.1669 36.0836 38.1727C35.3537 38.1785 34.6228 38.1736 33.8929 38.1736Z" fill="#9B0077"/>
<path d="M33.9166 34.695C33.2024 34.695 32.4881 34.7018 31.7748 34.6931C31.1261 34.6844 30.6741 34.2674 30.6878 33.7117C30.7005 33.1704 31.1369 32.7794 31.7651 32.7756C33.2092 32.7688 34.6534 32.7688 36.0976 32.7756C36.7492 32.7785 37.1983 33.1936 37.1846 33.7502C37.1709 34.2915 36.7336 34.6835 36.1074 34.6921C35.3774 34.7018 34.6466 34.6941 33.9166 34.6941V34.695Z" fill="#9B0077"/>
<path d="M24.7516 12.3316C22.8613 12.321 21.3604 10.8225 21.3712 8.95403C21.3819 7.09716 22.9249 5.59472 24.8006 5.61495C26.6801 5.63517 28.2163 7.16747 28.1967 9.00218C28.1762 10.8571 26.64 12.3413 24.7516 12.3316ZM24.7634 10.4093C25.5696 10.4141 26.234 9.77748 26.2438 8.99159C26.2526 8.22111 25.5794 7.5479 24.7908 7.5373C23.9953 7.52671 23.33 8.17488 23.3241 8.96462C23.3182 9.76207 23.9581 10.4045 24.7634 10.4093Z" fill="#9B0077"/>
</g>
<defs>
<clipPath id="clip0_2159_55986">
<rect width="50" height="42" fill="white"/>
</clipPath>
</defs>
</svg>
