<svg width="60" height="61" viewBox="0 0 60 61" fill="none" xmlns="http://www.w3.org/2000/svg">
<g clip-path="url(#clip0_2159_53687)">
<path d="M11.8277 60.4191C11.1407 60.0974 10.7529 59.5276 10.4222 58.8631C7.09572 52.1727 3.7497 45.4928 0.408178 38.8084C-0.349413 37.2914 -0.0863602 36.5096 1.43934 35.7459C2.48554 35.2227 3.53775 34.7085 4.57793 34.1733C6.14573 33.3659 7.73306 33.2517 9.37751 33.9417C9.54436 34.0124 9.86153 33.9192 10.0179 33.7914C11.5436 32.545 12.9625 31.1453 14.5799 30.0358C18.7783 27.1596 24.7368 27.4679 28.7171 30.6251C30.1101 31.7307 31.6944 32.2834 33.4701 32.2834C35.7158 32.2834 37.963 32.2924 40.2088 32.2804C42.7837 32.2669 44.6235 33.3644 45.6126 35.788C45.6261 35.8211 45.6652 35.8421 45.8441 36.0255C45.9523 35.8466 46.0335 35.6437 46.1718 35.4933C47.6825 33.8575 49.1886 32.2158 50.7233 30.6026C52.7721 28.4481 55.5455 28.17 57.9099 29.8719C58.9306 30.6071 59.5574 31.6234 59.8535 32.8442C59.8941 33.0111 59.9497 33.1735 59.9978 33.3389V34.6288C59.7633 35.8617 59.1786 36.9141 58.4225 37.9094C55.8626 41.2831 53.3253 44.6749 50.7955 48.0727C48.1484 51.6269 44.619 53.3905 40.1922 53.3875C33.6715 53.3815 27.1493 53.3875 20.6286 53.3875C20.3987 53.3875 20.1672 53.3875 19.9432 53.3875C19.9146 53.4942 19.8906 53.5483 19.8876 53.6025C19.7779 55.9433 18.5934 57.534 16.5055 58.5293C15.2443 59.1307 14.0087 59.7892 12.7626 60.4206H11.8247L11.8277 60.4191ZM12.0742 36.6495C12.1629 36.8449 12.2215 36.9893 12.2906 37.1276C14.3379 41.229 16.3912 45.3274 18.4235 49.4349C18.6024 49.7972 18.8203 49.8769 19.1901 49.8754C24.9713 49.8649 30.7524 49.8679 36.5335 49.8679C37.8037 49.8679 39.0724 49.8664 40.3425 49.8679C43.4661 49.8724 45.9719 48.635 47.8493 46.1363C49.351 44.1382 50.8481 42.1371 52.3483 40.1375C53.5899 38.4822 54.8465 36.8359 56.0686 35.1656C56.8983 34.0319 56.3782 32.5961 55.0599 32.321C54.2828 32.1586 53.7176 32.53 53.2081 33.0788C50.7925 35.6873 48.3604 38.2792 45.9463 40.8892C44.8625 42.0619 43.5593 42.7986 41.9509 42.8151C38.5132 42.8497 35.077 42.8377 31.6393 42.8227C30.82 42.8197 30.1632 42.2498 29.9858 41.4951C29.7137 40.3329 30.5284 39.3271 31.7836 39.3211C34.6741 39.3076 37.5647 39.3136 40.4553 39.3211C41.0295 39.3211 41.5451 39.1858 41.9344 38.7513C42.4184 38.2116 42.5627 37.5786 42.2756 36.9036C41.9614 36.1639 41.3677 35.8045 40.5665 35.803C38.0472 35.8 35.5219 35.6963 33.0101 35.8316C30.6367 35.9594 28.6239 35.337 26.9224 33.6907C26.8667 33.6365 26.8021 33.5914 26.7405 33.5433C23.6395 31.0521 19.3705 30.8702 16.1342 33.2141C14.7017 34.2515 13.421 35.4993 12.0727 36.651L12.0742 36.6495ZM4.10444 38.3394C7.11075 44.3517 10.0855 50.3024 13.0828 56.2967C13.7337 55.9734 14.3244 55.6817 14.9151 55.3871C16.4499 54.6203 16.7129 53.8475 15.9553 52.3305C14.7272 49.8709 13.5007 47.4127 12.2726 44.9531C11.1407 42.6859 10.0118 40.4171 8.87245 38.1544C8.38693 37.1907 7.5632 36.7637 6.67484 37.111C5.81203 37.4478 4.99581 37.9079 4.10594 38.3394H4.10444Z" fill="#9B0077"/>
<path d="M26.6876 12.4283C23.4949 8.88018 24.6057 4.47656 27.1746 2.20784C29.8307 -0.139059 33.7645 -0.18717 36.4341 2.13267C38.9278 4.30065 40.1634 8.70127 37.0113 12.3983C37.4968 12.7501 38.0004 13.0763 38.4588 13.4567C41.0683 15.6202 42.337 18.4286 42.4136 21.7964C42.4257 22.3046 42.4212 22.8127 42.4136 23.3209C42.4001 24.5372 41.6981 25.2468 40.4761 25.2498C36.3544 25.2558 32.2343 25.2528 28.1126 25.2528C26.4712 25.2528 24.8312 25.2574 23.1898 25.2528C21.8955 25.2483 21.2161 24.5567 21.2011 23.2562C21.18 21.5333 21.2266 19.8239 21.8429 18.1776C22.6922 15.9058 24.1187 14.1077 26.1525 12.7922C26.3314 12.6764 26.5057 12.5531 26.6846 12.4314L26.6876 12.4283ZM38.9128 21.7077C38.77 18.997 37.6622 16.8786 35.3323 15.539C32.8596 14.1167 30.3448 14.2385 27.9758 15.7976C25.8909 17.1687 24.8177 19.1623 24.717 21.7077H38.9128ZM31.8765 11.0617C33.7885 11.0587 35.3774 9.46804 35.3819 7.55263C35.3864 5.60114 33.7314 3.90224 31.8419 3.92028C29.9465 3.93832 28.2584 5.62971 28.2404 7.52858C28.2223 9.41842 29.9164 11.0647 31.8765 11.0617Z" fill="#9B0077"/>
</g>
<defs>
<clipPath id="clip0_2159_53687">
<rect width="60" height="60" fill="white" transform="translate(0 0.419189)"/>
</clipPath>
</defs>
</svg>
