<svg width="33" height="33" viewBox="0 0 33 33" fill="none" xmlns="http://www.w3.org/2000/svg">
<path d="M8.9375 15.625C4.28506 15.625 0.5 19.4101 0.5 24.0625C0.5 28.7149 4.28506 32.5 8.9375 32.5C13.5899 32.5 17.375 28.7149 17.375 24.0625C17.375 19.4101 13.5899 15.625 8.9375 15.625ZM12.6629 23.0379L8.28788 27.4129C8.10488 27.5959 7.86494 27.6875 7.625 27.6875C7.38506 27.6875 7.14512 27.5959 6.96212 27.4129L5.08712 25.5379C4.721 25.1718 4.721 24.5782 5.08712 24.2121C5.45319 23.846 6.04681 23.846 6.41294 24.2121L7.625 25.4242L11.3371 21.7121C11.7032 21.346 12.2968 21.346 12.6629 21.7121C13.029 22.0782 13.029 22.6718 12.6629 23.0379Z" fill="white"/>
<path d="M25.1875 8.625C24.6697 8.625 24.25 8.20525 24.25 7.6875V0.5H10.8125C9.26169 0.5 8 1.76169 8 3.3125V13.7931C8.30887 13.7651 8.62144 13.75 8.9375 13.75C12.133 13.75 14.9936 15.211 16.8866 17.5H27.0625C27.5803 17.5 28 17.9197 28 18.4375C28 18.9553 27.5803 19.375 27.0625 19.375H18.1217C18.7077 20.5185 19.0856 21.7853 19.2069 23.125H27.0625C27.5803 23.125 28 23.5447 28 24.0625C28 24.5803 27.5803 25 27.0625 25H19.2069C18.9266 28.0962 17.2723 30.8016 14.8599 32.5H29.5625C31.1133 32.5 32.375 31.2383 32.375 29.6875V8.625H25.1875ZM27.0625 13.75H13.3125C12.7947 13.75 12.375 13.3303 12.375 12.8125C12.375 12.2947 12.7947 11.875 13.3125 11.875H27.0625C27.5803 11.875 28 12.2947 28 12.8125C28 13.3303 27.5803 13.75 27.0625 13.75Z" fill="white"/>
<path d="M26.125 1.04894V6.75H31.8257L26.125 1.04894Z" fill="white"/>
</svg>
