<svg width="20" height="17" viewBox="0 0 20 17" fill="none" xmlns="http://www.w3.org/2000/svg">
<path d="M19.041 9.47947C19.2598 9.26068 19.3827 8.96393 19.3827 8.65451C19.3827 8.34509 19.2598 8.04835 19.041 7.82955L12.4826 1.18864C12.2638 0.969849 11.967 0.846933 11.6576 0.846933C11.3482 0.846933 11.0515 0.969849 10.8327 1.18864C10.6139 1.40743 10.491 1.70418 10.491 2.0136C10.491 2.32302 10.6139 2.61977 10.8327 2.83856L15.4194 7.42532L1.75813 7.44182C1.60412 7.44119 1.45151 7.47106 1.3091 7.52971C1.16669 7.58835 1.0373 7.67462 0.928392 7.78352C0.819488 7.89243 0.733224 8.02182 0.674578 8.16423C0.615931 8.30664 0.586063 8.45925 0.586694 8.61326C0.586063 8.76727 0.61593 8.91989 0.674577 9.0623C0.733224 9.20471 0.819488 9.3341 0.928392 9.443C1.0373 9.55191 1.16669 9.63817 1.3091 9.69682C1.45151 9.75547 1.60412 9.78533 1.75813 9.7847L15.4359 9.7847L10.8327 14.388C10.6139 14.6068 10.491 14.9035 10.491 15.2129C10.491 15.5223 10.6139 15.8191 10.8327 16.0379C11.0515 16.2567 11.3482 16.3796 11.6576 16.3796C11.967 16.3796 12.2638 16.2567 12.4826 16.0379L19.041 9.47947Z" fill="#9B0077"/>
</svg>
