<svg width="60" height="61" viewBox="0 0 60 61" fill="none" xmlns="http://www.w3.org/2000/svg">
<g clip-path="url(#clip0_2159_53695)">
<path d="M47.9345 60.368C47.5297 60.1127 47.0594 59.9213 46.7335 59.5887C46.0416 58.8833 45.9105 58.0082 46.3019 57.1029C46.6932 56.1993 47.4205 55.7038 48.4064 55.6921C50.4723 55.6685 52.5382 55.6837 54.6041 55.6837C54.8157 55.6837 55.0274 55.6837 55.3162 55.6837C55.3162 55.4418 55.3162 55.2352 55.3162 55.0303C55.3162 53.0417 55.3162 51.0547 55.3162 49.0661C55.3162 47.6821 56.025 46.7482 57.236 46.5165C58.4403 46.2863 59.401 46.8944 59.9267 48.2179C59.9402 48.2515 59.9771 48.275 60.0023 48.3035V58.4953C59.6983 59.4426 59.0735 60.0657 58.1279 60.3697H47.9361L47.9345 60.368Z" fill="#9B0077"/>
<path d="M60.0009 12.452C59.7305 12.8719 59.529 13.3641 59.1762 13.6949C58.4775 14.3517 57.6109 14.4726 56.7274 14.0829C55.8255 13.6849 55.3317 12.9576 55.3216 11.9683C55.3014 9.89907 55.3149 7.82981 55.3132 5.76224C55.3132 5.55229 55.3132 5.34234 55.3132 5.07193C54.507 5.07193 53.7512 5.07193 52.997 5.07193C51.5139 5.07193 50.0309 5.07864 48.5478 5.07025C47.1437 5.06185 46.0788 4.02722 46.0939 2.70874C46.109 1.40034 47.1521 0.394267 48.5293 0.389229C51.3796 0.380831 54.2298 0.4245 57.0784 0.370753C58.5313 0.3422 59.5273 0.854475 60.0009 2.26197V12.4537V12.452Z" fill="#9B0077"/>
<path d="M1.89221 60.368C0.491431 59.8927 -0.0258832 58.9017 0.000990263 57.4472C0.0564167 54.5785 0.0110678 51.7097 0.0211453 48.8393C0.0245045 47.7711 0.684583 46.8759 1.64699 46.5752C2.59092 46.2779 3.66082 46.5635 4.19325 47.3982C4.48046 47.8484 4.66857 48.4396 4.68033 48.972C4.73408 51.1756 4.70216 53.3809 4.70216 55.6803C4.92555 55.6803 5.12878 55.6803 5.33369 55.6803C7.324 55.6803 9.316 55.6803 11.3063 55.6803C12.6987 55.6803 13.6342 56.384 13.866 57.5933C14.0978 58.801 13.4915 59.7617 12.1679 60.2908C12.1343 60.3042 12.1108 60.3412 12.084 60.3663H1.89221V60.368Z" fill="#9B0077"/>
<path d="M32.3526 32.7203C32.3526 35.0381 32.3593 37.2787 32.3492 39.521C32.3442 40.6748 31.6337 41.602 30.5907 41.859C29.0892 42.2268 27.6884 41.1518 27.6733 39.5865C27.6531 37.5374 27.6682 35.4866 27.6665 33.4375C27.6665 33.2259 27.6665 33.0126 27.6665 32.722C27.4264 32.722 27.2198 32.722 27.0149 32.722C25.0044 32.722 22.9939 32.7253 20.9834 32.722C19.5188 32.7186 18.4489 31.726 18.4473 30.3823C18.4456 29.037 19.5138 28.041 20.9767 28.0376C23.1804 28.0326 25.384 28.0376 27.6665 28.0376C27.6665 27.7991 27.6665 27.5925 27.6665 27.3859C27.6665 25.3755 27.6632 23.365 27.6665 21.3545C27.6699 19.8899 28.6609 18.82 30.0028 18.8167C31.3482 18.8133 32.3459 19.8815 32.3492 21.3461C32.3543 23.5497 32.3492 25.7534 32.3492 28.0376C32.5877 28.0376 32.7926 28.0376 32.9992 28.0376C35.0097 28.0376 37.0202 28.0343 39.0306 28.0376C40.4969 28.041 41.5651 29.0286 41.5685 30.3739C41.5719 31.7193 40.502 32.7169 39.039 32.7203C36.8354 32.7253 34.6318 32.7203 32.3492 32.7203H32.3526Z" fill="#9B0077"/>
<path d="M4.70135 5.07033C4.70135 7.41671 4.70975 9.67912 4.69799 11.9432C4.69127 12.9846 4.04463 13.8546 3.09734 14.167C2.16013 14.476 1.09527 14.1955 0.537644 13.3759C0.26723 12.9778 0.0472034 12.4521 0.0404851 11.9802C-0.00150468 8.8746 0.00521368 5.77071 0.0270483 2.66683C0.0354463 1.39706 1.0432 0.399385 2.31465 0.392667C5.41853 0.374192 8.5241 0.372512 11.628 0.392667C12.9129 0.401065 13.9273 1.47264 13.924 2.73234C13.9206 3.99371 12.9061 5.04849 11.6179 5.06193C9.54865 5.08544 7.47939 5.06865 5.40845 5.07033C5.19683 5.07033 4.9852 5.07033 4.70135 5.07033Z" fill="#9B0077"/>
</g>
<defs>
<clipPath id="clip0_2159_53695">
<rect width="60" height="60" fill="white" transform="translate(0 0.36792)"/>
</clipPath>
</defs>
</svg>
