<svg width="51" height="52" viewBox="0 0 51 52" fill="none" xmlns="http://www.w3.org/2000/svg">
<g clip-path="url(#clip0_2724_67263)">
<path d="M48.8718 11.5879H2.15808C2.1478 11.8019 2.13017 11.9982 2.13017 12.1945C2.13017 21.1243 2.1287 30.054 2.13017 38.9838C2.13017 40.6649 2.94834 41.4708 4.64051 41.4708C12.2626 41.4708 19.8847 41.4708 27.5082 41.4708C28.3338 41.4708 28.7906 41.8265 28.817 42.4819C28.842 43.0605 28.463 43.5121 27.8887 43.5815C27.7433 43.5992 27.5964 43.5963 27.4495 43.5963C19.8083 43.5963 12.1686 43.5992 4.5274 43.5963C2.327 43.5963 0.684778 42.4081 0.167727 40.4406C0.0575603 40.0184 0.00908676 39.5697 0.00761786 39.1328C0.000273392 27.7529 -0.0011955 16.3745 0.00321118 4.99607C0.00321118 2.34814 1.82464 0.506102 4.45837 0.504626C18.476 0.498723 32.4922 0.500198 46.5099 0.504626C49.1759 0.504626 50.9973 2.34371 50.9973 5.02264C51.0017 16.3834 51.0017 27.7426 50.9973 39.1033C50.9973 41.7675 49.2082 43.5726 46.5554 43.5963C45.2172 43.6081 43.8805 43.6036 42.5424 43.5963C41.7462 43.5918 41.2791 43.1889 41.2821 42.5321C41.285 41.8841 41.7697 41.4753 42.5512 41.4723C43.8526 41.4693 45.1526 41.4723 46.454 41.4723C48.0258 41.4708 48.8674 40.6384 48.8689 39.0546C48.8733 33.7883 48.8704 28.5234 48.8704 23.2571C48.8704 19.5936 48.8704 15.9288 48.8704 12.2653V11.5893L48.8718 11.5879ZM20.7308 9.39454H48.8234C48.8381 9.30155 48.8542 9.24694 48.8542 9.19232C48.8572 7.79456 48.8674 6.39532 48.8586 4.99755C48.8483 3.47875 48.0199 2.664 46.4952 2.66253C38.1078 2.66105 29.7219 2.66253 21.3345 2.66253C21.1406 2.66253 20.9467 2.68024 20.7308 2.69057V9.39454ZM18.5568 2.66253H18.006C13.4994 2.66253 8.99431 2.66105 4.48774 2.66253C2.97478 2.66253 2.14339 3.49204 2.13164 5.01231C2.12283 6.31856 2.1287 7.6263 2.13164 8.93255C2.13164 9.09048 2.15514 9.24841 2.16689 9.38863H18.5553V2.66253H18.5568Z" fill="white"/>
<path d="M31.1347 42.0935C31.1347 40.3813 31.1259 38.6707 31.1421 36.9585C31.145 36.6367 31.0642 36.4832 30.7513 36.3534C25.8335 34.3121 23.022 29.6907 23.4172 24.3329C23.7961 19.1876 28.0956 14.5825 33.1985 13.8533C39.6293 12.9352 45.2978 16.9691 46.5508 23.3558C47.5907 28.659 44.6265 34.1527 39.5574 36.2663C39.077 36.467 38.9257 36.6884 38.9492 37.2183C39.0888 40.5112 39.2063 43.8042 39.2841 47.0986C39.3414 49.565 37.4231 51.5177 35.0376 51.4985C32.6051 51.4793 30.7205 49.4454 30.8145 46.9495C30.8762 45.3304 30.9291 43.7112 30.9849 42.092C31.0348 42.092 31.0848 42.092 31.1347 42.092V42.0935ZM25.4956 25.4295C25.4809 30.7047 29.7598 35.0353 35.0097 35.0589C40.258 35.0825 44.6001 30.7756 44.6236 25.521C44.6471 20.2045 40.3697 15.8548 35.1022 15.8385C29.8127 15.8223 25.5103 20.1174 25.4971 25.4295H25.4956ZM33.2999 37.1386C33.2822 37.2832 33.2514 37.4441 33.2455 37.605C33.1442 40.7887 33.0443 43.9724 32.9532 47.1562C32.9459 47.4085 32.9811 47.6742 33.059 47.9133C33.388 48.9244 34.3692 49.4912 35.4459 49.317C36.4404 49.1561 37.1866 48.2735 37.1587 47.196C37.0808 44.2514 36.9736 41.3068 36.8752 38.3637C36.8605 37.9445 36.834 37.5253 36.8135 37.1401H33.2984L33.2999 37.1386Z" fill="white"/>
<path d="M4.26572 26.5248C4.26572 26.0096 4.25691 25.4945 4.26719 24.9794C4.29069 23.7706 5.11327 22.8761 6.31924 22.8274C7.3974 22.7846 8.47998 22.7846 9.55815 22.8274C10.7568 22.8731 11.6028 23.7676 11.6293 24.9735C11.6513 26.0023 11.6513 27.034 11.6293 28.0627C11.6028 29.3203 10.7127 30.1941 9.45679 30.2118C8.43151 30.2265 7.40622 30.228 6.3824 30.2103C5.1544 30.1882 4.29363 29.307 4.26866 28.0716C4.25838 27.5565 4.26719 27.0414 4.26572 26.5262V26.5248ZM6.39856 28.0686H9.45533V25.0015H6.39856V28.0686Z" fill="white"/>
<path d="M4.27012 17.4238C4.27012 16.854 4.25103 16.2828 4.27453 15.7131C4.3186 14.6356 5.17643 13.7603 6.25166 13.7308C7.34892 13.6998 8.44766 13.7057 9.54492 13.7264C10.6833 13.7471 11.572 14.5884 11.619 15.7367C11.6645 16.8378 11.6601 17.9448 11.6219 19.0459C11.5823 20.1912 10.7333 21.0488 9.57723 21.0975C8.49907 21.1433 7.41649 21.1418 6.33832 21.1005C5.10592 21.0547 4.28481 20.1573 4.26572 18.913C4.25837 18.4171 4.26572 17.9197 4.26572 17.4238C4.26718 17.4238 4.26865 17.4238 4.27012 17.4238ZM6.40002 18.9116H9.46119V15.874H6.40002V18.9116Z" fill="white"/>
<path d="M8.01421 31.9504C8.50776 31.9504 9.00278 31.9416 9.49632 31.9519C10.6935 31.9785 11.5866 32.8272 11.6248 34.0272C11.6585 35.0928 11.6556 36.1614 11.6262 37.2271C11.5939 38.4241 10.7317 39.2905 9.51689 39.3334C8.47544 39.3703 7.42959 39.3688 6.38814 39.3348C5.12049 39.295 4.28028 38.4064 4.26706 37.1371C4.25678 36.126 4.25531 35.1135 4.26706 34.1024C4.28322 32.8375 5.15574 31.9726 6.42046 31.9519C6.95073 31.9431 7.48247 31.9504 8.01274 31.9519L8.01421 31.9504ZM6.39989 37.1622H9.46254V34.1024H6.39989V37.1622Z" fill="white"/>
<path d="M20.7159 39.3437C18.9944 39.3437 17.2743 39.3466 15.5527 39.3407C15.3177 39.3407 15.0709 39.3304 14.8491 39.2625C14.3747 39.1178 14.1338 38.7606 14.1323 38.2691C14.1323 37.7776 14.3718 37.416 14.8462 37.2743C15.0856 37.202 15.3515 37.1946 15.6042 37.1931C19.0458 37.1887 22.4874 37.1887 25.929 37.1931C26.1655 37.1931 26.4093 37.2005 26.6356 37.2581C27.1423 37.388 27.4023 37.7481 27.4023 38.2662C27.4023 38.7843 27.1438 39.1429 26.637 39.2772C26.4284 39.3319 26.2037 39.3407 25.9863 39.3422C24.2295 39.3466 22.4712 39.3451 20.7144 39.3451L20.7159 39.3437Z" fill="white"/>
<path d="M18.7914 14.9278C19.9445 14.9278 21.0991 14.9219 22.2522 14.9308C22.9998 14.9367 23.4434 15.3514 23.4302 16.0068C23.417 16.6341 22.9719 17.0444 22.2595 17.0474C19.9342 17.0547 17.6075 17.0547 15.2823 17.0474C14.5889 17.0444 14.1292 16.606 14.1262 15.9876C14.1233 15.3618 14.5698 14.9382 15.2749 14.9323C16.4471 14.9219 17.6193 14.9293 18.7914 14.9293V14.9278Z" fill="white"/>
<path d="M18.7858 33.149C19.9212 33.149 21.0567 33.1416 22.1922 33.1519C22.9927 33.1593 23.4422 33.5608 23.4319 34.2294C23.4216 34.8906 22.9589 35.2774 22.1569 35.2788C19.8669 35.2818 17.5784 35.2788 15.2883 35.2788C14.7566 35.2788 14.3527 35.0619 14.1837 34.5453C14.0324 34.0848 14.1338 33.639 14.5524 33.3748C14.783 33.2287 15.0989 33.1637 15.378 33.1578C16.5134 33.1342 17.6489 33.1475 18.7843 33.149H18.7858Z" fill="white"/>
<path d="M18.1907 21.1137C17.2565 21.1137 16.3237 21.1211 15.3895 21.1122C14.6022 21.1049 14.1262 20.693 14.1233 20.0421C14.1204 19.3897 14.5948 18.9676 15.3807 18.9632C17.2476 18.9543 19.1161 18.9543 20.983 18.9632C21.7733 18.9661 22.2448 19.3809 22.2478 20.0333C22.2507 20.6886 21.7777 21.1034 20.9919 21.1122C20.0576 21.1226 19.1249 21.1152 18.1907 21.1152V21.1137Z" fill="white"/>
<path d="M17.8751 30.2132C17.0158 30.2132 16.155 30.2206 15.2957 30.2102C14.5877 30.2014 14.1353 29.7896 14.1235 29.1697C14.1118 28.532 14.5818 28.0966 15.3118 28.0937C17.0495 28.0878 18.7887 28.0878 20.5264 28.0937C21.233 28.0966 21.6854 28.5084 21.6957 29.1313C21.7059 29.7733 21.2462 30.2014 20.5088 30.2102C19.6304 30.2191 18.752 30.2132 17.8736 30.2117L17.8751 30.2132Z" fill="white"/>
<path d="M17.6428 26.1601C16.8731 26.1601 16.1034 26.1704 15.3337 26.1571C14.5742 26.1439 14.1248 25.738 14.1233 25.0974C14.1218 24.4642 14.5963 24.0288 15.3293 24.0258C16.9054 24.017 18.4815 24.017 20.0562 24.0258C20.7744 24.0302 21.2181 24.4391 21.2327 25.0634C21.2474 25.7202 20.8141 26.1394 20.0606 26.1557C19.2541 26.1719 18.4477 26.1586 17.6413 26.1601H17.6428Z" fill="white"/>
<path d="M34.8288 4.98402C37.6844 4.98402 40.5414 4.98402 43.3969 4.98402C43.5805 4.98402 43.7641 4.97812 43.9462 4.99583C44.4853 5.04749 44.8614 5.43272 44.901 5.96113C44.9407 6.49544 44.5823 6.98104 44.0491 7.08288C43.8537 7.11978 43.6481 7.10945 43.4468 7.10945C37.6799 7.10945 31.9131 7.10945 26.1462 7.10945C26.0727 7.10945 25.9993 7.10945 25.9259 7.10945C25.1562 7.09912 24.6582 6.67698 24.6597 6.0364C24.6597 5.38697 25.1371 4.9855 25.9317 4.98402C28.8974 4.98107 31.8631 4.98402 34.8288 4.98254V4.98402Z" fill="white"/>
<path d="M14.5508 4.98401C15.3 4.99139 15.77 5.38843 15.7803 6.02458C15.7906 6.68435 15.2677 7.1183 14.473 7.11092C13.7136 7.10354 13.2332 6.66664 13.2538 6.00244C13.2744 5.34415 13.7415 4.97663 14.5508 4.98548V4.98401Z" fill="white"/>
<path d="M10.3703 7.10944C9.5859 7.1124 9.10851 6.71535 9.10116 6.05263C9.09382 5.38106 9.55505 4.98696 10.3483 4.98401C11.1341 4.98254 11.6247 5.38106 11.6306 6.02902C11.6379 6.6696 11.1282 7.10649 10.3703 7.10944Z" fill="white"/>
<path d="M6.21353 7.10944C5.43207 7.11092 4.94587 6.70649 4.94 6.04968C4.93412 5.38991 5.41151 4.98548 6.1959 4.98401C6.98616 4.98401 7.46502 5.37662 7.46943 6.03196C7.47384 6.69173 6.9891 7.10796 6.21353 7.10944Z" fill="white"/>
<path d="M33.1572 28.0376C34.8186 26.3638 36.4211 24.7491 38.0237 23.1358C38.2954 22.8628 38.5657 22.5868 38.8389 22.3152C39.4573 21.7026 40.0904 21.6303 40.559 22.1189C41.0276 22.6074 40.96 23.1993 40.3548 23.8104C39.4515 24.724 38.5422 25.6317 37.6359 26.5424C36.6914 27.4915 35.7498 28.4465 34.7995 29.3911C33.7771 30.408 32.5697 30.411 31.5517 29.4014C30.9128 28.7682 30.2767 28.1321 29.6495 27.4871C29.1281 26.9513 29.109 26.3328 29.579 25.8827C30.0358 25.4443 30.6219 25.4694 31.139 25.9801C31.8029 26.6384 32.4492 27.3158 33.1558 28.0361L33.1572 28.0376Z" fill="white"/>
</g>
<defs>
<clipPath id="clip0_2724_67263">
<rect width="51" height="51" fill="white" transform="translate(0 0.5)"/>
</clipPath>
</defs>
</svg>
