<svg width="63" height="55" viewBox="0 0 63 55" fill="none" xmlns="http://www.w3.org/2000/svg">
<g clip-path="url(#clip0_2724_67331)">
<path d="M62.9999 27.8719C62.9276 28.0855 62.8552 28.2992 62.7829 28.5129C62.229 30.161 60.7594 31.2492 59.0171 31.2989C57.3881 31.3453 55.8808 30.373 55.2496 28.8077C55.0885 28.4102 54.8863 28.3009 54.4836 28.3042C52.2695 28.3224 50.0537 28.3125 47.8396 28.3141C47.5569 28.3141 47.3201 28.2826 47.1804 28.6769C46.5131 30.5585 45.7964 32.4236 45.0994 34.2953C45.0797 34.35 45.0748 34.4113 45.0501 34.5272C45.2803 34.5372 45.4939 34.5554 45.7076 34.5554C48.3738 34.5571 51.04 34.5554 53.7045 34.5571C54.7548 34.5571 55.0474 34.8502 55.0491 35.9269C55.054 39.2546 55.0573 42.5806 55.0425 45.9083C55.0408 46.3092 55.1329 46.5212 55.5323 46.6868C57.421 47.467 58.3859 49.3884 57.9338 51.376C57.513 53.2329 55.7246 54.6027 53.8656 54.4934C51.8043 54.3725 50.1918 52.8287 49.9797 50.7748C49.8088 49.1151 50.8065 47.4107 52.4207 46.7017C52.807 46.5328 52.9155 46.334 52.9138 45.9249C52.8957 42.8887 52.904 39.8525 52.904 36.7435C52.6771 36.7319 52.4815 36.7153 52.2843 36.7153C49.6181 36.7137 46.9519 36.722 44.2874 36.7054C43.8929 36.7021 43.6562 36.828 43.4343 37.1559C40.6054 41.3069 36.7706 44.1625 32.1401 45.9646C31.7752 46.1071 31.2689 46.1187 30.9057 45.9828C26.1749 44.2006 22.2349 41.3648 19.3978 37.0847C19.2827 36.9108 19.023 36.7319 18.829 36.7302C16.102 36.7087 13.3751 36.717 10.6464 36.722C10.5692 36.722 10.4919 36.7567 10.3851 36.7816C10.3736 36.9754 10.3555 37.1559 10.3555 37.3365C10.3539 40.2087 10.3604 43.0808 10.3456 45.953C10.344 46.3357 10.4443 46.5228 10.819 46.6769C12.6337 47.4222 13.6266 49.3039 13.2469 51.1938C12.8622 53.1119 11.1708 54.5116 9.25254 54.4983C7.37702 54.4851 5.70697 53.1169 5.31741 51.2734C4.9114 49.3519 5.89765 47.4388 7.7255 46.6885C8.11671 46.5278 8.23177 46.334 8.22849 45.9216C8.21041 42.6353 8.21862 39.3507 8.21862 36.0644C8.21862 34.8171 8.48162 34.5571 9.74238 34.5571C12.4283 34.5571 15.1125 34.5571 17.8806 34.5571C17.8066 34.3351 17.7573 34.1678 17.6965 34.0038C17.0472 32.2464 16.3864 30.4923 15.7585 28.7266C15.6484 28.4152 15.5119 28.3075 15.1947 28.3075C12.9181 28.3174 10.6415 28.3257 8.36656 28.3009C7.94905 28.2959 7.87015 28.5377 7.74687 28.8293C6.98746 30.6115 5.22207 31.5524 3.28409 31.2194C1.55815 30.9229 0.162606 29.3759 0.00973738 27.587C-0.15135 25.7103 0.989412 23.9711 2.77617 23.3714C4.78812 22.6956 6.93157 23.6746 7.76002 25.6457C7.82248 25.7947 7.8833 25.9455 7.95069 26.1111H15.0665C14.7492 24.0489 14.4353 22.0132 14.1115 19.9129C12.8096 19.9129 11.5012 19.9129 10.1928 19.9129C9.94621 19.9129 9.70129 19.9179 9.45472 19.9129C8.58189 19.8897 8.22191 19.5352 8.22027 18.659C8.21534 15.4556 8.21205 12.2538 8.2252 9.05029C8.2252 8.66932 8.13151 8.4805 7.75344 8.32645C5.90587 7.56948 4.93112 5.71432 5.30754 3.76144C5.66588 1.92781 7.331 0.538101 9.21638 0.501661C11.0672 0.466876 12.7291 1.76217 13.1844 3.59414C13.6446 5.44764 12.7439 7.40881 10.9801 8.23204C10.4952 8.45896 10.3341 8.69583 10.3423 9.2325C10.3752 11.8148 10.3571 14.3988 10.3571 16.9811C10.3571 17.2031 10.3571 17.425 10.3571 17.6834H13.8879C13.8879 17.4217 13.9044 17.1616 13.8846 16.9049C13.786 15.6079 13.6792 14.311 13.5723 13.014C13.477 11.8496 14.0161 11.3477 15.1552 11.5597C17.422 11.9804 19.6821 11.9672 21.9291 11.4388C25.1197 10.6868 27.7793 9.02213 30.0098 6.62865C30.1643 6.46301 30.3106 6.28909 30.4668 6.12511C31.098 5.46421 31.6421 5.47415 32.3259 6.0837C33.4913 7.12225 34.6156 8.2221 35.8731 9.13643C39.4647 11.7486 43.4787 12.4525 47.7935 11.5813C48.959 11.3461 49.457 11.8016 49.3715 12.9975C49.2598 14.5412 49.1496 16.0866 49.0346 17.6768H52.8727C52.8842 17.5029 52.9056 17.324 52.9056 17.1451C52.9073 14.4584 52.899 11.7717 52.9155 9.08673C52.9171 8.6892 52.8284 8.47553 52.4355 8.3016C50.5682 7.47341 49.6165 5.50562 50.0964 3.56764C50.5485 1.74395 52.378 0.389026 54.2255 0.511599C56.2441 0.64411 57.781 2.11002 58.0423 4.15235C58.2593 5.84518 57.2599 7.60095 55.6211 8.27842C55.1559 8.47056 55.0376 8.70908 55.0408 9.18612C55.0622 12.2653 55.0523 15.3446 55.0507 18.4238C55.0507 19.6462 54.7795 19.9179 53.5697 19.9179C51.995 19.9179 50.4186 19.9179 48.8357 19.9179C48.5119 22.0049 48.1946 24.0357 47.8724 26.1061H55.054C55.5701 24.6088 56.5383 23.6067 58.1031 23.2638C60.0987 22.8265 62.0827 23.9479 62.7648 25.8875C62.8388 26.0979 62.921 26.3033 62.9999 26.512V27.8752V27.8719ZM15.7832 13.8787C15.941 15.6113 16.0708 17.2743 16.2467 18.9323C16.6494 22.7122 17.251 26.4523 18.4526 30.0749C20.5977 36.5398 24.712 41.1495 31.0322 43.6854C31.2706 43.7815 31.6043 43.8229 31.8294 43.7318C34.3378 42.7131 36.6308 41.3334 38.6296 39.4799C41.9188 36.4321 43.8321 32.5843 45.032 28.3207C46.0528 24.6933 46.5361 20.9713 46.8813 17.2279C46.9832 16.1247 47.067 15.0199 47.1623 13.872C40.9177 14.7499 35.8616 12.4426 31.4612 8.30989C27.2089 12.8948 21.9357 14.4833 15.7815 13.8754L15.7832 13.8787ZM9.24432 48.542C8.21041 48.5519 7.38031 49.395 7.3836 50.4319C7.38853 51.4672 8.22684 52.3086 9.25747 52.3119C10.3095 52.3152 11.1872 51.4291 11.1593 50.3888C11.1313 49.3536 10.2799 48.532 9.24432 48.542ZM54.0628 6.4597C55.0918 6.45473 55.9416 5.60334 55.9449 4.57804C55.9482 3.5312 55.0671 2.67153 54.0119 2.68975C52.9862 2.70632 52.1577 3.56598 52.1709 4.60123C52.184 5.63813 53.0272 6.46632 54.0645 6.4597H54.0628ZM9.23282 6.4597C10.2651 6.47295 11.1215 5.64972 11.1494 4.61779C11.179 3.59911 10.3374 2.7146 9.31829 2.69141C8.2515 2.66656 7.38524 3.50304 7.38031 4.56479C7.37538 5.60831 8.19726 6.4481 9.23282 6.46136V6.4597ZM54.0299 48.5403C52.9944 48.5469 52.1659 49.3851 52.1676 50.4269C52.1676 51.4655 53.0009 52.3053 54.0349 52.3103C55.0902 52.3152 55.9613 51.4373 55.9367 50.3922C55.9137 49.3569 55.0655 48.5337 54.0299 48.5403ZM58.976 29.1175C60.0115 29.1092 60.8482 28.2528 60.8367 27.2093C60.8252 26.1658 59.977 25.3293 58.9382 25.3409C57.8977 25.3508 57.0742 26.1989 57.0824 27.2474C57.0906 28.2926 57.9355 29.1258 58.976 29.1175ZM5.92066 27.2408C5.92559 26.1923 5.09879 25.3475 4.05829 25.3409C3.01944 25.3343 2.17291 26.1724 2.16634 27.2176C2.15976 28.2611 2.99643 29.1125 4.03364 29.1175C5.07413 29.1224 5.91573 28.286 5.92066 27.2408Z" fill="white"/>
<path d="M30.4176 28.5824C27.4966 27.5936 26.7175 24.781 27.6133 22.7105C28.3777 20.9448 30.2121 19.9261 32.1123 20.1994C33.9138 20.4578 35.4031 21.9734 35.6644 23.8137C35.9324 25.7102 34.9116 27.6018 33.1478 28.324C32.6777 28.5162 32.5479 28.7381 32.5627 29.2168C32.6005 30.4127 32.589 31.6103 32.589 32.8062C32.589 33.6377 32.2043 34.1164 31.5419 34.1396C30.8614 34.1628 30.4258 33.6609 30.4192 32.8145C30.411 31.4132 30.4176 30.0119 30.4176 28.5824ZM31.4794 26.5152C32.6103 26.5152 33.5456 25.581 33.5571 24.4381C33.5686 23.3085 32.6317 22.3378 31.5107 22.3179C30.3699 22.2964 29.4017 23.2737 29.41 24.4398C29.4182 25.591 30.3403 26.5152 31.4794 26.5152Z" fill="white"/>
</g>
<defs>
<clipPath id="clip0_2724_67331">
<rect width="63" height="54" fill="white" transform="translate(0 0.5)"/>
</clipPath>
</defs>
</svg>
