<svg width="87" height="53" viewBox="0 0 87 53" fill="none" xmlns="http://www.w3.org/2000/svg">
<g clip-path="url(#clip0_1571_28919)">
<path d="M0.504537 36.5505C0.533569 36.8218 0.544735 37.0975 0.593867 37.3645C2.24424 46.3966 9.65195 52.477 19.0272 52.4814C36.0691 52.4858 53.1133 52.4814 70.1553 52.4814C71.1312 52.4814 72.1027 52.4223 73.0719 52.2823C79.6868 51.3283 85.3928 45.4557 85.9444 39.0186C85.8797 38.6663 85.8596 38.3184 86.0829 38.0056V36.6927C85.8596 36.3645 85.7769 36.0363 86.0829 35.7081V35.3799C86.0337 35.3231 85.9511 35.2727 85.9399 35.2115C84.8725 28.7831 81.163 24.5602 74.8719 22.5145C74.3628 22.3482 74.327 22.1403 74.4119 21.7049C74.8965 19.2587 74.8987 16.8016 74.2466 14.3926C72.2211 6.91833 67.3258 2.18567 59.5764 0.877245C51.8962 -0.420243 45.6989 2.39353 41.219 8.68406C40.9533 9.05602 40.7791 9.16542 40.2989 8.99913C33.0431 6.5048 25.5393 9.55707 22.2788 16.3311C22.0465 16.8125 21.7942 16.8781 21.3252 16.8081C12.2693 15.4384 3.4636 21.066 1.03605 29.7743C0.776994 30.7042 0.582701 31.6538 0.359375 32.5924V33.577C0.629599 34.124 0.613966 34.671 0.359375 35.218V35.7103C0.625132 35.9532 0.553668 36.2551 0.504537 36.5505ZM15.9989 20.112C18.1473 19.7685 20.2733 19.8385 22.3882 20.3264C23.7014 20.6306 24.3758 20.2521 24.7979 18.9918C26.9753 12.4934 34.2178 9.53519 40.424 12.6115C41.8108 13.2986 42.5344 13.0688 43.2647 11.7079C46.1902 6.25974 52.3071 3.10245 58.3458 3.92514C64.8379 4.8091 69.8739 9.41048 71.1268 15.6551C71.5913 17.9678 71.464 20.2761 70.7895 22.5473C70.2446 24.3786 70.6689 25.035 72.6119 25.3545C78.2508 26.2822 82.6012 31.2008 82.7263 36.7868C82.8782 43.6769 77.4625 49.1644 70.4211 49.1906C62.4126 49.2213 54.4064 49.1972 46.3979 49.1972C45.728 49.1972 45.058 49.1972 44.388 49.1972C35.8503 49.1972 27.3125 49.2082 18.7748 49.1928C11.452 49.1797 5.54499 44.4974 3.96385 37.4892C2.17948 29.5708 7.83408 21.4095 15.9944 20.1076L15.9989 20.112Z" fill="#9B0077"/>
</g>
<defs>
<clipPath id="clip0_1571_28919">
<rect width="85.7235" height="51.917" fill="white" transform="translate(0.359375 0.566742)"/>
</clipPath>
</defs>
</svg>
