<svg width="163" height="31" viewBox="0 0 163 31" fill="none" xmlns="http://www.w3.org/2000/svg">
<g clip-path="url(#clip0_1766_37705)">
<path d="M10.4655 13.0367C11.2305 13.017 12.4744 12.6756 12.847 11.0316L12.937 10.6274H5.25975V0H2.05206L2.06826 10.64L0 10.6292L0.00540015 13.1122L2.06646 13.1176V24.9757C2.06646 26.785 2.49667 28.2924 3.4255 29.3489C4.35792 30.4089 5.77276 30.9856 7.60701 30.9856H7.61782C9.00745 30.9766 10.5393 30.5814 11.4447 29.9507L11.5311 29.8932L11.5653 29.798L12.5212 26.767L11.7597 27.2863C10.8669 27.9043 9.55467 28.2924 8.30363 28.2924C6.82939 28.2439 5.50996 27.8899 5.24175 25.0099V13.1284L8.21723 13.123C9.11366 13.123 9.26846 13.1176 10.4619 13.0367H10.4655Z" fill="#424242"/>
<path d="M31.9275 17.4619C31.8087 13.8542 29.4795 10.1171 24.4645 10.1243C21.4134 10.1207 18.9942 11.3802 17.3723 13.3619C15.7415 15.3436 14.9062 18.0423 14.9062 20.9547C14.9062 23.8671 15.7253 26.4813 17.3687 28.2421C19.0104 30.0046 21.4584 30.9856 24.6013 30.9802C26.7938 30.9766 28.7882 30.4933 29.7963 29.7567L29.8629 29.701L29.9025 29.6273L31.0977 26.537L30.3129 27.0113C29.4255 27.5467 27.2078 28.2546 25.2853 28.2438C20.7348 28.2223 18.1553 25.2811 18.1265 20.5936V20.5594C18.8412 20.5792 19.707 20.5864 20.6394 20.5864C25.2043 20.5864 31.5621 20.4031 31.5621 20.4031L31.8051 20.3959L31.8627 20.1624C31.9311 19.8228 31.9329 19.0071 31.9329 18.3064C31.9329 17.9075 31.9329 17.5697 31.9329 17.4637L31.9275 17.4619ZM27.7262 18.0818C27.3374 18.0818 25.1485 18.1213 22.4071 18.1213C21.1488 18.1213 19.7736 18.1087 18.4019 18.089C18.9528 14.5172 21.3684 12.4618 23.8705 12.4618H23.9137C26.9972 12.4833 28.6388 14.4291 28.6586 17.2463C28.6586 17.3146 28.6586 17.3811 28.655 17.4512C28.6532 17.8159 28.3922 18.0279 27.7262 18.0818Z" fill="#424242"/>
<path d="M46.2147 12.7727C48.0202 12.7655 49.0138 12.929 49.426 13.0763C49.7644 13.159 50.0741 13.2003 50.3657 13.2003C51.3017 13.1931 52.1387 12.8373 52.4357 12.1348L52.5023 11.9678L52.3853 11.8294C51.8327 11.2113 49.7266 10.1387 46.627 10.1226C40.4456 10.1369 35.5692 14.5496 35.5566 20.6853C35.553 25.1357 37.2577 27.7588 39.4376 29.2159C41.621 30.673 44.2167 30.9803 46.0419 30.9803C48.1012 30.9767 49.9499 30.4467 50.8931 29.8699L50.9831 29.8214L51.0191 29.728L52.1405 27.0761L51.4223 27.3887C50.2559 27.8954 48.2146 28.2906 46.8142 28.2906C43.6839 28.2529 38.9443 26.9826 38.9281 20.5523C38.9353 16.1702 41.8514 12.7763 46.2165 12.7727H46.2147Z" fill="#424242"/>
<path d="M72.4915 13.1032C71.5195 11.3802 69.7069 10.1117 66.7314 10.1225C63.9629 10.1279 61.6138 11.6228 59.8696 13.0655V0H56.6709V30.7125L59.911 30.7197L59.9002 15.7138C60.775 14.7292 63.2339 12.8876 65.7306 12.9056C68.4198 12.9487 70.5529 14.1453 70.5997 19.1401C70.5997 22.9832 70.6177 30.7215 70.6177 30.7215L73.6904 30.7143C73.6904 30.7143 73.694 28.1127 73.694 24.9775V18.8329C73.694 16.9769 73.4816 14.828 72.4934 13.105L72.4915 13.1032Z" fill="#424242"/>
<path d="M102.919 10.6454C101.45 19.8408 99.2688 24.5104 99.2472 24.5535L98.9286 25.2254L98.6658 24.5391C97.0584 20.3403 95.2457 12.3145 94.9145 10.7981H90.4234C90.0922 12.3199 88.3155 20.3403 86.7369 24.5319L86.4561 25.2614L86.1483 24.5427C86.1267 24.4978 84.1016 19.7653 82.487 10.6436H77.3496C79.1767 19.7384 84.0548 29.3129 84.7676 30.6946L89.0103 30.6838C90.4702 26.5622 92.6842 16.0713 92.6842 16.0713C92.6842 16.0713 94.8695 26.5622 96.3239 30.6838L100.63 30.6946C101.344 29.3129 106.217 19.7402 108.057 10.6436H102.921L102.919 10.6454Z" fill="#424242"/>
<path d="M119.273 10.1172C116.236 10.1172 113.243 11.4952 111.475 12.7529L113.225 14.9125C113.363 14.8425 113.533 14.749 113.702 14.6466C114.971 13.9423 116.882 12.8715 118.106 12.8715C120.564 12.8715 121.678 14.9449 121.678 16.8709V18.0028L121.408 18.0424C120.754 18.1322 119.534 18.355 118.749 18.5275C114.865 19.4204 110.24 21.3321 110.24 25.3674C110.24 28.6841 113.318 31.0001 117.736 31.0001C122.398 31.0001 125.721 29.5447 126.477 29.1872L126.513 16.9679C126.509 12.9362 123.535 10.119 119.273 10.119V10.1172ZM121.433 20.7985V24.9848C121.433 25.7789 121.284 26.3305 120.983 26.6808C120.367 27.3743 119.539 27.5019 118.225 27.5019C116.744 27.5019 115.14 26.5964 115.14 25.0854C115.14 23.4863 117.264 21.0464 121.26 20.6476L121.435 20.6332V20.8003L121.433 20.7985Z" fill="#424242"/>
<path d="M140.037 10.1566C135.169 10.1566 132.174 14.0608 131.738 14.6663V30.7233H136.915L136.919 15.4065V15.27L137.021 15.1748C137.995 14.2135 139.241 13.7266 140.733 13.7266C141.745 13.7266 142.591 13.962 142.987 14.0878L144.843 11.3316C143.862 10.7118 141.451 10.1584 140.037 10.1584V10.1566Z" fill="#424242"/>
<path d="M162.993 17.7944C162.95 14.2693 160.863 10.1549 155.11 10.1549C148.96 10.1549 145.637 15.545 145.637 20.6098C145.637 27.1138 149.534 30.9965 156.057 30.9965C159.29 30.8869 160.741 30.3245 161.132 30.1412C161.6 27.9403 161.859 26.7976 162.032 26.2011C161.002 26.5982 159.011 27.1551 157.069 27.1551C154.282 27.1551 150.916 25.6531 150.603 21.4057L150.581 21.0518L150.938 21.068C151.112 21.0734 151.334 21.0823 151.588 21.0823C154.498 21.0823 161.688 20.6889 162.959 20.5469C163.011 20.0654 163 18.7574 162.996 18.2238C162.993 18.0495 162.993 17.9022 162.993 17.7962V17.7944ZM157.357 18.2669C156.734 18.3172 155.418 18.355 154.081 18.355C152.824 18.355 151.732 18.3172 151.001 18.2669L150.85 18.2544L150.855 18.1052C150.999 14.6592 152.931 13.0925 154.653 13.0925H154.698C155.661 13.0925 156.446 13.3979 157.038 14.0034C157.744 14.7257 158.124 15.845 158.091 17.1566C158.091 17.7836 157.762 18.2669 157.355 18.2669H157.357Z" fill="#424242"/>
</g>
<defs>
<clipPath id="clip0_1766_37705">
<rect width="163" height="31" fill="white"/>
</clipPath>
</defs>
</svg>
