<svg width="20" height="20" viewBox="0 0 20 20" fill="none" xmlns="http://www.w3.org/2000/svg">
<path d="M2.34043 16.4454L3.95745 14.7752L5.23404 16.06L3.61702 17.7302L2.34043 16.4454ZM9.10638 20V17.3019H10.8936V20H9.10638ZM6.12766 6.1242C7.20567 5.03926 8.49645 4.49679 10 4.49679C11.5035 4.49679 12.7801 5.03926 13.8298 6.1242C14.9078 7.18059 15.4468 8.46538 15.4468 9.97859C15.4468 11.4918 14.9078 12.7909 13.8298 13.8758C12.7801 14.9322 11.5035 15.4604 10 15.4604C8.49645 15.4604 7.20567 14.9322 6.12766 13.8758C5.07801 12.7909 4.55319 11.4918 4.55319 9.97859C4.55319 8.46538 5.07801 7.18059 6.12766 6.1242ZM17.2766 9.07923H20V10.9208H17.2766V9.07923ZM14.766 16.06L16.0426 14.818L17.6596 16.4454L16.383 17.7302L14.766 16.06ZM17.6596 3.5546L16.0426 5.18201L14.766 3.89722L16.383 2.26981L17.6596 3.5546ZM10.8936 0V2.69807H9.10638V0H10.8936ZM2.7234 9.07923V10.9208H0V9.07923H2.7234ZM5.23404 3.89722L3.95745 5.18201L2.34043 3.5546L3.61702 2.26981L5.23404 3.89722Z" fill="#9B0077"/>
</svg>
